<?xml version="1.0" encoding="utf-8"?>
<!-- Generator: Adobe Illustrator 15.1.0, SVG Export Plug-In . SVG Version: 6.00 Build 0)  -->
<!DOCTYPE svg PUBLIC "-//W3C//DTD SVG 1.1//EN" "http://www.w3.org/Graphics/SVG/1.1/DTD/svg11.dtd">
<svg version="1.1" xmlns="http://www.w3.org/2000/svg" xmlns:xlink="http://www.w3.org/1999/xlink" x="0px" y="0px" width="450px"
	 height="500px" viewBox="0 0 450 500" enable-background="new 0 0 450 500" xml:space="preserve">
<g id="레이어_2_1_">
	<rect x="0" fill="#FFFFFF" width="450" height="500"/>
</g>
<g id="레이어_1">
	<g id="레이어_2">
		<g>
			
				<rect x="14.71" y="235.417" fill="#FFFFFF" stroke="#000000" stroke-width="2" stroke-miterlimit="10" width="425.29" height="257.583"/>
			
				<rect x="26.097" y="248.348" fill="#FFFFFF" stroke="#000000" stroke-width="2" stroke-miterlimit="10" width="399.421" height="232.749"/>
		</g>
		<g>
			<path d="M193.528,321.146c0,1.83-0.623,3.369-1.866,4.613c-1.245,1.242-2.783,1.865-4.614,1.865
				c-3.961,0-7.284-1.314-9.967-3.953c-2.684-2.635-4.026-5.917-4.026-9.843v-7.22c-0.917,0.166-1.834,0.244-2.75,0.244
				c-0.948,0-1.85-0.178-2.7-0.537v4.025c0,1.865-0.622,3.411-1.865,4.639c-1.245,1.229-2.799,1.842-4.664,1.842
				c-1.867,0-3.413-0.613-4.64-1.842c-1.228-1.228-1.842-2.772-1.842-4.639v-24.158c0-4.449,1.504-8.182,4.518-11.193
				c3.011-3.012,6.743-4.516,11.194-4.516c4.452,0,8.19,1.513,11.22,4.541c3.026,3.026,4.541,6.75,4.541,11.168v22.734
				c0,0.521,0.246,0.786,0.736,0.786c1.932,0,3.535,0.604,4.813,1.813c1.275,1.211,1.915,2.784,1.915,4.717
				c0,0.848-0.147,1.652-0.441,2.404C193.38,319.427,193.528,320.261,193.528,321.146z M190.336,316.234
				c0-0.982-0.303-1.785-0.908-2.405c-0.605-0.624-1.398-0.937-2.38-0.937h-0.246c-1.113,0-2.046-0.384-2.799-1.15
				c-0.754-0.77-1.129-1.713-1.129-2.823v-22.733c0-3.566-1.203-6.545-3.609-8.937c-2.404-2.388-5.393-3.584-8.959-3.584
				c-3.568,0-6.546,1.196-8.935,3.584c-2.39,2.392-3.585,5.369-3.585,8.937v19.248c0,0.982,0.302,1.773,0.909,2.381
				c0.604,0.604,1.399,0.907,2.382,0.907s1.784-0.304,2.406-0.907c0.621-0.606,0.933-1.399,0.933-2.381v-19.248
				c0-1.637,0.572-3.025,1.719-4.174c1.146-1.145,2.535-1.718,4.174-1.718c1.637,0,3.035,0.573,4.196,1.718
				c1.162,1.147,1.744,2.537,1.744,4.174c0,1.638-0.582,3.036-1.744,4.196c-1.161,1.163-2.562,1.743-4.196,1.743
				c-0.982,0-1.777,0.305-2.382,0.908c-0.605,0.605-0.908,1.4-0.908,2.381c0,0.982,0.302,1.786,0.908,2.406
				c0.604,0.623,1.399,0.934,2.382,0.934c2.095,0,4.074-0.492,5.94-1.472v11.634c0,3.011,1.007,5.533,3.02,7.561
				c2.015,2.029,4.525,3.047,7.537,3.047h0.246c0.948,0,1.733-0.313,2.356-0.934C190.026,317.969,190.336,317.184,190.336,316.234z
				 M171.532,288.643c-0.394-0.162-0.801-0.246-1.229-0.246c-0.784,0-1.439,0.279-1.964,0.836
				C169.093,289.198,170.156,289.002,171.532,288.643z"/>
			<path d="M216.013,301.113c0,4.385-1.529,8.1-4.591,11.146c-3.062,3.042-6.784,4.563-11.169,4.563
				c-4.419,0-8.143-1.512-11.17-4.54s-4.541-6.751-4.541-11.169v-24.157c0-1.833,0.621-3.373,1.865-4.617
				c1.243-1.244,2.781-1.864,4.615-1.864c1.865,0,3.421,0.614,4.665,1.842c1.242,1.229,1.864,2.772,1.864,4.64v4.024
				c0.852-0.36,1.75-0.539,2.701-0.539c4.451,0,8.191,1.514,11.218,4.539c3.027,3.03,4.542,6.771,4.542,11.221
				c0,0.852-0.065,1.669-0.195,2.455C215.948,299.477,216.013,300.295,216.013,301.113z M212.823,296.203
				c0-3.567-1.204-6.555-3.609-8.962c-2.405-2.404-5.393-3.607-8.96-3.607c-0.981,0-1.775,0.313-2.382,0.933
				c-0.606,0.621-0.908,1.425-0.908,2.406c0,0.983,0.302,1.775,0.908,2.381c0.605,0.606,1.4,0.908,2.382,0.908
				c1.636,0,3.035,0.581,4.198,1.743c1.161,1.161,1.743,2.562,1.743,4.198s-0.582,3.027-1.743,4.172
				c-1.163,1.148-2.563,1.718-4.198,1.718s-3.027-0.573-4.173-1.718c-1.146-1.146-1.718-2.535-1.718-4.172v-19.246
				c0-0.984-0.313-1.775-0.935-2.383c-0.622-0.604-1.423-0.907-2.405-0.907c-0.948,0-1.736,0.312-2.356,0.933
				c-0.622,0.623-0.933,1.407-0.933,2.357v19.246c0,3.536,1.204,6.506,3.608,8.911c2.406,2.407,5.376,3.61,8.911,3.61
				s6.515-1.203,8.938-3.61C211.611,302.707,212.823,299.736,212.823,296.203z M201.481,298.658
				c-0.36-0.163-0.884-0.279-1.572-0.346c-0.785-0.064-1.326-0.146-1.62-0.244c0.524,0.556,1.178,0.837,1.964,0.837
				C200.679,298.902,201.087,298.82,201.481,298.658z"/>
			<path d="M245.718,301.16c0,4.42-1.521,8.15-4.565,11.195c-3.045,3.043-6.775,4.564-11.194,4.564
				c-4.451,0-8.183-1.513-11.194-4.54c-3.012-3.028-4.517-6.769-4.517-11.221c0-0.816,0.066-1.636,0.196-2.455
				c-0.13-0.815-0.196-1.636-0.196-2.454c0-4.449,1.505-8.182,4.517-11.193s6.743-4.517,11.194-4.517
				c4.452,0,8.19,1.505,11.219,4.517c3.027,3.012,4.542,6.744,4.542,11.193c0,0.852-0.064,1.688-0.196,2.505
				C245.651,299.541,245.718,300.344,245.718,301.16z M242.527,296.251c0-3.567-1.202-6.545-3.609-8.937
				c-2.405-2.389-5.394-3.582-8.96-3.582c-3.568,0-6.545,1.193-8.936,3.582c-2.391,2.392-3.584,5.369-3.584,8.937
				s1.193,6.554,3.584,8.962c2.389,2.404,5.367,3.607,8.936,3.607c3.566,0,6.555-1.203,8.96-3.607
				C241.324,302.805,242.527,299.818,242.527,296.251z M235.898,296.251c0,1.638-0.581,3.037-1.742,4.197
				c-1.162,1.163-2.563,1.743-4.198,1.743s-3.028-0.58-4.173-1.743c-1.146-1.16-1.719-2.56-1.719-4.197
				c0-1.635,0.572-3.026,1.719-4.174c1.145-1.144,2.536-1.718,4.173-1.718c1.638,0,3.036,0.574,4.198,1.718
				C235.317,293.225,235.898,294.616,235.898,296.251z"/>
			<path d="M271.396,303.025c0,3.865-1.325,7.13-3.978,9.797c-2.651,2.667-5.908,4-9.77,4c-3.896,0-7.168-1.325-9.819-3.975
				c-2.651-2.652-3.978-5.925-3.978-9.82v-15.908c0-1.864,0.613-3.42,1.841-4.664c1.229-1.243,2.774-1.865,4.641-1.865
				c1.867,0,3.421,0.622,4.664,1.865c1.244,1.244,1.867,2.8,1.867,4.664v10.999c0,0.522,0.261,0.786,0.784,0.786
				c0.49,0,0.735-0.264,0.735-0.786v-11.097c0-1.865,0.622-3.412,1.865-4.641c1.244-1.227,2.799-1.841,4.667-1.841
				c1.864,0,3.411,0.614,4.638,1.841c1.229,1.229,1.842,2.773,1.842,4.641V303.025L271.396,303.025z M268.204,298.116v-11.095
				c0-0.982-0.304-1.774-0.909-2.381c-0.604-0.604-1.398-0.908-2.38-0.908c-0.98,0-1.785,0.304-2.406,0.908
				c-0.62,0.605-0.933,1.398-0.933,2.381v11.095c0,1.114-0.377,2.057-1.129,2.823c-0.754,0.771-1.688,1.152-2.799,1.152
				c-1.114,0-2.056-0.383-2.823-1.152c-0.771-0.768-1.154-1.709-1.154-2.823v-10.997c0-0.982-0.312-1.783-0.933-2.405
				c-0.622-0.623-1.424-0.935-2.405-0.935s-1.776,0.312-2.382,0.935c-0.605,0.622-0.908,1.423-0.908,2.405v10.997
				c0,3.044,1.006,5.573,3.021,7.588c2.013,2.014,4.543,3.021,7.586,3.021c3.012,0,5.522-1.015,7.533-3.045
				C267.198,303.648,268.204,301.129,268.204,298.116z"/>
			<path d="M297.368,303.025c0,3.865-1.325,7.13-3.978,9.797c-2.651,2.667-5.91,4-9.77,4c-3.897,0-7.172-1.325-9.82-3.975
				c-2.651-2.652-3.978-5.925-3.978-9.82v-21.801c0-1.865,0.614-3.418,1.842-4.662s2.773-1.869,4.64-1.869
				c1.734,0,3.214,0.559,4.441,1.669c1.228,1.114,1.923,2.536,2.088,4.271h8.053c1.866,0,3.411,0.614,4.641,1.841
				c1.227,1.229,1.841,2.773,1.841,4.641c0,0.916-0.131,1.767-0.393,2.554c0.262,0.752,0.393,1.538,0.393,2.354
				c0,1.082-0.182,2.064-0.54,2.947c0.358,0.852,0.54,1.75,0.54,2.699v0.441c0,0.914-0.082,1.8-0.245,2.65
				c0.163,0.59,0.245,1.195,0.245,1.817V303.025L297.368,303.025z M294.176,298.116v-0.439c0-0.948-0.311-1.735-0.933-2.354
				c-0.622-0.624-1.408-0.937-2.356-0.937c-0.951,0-1.743,0.313-2.382,0.937c-0.638,0.619-0.957,1.402-0.957,2.354v0.439
				c0,1.114-0.376,2.057-1.129,2.823c-0.752,0.771-1.688,1.152-2.797,1.152c-1.114,0-2.058-0.383-2.824-1.152
				c-0.77-0.768-1.154-1.709-1.154-2.823v-7.658h11.244c2.192,0,3.289-1.11,3.289-3.339c0-0.982-0.303-1.775-0.907-2.381
				c-0.605-0.604-1.398-0.908-2.381-0.908h-11.244v-2.602c0-0.982-0.312-1.783-0.932-2.407c-0.623-0.62-1.424-0.933-2.406-0.933
				s-1.775,0.313-2.381,0.933c-0.604,0.624-0.907,1.425-0.907,2.407v16.89c0,3.044,1.006,5.571,3.019,7.588
				c2.015,2.012,4.541,3.019,7.588,3.019c3.011,0,5.522-1.015,7.535-3.045C293.17,303.648,294.176,301.129,294.176,298.116z
				 M284.257,298.561h-1.323c0.162,0.229,0.393,0.342,0.688,0.342C283.914,298.902,284.129,298.787,284.257,298.561z"/>
			<path d="M183.365,380.063c0,1.865-0.632,3.41-1.89,4.638c-1.262,1.228-2.809,1.842-4.642,1.842
				c-3.961,0-7.299-1.308-10.016-3.929c-2.718-2.619-4.076-5.906-4.076-9.866V360.13h-7.069v9.129c0,1.868-0.622,3.413-1.864,4.642
				c-1.246,1.228-2.8,1.842-4.666,1.842c-1.865,0-3.411-0.614-4.64-1.842c-1.228-1.229-1.841-2.772-1.841-4.642v-33.383
				c0-1.868,0.613-3.414,1.841-4.642c1.229-1.229,2.774-1.842,4.64-1.842c1.866,0,3.421,0.613,4.666,1.842
				c1.242,1.228,1.864,2.772,1.864,4.642v6.331h7.069v-6.331c0-1.868,0.614-3.414,1.842-4.642c1.229-1.229,2.775-1.842,4.64-1.842
				c1.867,0,3.421,0.613,4.665,1.842c1.244,1.228,1.866,2.772,1.866,4.642v31.962c0,0.521,0.261,0.785,0.785,0.785
				c1.964,0,3.591,0.604,4.886,1.814c1.292,1.211,1.939,2.783,1.939,4.717c0,0.882-0.147,1.699-0.442,2.453
				C183.217,378.357,183.365,379.18,183.365,380.063z M180.172,375.152c0-0.982-0.311-1.785-0.932-2.406
				c-0.622-0.623-1.424-0.936-2.406-0.936h-0.294c-1.114,0-2.055-0.385-2.823-1.149c-0.768-0.771-1.153-1.716-1.153-2.824v-31.962
				c0-0.982-0.311-1.777-0.933-2.384c-0.622-0.604-1.424-0.909-2.406-0.909c-0.98,0-1.775,0.307-2.38,0.909
				c-0.605,0.606-0.908,1.399-0.908,2.384v9.523h-13.453v-9.523c0-0.982-0.313-1.777-0.935-2.384
				c-0.622-0.604-1.423-0.909-2.405-0.909c-0.981,0-1.775,0.307-2.381,0.909c-0.605,0.606-0.907,1.399-0.907,2.384v28.477
				c0,0.981,0.302,1.773,0.907,2.381c0.605,0.604,1.399,0.908,2.381,0.908c0.982,0,1.783-0.306,2.405-0.908
				c0.622-0.606,0.935-1.4,0.935-2.381v-12.326h13.453v15.813c0,3.012,1.015,5.53,3.044,7.561c2.028,2.029,4.55,3.043,7.561,3.043
				h0.294c0.982,0,1.784-0.303,2.406-0.909C179.862,376.928,180.172,376.133,180.172,375.152z"/>
			<path d="M205.655,369.26c0,1.868-0.63,3.411-1.891,4.641c-1.26,1.227-2.807,1.841-4.639,1.841c-1.834,0-3.354-0.587-4.566-1.767
				c-1.244,1.243-2.798,1.866-4.664,1.866c-4.451,0-8.184-1.513-11.195-4.542c-3.011-3.027-4.517-6.767-4.517-11.219
				c0-0.816,0.064-1.637,0.196-2.455c-0.132-0.816-0.196-1.637-0.196-2.455c0-4.451,1.506-8.182,4.517-11.193
				c3.012-3.013,6.743-4.518,11.195-4.518c4.451,0,8.189,1.514,11.22,4.54c3.026,3.028,4.541,6.751,4.541,11.171L205.655,369.26
				L205.655,369.26z M202.463,364.352v-9.182c0-3.566-1.203-6.546-3.608-8.938c-2.406-2.387-5.394-3.582-8.96-3.582
				c-3.567,0-6.547,1.195-8.936,3.582c-2.39,2.392-3.585,5.371-3.585,8.938c0,3.568,1.195,6.557,3.585,8.96
				c2.388,2.407,5.368,3.61,8.936,3.61c0.98,0,1.782-0.313,2.405-0.936c0.621-0.621,0.935-1.424,0.935-2.406
				c0-0.981-0.313-1.774-0.935-2.379c-0.623-0.606-1.424-0.908-2.405-0.908c-1.637,0-3.028-0.584-4.173-1.743
				c-1.146-1.162-1.719-2.56-1.719-4.198c0-1.637,0.572-3.025,1.719-4.173c1.146-1.146,2.535-1.718,4.173-1.718
				c1.637,0,3.035,0.574,4.197,1.718c1.162,1.146,1.743,2.536,1.743,4.173v9.182c0,0.981,0.302,1.775,0.908,2.381
				c0.604,0.605,1.4,0.908,2.382,0.908s1.783-0.303,2.405-0.908S202.463,365.333,202.463,364.352z M191.908,358.214
				c-0.557-0.557-1.229-0.836-2.014-0.836c-0.427,0-0.819,0.082-1.179,0.245c0.329,0.165,0.835,0.277,1.522,0.346
				C191.055,358.033,191.614,358.114,191.908,358.214z"/>
			<path d="M235.556,360.029c0,4.387-1.53,8.102-4.591,11.146c-3.062,3.042-6.784,4.564-11.169,4.564
				c-4.419,0-8.143-1.514-11.169-4.541c-3.03-3.027-4.542-6.75-4.542-11.17v-24.154c0-1.835,0.621-3.373,1.865-4.618
				c1.245-1.243,2.782-1.864,4.616-1.864c1.866,0,3.421,0.613,4.665,1.842c1.243,1.228,1.864,2.772,1.864,4.639v4.023
				c0.853-0.357,1.75-0.539,2.701-0.539c4.451,0,8.19,1.514,11.219,4.541c3.026,3.03,4.542,6.771,4.542,11.221
				c0,0.851-0.065,1.669-0.196,2.453C235.49,358.393,235.556,359.213,235.556,360.029z M232.365,355.121
				c0-3.568-1.203-6.557-3.609-8.962c-2.404-2.404-5.393-3.608-8.959-3.608c-0.981,0-1.776,0.313-2.383,0.934
				c-0.604,0.623-0.906,1.424-0.906,2.406c0,0.983,0.303,1.774,0.906,2.381c0.605,0.606,1.401,0.908,2.383,0.908
				c1.637,0,3.035,0.581,4.197,1.743c1.162,1.16,1.743,2.562,1.743,4.198s-0.581,3.027-1.743,4.171
				c-1.163,1.147-2.561,1.719-4.197,1.719s-3.027-0.573-4.174-1.719c-1.146-1.146-1.718-2.534-1.718-4.171v-19.246
				c0-0.982-0.313-1.777-0.935-2.384c-0.623-0.604-1.423-0.909-2.404-0.909c-0.949,0-1.735,0.314-2.357,0.936
				c-0.623,0.621-0.932,1.407-0.932,2.357v19.246c0,3.536,1.203,6.506,3.607,8.91c2.407,2.406,5.376,3.611,8.912,3.611
				c3.535,0,6.514-1.205,8.937-3.611C231.153,361.625,232.365,358.654,232.365,355.121z M221.022,357.576
				c-0.359-0.163-0.885-0.278-1.571-0.346c-0.786-0.064-1.326-0.146-1.621-0.246c0.523,0.558,1.179,0.838,1.964,0.838
				C220.22,357.818,220.63,357.739,221.022,357.576z"/>
			<path d="M268.894,380.063c0,1.865-0.634,3.41-1.892,4.638c-1.26,1.228-2.808,1.842-4.641,1.842c-3.96,0-7.282-1.308-9.966-3.929
				c-2.686-2.619-4.025-5.906-4.025-9.866v-2.31l-0.05-12.322c0-0.491-0.246-0.738-0.737-0.738c-0.522,0-0.784,0.247-0.784,0.738
				v11.144c0,1.868-0.623,3.413-1.866,4.642c-1.244,1.228-2.798,1.842-4.664,1.842c-1.865,0-3.411-0.614-4.64-1.842
				c-1.228-1.229-1.842-2.772-1.842-4.642v-16.053c0-3.862,1.334-7.12,4.002-9.771c2.667-2.649,5.932-3.976,9.794-3.976
				s7.128,1.325,9.796,3.976c2.667,2.65,4.001,5.908,4.001,9.771v14.632c0,0.521,0.264,0.785,0.785,0.785
				c1.934,0,3.536,0.613,4.813,1.841c1.277,1.229,1.917,2.791,1.917,4.69c0,0.882-0.148,1.699-0.441,2.453
				C268.745,378.357,268.894,379.18,268.894,380.063z M265.701,375.152c0-0.982-0.313-1.785-0.933-2.406
				c-0.624-0.623-1.426-0.936-2.407-0.936h-0.196c-1.113,0-2.054-0.385-2.823-1.149c-0.769-0.771-1.151-1.716-1.151-2.824v-14.632
				c0-3.012-1.017-5.523-3.045-7.538c-2.031-2.015-4.552-3.021-7.563-3.021c-3.012,0-5.532,1.006-7.562,3.021
				s-3.043,4.526-3.043,7.538v11.143c0,0.985,0.302,1.777,0.907,2.385c0.604,0.604,1.398,0.908,2.381,0.908
				c0.981,0,1.783-0.306,2.405-0.908c0.621-0.606,0.934-1.4,0.934-2.385v-11.143c0-1.112,0.385-2.045,1.153-2.798
				c0.77-0.753,1.71-1.13,2.823-1.13c1.08,0,2.004,0.384,2.773,1.15c0.769,0.771,1.153,1.695,1.153,2.776l0.049,14.632
				c0,3.042,1.008,5.57,3.021,7.584c2.013,2.016,4.542,3.021,7.586,3.021h0.196c0.981,0,1.782-0.307,2.406-0.908
				C265.39,376.928,265.701,376.133,265.701,375.152z"/>
			<path d="M273.409,341.127c0,1.244-0.277,2.391-0.834,3.438c0.063,0.428,0.099,0.885,0.099,1.373v23.321
				c0,1.868-0.632,3.411-1.892,4.64c-1.26,1.228-2.809,1.842-4.639,1.842c-1.868,0-3.412-0.614-4.642-1.842
				c-1.227-1.229-1.841-2.772-1.841-4.64v-23.321c0-0.457,0.032-0.898,0.099-1.324c-0.589-1.082-0.885-2.242-0.885-3.486
				c0-0.852,0.148-1.668,0.441-2.455c-0.293-0.786-0.441-1.604-0.441-2.455c0-1.996,0.713-3.705,2.139-5.13
				c1.422-1.424,3.134-2.136,5.131-2.136c1.994,0,3.706,0.712,5.131,2.136c1.423,1.425,2.135,3.134,2.135,5.13
				c0,0.852-0.146,1.67-0.442,2.455C273.261,339.459,273.409,340.275,273.409,341.127z M270.219,336.217
				c0-1.111-0.402-2.068-1.202-2.871c-0.805-0.801-1.761-1.201-2.872-1.201c-1.113,0-2.073,0.4-2.873,1.201
				c-0.804,0.803-1.203,1.76-1.203,2.871c0,1.113,0.399,2.072,1.203,2.873c0.8,0.803,1.76,1.203,2.873,1.203
				c1.111,0,2.067-0.4,2.872-1.203C269.816,338.289,270.219,337.33,270.219,336.217z M269.481,364.352v-18.412
				c0-2.191-1.114-3.289-3.338-3.289c-0.983,0-1.776,0.302-2.383,0.908c-0.604,0.604-0.905,1.397-0.905,2.377v18.412
				c0,0.985,0.302,1.777,0.905,2.385c0.605,0.604,1.399,0.908,2.383,0.908c0.979,0,1.783-0.306,2.404-0.908
				C269.168,366.127,269.481,365.333,269.481,364.352z"/>
			<path d="M287.45,347.607c0,1.996-0.711,3.701-2.137,5.104c-1.423,1.407-3.133,2.113-5.131,2.113
				c-1.997,0-3.705-0.702-5.131-2.113c-1.424-1.407-2.136-3.108-2.136-5.104v-10.949c0-1.994,0.712-3.706,2.136-5.131
				c1.426-1.424,3.134-2.135,5.131-2.135c1.998,0,3.708,0.711,5.131,2.135c1.426,1.425,2.137,3.137,2.137,5.131V347.607z
				 M284.26,342.697v-6.039c0-1.112-0.403-2.068-1.204-2.871c-0.802-0.801-1.76-1.205-2.872-1.205c-1.11,0-2.07,0.404-2.872,1.205
				c-0.802,0.803-1.201,1.759-1.201,2.871v6.039c0,1.115,0.399,2.062,1.201,2.848c0.802,0.787,1.762,1.18,2.872,1.18
				c1.112,0,2.07-0.393,2.872-1.18C283.856,344.759,284.26,343.813,284.26,342.697z"/>
			<path d="M309.448,350.85c0,1.767-0.584,3.258-1.743,4.469c-1.163,1.211-2.629,1.882-4.396,2.014c0-0.031-0.032-0.1-0.098-0.196
				c-0.069-0.099-0.099-0.163-0.099-0.196c-0.034,0.818-0.051,1.852-0.051,3.096v0.933c0,2.455-0.181,4.337-0.54,5.646
				c-0.522,1.931-1.588,3.715-3.19,5.352c-2.488,2.489-5.517,3.732-9.083,3.732c-1.865,0-3.41-0.613-4.638-1.842
				c-1.229-1.228-1.843-2.773-1.843-4.639c0-0.852,0.146-1.669,0.44-2.455c-0.295-0.785-0.44-1.604-0.44-2.455
				c0-1.834,0.597-3.369,1.791-4.617c1.195-1.242,2.709-1.879,4.543-1.912v-0.59c0-0.359,0.017-0.735,0.047-1.129
				c-0.03-0.426-0.047-0.787-0.047-1.082v-2.699c0-3.602,1.235-6.635,3.706-9.107c2.473-2.472,5.508-3.706,9.108-3.706
				c1.865,0,3.42,0.614,4.663,1.841c1.244,1.229,1.868,2.773,1.868,4.637c0,0.888-0.148,1.705-0.442,2.455
				C309.298,349.146,309.448,349.964,309.448,350.85z M306.254,345.938c0-0.981-0.311-1.772-0.933-2.381
				c-0.622-0.604-1.425-0.906-2.406-0.906c-2.718,0-5.001,0.925-6.851,2.772c-1.849,1.851-2.772,4.134-2.772,6.849v2.701
				c0,0.231-0.019,0.899-0.049,2.014v0.983c0,0.851-0.287,1.562-0.859,2.134c-0.573,0.573-1.284,0.858-2.136,0.858
				c-0.982,0-1.775,0.312-2.38,0.935c-0.606,0.621-0.908,1.422-0.908,2.405c0,0.982,0.302,1.775,0.908,2.38
				c0.604,0.606,1.397,0.909,2.38,0.909c2.685,0,4.95-0.933,6.8-2.798c1.85-1.867,2.79-4.141,2.822-6.825l0.051-5.696
				c0-0.488,0.04-0.857,0.123-1.103c0.08-0.247,0.335-0.583,0.76-1.007c0.427-0.428,1.169-0.729,2.234-0.909
				c1.063-0.181,1.867-0.539,2.406-1.081C305.986,347.631,306.254,346.889,306.254,345.938z"/>
			<path d="M111.264,406.523c0,2.031-0.704,3.74-2.11,5.131c-1.408,1.394-3.127,2.089-5.156,2.089c-2.03,0-3.75-0.72-5.156-2.159
				l-0.049,0.047c-1.409,1.407-3.109,2.112-5.105,2.112c-1.997,0-3.706-0.705-5.131-2.112c-1.424-1.406-2.136-3.107-2.136-5.105
				v-10.948c0-1.995,0.712-3.707,2.136-5.13c1.425-1.426,3.135-2.137,5.131-2.137c2.029,0,3.747,0.722,5.154,2.16
				c1.406-1.438,3.125-2.16,5.156-2.16c2.028,0,3.748,0.703,5.156,2.11c1.406,1.407,2.11,3.127,2.11,5.155V406.523L111.264,406.523z
				 M97.762,401.615v-6.039c0-1.112-0.4-2.069-1.202-2.872c-0.802-0.802-1.761-1.204-2.873-1.204c-1.113,0-2.07,0.402-2.872,1.204
				c-0.804,0.803-1.203,1.76-1.203,2.872v6.039c0,1.115,0.399,2.062,1.203,2.848c0.802,0.786,1.759,1.18,2.872,1.18
				c1.111,0,2.071-0.394,2.873-1.18C97.363,403.677,97.762,402.73,97.762,401.615z M108.073,401.615v-6.039
				c0-1.146-0.393-2.109-1.178-2.896c-0.786-0.785-1.751-1.18-2.896-1.18c-1.113,0-2.063,0.402-2.848,1.204
				c-0.785,0.803-1.18,1.76-1.18,2.872v6.039c0,1.115,0.395,2.063,1.18,2.848c0.785,0.786,1.734,1.18,2.848,1.18
				c1.146,0,2.111-0.386,2.896-1.154C107.68,403.721,108.073,402.761,108.073,401.615z"/>
			<path d="M147.99,438.98c0,1.863-0.63,3.408-1.89,4.636c-1.262,1.229-2.809,1.841-4.641,1.841c-3.961,0-7.299-1.306-10.017-3.926
				c-2.717-2.621-4.074-5.907-4.074-9.867v-12.618h-7.07v9.132c0,1.865-0.624,3.411-1.865,4.64c-1.244,1.228-2.8,1.842-4.664,1.842
				c-1.867,0-3.413-0.614-4.642-1.842c-1.227-1.229-1.841-2.773-1.841-4.64v-33.386c0-1.867,0.614-3.413,1.841-4.642
				c1.229-1.228,2.774-1.842,4.642-1.842c1.864,0,3.421,0.614,4.664,1.842c1.242,1.229,1.865,2.773,1.865,4.642v6.331h7.07v-6.331
				c0-1.867,0.613-3.413,1.841-4.642c1.229-1.228,2.774-1.842,4.64-1.842s3.42,0.614,4.666,1.842
				c1.242,1.229,1.864,2.773,1.864,4.642v31.962c0,0.522,0.262,0.786,0.786,0.786c1.964,0,3.592,0.604,4.885,1.815
				c1.292,1.21,1.939,2.782,1.939,4.715c0,0.883-0.147,1.698-0.442,2.455C147.843,437.275,147.99,438.096,147.99,438.98z
				 M144.8,434.07c0-0.985-0.313-1.786-0.934-2.406c-0.622-0.624-1.424-0.938-2.405-0.938h-0.295c-1.112,0-2.054-0.383-2.823-1.149
				c-0.768-0.77-1.152-1.713-1.152-2.823v-31.962c0-0.985-0.312-1.776-0.935-2.383c-0.622-0.604-1.423-0.909-2.405-0.909
				c-0.981,0-1.775,0.305-2.381,0.909c-0.606,0.606-0.908,1.399-0.908,2.383v9.524h-13.453v-9.524c0-0.985-0.313-1.776-0.934-2.383
				c-0.622-0.604-1.424-0.909-2.404-0.909c-0.982,0-1.776,0.305-2.383,0.909c-0.605,0.606-0.908,1.399-0.908,2.383v28.474
				c0,0.985,0.302,1.776,0.908,2.384c0.605,0.604,1.4,0.907,2.383,0.907c0.98,0,1.782-0.304,2.404-0.907
				c0.621-0.606,0.934-1.399,0.934-2.384v-12.322h13.453v15.812c0,3.008,1.014,5.53,3.044,7.56c2.027,2.029,4.55,3.045,7.56,3.045
				h0.295c0.981,0,1.783-0.304,2.405-0.909S144.8,435.051,144.8,434.07z"/>
			<path d="M170.281,428.178c0,1.867-0.631,3.411-1.891,4.64c-1.261,1.228-2.808,1.842-4.64,1.842c-1.834,0-3.354-0.588-4.565-1.769
				c-1.246,1.244-2.8,1.868-4.665,1.868c-4.45,0-8.184-1.513-11.194-4.543c-3.012-3.027-4.518-6.766-4.518-11.217
				c0-0.817,0.065-1.64,0.195-2.455c-0.13-0.817-0.195-1.638-0.195-2.456c0-4.451,1.505-8.182,4.518-11.193
				c3.011-3.014,6.742-4.519,11.194-4.519c4.451,0,8.189,1.513,11.219,4.541c3.025,3.028,4.542,6.751,4.542,11.171V428.178
				L170.281,428.178z M167.088,423.268v-9.18c0-3.566-1.203-6.547-3.607-8.938c-2.406-2.387-5.395-3.584-8.96-3.584
				c-3.568,0-6.547,1.197-8.937,3.584c-2.39,2.391-3.584,5.369-3.584,8.938s1.194,6.557,3.584,8.96
				c2.389,2.406,5.368,3.609,8.937,3.609c0.98,0,1.781-0.312,2.405-0.936c0.621-0.62,0.933-1.424,0.933-2.405
				s-0.313-1.774-0.933-2.379c-0.624-0.606-1.425-0.908-2.405-0.908c-1.637,0-3.029-0.584-4.174-1.743
				c-1.146-1.162-1.719-2.562-1.719-4.198s0.573-3.027,1.719-4.174c1.146-1.145,2.536-1.716,4.174-1.716
				c1.637,0,3.034,0.573,4.197,1.716c1.16,1.146,1.743,2.537,1.743,4.174v9.18c0,0.983,0.302,1.776,0.909,2.382
				c0.604,0.605,1.398,0.907,2.381,0.907c0.981,0,1.783-0.302,2.405-0.907C166.777,425.044,167.088,424.251,167.088,423.268z
				 M156.532,417.131c-0.557-0.556-1.229-0.835-2.013-0.835c-0.428,0-0.818,0.082-1.179,0.245c0.328,0.165,0.834,0.277,1.521,0.346
				C155.68,416.951,156.24,417.032,156.532,417.131z"/>
			<path d="M195.271,409.668c0,0.816-0.146,1.618-0.441,2.404l-7.119,18.412c-1.212,3.143-3.241,4.716-6.088,4.716
				c-2.848,0-4.878-1.573-6.089-4.716l-7.119-18.412c-0.295-0.786-0.441-1.588-0.441-2.404c0-0.852,0.164-1.654,0.49-2.407
				l-0.049-0.099c-0.295-0.786-0.44-1.586-0.44-2.404c0-1.8,0.653-3.322,1.963-4.566c1.309-1.244,2.863-1.864,4.664-1.864
				c2.028,0,3.601,0.719,4.713,2.159c0.623,0.752,1.392,2.34,2.309,4.762c0.915-2.422,1.685-4.01,2.308-4.762
				c1.111-1.44,2.685-2.159,4.713-2.159c1.8,0,3.354,0.62,4.665,1.864c1.309,1.244,1.963,2.768,1.963,4.566
				c0,0.818-0.146,1.618-0.441,2.404l-0.049,0.099C195.108,408.016,195.271,408.816,195.271,409.668z M192.079,404.758
				c0-0.916-0.344-1.686-1.031-2.309c-0.688-0.621-1.489-0.932-2.405-0.932c-1.44,0-2.438,0.719-2.995,2.158l-4.025,10.409
				l-4.026-10.409c-0.558-1.439-1.556-2.158-2.995-2.158c-0.917,0-1.719,0.311-2.406,0.932c-0.688,0.623-1.031,1.393-1.031,2.309
				c0,0.428,0.082,0.852,0.246,1.275l7.119,18.412c0.687,1.767,1.719,2.65,3.094,2.65c1.374,0,2.406-0.885,3.093-2.65l7.119-18.412
				C191.996,405.609,192.079,405.186,192.079,404.758z"/>
			<path d="M222.275,412.563c0,2.064-0.835,3.768-2.505,5.106c-0.263,0.265-0.721,0.735-1.374,1.425
				c0.981,1.18,1.472,2.583,1.472,4.223c0,0.851-0.147,1.668-0.44,2.453c0.293,0.786,0.44,1.604,0.44,2.455
				c0,1.868-0.613,3.419-1.841,4.665c-1.228,1.244-2.773,1.866-4.639,1.866h-4.37c-4.418,0-8.144-1.514-11.17-4.541
				c-3.027-3.028-4.542-6.768-4.542-11.221c0-0.816,0.064-1.635,0.197-2.454c-0.132-0.817-0.197-1.636-0.197-2.455
				c0-4.449,1.505-8.183,4.518-11.192c3.011-3.013,6.743-4.518,11.195-4.518c2.913,0,5.745,0.801,8.493,2.404
				c3.175,1.834,4.763,4.123,4.763,6.873c0,0.885-0.165,1.705-0.491,2.455C222.11,410.896,222.275,411.713,222.275,412.563z
				 M219.083,407.654c0-0.818-0.328-1.571-0.981-2.26c-2.489-2.553-5.518-3.828-9.083-3.828c-3.569,0-6.547,1.197-8.938,3.584
				c-2.389,2.391-3.584,5.367-3.584,8.936s1.195,6.555,3.584,8.962c2.389,2.404,5.368,3.607,8.938,3.607h4.37
				c0.981,0,1.773-0.313,2.381-0.934c0.604-0.624,0.907-1.424,0.907-2.405c0-0.983-0.303-1.774-0.907-2.381
				c-0.607-0.604-1.399-0.908-2.381-0.908h-4.37c-1.637,0-3.028-0.582-4.174-1.743c-1.146-1.16-1.718-2.562-1.718-4.198
				c0-1.635,0.571-3.027,1.718-4.174c1.146-1.143,2.536-1.717,4.174-1.717c0.426,0,0.85,0.031,1.275,0.099l-3.535,3.485
				c-0.72,0.722-1.08,1.492-1.08,2.309c0,0.917,0.334,1.719,1.008,2.405c0.669,0.688,1.464,1.03,2.38,1.03
				c0.818,0,1.587-0.342,2.308-1.03l6.285-6.138C218.609,409.637,219.083,408.734,219.083,407.654z"/>
			<path d="M235.087,415.807c0,1.995-0.711,3.704-2.135,5.129s-3.135,2.137-5.131,2.137c-1.997,0-3.707-0.712-5.13-2.137
				c-1.423-1.424-2.137-3.134-2.137-5.129c0-0.853,0.147-1.67,0.44-2.455c-0.293-0.787-0.44-1.604-0.44-2.455
				c0-1.998,0.713-3.709,2.137-5.133c1.423-1.426,3.134-2.135,5.13-2.135s3.707,0.709,5.131,2.135
				c1.424,1.424,2.135,3.135,2.135,5.133c0,0.852-0.146,1.668-0.44,2.455C234.942,414.137,235.087,414.954,235.087,415.807z
				 M231.899,410.896c0-1.113-0.401-2.071-1.203-2.875c-0.803-0.801-1.76-1.201-2.873-1.201s-2.071,0.4-2.872,1.201
				c-0.803,0.804-1.203,1.762-1.203,2.875c0,1.111,0.4,2.069,1.203,2.871c0.801,0.801,1.758,1.2,2.872,1.2
				c1.113,0,2.07-0.399,2.873-1.2C231.497,412.966,231.899,412.008,231.899,410.896z"/>
			<path d="M264.84,418.948c0,4.384-1.529,8.1-4.59,11.146c-3.062,3.042-6.784,4.564-11.169,4.564
				c-4.419,0-8.144-1.514-11.171-4.541c-3.026-3.028-4.541-6.751-4.541-11.169v-24.156c0-1.834,0.621-3.372,1.866-4.617
				c1.243-1.243,2.781-1.864,4.615-1.864c1.864,0,3.421,0.613,4.662,1.84c1.244,1.229,1.867,2.774,1.867,4.641v4.025
				c0.851-0.359,1.75-0.541,2.699-0.541c4.452,0,8.191,1.514,11.22,4.541c3.027,3.031,4.54,6.771,4.54,11.22
				c0,0.853-0.064,1.669-0.194,2.455C264.775,417.311,264.84,418.131,264.84,418.948z M261.65,414.038
				c0-3.567-1.202-6.554-3.608-8.962c-2.405-2.404-5.394-3.607-8.96-3.607c-0.981,0-1.776,0.313-2.382,0.934
				c-0.606,0.623-0.909,1.424-0.909,2.406s0.303,1.774,0.909,2.381c0.604,0.606,1.398,0.908,2.382,0.908
				c1.637,0,3.035,0.58,4.197,1.743c1.16,1.16,1.743,2.56,1.743,4.197c0,1.637-0.583,3.026-1.743,4.172
				c-1.162,1.147-2.562,1.72-4.197,1.72s-3.028-0.574-4.173-1.72c-1.146-1.146-1.72-2.534-1.72-4.172v-19.246
				c0-0.985-0.313-1.776-0.934-2.383c-0.622-0.604-1.424-0.909-2.404-0.909c-0.948,0-1.736,0.313-2.356,0.936
				c-0.623,0.621-0.933,1.406-0.933,2.356v19.246c0,3.536,1.201,6.507,3.606,8.911c2.405,2.406,5.377,3.609,8.912,3.609
				s6.514-1.203,8.936-3.609C260.439,420.542,261.65,417.572,261.65,414.038z M250.309,416.493
				c-0.361-0.163-0.886-0.277-1.571-0.347c-0.786-0.063-1.326-0.146-1.62-0.244c0.521,0.557,1.178,0.838,1.964,0.838
				C249.506,416.736,249.915,416.654,250.309,416.493z"/>
			<path d="M292.041,412.563c0,2.064-0.835,3.768-2.505,5.106c-0.263,0.265-0.721,0.735-1.374,1.425
				c0.982,1.18,1.473,2.583,1.473,4.223c0,0.851-0.146,1.668-0.439,2.453c0.294,0.786,0.439,1.604,0.439,2.455
				c0,1.868-0.613,3.419-1.841,4.665c-1.229,1.244-2.774,1.866-4.639,1.866h-4.371c-4.42,0-8.144-1.514-11.17-4.541
				c-3.029-3.028-4.541-6.768-4.541-11.221c0-0.816,0.063-1.635,0.196-2.454c-0.133-0.817-0.196-1.636-0.196-2.455
				c0-4.449,1.504-8.183,4.517-11.192c3.013-3.013,6.742-4.518,11.194-4.518c2.913,0,5.744,0.801,8.495,2.404
				c3.174,1.834,4.762,4.123,4.762,6.873c0,0.885-0.165,1.705-0.491,2.455C291.876,410.896,292.041,411.713,292.041,412.563z
				 M288.851,407.654c0-0.818-0.33-1.571-0.982-2.26c-2.487-2.553-5.518-3.828-9.083-3.828c-3.568,0-6.547,1.197-8.937,3.584
				c-2.389,2.391-3.584,5.367-3.584,8.936s1.195,6.555,3.584,8.962c2.39,2.404,5.367,3.607,8.937,3.607h4.371
				c0.982,0,1.773-0.313,2.38-0.934c0.605-0.624,0.907-1.424,0.907-2.405c0-0.983-0.302-1.774-0.907-2.381
				c-0.605-0.604-1.398-0.908-2.38-0.908h-4.371c-1.638,0-3.028-0.582-4.173-1.743c-1.146-1.16-1.717-2.562-1.717-4.198
				c0-1.635,0.57-3.027,1.717-4.174c1.146-1.143,2.535-1.717,4.173-1.717c0.426,0,0.85,0.031,1.276,0.099l-3.535,3.485
				c-0.72,0.722-1.079,1.492-1.079,2.309c0,0.917,0.333,1.719,1.005,2.405c0.671,0.688,1.465,1.03,2.381,1.03
				c0.818,0,1.588-0.342,2.309-1.03l6.284-6.138C288.376,409.637,288.851,408.734,288.851,407.654z"/>
			<path d="M319.289,412.563c0,2.064-0.834,3.768-2.504,5.106c-0.263,0.265-0.722,0.735-1.375,1.425
				c0.982,1.18,1.474,2.583,1.474,4.223c0,0.851-0.147,1.668-0.441,2.453c0.294,0.786,0.441,1.604,0.441,2.455
				c0,1.868-0.614,3.419-1.841,4.665c-1.229,1.244-2.776,1.866-4.641,1.866h-4.371c-4.419,0-8.142-1.514-11.17-4.541
				c-3.028-3.028-4.539-6.768-4.539-11.221c0-0.816,0.063-1.635,0.194-2.454c-0.131-0.817-0.194-1.636-0.194-2.455
				c0-4.449,1.504-8.183,4.517-11.192c3.011-3.013,6.742-4.518,11.192-4.518c2.914,0,5.745,0.801,8.494,2.404
				c3.175,1.834,4.764,4.123,4.764,6.873c0,0.885-0.164,1.705-0.491,2.455C319.126,410.896,319.289,411.713,319.289,412.563z
				 M316.098,407.654c0-0.818-0.329-1.571-0.981-2.26c-2.486-2.553-5.517-3.828-9.084-3.828c-3.566,0-6.545,1.197-8.935,3.584
				c-2.391,2.391-3.584,5.367-3.584,8.936s1.193,6.555,3.584,8.962c2.39,2.404,5.367,3.607,8.935,3.607h4.371
				c0.983,0,1.774-0.313,2.381-0.934c0.605-0.624,0.908-1.424,0.908-2.405c0-0.983-0.303-1.774-0.908-2.381
				c-0.605-0.604-1.397-0.908-2.381-0.908h-4.371c-1.637,0-3.026-0.582-4.172-1.743c-1.146-1.16-1.718-2.562-1.718-4.198
				c0-1.635,0.572-3.027,1.718-4.174c1.146-1.143,2.535-1.717,4.172-1.717c0.428,0,0.852,0.031,1.277,0.099l-3.534,3.485
				c-0.721,0.722-1.079,1.492-1.079,2.309c0,0.917,0.333,1.719,1.004,2.405c0.671,0.688,1.465,1.03,2.382,1.03
				c0.816,0,1.588-0.342,2.308-1.03l6.285-6.138C315.623,409.637,316.098,408.734,316.098,407.654z"/>
			<path d="M352.678,438.98c0,1.863-0.631,3.408-1.892,4.636c-1.26,1.229-2.808,1.841-4.64,1.841c-3.961,0-7.282-1.306-9.968-3.926
				c-2.683-2.621-4.022-5.907-4.022-9.867v-2.309l-0.052-12.323c0-0.491-0.243-0.738-0.736-0.738c-0.523,0-0.784,0.247-0.784,0.738
				v11.146c0,1.865-0.623,3.411-1.868,4.64c-1.244,1.228-2.796,1.842-4.664,1.842c-1.866,0-3.411-0.614-4.639-1.842
				c-1.229-1.229-1.842-2.773-1.842-4.64v-16.056c0-3.86,1.335-7.119,4.001-9.771c2.669-2.649,5.934-3.977,9.795-3.977
				s7.129,1.326,9.796,3.977s4.001,5.908,4.001,9.771v14.632c0,0.522,0.262,0.786,0.786,0.786c1.931,0,3.535,0.614,4.813,1.841
				c1.274,1.229,1.915,2.791,1.915,4.689c0,0.883-0.147,1.698-0.441,2.455C352.53,437.275,352.678,438.096,352.678,438.98z
				 M349.484,434.07c0-0.985-0.313-1.786-0.933-2.406c-0.623-0.624-1.425-0.938-2.405-0.938h-0.195
				c-1.113,0-2.055-0.383-2.823-1.149c-0.771-0.77-1.152-1.713-1.152-2.823v-14.632c0-3.011-1.016-5.522-3.045-7.537
				c-2.031-2.015-4.551-3.021-7.562-3.021c-3.012,0-5.532,1.006-7.562,3.021c-2.028,2.015-3.043,4.526-3.043,7.537v11.144
				c0,0.985,0.302,1.776,0.907,2.384c0.604,0.604,1.4,0.907,2.381,0.907c0.981,0,1.783-0.304,2.406-0.907
				c0.62-0.606,0.933-1.399,0.933-2.384v-11.144c0-1.11,0.384-2.045,1.153-2.797c0.769-0.755,1.713-1.13,2.823-1.13
				c1.081,0,2.004,0.384,2.772,1.15c0.771,0.771,1.154,1.695,1.154,2.775l0.05,14.632c0,3.042,1.007,5.571,3.021,7.585
				c2.013,2.014,4.541,3.021,7.587,3.021h0.194c0.98,0,1.782-0.306,2.405-0.908C349.172,435.845,349.484,435.051,349.484,434.07z"/>
			<path d="M370.156,406.523c0,2.031-0.704,3.74-2.111,5.131c-1.407,1.394-3.127,2.089-5.155,2.089c-2.029,0-3.749-0.72-5.153-2.159
				l-0.051,0.047c-1.406,1.407-3.109,2.112-5.105,2.112c-1.998,0-3.708-0.705-5.131-2.112c-1.424-1.406-2.138-3.107-2.138-5.105
				v-10.948c0-1.995,0.714-3.707,2.138-5.13c1.423-1.426,3.133-2.137,5.131-2.137c2.03,0,3.748,0.722,5.156,2.16
				c1.405-1.438,3.124-2.16,5.153-2.16c2.028,0,3.748,0.703,5.155,2.11s2.111,3.127,2.111,5.155V406.523L370.156,406.523z
				 M356.654,401.615v-6.039c0-1.112-0.4-2.069-1.204-2.872c-0.801-0.802-1.76-1.204-2.871-1.204c-1.112,0-2.072,0.402-2.873,1.204
				c-0.802,0.803-1.202,1.76-1.202,2.872v6.039c0,1.115,0.4,2.062,1.202,2.848c0.801,0.786,1.761,1.18,2.873,1.18
				c1.111,0,2.07-0.394,2.871-1.18C356.253,403.677,356.654,402.73,356.654,401.615z M366.963,401.615v-6.039
				c0-1.146-0.392-2.109-1.178-2.896c-0.785-0.785-1.752-1.18-2.896-1.18c-1.111,0-2.063,0.402-2.849,1.204
				c-0.785,0.803-1.176,1.76-1.176,2.872v6.039c0,1.115,0.391,2.063,1.176,2.848c0.787,0.786,1.736,1.18,2.849,1.18
				c1.146,0,2.112-0.386,2.896-1.154C366.572,403.721,366.963,402.761,366.963,401.615z"/>
		</g>
		<g>
			<path d="M341.399,95.2c-2.243-2.699-1.706-6.737,0.202-12.168c2.035-5.505,7.291-13.557,12.937-16.109
				c-1.186-0.1-2.338-0.301-3.473-0.605c-7.799-2.106-14.654-7.701-13.746-16.374c0.219-2.036,1.09-4.444,2.51-7.253l0.156-0.177
				c7.564-12.934,21.824-14.371,34.965-10.823c4.62,1.246,8.89,2.951,12.899,5.243l0.482,0.241
				c10.691,6.081,13.169,14.456,10.449,26.163c-2.978,14.283-27.352,20.146-33.018,21.15c0.464,2.767,0.835,9.144-3.233,14.433
				c-2.565,3.381-7.136,3.579-10.935,2.555C348.416,100.618,343.793,98.16,341.399,95.2z M365.827,58.959
				c0.035-0.54,0.072-1.082,0.184-1.49c0.28-2.676,0.519-5.587,2.18-6.458c0.654-0.375,1.324-0.412,2.146-0.194
				c2.156,0.583,2.89,2.764,2.67,4.798c-0.133,1.725-0.866,3.619-2.166,5.581c-2.73,3.996-6.363,5.221-10.696,6.584
				c-8.271,2.501-12.892,8.189-16.033,16.151c-1.224,3.305-1.577,5.853-1.389,7.996c0.077,2.993,7.207,6.348,9.567,6.985
				c2.772,0.749,6.147,0.889,8.024-1.578c3.708-5.167,3.039-10.853,2.688-12.818c-2.145,0.193-4.208,0.077-6.158-0.449
				c-1.229-0.332-2.405-0.871-3.452-1.483c2.909,0.235,6.005,0.189,8.874-0.246c13.85-1.547,31.382-8.158,33.917-19.588
				c2.385-10.475,0.382-17.733-9.236-23.303l-0.381-0.213c-3.931-2.163-8.003-3.811-12.311-4.974
				c-11.805-3.187-25.154-2.276-31.872,9.565l-0.187,0.281c-1.386,2.269-2.04,4.295-2.204,6.121
				c-0.758,7.284,5.398,11.81,11.765,13.526c3.388,0.915,6.566,0.56,9.741-1.005c1.146-0.571,2.189-1.173,3.054-1.928
				C365.288,60.135,365.788,59.501,365.827,58.959z M365.221,37.543c-8.113-0.539-14.987,2.895-19.441,9.619
				c-0.347,0.459-0.841,0.654-1.558,0.46c-0.104-0.028-0.309-0.083-0.385-0.213c-0.637-0.503-0.777-1.202-0.275-1.835
				c3.156-4.765,6.843-7.404,10.661-8.905c4.343-1.802,9.924-2.499,14.441-1.28c0.896,0.353,1.063,0.948,0.742,1.742
				c-0.354,0.895-0.949,1.064-1.742,0.741C367.356,37.791,366.508,37.67,365.221,37.543z M341.94,120.123
				c-3.897-1.053-7.567-6.228-7.393-10.146c0.008-1.65,0.422-3.19,2.021-4.629c2.838-2.758,7.813-4.058,11.613-3.033
				c2.154,0.582,5.57,2.604,6.668,4.662c0.179,0.158,0.327,0.421,0.553,0.811c1.218,2.42,1.253,4.743,0.13,6.862
				c-0.539,1.176-1.486,2.241-2.848,3.196l-0.13,0.076c-1.489,1.03-3.229,1.769-5.123,2.25
				C345.541,120.654,343.686,120.594,341.94,120.123z M347.588,104.908c-2.976-0.803-6.889,0.233-9.121,2.382
				c-0.764,0.786-1.244,1.757-1.291,2.735c-0.207,2.808,3.021,6.762,5.483,7.429c3.593,0.969,8.781-0.715,10.57-4.085
				c0.726-1.456,0.675-2.901-0.552-4.883c-0.179-0.159-0.684-0.735-1.545-1.628C350.278,105.965,349.128,105.326,347.588,104.908z
				 M371.26,35.981c0.259-0.149,0.593-0.168,1.007-0.058c0.41,0.11,0.689,0.297,0.813,0.661c0.578,0.707,0.123,1.576-0.529,1.949
				c-0.363,0.121-0.699,0.142-1.005,0.059c-0.822-0.221-1.271-1.003-1.05-1.826C370.579,36.458,370.868,36.205,371.26,35.981z
				 M368.584,57.722c-0.036,0.54-0.042,0.978-0.08,1.52l-0.194,0.718l0.318-0.355c0.98-1.607,1.575-2.989,1.702-4.274
				c0.084-0.307,0.093-0.744-0.104-1.241c-0.019-0.334-0.271-0.624-0.783-0.763c-0.131,0.076-0.241,0.486-0.391,1.436
				C368.904,55.717,368.727,56.771,368.584,57.722z"/>
		</g>
	</g>
	<g id="레이어_1_1_">
		<g>
			<path fill="none" stroke="#020202" stroke-width="1.5" stroke-miterlimit="10" d="M316.44,71.738c0,0-20.863,25.776-46.68,7.963
				c0,0-9.346-5.198-8.444-23.365c0,0,7.225-19.654-11.072-29.484c0,0-20.939-5.281-28.464,13.941"/>
			<path fill="none" stroke="#020202" stroke-width="1.5" stroke-miterlimit="10" d="M165.773,148.881
				c-7.842,9.029-20.211,6.471-20.211,6.471c3.982-2.907,7.308-4.345,10.908-7.658c0,0,14.072-10.616,21.034-19.381
				c2.317-2.919,3.711-9.013,5.261-12.396c2.405-5.257,3.789-11.042,5.691-16.482c0.833-2.374,1.622-4.761,2.304-7.18
				c0.803-2.833,1.932-8.259,1.932-8.259c0.008-0.02,0.017-0.04,0.023-0.06c3.166-8.773,1.923-13.537,1.923-13.537
				c-4.194-10.722-0.114-19.869-0.114-19.869c12.481-34.951,27.101-9.049,27.101-9.049"/>
			<path fill="none" stroke="#050101" stroke-width="1.5" stroke-miterlimit="10" d="M261.316,56.336
				c-13.604-25.214-39.951-14.026-39.97-14.02"/>
			<path fill="none" stroke="#050101" stroke-width="1.5" stroke-miterlimit="10" d="M279.818,51.161
				c0,0,20.935,26.131,37.557-0.562c0,0,4.021,14.931-8.092,24.49"/>
			<path fill="none" stroke="#020202" stroke-width="1.5" stroke-miterlimit="10" d="M221.346,42.318
				c0,0-21.021,3.644-19.875,40.523c0,0-7.618,37.299-14.146,44.925"/>
			<path fill="none" stroke="#040000" stroke-width="1.5" stroke-miterlimit="10" d="M208.128,103.552
				c0,0-5.041,16.24-10.374,20.814"/>
			<path fill="none" stroke="#050101" stroke-width="1.5" stroke-miterlimit="10" d="M172.759,155.28
				c-1.976,2.436-3.197,3.991-6.33,4.899c-2.698,0.786-5.621,0.668-8.414,0.715c0,0,5.995-2.908,7.312-7.813
				c1.319-4.904,0.374-3.899,0.374-3.899"/>
			<path fill="none" stroke="#050101" stroke-width="1.5" stroke-miterlimit="10" d="M179.543,151.845c0,0-1.754,7.491-8.133,6.96
				c0,0-0.559,6.211,10.911,3.683"/>
			<path fill="none" stroke="#050101" stroke-width="1.5" stroke-miterlimit="10" d="M286.265,97.619"/>
			<path fill="none" stroke="#040000" stroke-width="1.5" stroke-miterlimit="10" d="M201.472,82.841c0,0-5.51,25.213,31.167,34.778
				c0,0,31.364-2.665,41.34-24.522"/>
			<path fill="none" stroke="#040000" stroke-width="1.5" stroke-miterlimit="10" d="M215.393,109.787c0,0-0.929,12.996-3.236,13.77
				"/>
			<path fill="none" stroke="#050101" stroke-width="1.5" stroke-miterlimit="10" d="M192.82,148.751"/>
			<path fill="none" stroke="#050101" stroke-width="1.5" stroke-miterlimit="10" d="M209.743,129.005"/>
			<path fill="none" stroke="#050101" stroke-width="1.5" stroke-miterlimit="10" d="M245.235,5.701c0,0,61.838-8.396,57.243,56.707
				"/>
			<path fill="none" stroke="#020202" stroke-width="1.5" stroke-miterlimit="10" d="M302.508,82.53c0,0-1.707,29.733-0.602,44.7"/>
			<path fill="none" stroke="#020202" stroke-width="1.5" stroke-miterlimit="10" d="M298.118,84.34c0,0-3.594,34.213-1.363,42.857"
				/>
			<path fill="none" stroke="#050101" stroke-width="1.5" stroke-miterlimit="10" d="M301.831,125.226
				c0,0-0.332,16.39,11.961,15.897c0,0-0.801,8.771-8.943,5.614"/>
			<path fill="none" stroke="#020202" stroke-width="1.5" stroke-miterlimit="10" d="M287.557,127.144
				c0.206-3.319-2.071-24.337,1.782-41.187"/>
			<path fill="none" stroke="#050101" stroke-width="1.5" stroke-miterlimit="10" d="M286.134,114.977"/>
			<path fill="none" stroke="#050101" stroke-width="1.5" stroke-miterlimit="10" d="M296.438,125.171
				c0,0,3.307,26.928,17.725,25.873c0,0-23.323,17.698-26.618-25.525"/>
			<path fill="none" stroke="#020202" stroke-width="1.5" stroke-miterlimit="10" d="M278.388,91.224
				c0.244-2.386,0.589-2.683,1.872-6.418"/>
			<path fill="none" stroke="#050101" stroke-width="1.5" stroke-miterlimit="10" d="M279.552,94.917"/>
			<path fill="none" stroke="#050101" stroke-width="1.5" stroke-miterlimit="10" d="M278.23,101.923"/>
			<path fill="none" stroke="#040000" stroke-width="1.5" stroke-miterlimit="10" d="M281.263,127.822
				c-0.063-2.573-2.175-19.869-2.773-23.956"/>
			<path fill="none" stroke="#050101" stroke-width="1.5" stroke-miterlimit="10" d="M280.547,152.018
				c0,0,4.541,14.891,19.374,11.846c0,0-12.238,2.052-18.698-37.666"/>
			<path fill="none" stroke="#050101" stroke-width="1.5" stroke-miterlimit="10" d="M291.764,159.9c0,0,8.492,2.96,11.731,0.202
				c0,0-6.447,3.637-3.979-6.317"/>
			<path fill="none" stroke="#050101" stroke-width="1.5" stroke-miterlimit="10" d="M281.124,125.355"/>
			<path fill="none" stroke="#020202" stroke-width="1.5" stroke-miterlimit="10" d="M281.996,85.276"/>
			<path fill="none" stroke="#040000" stroke-width="1.5" stroke-miterlimit="10" d="M212.8,120.367"/>
			<path fill="none" stroke="#050101" stroke-width="1.5" stroke-miterlimit="10" d="M282.271,98.861
				c-0.722,3.563-3.514,6.04-6.248,5.531c-2.729-0.508-4.355-3.81-3.635-7.373c0.723-3.563,3.519-6.039,6.246-5.531
				C281.37,91.999,282.993,95.3,282.271,98.861z"/>
			<path fill="none" stroke="#050101" stroke-width="1.5" stroke-miterlimit="10" d="M281.184,98.661
				c-0.56,2.777-2.744,4.708-4.874,4.311c-2.123-0.396-3.397-2.971-2.835-5.749c0.563-2.779,2.745-4.709,4.87-4.313
				C280.474,93.309,281.75,95.882,281.184,98.661z"/>
			<path fill="none" stroke="#020202" stroke-width="1.5" stroke-miterlimit="10" d="M316.44,71.738
				c-33.256,19.619-36.854-12.791-36.854-12.791c2.856-34.416-26.253-43.437-26.253-43.437
				c-21.398-7.503-31.986,26.807-31.986,26.807"/>
			<path fill="none" stroke="#040000" stroke-width="1.5" stroke-miterlimit="10" d="M227.889,28.714
				c0,0-13.034-27.938-35.648,2.575c0,0-11.921,25.598-5.865,44.494c0,0,5.183,8.77,2.363,22.851"/>
			<polyline fill="none" stroke="#050101" stroke-width="1.5" stroke-miterlimit="10" points="221.78,40.794 227.889,28.714 
				228.905,26.704 			"/>
			<path fill="none" stroke="#050101" stroke-width="1.5" stroke-miterlimit="10" d="M233.06,21.468c0,0-15.353-19.179-37.538,5.72"
				/>
			<path fill="none" stroke="#050101" stroke-width="1.5" stroke-miterlimit="10" d="M294.156,61.583"/>
			<path fill="none" stroke="#050101" stroke-width="1.5" stroke-miterlimit="10" d="M219.382,14.349
				c0,0,26.561-21.298,53.326,2.945c0,0,16.305,12.6,21.343,43.629c0.036,0.219,0.072,0.438,0.104,0.661"/>
			<path fill="none" stroke="#020202" stroke-width="1.5" stroke-miterlimit="10" d="M265.404,74.271"/>
			<path fill="none" stroke="#050101" stroke-width="1.5" stroke-miterlimit="10" d="M278.576,104.443"/>
			<path fill="none" stroke="#050101" stroke-width="1.5" stroke-miterlimit="10" d="M278.114,92.88
				c-0.4,2.558,0.478,7.136,0.395,10.102"/>
			<path fill="none" stroke="#050101" stroke-width="1.5" stroke-miterlimit="10" d="M222.043,98.772c0,0,2.426-6.352,7.975-0.027
				c0,0,7.261-5.479,10.687,1.81C240.704,100.554,231.189,104.732,222.043,98.772z"/>
			<path fill="none" stroke="#040000" stroke-width="1.5" stroke-miterlimit="10" d="M222.043,98.772
				c0.989,2.453,1.019,7.338,10.485,7.646c0,0,4.909,0.653,8.176-5.864"/>
			<path fill="#050101" d="M217.486,76.17c-0.341,2.979-2.058,5.24-3.834,5.057c-1.775-0.187-2.942-2.754-2.604-5.735
				c0.338-2.978,2.057-5.243,3.833-5.056C216.66,70.624,217.823,73.189,217.486,76.17z"/>
			<path fill="none" stroke="#020202" stroke-width="1.5" stroke-miterlimit="10" d="M220.462,76.663
				c-0.416,3.65-2.857,6.388-5.456,6.114c-2.595-0.271-4.36-3.453-3.947-7.101c0.419-3.652,2.86-6.389,5.454-6.116
				C219.111,69.832,220.879,73.013,220.462,76.663z"/>
			<path fill="none" stroke="#020202" stroke-width="1.5" stroke-miterlimit="10" d="M240.688,70.331c0,0,8.196-5.116,14.842-0.786
				l2.732,1.875"/>
			<path fill="none" stroke="#020202" stroke-width="1.5" stroke-miterlimit="10" d="M224.588,69.005c0,0-6.556-6.968-14.136-4.416
				l-3.143,1.14"/>
			<path fill="none" stroke="#050101" stroke-width="1.5" stroke-miterlimit="10" d="M230.531,84.994c0,0-5.621,1.212-2.234,4.41"/>
			<path fill="#050101" d="M250.805,80.333c-0.339,2.98-2.058,5.244-3.837,5.057c-1.774-0.185-2.94-2.753-2.602-5.729
				c0.339-2.979,2.058-5.245,3.832-5.061C249.978,74.788,251.145,77.355,250.805,80.333z"/>
			<path fill="none" stroke="#020202" stroke-width="1.5" stroke-miterlimit="10" d="M253.778,80.825
				c-0.412,3.653-2.854,6.391-5.451,6.118c-2.596-0.271-4.366-3.454-3.948-7.104c0.416-3.65,2.858-6.388,5.455-6.117
				C252.43,73.996,254.197,77.176,253.778,80.825z"/>
			<path fill="none" stroke="#050101" stroke-width="1.5" stroke-miterlimit="10" d="M171.365,136.66"/>
			<path fill="none" stroke="#050101" stroke-width="1.5" stroke-miterlimit="10" d="M159.281,134.272"/>
			<path fill="none" stroke="#050101" stroke-width="1.5" stroke-miterlimit="10" d="M150.553,141.913"/>
			
				<line fill="none" stroke="#050101" stroke-width="1.5" stroke-miterlimit="10" x1="202.563" y1="146.524" x2="199.693" y2="154.266"/>
			<path fill="none" stroke="#050101" stroke-width="1.5" stroke-miterlimit="10" d="M187.33,134.121c0,0-4.489,7.002-8.149,13.854"
				/>
			<path fill="none" stroke="#050101" stroke-width="1.5" stroke-miterlimit="10" d="M162.275,164.261"/>
			<path fill="none" stroke="#050101" stroke-width="1.5" stroke-miterlimit="10" d="M329.312,109.109"/>
			<path fill="none" stroke="#040000" stroke-width="1.5" stroke-miterlimit="10" d="M271.657,100.513
				c-0.029-2.902-3.376,23.497,2.511,35.17"/>
			<path fill="none" stroke="#040000" stroke-width="1.5" stroke-miterlimit="10" d="M272.879,133.801"/>
			<path fill="none" stroke="#040000" stroke-width="1.5" stroke-miterlimit="10" d="M269.015,100.797"/>
			<path fill="none" stroke="#040000" stroke-width="1.5" stroke-miterlimit="10" d="M222.149,114.013c0,0,1.297,2.987-1.57,5.308"
				/>
			<path fill="none" stroke="#040000" stroke-width="1.5" stroke-miterlimit="10" d="M251.439,132.011"/>
			<path fill="none" stroke="#040000" stroke-width="1.5" stroke-miterlimit="10" d="M249.292,113.656"/>
			<path fill="none" stroke="#040000" stroke-width="1.5" stroke-miterlimit="10" d="M263.4,106.078c0,0,0.548,24.28,2.851,25.114"
				/>
			<path fill="none" stroke="#040000" stroke-width="1.5" stroke-miterlimit="10" d="M259.607,128.529"/>
			<path fill="none" stroke="#040000" stroke-width="1.5" stroke-miterlimit="10" d="M259.334,108.855"/>
			<path fill="none" stroke="#040000" stroke-width="1.5" stroke-miterlimit="10" d="M254.238,111.589c0,0-1.242,9.576-0.038,14.257
				"/>
			<g>
				<path fill="#FFFFFF" stroke="#050101" stroke-width="1.5" stroke-miterlimit="10" d="M220.579,119.321
					c0,0-51.421-5.672-66.635,60.545c0,0,15.87,3.149,24.93,5.936c2.432,0.747,4.374,1.469,5.385,2.097"/>
				<path fill="#FFFFFF" stroke="#050101" stroke-width="1.5" stroke-miterlimit="10" d="M157.998,180.308
					c0,0-11.371,54.097,20.504,54.528c0,0,47.866,6.129,83.049,0.403"/>
				<path fill="#FFFFFF" stroke="#050101" stroke-width="1.5" stroke-miterlimit="10" d="M190.131,214.944
					c-4.264-7.721-5.775-17.447-5.879-27.042c-0.212-19.761,5.55-38.968,5.55-38.968"/>
				<path fill="#FFFFFF" stroke="#050101" stroke-width="1.5" stroke-miterlimit="10" d="M194.71,236.231"/>
				<path fill="#FFFFFF" stroke="#050101" stroke-width="1.5" stroke-miterlimit="10" d="M296.097,192.465
					c5.777,43.073-1.105,57.267-1.105,57.267c-6.144,10.331-24.858-1.961-24.858-1.961c-16.211-16.04-27.361-70.52-27.361-70.52
					c-0.309-5.768-4.762-11.862-4.762-11.862c-9.757-7.456-8.156-16.865-8.156-16.865c-7.278-11.934,2.267-9.953,2.267-9.953
					c-1.195-6.115,7.528-2.688,7.528-2.688c-0.965-6.14,3.852-2.68,3.852-2.68c-5.565-25.58-1.103-25.13-1.103-25.13
					s1.853-6.159,7.999,24.386c0,0,0.229,11.366,2.793,14.424"/>
				<path fill="#FFFFFF" stroke="#050101" stroke-width="1.5" stroke-miterlimit="10" d="M251.168,134.135
					c0.289-2.337,0.688-6.956,3.031-8.289c0.954-0.544,1.746,0.022,2.452,0.808c1.053,1.175,1.103,2.528,1.237,4.105
					c0.243,2.818,0.242,5.665,0.224,8.49c0.173,1.759,0.638,3.482,1.156,5.17c0.476,1.543,1.138,3.022,1.909,4.454
					c0.702,1.299,1.814,2.264,2.272,3.723c0.342,1.095,0.218,2.143,0.056,3.252c-0.462,3.222-1.597,6.125-3.664,8.736
					c0,0-3.384,16.951,11.364,36.263c0,0,18.603,28.178,18.126,34.417"/>
				<path fill="#FFFFFF" stroke="#050101" stroke-width="1.5" stroke-miterlimit="10" d="M278.363,212.847
					c0,0,9.668-4.98,12.43-1.34c0,0,0.908,2.562-10.08,5.365"/>
				<path fill="#FFFFFF" stroke="#050101" stroke-width="1.5" stroke-miterlimit="10" d="M280.712,216.871
					c0,0,12.078-5.97,15.402-1.662c0,0,1.043,3.222-12.228,6.571"/>
				<path fill="#FFFFFF" stroke="#050101" stroke-width="1.5" stroke-miterlimit="10" d="M283.064,221.527
					c0,0,9.768-4.026,13.074-0.78c0,0,1.562,2.71-10.082,5.184"/>
				<path fill="#FFFFFF" stroke="#050101" stroke-width="1.5" stroke-miterlimit="10" d="M286.742,226.403
					c0,0,7.453-3.618,9.55-1.03c0,0,0.354,3.021-8.631,3.989"/>
				<path fill="#FFFFFF" stroke="#050101" stroke-width="1.5" stroke-miterlimit="10" d="M218.197,119.204
					c0,0-4.795,16.746,9.628,21.764"/>
				<path fill="#FFFFFF" stroke="#050101" stroke-width="1.5" stroke-miterlimit="10" d="M220.579,119.321
					c0,0-2.536,15.49,10.419,19.063"/>
				<path fill="#FFFFFF" stroke="#050101" stroke-width="1.5" stroke-miterlimit="10" d="M260.198,129.725"/>
				<path fill="#FFFFFF" stroke="#050101" stroke-width="1.5" stroke-miterlimit="10" d="M302.097,155.002"/>
				<path fill="#FFFFFF" stroke="#050101" stroke-width="1.5" stroke-miterlimit="10" d="M271.843,198.189"/>
				<path fill="#FFFFFF" stroke="#050101" stroke-width="1.5" stroke-miterlimit="10" d="M183.56,214.956"/>
				<path fill="#FFFFFF" stroke="#050101" stroke-width="1.5" stroke-miterlimit="10" d="M178.873,185.803
					c0,0,0.531,21.739-0.02,29.661c0,0,45.339-1.563,77.398,7.354"/>
				<path fill="#FFFFFF" stroke="#050101" stroke-width="1.5" stroke-miterlimit="10" d="M178.854,215.463
					c0,0-1.967-0.164-3.739,0.75"/>
				<path fill="#FFFFFF" stroke="#050101" stroke-width="1.5" stroke-miterlimit="10" d="M275.944,206.916"/>
				<path fill="#FFFFFF" stroke="#050101" stroke-width="1.5" stroke-miterlimit="10" d="M274.651,195.86"/>
				<path fill="#FFFFFF" stroke="#050101" stroke-width="1.5" stroke-miterlimit="10" d="M265.993,192.866"/>
				<path fill="#FFFFFF" stroke="#050101" stroke-width="1.5" stroke-miterlimit="10" d="M273.009,191.606
					c0,0,24.398-0.933,27.677,2.979l-4.199-35.885c-3.478-22.826-38.836-29.959-38.836-29.959"/>
				<path fill="#FFFFFF" stroke="#050101" stroke-width="1.5" stroke-miterlimit="10" d="M300.685,194.585
					c0,0-1.802,3.692-3.972,3.146"/>
				<path fill="#FFFFFF" stroke="#050101" stroke-width="1.5" stroke-miterlimit="10" d="M269.633,198.695"/>
				<path fill="#FFFFFF" stroke="#050101" stroke-width="1.5" stroke-miterlimit="10" d="M265.162,266.096"/>
				<path fill="#FFFFFF" stroke="#050101" stroke-width="1.5" stroke-miterlimit="10" d="M270.625,173.451
					c1.287,7.074,3.085,19.277,1.508,28.814"/>
				<path fill="#FFFFFF" stroke="#050101" stroke-width="1.5" stroke-miterlimit="10" d="M154.672,176.86
					c0,0,24.14,3.62,29.615,7.182"/>
				<path fill="#FFFFFF" stroke="#050101" stroke-width="1.5" stroke-miterlimit="10" d="M273.066,189.461
					c0,0,19.405-0.812,27.187,1.444"/>
			</g>
			<path fill="#FFFFFF" stroke="#050101" stroke-width="1.5" stroke-miterlimit="10" d="M190.131,214.944
				c0,0-6.423-14.897-5.879-27.042"/>
		</g>
	</g>
</g>
</svg>
