<?xml version="1.0" encoding="utf-8"?>
<!-- Generator: Adobe Illustrator 15.1.0, SVG Export Plug-In . SVG Version: 6.00 Build 0)  -->
<!DOCTYPE svg PUBLIC "-//W3C//DTD SVG 1.1//EN" "http://www.w3.org/Graphics/SVG/1.1/DTD/svg11.dtd">
<svg version="1.1" xmlns="http://www.w3.org/2000/svg" xmlns:xlink="http://www.w3.org/1999/xlink" x="0px" y="0px" width="500px"
	 height="447.085px" viewBox="0 0 500 447.085" enable-background="new 0 0 500 447.085" xml:space="preserve">
<g id="레이어_2_1_">
	<rect x="0" fill="#FFFFFF" width="500" height="447.085"/>
</g>
<g id="레이어_1">
	<g id="레이어_3">
		<g>
			<path d="M24.636,147.409c-3.714,0-7.349-1.083-10.056-3.79c-2.785-2.707-3.016-9.281-0.928-17.325
				c1.855-7.656,5.568-16.628,10.75-24.749c3.248-5.259,10.75-15.158,17.169-15.158c0.232,0,0.232,0.078,0.464,0.078
				c18.484-0.62,27.611,32.946,27.919,47.254v1.934c0,0.618,0,1.237-0.077,1.778c-0.619,6.497-9.048,9.281-14.616,9.281
				c-6.885,0-10.982-4.099-12.84-10.595l-0.928-0.078c-0.155,0-0.23,0-0.309,0.078c-0.929,0-1.856-0.078-2.785-0.155l-1.083-0.077
				c-0.619,1.624-2.011,5.955-4.021,8.43c-1.006,1.315-2.32,2.166-3.867,2.552C27.882,147.254,26.26,147.409,24.636,147.409z
				 M40.334,133.952c3.636,0,7.116-0.619,10.597-1.779c-2.012,1.701-4.177,2.862-6.574,3.48c1.779,5.645,4.873,9.048,10.982,9.048
				c4.563,0,11.91-2.166,12.529-7.425c0.077-0.542,0.077-1.16,0.077-1.701v-1.779c-0.31-13.688-8.662-45.398-25.986-45.398h-0.387
				c-0.078-0.078-0.155-0.078-0.387,0c-1.16,0-3.712,0.619-7.889,4.795c-7.967,8.197-15.004,22.661-17.711,33.565
				c-1.778,7.425-1.855,13.303,0.31,15.392c2.397,2.242,5.568,3.248,8.74,3.248c1.854,0,3.712-0.309,5.567-0.85
				c2.32-0.851,4.642-7.038,5.259-9.358c-2.396-0.851-4.485-2.011-6.572-3.558c1.777,0.695,3.712,1.314,5.646,1.702
				C36.468,133.72,38.402,133.952,40.334,133.952z M25.564,108.662c0.696,0,1.083,0.31,1.083,1.005c0,0.696-0.387,1.083-1.083,1.083
				c-0.697,0-1.005-0.386-1.005-1.083C24.558,108.971,24.866,108.662,25.564,108.662z M39.021,91.26
				c0.077-0.078,0.31-0.155,0.541-0.155c0.387,0,0.619,0.155,0.851,0.387c0.311,0.542,0.155,1.083-0.231,1.392l-0.154,0.078
				c-4.253,2.861-9.281,10.518-12.144,15.004c-0.153,0.387-0.463,0.541-0.85,0.541c-0.077,0-0.231-0.077-0.464-0.154
				c-0.541-0.387-0.695-0.851-0.309-1.392c2.86-4.718,8.043-12.529,12.605-15.623L39.021,91.26z M45.981,117.015
				c-0.31,3.016-1.779,5.027-4.795,5.414c-0.388,0-0.696,0.077-1.083,0.077c-1.547-0.077-2.861-0.774-3.403-2.243
				c-0.231-0.618-0.387-1.315-0.31-2.088c0.076-3.016,1.16-4.718,2.32-5.723c0.695-0.542,1.393-1.005,2.242-1.237l0.232-0.077
				c0.23-0.078,0.464-0.078,0.851-0.078c2.088,0,3.248,1.547,3.789,3.48C45.981,115.391,46.059,116.241,45.981,117.015z
				 M38.323,118.175c0,0.541,0.078,1.005,0.232,1.314c0.077,0.387,0.309,0.696,0.618,0.773c0.31,0.155,0.618,0.231,1.006,0.231
				c2.319,0,3.558-1.237,3.79-3.635c0.077-0.773,0.077-1.392-0.078-1.856c-0.231-1.005-0.772-1.934-1.934-1.934
				c-1.778,0-2.938,1.857-3.402,3.481C38.402,117.169,38.323,117.71,38.323,118.175z"/>
			<path d="M77.073,140.294c1.855,4.254,15.081,4.486,19.257,4.486c0.388,0.078,0.928,0.078,1.47,0.078h1.779
				c6.729,0,17.865-1.083,18.484-10.828c0.618-7.502-1.469-10.75-5.414-11.756c-1.083-0.31-2.32-0.464-3.635-0.464
				c-3.017,0-6.343,0.619-10.055,1.315l-0.541-1.857c3.944-0.851,7.425-1.392,10.597-1.392c1.469,0,2.938,0.077,4.176,0.463
				c4.795,1.238,7.502,5.182,6.884,13.844c-0.852,11.369-13.071,12.684-20.418,12.684c-6.341,0-21.577-0.078-24.438-5.723
				c-1.006-2.475-2.011-11.601-2.629-21.81c-0.618-9.899-0.696-20.804-0.077-26.528c0.85-7.192,5.258-11.446,12.374-11.446
				c0.542,0,0.772,0,0.851,0.078h1.315c4.718,0.231,8.043,0.542,10.904,5.955c2.784,4.949-0.387,28.151-1.006,34.107
				c0.387-0.078,0.852-0.155,1.237-0.232c-1.237,0.387-2.319,0.696-3.325,1.083v0.31l-0.232,1.392
				c-1.778,0.542-3.479,1.314-5.723,3.171c1.547-2.708,3.48-3.945,5.955-4.873c0.541-3.171,3.789-29.389,1.314-34.03
				c-2.243-4.33-5.26-4.64-9.126-4.872l-1.47-0.078c-6.42,0-10.287,3.094-11.138,9.59C73.206,104.485,75.064,135.886,77.073,140.294
				z M80.4,86.311c0.928-0.464,2.089-0.696,3.479-0.696c0.697,0,1.007,0.309,1.007,1.004c0,0.697-0.31,1.007-1.007,1.007
				c-1.391,0-2.552,0.386-3.479,1.237c-2.552,2.397-2.552,7.657-2.552,14.076v1.16c0,0.696-0.31,1.005-1.006,1.005
				c-0.618,0-0.928-0.309-0.928-1.005l-0.078-1.16c0-1.933,0-3.867,0.078-5.646C76.068,92.034,77.073,87.858,80.4,86.311z
				 M87.05,85.305c0.696,0,1.083,0.387,1.083,1.083c0,0.541-0.464,1.083-1.083,1.083c-0.542,0-1.005-0.542-1.005-1.083
				C86.045,85.692,86.355,85.305,87.05,85.305z"/>
			<path d="M126.882,140.294c1.856,4.254,15.081,4.486,19.259,4.486c0.387,0.078,0.928,0.078,1.47,0.078h1.779
				c6.729,0,17.864-1.083,18.483-10.828c0.618-7.502-1.469-10.75-5.414-11.756c-1.083-0.31-2.319-0.464-3.635-0.464
				c-3.016,0-6.342,0.619-10.054,1.315l-0.542-1.856c3.943-0.851,7.424-1.392,10.596-1.392c1.469,0,2.938,0.077,4.176,0.463
				c4.795,1.238,7.502,5.182,6.884,13.844c-0.851,11.369-13.07,12.684-20.418,12.684c-6.341,0-21.577-0.078-24.438-5.723
				c-1.005-2.475-2.01-11.601-2.629-21.81c-0.619-9.899-0.696-20.804-0.077-26.528c0.85-7.192,5.258-11.446,12.374-11.446
				c0.542,0,0.773,0,0.851,0.078h1.315c4.718,0.231,8.042,0.542,10.905,5.955c2.783,4.949-0.388,28.151-1.006,34.107
				c0.387-0.078,0.851-0.155,1.236-0.232c-1.236,0.387-2.318,0.696-3.325,1.083v0.31l-0.231,1.392
				c-1.778,0.542-3.48,1.314-5.724,3.171c1.548-2.708,3.48-3.945,5.955-4.873c0.541-3.171,3.789-29.389,1.314-34.03
				c-2.243-4.33-5.259-4.64-9.126-4.872l-1.47-0.078c-6.419,0-10.286,3.094-11.138,9.59
				C123.016,104.485,124.871,135.886,126.882,140.294z M130.207,86.311c0.929-0.464,2.089-0.696,3.48-0.696
				c0.695,0,1.006,0.309,1.006,1.004c0,0.697-0.311,1.007-1.006,1.007c-1.392,0-2.552,0.386-3.48,1.237
				c-2.552,2.397-2.552,7.657-2.552,14.076v1.16c0,0.696-0.309,1.005-1.005,1.005c-0.619,0-0.928-0.309-0.928-1.005l-0.078-1.16
				c0-1.933,0-3.867,0.078-5.646C125.876,92.034,126.882,87.858,130.207,86.311z M136.86,85.305c0.696,0,1.083,0.387,1.083,1.083
				c0,0.541-0.464,1.083-1.083,1.083c-0.542,0-1.005-0.542-1.005-1.083C135.855,85.692,136.162,85.305,136.86,85.305z"/>
			<path d="M192.238,131.4c-1.857-9.822-1.625-22.893-1.006-30.627c1.006-14.307,17.092-17.866,28.848-17.866
				c3.017,0,6.032,0.233,9.048,0.696c9.514,1.47,17.403,8.353,18.021,18.098c0.233,3.171-0.31,6.419-1.778,9.281
				c-3.713,6.96-11.756,10.596-19.49,10.596c-2.707,0-5.49-0.542-7.889-2.011c1.006,3.094,2.474,7.811,2.708,9.589
				c0.231,1.47,0.463,3.249,0.385,5.182c-0.23,8.276-5.646,12.452-13.766,12.452c-5.336,0-8.662-1.47-10.905-4.253
				C194.17,139.83,193.088,136.04,192.238,131.4z M200.512,143.465c2.396,0.928,4.718,1.314,6.806,1.314
				c6.807,0,11.601-3.093,11.833-10.441c0-1.856-0.232-3.558-0.464-4.872c-0.232-1.47-1.083-4.563-2.01-7.347
				c-0.542-1.625-1.083-3.403-1.702-5.337c-1.625-2.475-2.397-5.877-2.477-8.585c0.852,2.088,1.625,3.558,2.32,4.873l1.933,2.862
				c2.167,2.708,5.726,3.635,9.127,3.635c6.884,0,14.386-3.171,17.711-9.513c1.314-2.552,1.857-5.336,1.623-8.198
				c-0.231-2.862-1.158-5.568-2.86-8.121c-5.183-7.657-13.769-8.817-22.274-8.817c-10.596,0-25.909,2.939-26.837,16.009
				c-0.618,7.657-0.696,20.418,0.929,30.085c0.311,1.933,1.005,4.718,2.012,7.115C197.11,140.604,198.578,142.768,200.512,143.465z
				 M194.481,108.43c0-0.619,0.541-1.083,1.083-1.083c0.694,0,1.083,0.387,1.083,1.083c0,0.696-0.388,1.005-1.083,1.005
				c-0.232,0-0.464-0.078-0.697-0.309C194.635,108.894,194.481,108.662,194.481,108.43z M194.635,105.569
				c-0.154-3.093,0.153-5.801,0.928-8.121c0.541-1.47,1.236-2.63,2.166-3.79l0.077-0.077c2.397-2.862,6.031-4.641,11.06-5.878
				c0.618,0,1.005,0.232,1.238,0.773c0.077,0.696-0.155,1.083-0.775,1.159c-4.639,1.161-7.887,2.708-9.976,5.183
				c-2.088,2.475-3.017,6.033-2.784,10.596c0.078,0.619-0.386,1.083-0.928,1.083h-0.077c-0.232,0-0.464-0.077-0.619-0.309
				C194.712,106.032,194.635,105.8,194.635,105.569z M225.107,106.496c-1.935,0-3.791-1.005-4.331-3.094
				c-0.155-0.464-0.155-1.083-0.077-1.779c0.541-2.396,2.241-4.641,4.949-4.641c2.089,0,3.867,1.47,4.253,3.559
				c0.231,1.237,0,2.475-0.774,3.634c-0.387,0.696-1.005,1.315-1.7,1.702C226.732,106.264,225.957,106.496,225.107,106.496z
				 M225.03,104.485c1.006,0,1.856-0.541,2.397-1.391c0.463-0.619,0.618-1.393,0.463-2.243c-0.231-1.16-1.083-1.856-2.242-1.856
				c-1.625,0-2.708,1.47-2.939,2.939c-0.077,0.464-0.077,0.773,0,1.005C222.941,104.099,224.102,104.485,225.03,104.485z"/>
			<path d="M310.182,106.729c1.549,8.739-0.463,17.478-5.027,24.594c-6.188,9.667-15.854,15.7-27.377,15.7
				c-12.221,0-25.137-6.651-28.229-19.335c-0.852-3.481-1.006-7.425-0.155-11.987c1.159-6.884,3.559-12.22,6.42-16.551
				c5.955-8.895,15.855-15.468,26.914-15.468c6.807,0,13.07,2.398,17.943,6.42C305.541,94.199,308.946,99.923,310.182,106.729z
				 M251.326,116.087c-0.85,4.253-0.695,7.811,0.156,11.138c2.938,11.832,14.77,17.788,26.373,17.788
				c10.904,0,19.953-5.724,25.6-14.771c4.33-6.807,6.264-14.927,4.795-23.202c-2.244-12.375-12.684-21.423-25.521-21.423
				C265.944,85.615,254.033,100.619,251.326,116.087z M279.323,122.97c-3.016,0-6.031-1.702-6.883-4.795
				c-0.23-0.851-0.23-1.779,0-2.939c0.619-3.867,3.635-7.58,7.967-7.58c3.326,0,6.189,2.321,6.73,5.646
				c0.389,2.089,0,4.1-1.16,5.878c-0.695,1.16-1.623,2.088-2.783,2.784C282.031,122.661,280.717,122.97,279.323,122.97z
				 M285.201,113.689c-0.387-2.398-2.395-4.022-4.795-4.022c-3.17,0-5.492,2.939-6.033,5.956c-0.152,0.773-0.152,1.47,0,2.087
				c0.541,2.243,2.863,3.249,4.949,3.249c2.09,0,3.791-1.006,4.951-2.784C285.125,116.86,285.51,115.236,285.201,113.689z
				 M281.102,88.399c0-0.696,0.311-1.083,1.006-1.083c0.697,0,1.084,0.387,1.084,1.083c0,0.696-0.387,1.006-1.084,1.006
				C281.412,89.404,281.102,89.095,281.102,88.399z M285.51,87.626c9.283,1.16,15.238,6.187,18.873,14.771l0.076,0.231
				c0.232,0.619,0.078,1.083-0.541,1.315c-0.076,0.077-0.23,0.077-0.387,0.077c-0.465,0-0.773-0.232-0.93-0.619l-0.076-0.232
				c-3.324-7.733-8.816-12.605-17.246-13.611c-0.695-0.077-0.928-0.464-0.854-1.083C284.506,87.78,284.893,87.549,285.51,87.626z"/>
			<path d="M344.524,82.753c10.363,0,23.59,5.027,23.355,17.169c-0.232,5.955-4.871,9.745-6.883,10.982
				c1.625,3.248,5.955,14.849-2.553,26.218c-5.26,6.883-11.68,9.822-20.266,9.822c-9.277,0-23.975-4.253-25.83-14.54
				c-0.463-2.784-0.152-5.491,1.008-8.198c1.625-3.867,5.104-7.579,9.59-7.579c3.326,0,5.955,2.011,8.662,3.866
				c2.088,1.47,3.943,2.862,5.568,2.862c0.695,0,1.471-0.231,1.855-0.773c0.387-0.31,0.465-0.773,0.311-1.392
				c-0.387-2.862-4.254-5.723-6.498-6.96c-4.717-2.398-8.352-4.95-10.285-8.276c-1.934-3.479-1.934-7.58,0.85-13.148
				C327.123,85.46,336.944,82.753,344.524,82.753z M315.133,124.98c-0.852,2.167-1.313,4.641-0.77,7.116
				c1.701,9.358,15.93,12.838,23.816,12.838c9.053,0,15.625-3.558,20.266-11.369c3.402-5.878,3.559-11.292,2.707-15.546
				c-0.389-2.475-1.158-4.795-2.32-6.96l-0.154-0.31c-3.094-4.408-8.197-8.662-13.379-10.518c4.641,0,11.834,5.723,14.461,9.126
				c1.547-0.928,6.111-4.254,6.111-9.513c0.23-10.982-12.299-15.081-21.346-15.081c-7.115,0-15.777,2.32-19.334,8.972
				c-2.398,4.873-2.479,8.353-0.854,11.214c1.623,3.016,5.025,5.258,9.438,7.502c2.859,1.469,6.959,4.795,7.578,8.352
				c0.152,1.315-0.076,2.321-0.773,3.094c-0.85,0.928-2.166,1.47-3.4,1.47c-4.41,0.232-8.818-6.728-14.232-6.728
				C319.311,118.639,316.371,121.886,315.133,124.98z M339.496,141.222c0.232,0.077,0.541,0.077,0.773,0.077h0.695
				c7.424,0,13.611-5.956,15.469-12.915c0.076-0.696,0.697-0.696,1.238-0.696c0.541,0.231,0.771,0.619,0.695,1.237
				c-2.242,7.734-9.051,14.385-17.402,14.385c-0.617,0-1.236-0.077-1.779-0.154c-0.695-0.078-0.928-0.464-0.85-1.083
				C338.569,141.377,338.955,141.145,339.496,141.222z M359.449,125.677c0,0.696-0.309,1.005-1.006,1.005
				c-0.695,0-1.082-0.309-1.082-1.005c0-0.697,0.387-1.083,1.082-1.083C359.141,124.594,359.449,124.98,359.449,125.677z"/>
			<path d="M409.723,142.768c-2.242,3.094-8.508,4.022-12.066,4.022c-3.246,0-7.732-0.618-9.977-3.248
				c-3.867-4.486,1.547-23.048,3.094-29.002c-2.164,0.464-4.33,0.696-6.418,0.696c-9.281,0-14.541-2.861-14.928-13.07
				c-0.23-4.021,0.619-8.275,1.779-11.369c0.541-1.237,1.084-2.32,1.701-3.016c3.326-4.176,24.594-4.873,29.854-4.873
				c7.115,0,28.693,0.542,31.709,8.739l0.078,0.155c1.158,3.479,1.082,8.971-0.078,13.689c-1.004,4.949-3.17,9.28-5.879,10.209
				c-1.855,0.618-4.328,0.851-6.805,0.851c-3.094,0-6.189-0.31-7.734-0.542c-0.23,3.867-1.393,17.247-3.17,23.82
				C410.496,141.145,410.108,142.151,409.723,142.768z M412.198,114.076c0-1.779-0.232-3.945-1.701-6.651
				c1.779,1.161,2.783,3.558,3.17,6.574c1.238,0.232,4.719,0.541,8.199,0.541c2.242,0,4.408-0.155,6.031-0.696
				c2.09-0.696,3.713-4.408,4.641-8.74c1.006-4.562,1.236-9.512,0.078-12.683v-0.078c-2.475-6.728-23.125-7.424-29.854-7.424
				c-7.656,0-19.182,0.464-25.986,2.939c-2.475,0.851-2.629,1.392-3.713,3.712c-2.32,5.645-2.553,15.854,1.547,19.335
				c2.244,1.778,7.039,2.319,9.668,2.319c2.553,0,5.184-0.308,7.656-1.005c1.238-2.397,3.018-4.099,4.795-4.641
				c-1.934,2.166-2.939,4.177-3.557,6.033c-0.619,1.469-7.658,24.671-4.021,28.615c1.855,2.088,5.877,2.552,8.43,2.552
				c2.861,0,8.893-0.773,10.518-3.171c1.779-2.397,2.939-13.457,3.561-20.649L412.198,114.076z M374.071,93.348
				c0.695-1.933,1.545-3.48,2.783-3.867c6.186-1.624,12.527-2.398,18.949-2.398c0.541,0,1.004,0.465,0.926,1.006
				c0,0.696-0.309,1.005-1.006,1.005c-6.262,0-12.143,0.696-18.33,2.32c-1.236,0.231-2.551,6.729-2.705,7.812
				c-0.232,0.851-0.617,0.774-1.16,0.774c-0.619-0.078-0.852-0.464-0.775-1.16C373.063,97.061,373.528,95.128,374.071,93.348z
				 M399.746,88.09c0,0.696-0.311,1.005-1.006,1.005c-0.697,0-1.084-0.309-1.084-1.005s0.387-1.083,1.084-1.083
				C399.436,87.007,399.746,87.394,399.746,88.09z"/>
			<path d="M469.354,82.753c10.363,0,23.59,5.027,23.357,17.169c-0.232,5.955-4.873,9.745-6.885,10.982
				c1.625,3.248,5.955,14.849-2.553,26.218c-5.26,6.883-11.678,9.822-20.266,9.822c-9.277,0-23.975-4.253-25.83-14.54
				c-0.463-2.784-0.152-5.491,1.006-8.198c1.623-3.867,5.105-7.579,9.592-7.579c3.324,0,5.955,2.011,8.66,3.866
				c2.09,1.47,3.943,2.862,5.568,2.862c0.697,0,1.471-0.231,1.855-0.773c0.387-0.31,0.465-0.773,0.311-1.392
				c-0.387-2.862-4.254-5.723-6.496-6.96c-4.719-2.398-8.354-4.95-10.287-8.276c-1.934-3.479-1.934-7.58,0.854-13.148
				C451.951,85.46,461.776,82.753,469.354,82.753z M439.965,124.98c-0.852,2.167-1.313,4.641-0.771,7.116
				c1.699,9.358,15.932,12.838,23.816,12.838c9.051,0,15.625-3.558,20.266-11.369c3.402-5.878,3.559-11.292,2.707-15.546
				c-0.387-2.475-1.158-4.795-2.318-6.96l-0.156-0.31c-3.092-4.408-8.197-8.662-13.379-10.518c4.641,0,11.832,5.723,14.461,9.126
				c1.549-0.928,6.111-4.254,6.111-9.513c0.229-10.982-12.299-15.081-21.346-15.081c-7.115,0-15.777,2.32-19.336,8.972
				c-2.396,4.873-2.477,8.353-0.852,11.214c1.623,3.016,5.027,5.258,9.438,7.502c2.859,1.469,6.961,4.795,7.576,8.352
				c0.156,1.315-0.074,2.321-0.77,3.094c-0.854,0.928-2.166,1.47-3.404,1.47c-4.408,0.232-8.816-6.728-14.23-6.728
				C444.141,118.639,441.201,121.886,439.965,124.98z M464.326,141.222c0.232,0.077,0.541,0.077,0.773,0.077h0.697
				c7.424,0,13.611-5.956,15.467-12.915c0.076-0.696,0.695-0.696,1.238-0.696c0.541,0.231,0.771,0.619,0.695,1.237
				c-2.242,7.734-9.049,14.385-17.4,14.385c-0.619,0-1.238-0.077-1.781-0.154c-0.695-0.078-0.926-0.464-0.85-1.083
				C463.399,141.377,463.785,141.145,464.326,141.222z M484.28,125.677c0,0.696-0.309,1.005-1.006,1.005
				c-0.695,0-1.082-0.309-1.082-1.005c0-0.697,0.387-1.083,1.082-1.083C483.971,124.594,484.28,124.98,484.28,125.677z"/>
		</g>
	</g>
	<g id="레이어_2">
		<g>
			<polyline fill="none" stroke="#020202" stroke-width="6" stroke-miterlimit="10" points="215.683,218.886 154.279,218.886 
				154.279,375.646 351.483,375.646 380.414,261.397 185.865,261.397 154.279,375.646 			"/>
			<polyline fill="none" stroke="#020202" stroke-width="6" stroke-miterlimit="10" points="216.865,261.397 216.865,197.63 
				305.43,197.63 332.589,229.514 332.589,261.397 			"/>
			<polyline fill="none" stroke="#020202" stroke-width="6" stroke-miterlimit="10" points="332.589,235.419 351.483,235.419 
				351.483,261.397 			"/>
			
				<line fill="none" stroke="#020202" stroke-width="6" stroke-miterlimit="10" x1="234.577" y1="218.886" x2="274.727" y2="218.886"/>
			
				<line fill="none" stroke="#020202" stroke-width="6" stroke-miterlimit="10" x1="235.759" y1="237.781" x2="275.907" y2="237.781"/>
			<polyline fill="none" stroke="#020202" stroke-width="6" stroke-miterlimit="10" points="305.43,197.63 305.43,229.514 
				332.589,229.514 			"/>
		</g>
	</g>
</g>
</svg>
