<?xml version="1.0" encoding="utf-8"?>
<!-- Generator: Adobe Illustrator 15.1.0, SVG Export Plug-In . SVG Version: 6.00 Build 0)  -->
<!DOCTYPE svg PUBLIC "-//W3C//DTD SVG 1.1//EN" "http://www.w3.org/Graphics/SVG/1.1/DTD/svg11.dtd">
<svg version="1.1" id="레이어_1" xmlns="http://www.w3.org/2000/svg" xmlns:xlink="http://www.w3.org/1999/xlink" x="0px"
	 y="0px" width="500px" height="447.085px" viewBox="0 0 500 447.085" enable-background="new 0 0 500 447.085"
	 xml:space="preserve">
<rect x="-1" fill="#FFFFFF" width="500" height="447.085"/>
<g>
	<g>
		<path d="M112.145,282.497c-4.361-0.55-8.76,1.144-12.433,3.358c-7.108,4.283-12.499,12.614-9.608,21.118
			c3.311,9.742,16.707,11.384,24.704,7.229c9.206-4.783,14.23-14.305,8.243-23.842C120.339,286.57,116.988,283.106,112.145,282.497z
			 M113.683,311.276c-2.887,0.764-7.708-1.401-10.096-2.893c-2.4-1.502-4.224-3.522-5.143-6.226
			c-1.313-3.866-0.774-11.798,3.172-14.407c-0.658,0.605,3.066-0.003,3.416,0.05c1.095,0.164,2.216,0.548,3.203,1.046
			c2.748,1.391,4.724,3.881,6.476,6.329C117.059,298.917,119.853,309.644,113.683,311.276z"/>
		<path d="M184.678,279.448c-1.94-5.645-6.443-11-12.504-12.272c-3.658-0.767-7.269,0.03-10.548,1.63
			c-2.336-9.973-5.16-22.039-15.593-25.555c-6.653-2.243-14.27-2.569-21.226-2.885c-7.276-0.33-14.57-0.102-21.808,0.722
			c-13.173,1.5-26.753,4.26-37.471,12.473c-0.2,0.132-0.374,0.259-0.505,0.377c-0.407,0.32-0.87,0.718-1.158,1.102
			c-7.514,7.41-9.573,16.892-12.336,26.941c-2.16,7.854-0.485,17.749,8.856,19.455c0.927,0.17,1.87,0.267,2.82,0.313
			c-0.663,2.275-1.192,4.568-1.525,6.853c-0.655,4.479-0.703,9.496,0.554,13.892c1.252,4.376,4.345,6.915,8.252,8.916
			c8.931,4.574,19.255,5.34,29.115,5.559c11.059,0.246,22.219,0.617,33.26-0.258c7.382-0.587,15.669-3.101,20.342-9.285
			c1.059-1.404,1.802-2.941,2.318-4.558c9.993-1.498,20.148-5.624,25.954-14.123c2.813-4.115,3.382-10.01,1.792-14.674
			C186.276,289.77,186.426,284.535,184.678,279.448z M167.269,292.095c0.595,0.076,1.188,0.211,1.73,0.394
			c1.806,0.604,3.398,1.839,4.554,3.341c0.468,0.606,0.858,1.268,1.199,1.952c-1.458,1.222-3.15,1.072-4.924-0.013
			c-2.343-1.435-1.789-2.63-2.474-4.931C167.244,292.464,167.254,292.234,167.269,292.095z M59.072,282.043
			c0.451-4.419,2.161-8.919,3.331-13.191c1.539-5.624,3.464-11.4,7.953-15.401c4.289-3.383,10.329-4.402,15.572-5.443
			c5.889-1.169,11.869-1.901,17.86-2.256c10.682-0.634,22.174-0.469,32.606,2.189c11.195,2.853,13.072,13.011,15.898,22.759
			c1.201,4.146,4.47,11.112,0.374,14.625c-4.602,3.946-13.851,3.946-18.129-0.357c-3.695-3.719-2.995-7.18-1.056-11.542
			c1.513-3.403,1.269-6.354-2.605-7.445c-10.081-2.843-22.14-2.528-32.436-1.379c-7.065,0.788-16.695,2.835-20.182,9.934
			c-1.7,3.458-0.507,7.432,1.249,10.629c1.072,1.95,2.964,3.783,3.5,5.965c0.134,0.546,0.375,2.904,0.024,3.384
			c-0.438,0.597-3.248,0.755-4.093,0.928c-5.453,1.111-12.692,2.302-16.883-2.392C59.421,290.095,58.681,285.871,59.072,282.043z
			 M146.981,327.449c-1.387,3.729-3.889,3.671-7.573,3.966c-8.771,0.695-17.608,0.533-26.396,0.381
			c-8.277-0.144-16.613-0.134-24.718-2.045c-6.947-1.639-15.573-4.469-17.718-12.074c-1.505-5.341-1.147-11.058,0.131-16.512
			c2.07-0.365,4.109-0.851,6.058-1.335c4.808-1.196,10.281-3.482,13.32-7.615c3.648-4.964-0.766-8.587-2.848-13.059
			c-0.802-1.722-1.432-3.628-1.394-5.502c0.086-0.044,0.17-0.093,0.257-0.134c4.374-2.064,10.555-1.999,15.316-2.397
			c4.859-0.406,9.733-0.62,14.609-0.646c1.555-0.008,3.153-0.021,4.749,0.047c1.939,0.255,3.86,0.735,4.721,1.865
			c1.995,2.619-1.243,5.877-1.949,8.335c-1.206,4.19,1.101,8.291,4.578,10.614c3.677,2.457,8.103,2.467,12.296,1.583
			c1.071,2.859,2.144,5.719,3.25,8.563c2.169,5.577,3.96,11.523,4.29,17.527C148.114,321.823,147.972,324.781,146.981,327.449z
			 M175.952,306.031c-1.675,9.997-11.007,11.664-19.555,12.129c0.304-4.417-0.59-9.064-1.648-13.116
			c-1.334-5.108-3.13-10.198-5.074-15.231c3.036-1.352,5.959-3.016,8.479-5.054c4.36-3.525,5.518-7.454,4.211-12.839
			c1.022,0.397,3.323,0.794,3.8,0.961c1.715,0.604,3.287,1.608,4.641,2.811c2.561,2.272,4.424,5.352,5.532,8.572
			c0.321,0.935,0.599,1.948,0.802,2.992c-1.83-0.67-4.008-0.803-6.542-0.175c-4.267,1.058-9.914,4.32-11.36,8.775
			c-1.632,5.028,2.935,8.452,7.606,8.159c3.041-0.191,6.16-1.47,8.97-3.234C176.192,302.506,176.24,304.309,175.952,306.031z"/>
	</g>
	<g>
		<path d="M225.658,237.839c-0.189,0.023-0.377,0.04-0.564,0.06c-0.023,0.146-0.05,0.307-0.077,0.48
			C225.437,238.351,225.747,238.207,225.658,237.839z"/>
		<path d="M300.41,286.789c-0.482-14.872-0.494-29.608,0.121-44.473c0.146-3.546-0.045-7.391-4.084-8.453
			c-2.572-0.677-5.615-0.344-8.248-0.392c-4.029-0.073-8.059-0.094-12.088-0.1c-12.691-0.018-25.357,0.151-38.017-0.786
			c-7.261-0.539-16.459,0.757-20.728,7.581c-2.865,4.578-1.392,11.943-1.456,17.066c-0.094,7.557-0.218,15.112-0.345,22.669
			c-0.247,14.664-0.096,29.38-0.756,44.03c-0.17,3.771-0.665,7.502-0.919,11.259c-0.147,2.182-0.233,4.718,1.735,6.116
			c2.005,1.425,5.258,1.399,7.606,1.737c3.806,0.55,7.636,0.901,11.474,1.131c15.715,0.942,31.543,0.479,47.282,0.806
			c4.877,0.101,8.816-0.041,13.063-2.803c4.693-3.051,5.521-7.08,5.596-12.456C300.846,315.384,300.875,301.13,300.41,286.789z
			 M292.281,331.921c-0.025,1.045-0.004,2.09-0.035,3.135c-0.031,1.098-0.746,3.525-0.449,4.485
			c-0.018,0.075-0.035,0.151-0.053,0.229c-1.063-0.077-2.168-0.063-3.213-0.084c-11.977-0.248-23.951-0.222-35.928-0.403
			c-5.876-0.091-11.755-0.325-17.602-0.963c-3.261-0.355-11.573-0.167-12.639-4.194c-0.605-2.29,0.182-5.212,0.391-7.518
			c0.279-3.074,0.439-6.159,0.542-9.245c0.209-6.273,0.207-12.556,0.294-18.831c0.171-12.209,0.405-24.417,0.588-36.626
			c0.095-6.392,0.118-12.786,0.229-19.177c0.006-0.387,0.368-2.825,0.608-4.349c-0.972,0.065-2.545-0.498-1.217-0.424
			c0.417,0.024,0.854-0.011,1.294-0.057c0.074-0.461,0.125-0.761,0.131-0.754c0.258,0.291,0.391,0.518,0.434,0.694
			c0.562-0.068,1.124-0.14,1.664-0.142c8.583-0.037,17.222,0.926,25.834,0.964c6.334,0.028,12.666-0.014,19,0.01
			c2.879,0.01,5.758,0.032,8.635,0.08c2.748,0.045,6.893-0.653,9.27,0.804c3.344,2.047,2.014,7.592,1.84,10.779
			c-0.344,6.313-0.432,12.639-0.389,18.961c0.096,13.79,0.846,27.564,1.043,41.353C292.656,317.752,292.455,324.822,292.281,331.921
			z"/>
		<path d="M281.551,245.833c-4.5-0.462-9.363,0.199-13.881,0.35c-9.533,0.318-19.063,0.693-28.6,0.8
			c-1.63,0.018-7.488,2.582-7.466,4.67c0.205,19.419-0.688,38.842,0.133,58.254c-0.015,0.135-0.012,0.267,0.024,0.395
			c0.695,2.434,3.938,1.714,6.026,1.786c4.316,0.146,8.634,0.265,12.953,0.354c8.348,0.173,16.697,0.23,25.049,0.195
			c1.568-0.007,7.568-2.625,7.467-4.671c-0.975-19.479-0.203-38.727,0.932-58.169C284.33,247.362,284.174,246.102,281.551,245.833z
			 M275.395,259.04c-1.158,16.075-1.365,32.195-0.727,48.295c-4.643-0.013-9.285-0.045-13.928-0.124
			c-3.457-0.06-6.91-0.137-10.363-0.233c-2.043-0.057-9.591,0.67-10.262-1.468c-0.734-17.786-0.057-35.577-0.104-53.369
			c5.917-0.14,11.832-0.345,17.746-0.548c4.492-0.155,8.984-0.307,13.479-0.41c2.457-0.057,3.898-0.668,4.639,1.792
			C276.336,254.512,275.512,257.405,275.395,259.04z"/>
		<path d="M259.383,318.337c-6.18-1.402-14.237,4.72-11.178,11.308c0.439,0.947,1.098,1.806,1.955,2.399
			c1.346,0.932,3.061,1.139,4.699,1.125c1.268-0.01,2.549-0.142,3.732-0.6C263.776,330.563,266.063,319.852,259.383,318.337z"/>
	</g>
	<g>
		<path d="M452.604,269.466c-2.217-6.102-5.969-11.466-9.66-16.76c-3.482-4.992-7.322-9.8-12.461-13.172
			c-5.096-3.343-11.141-5.034-16.926-6.768c-6.553-1.965-13.324-3.466-20.18-2.394c-11.605,1.814-23.23,8.757-32.271,16.004
			c-9.33,7.481-16.936,17.232-20.641,28.699c-3.848,11.913-2.518,24.894,1.648,36.576c3.984,11.168,15.221,12.22,25.539,12.315
			c2.307,0.022,2.402,0.159,3.328,2.527c0.613,1.571,1.168,3.169,1.754,4.752c1.268,3.434,2.533,6.867,3.801,10.302
			c0.754,2.039,1.238,5.249,3.689,5.825c2.178,0.512,4.998-1.239,6.727-2.291c4.699-2.862,8.049-7.113,10.842-11.771
			c0.813-1.354,1.578-2.733,2.383-4.094c0.318-0.54,0.818-1.146,1.041-1.731c0.195-0.514,0.467-0.758,0.609-0.858
			c0.617-0.068,1.215-0.141,1.475-0.19c1.789-0.345,3.578-0.686,5.363-1.053c13.107-2.691,26.463-7.297,36.068-17.053
			C454.594,298.317,456.596,282.598,452.604,269.466z M400.85,326.748c-1.699,0.147-0.551,0.043,0.709-0.093
			C401.393,326.687,401.164,326.721,400.85,326.748z M443.164,302.361c-3.918,9.041-12.061,13.552-21.172,16.065
			c-7.701,2.122-17.07,2.06-23.781,6.748c-3.006,2.1-4.768,5.127-6.576,8.232c-1.297,2.231-2.785,5.54-4.721,7.899
			c-1.941-1.999-3.217-7.77-3.793-9.329c-1.332-3.61-2.301-8.672-4.387-11.885c-1.297-1.999-2.779-1.443-5.166-1.412
			c-3.373,0.046-6.771-0.1-10.08-0.816c-6.555-1.421-11.127-5.26-13.24-11.664c-2.289-6.937-3.994-14.723-3.746-22.036
			c0.508-14.969,8.348-29.004,19.938-38.274c5.883-4.706,13.275-9.042,20.791-10.255c8.316-1.342,16.809,1.681,24.609,4.251
			c7.92,2.608,14.182,6.514,19.404,13.076c5.072,6.375,10.225,13.633,13.02,21.319C446.94,283.087,446.867,293.82,443.164,302.361z"
			/>
		<path d="M418.66,282.773c-1.488-1.587-3.844-2.511-5.879-1.782c-2.449,0.874-3.756,3.771-6.225,4.589
			c-2.465,0.817-5.072-0.734-7.059-2.432c-3.096-2.645-5.73-5.829-7.754-9.367c-0.268-0.463-0.529-0.966-0.504-1.499
			c0.059-1.213,1.443-1.799,2.342-2.608c2.547-2.291,1.129-6.587-0.965-9.329c-5.459-7.151-10.963-5.934-16.426-0.07
			c-4.293,4.604-6.406,11.486-4.141,17.582c2.203,5.932,6.752,10.656,11.404,14.931c3.221,2.96,6.553,5.797,9.984,8.504
			c1.887,1.489,3.881,2.976,6.211,3.531c3.012,0.72,6.156-0.214,9.008-1.4c2.811-1.17,5.516-2.594,8.07-4.251
			c2.146-1.394,4.32-3.14,4.971-5.628c0.42-1.608,0.139-3.32-0.264-4.938C420.912,286.491,420.147,284.36,418.66,282.773z"/>
	</g>
</g>
<g>
	<path d="M44.707,79.857c5.18,0,8.449,0.984,9.809,2.953c1.523,1.898,2.285,4.869,2.285,8.912v0.369c0,3.516-0.434,6.48-1.301,8.895
		c-0.914,1.723-2.027,2.584-3.34,2.584c-0.293,0-1.559-0.076-3.797-0.229c-6.398,0-11.672,1.928-15.82,5.783
		c-1.324,1.746-1.986,3.293-1.986,4.641v0.229c0,0.047-0.023,0.07-0.07,0.07l0.07,0.158v0.229c0,2.133,1.242,3.984,3.727,5.555
		c1.934,0.914,3.709,1.371,5.326,1.371c0,0.047,0.029,0.07,0.088,0.07c1.418,0,3.217-0.609,5.396-1.828
		c0.867-0.469,2.338-1.758,4.412-3.867c0.527-0.105,0.855-0.158,0.984-0.158c3.035,0,5.771,2.309,8.209,6.926
		c0.199,0.574,0.299,1.078,0.299,1.512v0.387c-0.34,1.887-1.705,4.266-4.096,7.137c-5.941,5.73-12.557,8.596-19.846,8.596
		c-4.98,0-10.23-2.637-15.75-7.91c-5.168-6.879-7.752-13.77-7.752-20.672c0-5.355,1.471-10.605,4.412-15.75
		c4.84-7.254,11.127-12.146,18.861-14.678C37.524,80.285,40.817,79.857,44.707,79.857z M16.653,106.154v0.545
		c0,0.129,0.047,0.357,0.141,0.686h0.229c0.328-0.281,0.99-1.676,1.986-4.184c3.176-6.867,8.145-11.859,14.906-14.977
		c3.949-1.43,6.51-2.145,7.682-2.145c2.438-0.375,3.955-0.674,4.553-0.896l0.158-0.229v-0.158c-0.316-0.492-1.307-0.773-2.971-0.844
		c-0.117-0.047-0.574-0.07-1.371-0.07c-7.148,0-13.559,3.018-19.23,9.053c-2.941,3.375-4.793,6.568-5.555,9.58
		C16.828,104.051,16.653,105.264,16.653,106.154z M37.94,125.631c0.434,0.703,1.523,1.055,3.27,1.055
		c2.754,0,5.695-1.166,8.824-3.498c0.551-0.551,0.826-1.031,0.826-1.441c0-0.469-0.352-0.744-1.055-0.826
		c-0.516,0-2.367,0.809-5.555,2.426c-1.348,0.563-3.246,1.148-5.695,1.758C38.145,125.303,37.94,125.479,37.94,125.631z"/>
	<path d="M84.047,80.156h0.07c9.223,0,15.41,5.549,18.563,16.646c2.027,6.035,3.041,11.561,3.041,16.576v0.686
		c0,11.297-5.479,19.307-16.436,24.029c-3.117,1.125-5.93,1.688-8.438,1.688c-7.723,0-13.553-4.74-17.49-14.221
		c-1.266-3.504-1.898-7.154-1.898-10.951v-0.844c0-7.371,1.875-14.795,5.625-22.271c0.996-1.922,2.367-3.803,4.113-5.643
		C74.912,82.055,79.196,80.156,84.047,80.156z M66.785,106.242v0.369c0,0.375,0.076,0.58,0.229,0.615
		c0.305-0.352,1.066-2.379,2.285-6.082c1.711-4.359,3.434-7.553,5.168-9.58c1.699-2.215,4.459-3.891,8.279-5.027
		c2.027-0.469,3.041-0.844,3.041-1.125v-0.158c-0.258-0.551-1.348-0.879-3.27-0.984c-4.008,0-7.582,2.203-10.723,6.609
		c-1.09,1.535-2.18,3.768-3.27,6.697C67.365,101.303,66.785,104.191,66.785,106.242z M80.461,114.979
		c0,2.742,1.043,4.594,3.129,5.555c0.352,0.152,0.855,0.281,1.512,0.387c1.711,0,3.51-1.242,5.396-3.727
		c0.609-1.219,0.914-2.285,0.914-3.199c0-3.328-2.051-5.813-6.152-7.453c-0.41-0.035-0.615-0.088-0.615-0.158
		c-1.699,0-3.041,2.109-4.025,6.328C80.514,113.801,80.461,114.557,80.461,114.979z M84.276,124.559v0.158
		c0.457,0.609,1.219,0.914,2.285,0.914h0.668c2.883,0,5.443-1.828,7.682-5.484c0.563-1.195,0.844-2.256,0.844-3.182
		c-0.082-0.867-0.234-1.301-0.457-1.301h-0.07c-0.398,0-1.16,0.938-2.285,2.813c-1.465,2.238-3.773,3.885-6.926,4.939
		C84.856,123.768,84.276,124.148,84.276,124.559z"/>
	<path d="M145.588,79.313c2.414,0,4.623,0.563,6.627,1.688c1.207,0.797,2.016,1.887,2.426,3.27c0.41,2.133,0.867,7.605,1.371,16.418
		c0.199,3.129,0.328,7.207,0.387,12.234c0,10.477-0.914,18.715-2.742,24.715c-0.832,1.371-2.15,2.057-3.955,2.057h-0.457
		c-3,0-6.521-1.166-10.564-3.498c-1.629-1.078-3.053-2.52-4.271-4.324c-2.262-3.633-4.564-9.363-6.908-17.191h-0.088v0.299
		c0,5.941,0.486,12.176,1.459,18.703c0.059,0,0.105,0.41,0.141,1.23c0,1.617-0.885,2.707-2.654,3.27
		c-0.867,0.152-1.576,0.229-2.127,0.229c-6.457,0-10.436-0.709-11.936-2.127c-1.477-1.148-2.215-2.725-2.215-4.729
		c-1.266-11.719-1.898-21.756-1.898-30.111v-1.283c0-9.129,0.861-15.545,2.584-19.248c0.539-0.457,1.705-0.686,3.498-0.686
		c3.762,0,8.121,0.586,13.078,1.758c2.449,0.832,3.896,1.693,4.342,2.584c2.332,3.059,4.939,9.094,7.822,18.105h0.088v-0.229
		c0-3.27-0.434-8.191-1.301-14.766c-0.047-0.527-0.07-1.236-0.07-2.127v-0.598c0-2.391,0.328-3.814,0.984-4.271
		C141.223,79.77,143.35,79.313,145.588,79.313z M111.838,87.873c0.164,1.23,0.557,1.846,1.178,1.846
		c1.512-0.82,3.352-2.121,5.52-3.902c1.453-0.645,2.18-1.002,2.18-1.072c0-0.27-1.16-0.844-3.48-1.723l-0.967-0.123
		c-2.074,0-3.475,1.16-4.201,3.48C111.914,87.012,111.838,87.51,111.838,87.873z M140.754,85.518c0,0.574,0.211,1.002,0.633,1.283
		h0.316c0.574,0,1.799-0.803,3.674-2.408c0.809-0.363,1.213-0.756,1.213-1.178v-0.334c-0.41-0.586-1.207-0.879-2.391-0.879
		c-1.559,0-2.66,0.826-3.305,2.479C140.801,84.902,140.754,85.248,140.754,85.518z"/>
	<path d="M174.979,79.998h2.057c7.992,0,17.496,0.938,28.512,2.813c2.074,1.23,3.111,3.035,3.111,5.414v0.299
		c0,2.332-0.604,4.816-1.811,7.453c-0.422,0.609-1.084,0.914-1.986,0.914c-3.926,0.504-8.08,0.932-12.463,1.283v0.088
		c0.305,3.563,0.457,6.727,0.457,9.492c0,8.531-0.967,18.545-2.9,30.041c-0.773,1.523-2.877,2.285-6.311,2.285h-1.828
		c-3.293,0-5.215-0.686-5.766-2.057c-1.676-13.418-2.514-25.078-2.514-34.98v-3.797c-1.254,0.047-2.215,0.07-2.883,0.07
		c-6.293,0-9.439-0.123-9.439-0.369c-0.926-0.82-1.482-1.787-1.67-2.9c-0.457-1.641-0.686-4.072-0.686-7.295
		c0-3.809,0.457-6.164,1.371-7.066c0.609-0.609,4.084-1.119,10.424-1.529C170.655,80.063,172.096,80.01,174.979,79.998z
		 M170.338,83.813c-0.949,0-1.963,0.047-3.041,0.141l-0.141-0.07c-1.992,0-3.363,0.838-4.113,2.514
		c-0.105,0.469-0.158,0.85-0.158,1.143c0.117,1.055,0.475,1.582,1.072,1.582h0.141c0.223,0,0.885-0.328,1.986-0.984
		c0.949-0.855,1.682-1.283,2.197-1.283v0.07c0.164-0.047,0.621-0.123,1.371-0.229v0.07c0.27-0.094,0.803-0.141,1.6-0.141
		c0-0.059,0.023-0.088,0.07-0.088v0.088l0.158-0.088h0.615l0.457-0.07c0.047,0,0.07,0.023,0.07,0.07l0.387-0.07h0.686l0.141-0.07
		v0.07l0.158-0.07c0.047,0,0.07,0.023,0.07,0.07l0.158-0.07h1.441c0.117,0,0.217-0.029,0.299-0.088c0.059,0,0.088,0.029,0.088,0.088
		c0.504-0.059,0.885-0.088,1.143-0.088h3.111c0.047,0,0.07,0.029,0.07,0.088l0.158-0.088h0.158c0.047,0,0.07,0.029,0.07,0.088
		l0.158-0.088h1.055c0.047,0,0.07,0.029,0.07,0.088l0.158-0.088c0.047,0,0.07,0.029,0.07,0.088c0.105-0.059,0.182-0.088,0.229-0.088
		c0.457,0.059,0.738,0.088,0.844,0.088v-0.088l0.158,0.088h0.756c0.047,0,0.07,0.023,0.07,0.07c0.047,0,0.07-0.023,0.07-0.07
		l0.316,0.07c0.305,0,1.471,0.053,3.498,0.158c0,0.047,0.023,0.07,0.07,0.07c0-0.047,0.023-0.07,0.07-0.07v0.07
		c0.059,0,0.088-0.023,0.088-0.07c1.676,0.164,2.514,0.264,2.514,0.299l0.141-0.07c0.363,0,0.721,0.047,1.072,0.141l0.141-0.07
		c0.258,0,0.387,0.053,0.387,0.158l0.158-0.088c0.047,0,0.07,0.029,0.07,0.088c0.047,0,0.07-0.029,0.07-0.088
		c1.898,0.211,3.17,0.363,3.814,0.457v-0.07l0.527,0.158v-0.088c0.117,0.047,0.445,0.1,0.984,0.158l0.158-0.07l0.141,0.07
		c0.094-0.047,0.199-0.07,0.316-0.07c0.047,0,0.07,0.023,0.07,0.07c0.516,0,0.873-0.176,1.072-0.527v-0.088
		c0-0.762-1.699-1.289-5.098-1.582c-7.137-1.02-12.205-1.529-15.205-1.529c0-0.047-0.029-0.07-0.088-0.07v0.07
		c-0.047,0-0.07-0.023-0.07-0.07c-2.027-0.059-3.551-0.088-4.57-0.088h-4.324l-0.158,0.088v-0.088
		C170.473,83.783,170.397,83.813,170.338,83.813z"/>
	<path d="M227.696,79.857h0.984c2.156,0,4.641,1.623,7.453,4.869c3.34,4.84,5.01,7.348,5.01,7.523
		c8.672,13.676,13.008,27.059,13.008,40.148c0,2.367-0.275,3.762-0.826,4.184c-1.172,1.77-3.557,2.654-7.154,2.654h-1.143
		c-2.543,0-5.66-0.404-9.352-1.213c-0.984-0.492-1.822-1.559-2.514-3.199c-1.008-3.223-1.512-5.783-1.512-7.682
		c-0.082,0-0.188-1.166-0.316-3.498c-1.406,0.457-3.105,0.686-5.098,0.686h-0.668c0,4.43-1.043,8.742-3.129,12.938
		c-1.172,1.676-3.1,2.514-5.783,2.514h-1.213c-2.941,0-7.172-0.914-12.691-2.742c-1.371-0.832-2.057-2.15-2.057-3.955v-0.07
		c0-4.277,0.861-9.932,2.584-16.963c1.699-5.648,3.551-10.389,5.555-14.221c1.77-3.422,4.049-7.049,6.838-10.881
		c1.77-2.438,4.535-5.602,8.297-9.492C225.328,80.391,226.571,79.857,227.696,79.857z M206.321,124.102l0.07,0.316h0.088
		c0.164,0,0.973-2.438,2.426-7.313c1.652-4.922,3.527-9.357,5.625-13.307l2.672-4.412c1.535-2.402,3.311-4.834,5.326-7.295
		c2.063-2.578,3.732-4.172,5.01-4.781c0.867-0.586,1.301-1.172,1.301-1.758c-0.27-0.656-0.779-0.984-1.529-0.984
		c-2.063,0-5.736,3.879-11.021,11.637c-3.281,5.004-5.818,10.301-7.611,15.891C207.106,117.088,206.321,121.09,206.321,124.102z
		 M225.938,114.451v0.457l0.088,0.527c2.883-0.492,4.324-1.148,4.324-1.969c0.105-0.633,0.158-1.143,0.158-1.529
		c-0.211-2.637-0.645-3.955-1.301-3.955c-0.082-0.047-0.205-0.07-0.369-0.07c-1.078,0.633-1.869,1.799-2.373,3.498
		C226.114,112.594,225.938,113.607,225.938,114.451z M229.084,117.123v0.07c0,0.492,0.586,0.797,1.758,0.914
		c0.668,0,1.506-0.27,2.514-0.809c0.891-0.609,1.336-1.301,1.336-2.074c0-0.926-0.328-1.389-0.984-1.389
		c-0.41,0-0.896,0.363-1.459,1.09s-1.236,1.178-2.021,1.354S229.061,116.736,229.084,117.123z"/>
	<path d="M289.764,79.857c5.18,0,8.449,0.984,9.809,2.953c1.523,1.898,2.285,4.869,2.285,8.912v0.369
		c0,3.516-0.434,6.48-1.301,8.895c-0.914,1.723-2.027,2.584-3.34,2.584c-0.293,0-1.559-0.076-3.797-0.229
		c-6.398,0-11.672,1.928-15.82,5.783c-1.324,1.746-1.986,3.293-1.986,4.641v0.229c0,0.047-0.023,0.07-0.07,0.07l0.07,0.158v0.229
		c0,2.133,1.242,3.984,3.727,5.555c1.934,0.914,3.709,1.371,5.326,1.371c0,0.047,0.029,0.07,0.088,0.07
		c1.418,0,3.217-0.609,5.396-1.828c0.867-0.469,2.338-1.758,4.412-3.867c0.527-0.105,0.855-0.158,0.984-0.158
		c3.035,0,5.771,2.309,8.209,6.926c0.199,0.574,0.299,1.078,0.299,1.512v0.387c-0.34,1.887-1.705,4.266-4.096,7.137
		c-5.941,5.73-12.557,8.596-19.846,8.596c-4.98,0-10.23-2.637-15.75-7.91c-5.168-6.879-7.752-13.77-7.752-20.672
		c0-5.355,1.471-10.605,4.412-15.75c4.84-7.254,11.127-12.146,18.861-14.678C282.58,80.285,285.873,79.857,289.764,79.857z
		 M261.709,106.154v0.545c0,0.129,0.047,0.357,0.141,0.686h0.229c0.328-0.281,0.99-1.676,1.986-4.184
		c3.176-6.867,8.145-11.859,14.906-14.977c3.949-1.43,6.51-2.145,7.682-2.145c2.438-0.375,3.955-0.674,4.553-0.896l0.158-0.229
		v-0.158c-0.316-0.492-1.307-0.773-2.971-0.844c-0.117-0.047-0.574-0.07-1.371-0.07c-7.148,0-13.559,3.018-19.23,9.053
		c-2.941,3.375-4.793,6.568-5.555,9.58C261.885,104.051,261.709,105.264,261.709,106.154z M282.996,125.631
		c0.434,0.703,1.523,1.055,3.27,1.055c2.754,0,5.695-1.166,8.824-3.498c0.551-0.551,0.826-1.031,0.826-1.441
		c0-0.469-0.352-0.744-1.055-0.826c-0.516,0-2.367,0.809-5.555,2.426c-1.348,0.563-3.246,1.148-5.695,1.758
		C283.201,125.303,282.996,125.479,282.996,125.631z"/>
	<path d="M322.635,79.998h2.057c7.992,0,17.496,0.938,28.512,2.813c2.074,1.23,3.111,3.035,3.111,5.414v0.299
		c0,2.332-0.604,4.816-1.811,7.453c-0.422,0.609-1.084,0.914-1.986,0.914c-3.926,0.504-8.08,0.932-12.463,1.283v0.088
		c0.305,3.563,0.457,6.727,0.457,9.492c0,8.531-0.967,18.545-2.9,30.041c-0.773,1.523-2.877,2.285-6.311,2.285h-1.828
		c-3.293,0-5.215-0.686-5.766-2.057c-1.676-13.418-2.514-25.078-2.514-34.98v-3.797c-1.254,0.047-2.215,0.07-2.883,0.07
		c-6.293,0-9.439-0.123-9.439-0.369c-0.926-0.82-1.482-1.787-1.67-2.9c-0.457-1.641-0.686-4.072-0.686-7.295
		c0-3.809,0.457-6.164,1.371-7.066c0.609-0.609,4.084-1.119,10.424-1.529C318.311,80.063,319.752,80.01,322.635,79.998z
		 M317.994,83.813c-0.949,0-1.963,0.047-3.041,0.141l-0.141-0.07c-1.992,0-3.363,0.838-4.113,2.514
		c-0.105,0.469-0.158,0.85-0.158,1.143c0.117,1.055,0.475,1.582,1.072,1.582h0.141c0.223,0,0.885-0.328,1.986-0.984
		c0.949-0.855,1.682-1.283,2.197-1.283v0.07c0.164-0.047,0.621-0.123,1.371-0.229v0.07c0.27-0.094,0.803-0.141,1.6-0.141
		c0-0.059,0.023-0.088,0.07-0.088v0.088l0.158-0.088h0.615l0.457-0.07c0.047,0,0.07,0.023,0.07,0.07l0.387-0.07h0.686l0.141-0.07
		v0.07l0.158-0.07c0.047,0,0.07,0.023,0.07,0.07l0.158-0.07h1.441c0.117,0,0.217-0.029,0.299-0.088c0.059,0,0.088,0.029,0.088,0.088
		c0.504-0.059,0.885-0.088,1.143-0.088h3.111c0.047,0,0.07,0.029,0.07,0.088l0.158-0.088h0.158c0.047,0,0.07,0.029,0.07,0.088
		l0.158-0.088h1.055c0.047,0,0.07,0.029,0.07,0.088l0.158-0.088c0.047,0,0.07,0.029,0.07,0.088c0.105-0.059,0.182-0.088,0.229-0.088
		c0.457,0.059,0.738,0.088,0.844,0.088v-0.088l0.158,0.088h0.756c0.047,0,0.07,0.023,0.07,0.07c0.047,0,0.07-0.023,0.07-0.07
		l0.316,0.07c0.305,0,1.471,0.053,3.498,0.158c0,0.047,0.023,0.07,0.07,0.07c0-0.047,0.023-0.07,0.07-0.07v0.07
		c0.059,0,0.088-0.023,0.088-0.07c1.676,0.164,2.514,0.264,2.514,0.299l0.141-0.07c0.363,0,0.721,0.047,1.072,0.141l0.141-0.07
		c0.258,0,0.387,0.053,0.387,0.158l0.158-0.088c0.047,0,0.07,0.029,0.07,0.088c0.047,0,0.07-0.029,0.07-0.088
		c1.898,0.211,3.17,0.363,3.814,0.457v-0.07l0.527,0.158v-0.088c0.117,0.047,0.445,0.1,0.984,0.158l0.158-0.07l0.141,0.07
		c0.094-0.047,0.199-0.07,0.316-0.07c0.047,0,0.07,0.023,0.07,0.07c0.516,0,0.873-0.176,1.072-0.527v-0.088
		c0-0.762-1.699-1.289-5.098-1.582c-7.137-1.02-12.205-1.529-15.205-1.529c0-0.047-0.029-0.07-0.088-0.07v0.07
		c-0.047,0-0.07-0.023-0.07-0.07c-2.027-0.059-3.551-0.088-4.57-0.088h-4.324l-0.158,0.088v-0.088
		C318.129,83.783,318.053,83.813,317.994,83.813z"/>
	<path d="M393.633,78.557h0.914c1.945,0,3.234,0.762,3.867,2.285c1.371,2.309,2.918,6.363,4.641,12.164h0.07
		c1.066-3.785,2.065-6.797,2.997-9.035s1.685-3.357,2.259-3.357c1.113-0.457,2.508-0.686,4.184-0.686
		c2.426,0,5.314,0.434,8.666,1.301c1.617,1.02,3.721,5.074,6.311,12.164c1.98,6.07,3.955,16.611,5.924,31.623
		c0.516,3.516,0.773,5.877,0.773,7.084v1.055c0,2.262-0.609,3.732-1.828,4.412c-3.082,1.828-6.504,2.742-10.266,2.742
		c-2.848,0-4.699-0.662-5.555-1.986c-0.41-0.445-0.615-1.863-0.615-4.254c-0.504-5.766-1.084-10.406-1.74-13.922
		c-0.609-2.895-1.195-5.449-1.758-7.664h-0.141c-0.961,3.398-2.051,6.439-3.27,9.123c-0.996,2.203-2.262,4.277-3.797,6.223
		c-0.996,1.172-1.658,1.758-1.986,1.758h-0.07c-0.34,0-1.125-0.838-2.355-2.514c-1.992-2.66-3.691-5.625-5.098-8.895
		c-0.633-1.301-1.295-2.947-1.986-4.939h-0.141v0.07c-1.172,7.043-1.758,13.049-1.758,18.018c0.047,1.43,0.07,2.93,0.07,4.5
		c0,1.23-0.832,2.32-2.496,3.27c-1.406,0.457-2.854,0.686-4.342,0.686c-4.781,0-8.303-0.867-10.564-2.602
		c-0.914-0.68-1.371-2.273-1.371-4.781v-0.229c0-7.453,2.613-22.939,7.84-46.459c0.75-1.98,2.877-3.809,6.381-5.484
		C390.053,79.113,392.133,78.557,393.633,78.557z M379.781,116.209v0.07h0.088c0.609-2.555,2.256-10.26,4.939-23.115
		c0.996-3.164,2.467-5.344,4.412-6.539c2.227-1.043,3.34-1.881,3.34-2.514c0-0.609-0.48-0.967-1.441-1.072
		c-1.453,0-3.129,0.838-5.027,2.514c-0.938,1.043-1.57,2.461-1.898,4.254c0,0.703-1.061,6.51-3.182,17.42
		C380.192,112.113,379.781,115.107,379.781,116.209z M406.667,91.828c-0.803,1.676-0.735,2.314,0.202,1.916s1.541-0.797,1.811-1.195
		c0.375-0.27,1.061-1.535,2.057-3.797c0.328-0.891,1.605-1.729,3.832-2.514c0.434-0.188,0.627-0.539,0.58-1.055
		c-0.281-0.82-1.043-1.23-2.285-1.23c-1.547,0-2.988,1.242-4.324,3.727C408.094,88.77,407.47,90.152,406.667,91.828z"/>
	<path d="M463.84,80.314c4.605,0,9.779,0.58,15.521,1.74c2.625,0.762,4.348,1.623,5.168,2.584c0.41,0.352,0.615,1.518,0.615,3.498
		c0.047,1.066,0.07,1.805,0.07,2.215c0,5.168-0.961,8.309-2.883,9.422c-2.309,1.676-6.85,2.514-13.623,2.514
		c-2.801,0-6.047-0.152-9.738-0.457c0.105,1.266,0.158,2.408,0.158,3.428c-0.047,0.434-0.07,0.686-0.07,0.756
		c4.266-0.809,7.406-1.213,9.422-1.213h1.213c1.781,0,2.672,0.732,2.672,2.197v0.229c0,1.582-0.633,3.457-1.898,5.625
		c-1.43,1.828-4.096,2.742-7.998,2.742h-1.125c-0.27,0-0.703-0.023-1.301-0.07c0,0.434,0.023,0.885,0.07,1.354
		c-0.047,1.23-0.094,2.021-0.141,2.373h0.07c6.844-1.324,12.141-1.986,15.891-1.986h0.914c2.895,0,4.922,0.51,6.082,1.529
		c4.008,3.188,6.012,6.047,6.012,8.578v1.002c0,2.227-1.623,4.506-4.869,6.838c-7.301,2.742-14.725,4.113-22.271,4.113
		c-5.367,0-10.746-0.686-16.137-2.057c-1.23-0.832-2.367-2.607-3.41-5.326c-1.125-2.543-2.396-7.611-3.814-15.205
		c-1.16-6.586-1.74-11.912-1.74-15.979v-1.283c0-5.449,1.219-9.023,3.656-10.723C446.508,83.127,454.336,80.314,463.84,80.314z
		 M441.41,95.361v0.527c0,0.762,0.176,1.143,0.527,1.143c0.574-0.434,1.389-1.471,2.443-3.111c2.133-2.871,6.469-5.15,13.008-6.838
		c3.715-0.82,7.922-1.23,12.621-1.23c0-0.047,0.305-0.094,0.914-0.141v-0.158c-2.613-0.809-5.783-1.213-9.51-1.213
		c-6.938,0-12.791,2.051-17.561,6.152C442.225,92.215,441.41,93.838,441.41,95.361z M462.627,123.047
		c0,0.621,1.219,1.002,3.656,1.143c1.055-0.059,4.248-0.492,9.58-1.301c0.504-0.199,0.779-0.375,0.826-0.527v-0.158
		c-0.387-0.609-1.652-0.914-3.797-0.914h-4.254C464.631,121.605,462.627,122.191,462.627,123.047z"/>
</g>
</svg>
