<?xml version="1.0" encoding="utf-8"?>
<!-- Generator: Adobe Illustrator 15.1.0, SVG Export Plug-In . SVG Version: 6.00 Build 0)  -->
<!DOCTYPE svg PUBLIC "-//W3C//DTD SVG 1.1//EN" "http://www.w3.org/Graphics/SVG/1.1/DTD/svg11.dtd">
<svg version="1.1" id="레이어_1" xmlns="http://www.w3.org/2000/svg" xmlns:xlink="http://www.w3.org/1999/xlink" x="0px"
	 y="0px" width="500px" height="500px" viewBox="0 0 500 500" enable-background="new 0 0 500 500" xml:space="preserve">
<g>
	<g>
		<path fill="none" stroke="#050101" stroke-width="1.5" stroke-miterlimit="10" d="M378.908,300.932
			c0,0,39.005,1.277,59.535-17.537l-0.97-5.096c0,0-29.658,19.465-59.691,16.711L378.908,300.932z"/>
		<path fill="none" stroke="#050101" stroke-width="1.5" stroke-miterlimit="10" d="M438.443,283.395
			c0,0,11.695,9.889,13.713,43.363c0,0-3.162,30.734-24.115,69.199l-26.193,48.465c0,0-16.513-3.537-44.192-22.502
			c0,0,20.891-28.977,33.957-65.633l9.797-26.865l2.408-4.496l-4.811-25.295"/>
		<path fill="none" stroke="#050101" stroke-width="1.5" stroke-miterlimit="10" d="M403.817,324.926c0,0,4.35-3.072,2.72-13.408
			c-0.033-0.195-0.068-0.396-0.104-0.602c-1.901-10.822-2.252-11.842-2.252-11.842"/>
		<path fill="none" stroke="#050101" stroke-width="1.5" stroke-miterlimit="10" d="M424.024,292.35c0,0,3.801,18.166,24.537,11.197
			"/>
		<path fill="none" stroke="#050101" stroke-width="1.5" stroke-miterlimit="10" d="M424.078,327.75"/>
		<path fill="none" stroke="#050101" stroke-width="1.5" stroke-miterlimit="10" d="M425.163,401.277l14.108,22.672
			c0,0,24.425-20.174,34.362-20.201l-29.138-45.434"/>
		<path fill="none" stroke="#050101" stroke-width="1.5" stroke-miterlimit="10" d="M424.42,400.084"/>
		<path fill="none" stroke="#050101" stroke-width="1.5" stroke-miterlimit="10" d="M378.908,300.932c0,0-6.625,10.887,0.407,26.635
			l14.355,23.084"/>
		<path fill="none" stroke="#050101" stroke-width="1.5" stroke-miterlimit="10" d="M377.632,323.115c0,0,12.858-6.111,8.784-22.33"
			/>
		<path fill="none" stroke="#050101" stroke-width="1.5" stroke-miterlimit="10" d="M439.271,423.949l-3.331,3.738
			c0,0,5.232,9.566,13.714,11.684l37.562-22.988c0,0-7.445-16.289-10.515-14.463c-3.067,1.828-3.067,1.828-3.067,1.828"/>
		<path fill="none" stroke="#050101" stroke-width="1.5" stroke-miterlimit="10" d="M357.655,421.92l-3.932-1.891
			c0,0-10.313,9.568-10.631,15.072c-0.046,0.785,0.111,1.488,0.531,2.068c3.369,4.641,29.642,23.561,43.56,26.506
			c0,0,3.282,0.93,8.951-3.566c0,0,6.997-5.68,5.713-15.688"/>
		<g>
			<g>
				<path fill="none" stroke="#050101" stroke-width="1.5" stroke-miterlimit="10" d="M447.185,306.23c0,0,0.16,0.498,0.384,1.445"
					/>
				<path fill="none" stroke="#050101" stroke-width="1.5" stroke-miterlimit="10" stroke-dasharray="2.9668,2.9668" d="
					M448.145,310.582c1.33,8.045,2.428,26.551-8.871,49.691c0,0-8.006,21.275-39.299,80.574"/>
				<path fill="none" stroke="#050101" stroke-width="1.5" stroke-miterlimit="10" d="M399.277,442.166
					c-0.232,0.439-0.466,0.881-0.701,1.326"/>
			</g>
		</g>
		<g>
			<path fill="none" d="M401.409,329.422"/>
		</g>
		<g>
			<g>
				<path fill="none" stroke="#050101" stroke-width="1.5" stroke-miterlimit="10" d="M360.638,423.934c0,0,0.277-0.443,0.787-1.273
					"/>
				<path fill="none" stroke="#050101" stroke-width="1.5" stroke-miterlimit="10" stroke-dasharray="3.0316,3.0316" d="
					M363.001,420.074c8.563-14.156,37.489-63.617,38.199-86.828"/>
				<path fill="none" stroke="#050101" stroke-width="1.5" stroke-miterlimit="10" d="M401.205,331.727
					c-0.014-0.514-0.043-1.012-0.089-1.494"/>
			</g>
		</g>
		<g>
			<g>
				<path fill="none" stroke="#050101" stroke-width="1.5" stroke-miterlimit="10" d="M402.645,299.365c0,0,0.083,0.352,0.218,0.973
					"/>
				<path fill="none" stroke="#050101" stroke-width="1.5" stroke-miterlimit="10" stroke-dasharray="2.0488,2.0488" d="
					M403.283,302.338c1.01,5.002,2.738,14.977,1.448,19.293"/>
				<path fill="none" stroke="#050101" stroke-width="1.5" stroke-miterlimit="10" d="M404.345,322.586
					c-0.177,0.32-0.385,0.58-0.628,0.768"/>
			</g>
		</g>
		<path fill="none" stroke="#050101" stroke-width="1.5" stroke-miterlimit="10" d="M377.26,321.82c0,0,10.499-6.441,7.733-20.971"
			/>
		<path fill="none" stroke="#050101" stroke-width="1.5" stroke-miterlimit="10" d="M425.705,291.773c0,0,3.199,15.5,21.545,11.203"
			/>
		
			<line fill="none" stroke="#050101" stroke-width="1.5" stroke-miterlimit="10" x1="395.484" y1="294.336" x2="396.534" y2="299.867"/>
		<path fill="none" stroke="#050101" stroke-width="1.5" stroke-miterlimit="10" d="M400.147,296.639
			c0.14,0.744-0.349,1.463-1.094,1.605s-1.464-0.346-1.605-1.096c-0.143-0.74,0.348-1.461,1.091-1.602
			C399.284,295.404,400.003,295.893,400.147,296.639z"/>
		
			<line fill="none" stroke="#050101" stroke-width="1.5" stroke-miterlimit="10" stroke-dasharray="3" x1="426.638" y1="398.557" x2="441.303" y2="422.314"/>
		
			<line fill="none" stroke="#050101" stroke-width="1.5" stroke-miterlimit="10" stroke-dasharray="3" x1="381.658" y1="325.713" x2="394.564" y2="346.613"/>
		
			<line fill="none" stroke="#050101" stroke-width="1.5" stroke-miterlimit="10" stroke-dasharray="3" x1="443.693" y1="360.668" x2="471.215" y2="404.066"/>
		<path fill="none" stroke="#050101" stroke-width="1.5" stroke-miterlimit="10" stroke-dasharray="2" d="M437.386,284.33"/>
		<path fill="none" stroke="#050101" stroke-width="1.5" stroke-miterlimit="10" d="M437.386,284.33c0,0,5.472,2.742,10.171,19.736"
			/>
		<path fill="none" stroke="#050101" stroke-width="1.5" stroke-miterlimit="10" d="M379.166,323.861"/>
		<path fill="none" stroke="#050101" stroke-width="1.5" stroke-miterlimit="10" d="M379.839,300.947c0,0-4.671,9.863-1.651,20.201"
			/>
		<path fill="none" stroke="#050101" stroke-width="1.5" stroke-miterlimit="10" d="M432.751,303.135"/>
		<path fill="none" stroke="#050101" stroke-width="1.5" stroke-miterlimit="10" d="M478.547,421.688c0,0,6.634,7.664,4.797,11.896
			c0,0-34.768,37.674-52.303,31.223c0,0-7.835-10.158,2.338-13.025l12.634-13.838"/>
		<path fill="none" stroke="#050101" stroke-width="1.5" stroke-miterlimit="10" d="M433.379,451.781c0,0,9.184-0.336,13.856,10.574
			"/>
		<path fill="none" stroke="#050101" stroke-width="1.5" stroke-miterlimit="10" d="M432.317,465.193l4.283,3.529
			c0,0,9.248,3.986,48.181-31.525l0.918-2.664l-2.487-5.584"/>
		<path fill="none" stroke="#050101" stroke-width="1.5" stroke-miterlimit="10" d="M308.411,446.816
			c0,0,34.249,25.336,50.053,28.383"/>
		<path fill="none" stroke="#050101" stroke-width="1.5" stroke-miterlimit="10" d="M313.461,450.438
			c0,0,15.581-9.098,15.376-15.893c0,0-27.505-16.418-19.751,15.375c0,0,19.439,20.563,46.643,27.193c0,0,6.802-2.521,14.533-20.695
			"/>
		<polyline fill="none" stroke="#050101" stroke-width="1.5" stroke-miterlimit="10" points="328.837,434.545 343.342,437.066 
			334.753,449.729 338.813,436.283 328.787,447.756 333.324,435.324 321.985,444.414 351.316,457.607 		"/>
		<polyline fill="none" stroke="#050101" stroke-width="1.5" stroke-miterlimit="10" points="343.342,437.066 340.347,451.771 
			348.245,441.531 344.882,453.162 353.145,445.32 351.316,457.607 358.439,449.057 		"/>
		<polyline fill="none" stroke="#050101" stroke-width="1.5" stroke-miterlimit="10" points="325.103,445.119 335.719,435.74 
			332.332,448.014 340.6,436.594 338.058,449.953 345.666,439.73 343.294,452.174 350.651,443.441 347.718,455.42 356.353,447.621 
					"/>
		<path fill="none" stroke="#050101" stroke-width="1.5" stroke-miterlimit="10" d="M446.604,452.725l10.493-12.908l-9.239-3.367
			l5.262,8.072l-9.935-3.475l6.159,8.941l-12.086-2.451C437.258,447.537,446.278,450.189,446.604,452.725l-6.229-8.605l11.177,2.771
			l-6.547-7.842l10.357,2.807l-1.839-4.857"/>
		
			<line fill="none" stroke="#050101" stroke-width="1.5" stroke-miterlimit="10" x1="457.097" y1="439.816" x2="456.751" y2="435.025"/>
		<path fill="none" stroke="#020202" stroke-width="1.5" stroke-miterlimit="10" d="M438.569,150.837
			c0,0-8.262,28.647-35.315,21.927c0,0-9.371-1.369-14.789-17.072c0,0-0.772-19.023-19.001-21.414c0,0-18.837,2.327-18.458,21.08"/>
		<path fill="none" stroke="#050101" stroke-width="1.5" stroke-miterlimit="10" d="M333.872,265.715
			c-1.812,3.98-3.879,7.838-6.137,11.6c0,0,10.938-1.852,14.266-12.061"/>
		<path fill="none" stroke="#050101" stroke-width="1.5" stroke-miterlimit="10" d="M388.465,155.692
			c-19.615-16.97-37.284,1.087-37.294,1.098"/>
		<path fill="none" stroke="#050101" stroke-width="1.5" stroke-miterlimit="10" d="M401.779,145.284
			c0,0,25.896,15.363,30.392-12.682c0,0,8.329,11.358,1.704,23.405"/>
		<path fill="none" stroke="#020202" stroke-width="1.5" stroke-miterlimit="10" d="M351.171,156.79c0,0-15.885,9.924-2.465,40.837
			c0,0,6.854,32.542,4.122,41.133"/>
		<path fill="none" stroke="#040000" stroke-width="1.5" stroke-miterlimit="10" d="M361.143,213.034c0,0,1.396,15.414-1.4,21.028"
			/>
		<path fill="none" stroke="#050101" stroke-width="1.5" stroke-miterlimit="10" d="M349.857,268.412
			c-0.784,2.709-1.254,4.426-3.494,6.213c-1.933,1.545-4.354,2.396-6.612,3.344c0,0,3.899-4.416,3.309-9.006
			c-0.589-4.59-1.015-3.43-1.015-3.43"/>
		<path fill="none" stroke="#050101" stroke-width="1.5" stroke-miterlimit="10" d="M350.187,269.102c0,0,1.159,7.242-4.461,8.941
			c0,0,1.723,5.697,10.594-0.445"/>
		<path fill="none" stroke="#050101" stroke-width="1.5" stroke-miterlimit="10" d="M422.763,182.6"/>
		<path fill="none" stroke="#040000" stroke-width="1.5" stroke-miterlimit="10" d="M348.706,197.627c0,0,4.054,23.18,37.16,19.371
			c0,0,24.638-12.455,25.358-34.239"/>
		<path fill="none" stroke="#040000" stroke-width="1.5" stroke-miterlimit="10" d="M369.169,215.96c0,0,3.646,11.329,2.027,12.735"
			/>
		<path fill="none" stroke="#050101" stroke-width="1.5" stroke-miterlimit="10" d="M363.981,256.354"/>
		<path fill="none" stroke="#050101" stroke-width="1.5" stroke-miterlimit="10" d="M371.077,234.1"/>
		<path fill="none" stroke="#050101" stroke-width="1.5" stroke-miterlimit="10" d="M358.224,117.962
			c0,0,47.513-27.225,65.817,29.498"/>
		<path fill="none" stroke="#020202" stroke-width="1.5" stroke-miterlimit="10" d="M430.88,164.521c0,0,2.495,17.636,8.463,29.975"
			/>
		<path fill="none" stroke="#020202" stroke-width="1.5" stroke-miterlimit="10" d="M427.918,167.483c0,0,2.653,21.975,7.398,28.583
			"/>
		<path fill="none" stroke="#050101" stroke-width="1.5" stroke-miterlimit="10" d="M444.786,200.96c0,0,5.28,14.012,15.122,9.597
			c0,0,2.316,7.702-5.381,7.67"/>
		<path fill="none" stroke="#020202" stroke-width="1.5" stroke-miterlimit="10" d="M427.572,199.17
			c-0.958-2.881-3.688-11.915-6.257-27.462"/>
		<path fill="none" stroke="#050101" stroke-width="1.5" stroke-miterlimit="10" d="M428.531,197.368"/>
		<path fill="none" stroke="#050101" stroke-width="1.5" stroke-miterlimit="10" d="M440.377,202.665
			c0,0,11.808,21.77,23.194,16.188c0,0-13.785,22.633-31.102-12.965"/>
		<path fill="none" stroke="#020202" stroke-width="1.5" stroke-miterlimit="10" d="M414.185,179.736
			c-0.609-2.103-0.435-2.467-0.65-6.053"/>
		<path fill="none" stroke="#050101" stroke-width="1.5" stroke-miterlimit="10" d="M416.381,182.489"/>
		<path fill="none" stroke="#050101" stroke-width="1.5" stroke-miterlimit="10" d="M417.678,188.863"/>
		<path fill="none" stroke="#040000" stroke-width="1.5" stroke-miterlimit="10" d="M423.803,200.124
			c-0.918-2.163-3.389-6.422-5.258-9.695"/>
		<path fill="none" stroke="#050101" stroke-width="1.5" stroke-miterlimit="10" d="M436.527,230.606c0,0,8.742,11.155,19.789,3.753
			c0,0-9.933,5.192-28.644-26.4"/>
		<path fill="none" stroke="#040000" stroke-width="1.5" stroke-miterlimit="10" d="M410.298,191.366c0,0,2.014,14.079,5.484,15.489
			"/>
		<path fill="none" stroke="#050101" stroke-width="1.5" stroke-miterlimit="10" d="M447.439,232.047c0,0,6.419-0.515,7.957-2.53
			c0,0-7.21,0.442-7.875-4.771"/>
		<path fill="none" stroke="#050101" stroke-width="1.5" stroke-miterlimit="10" d="M423.658,199.367"/>
		<path fill="none" stroke="#020202" stroke-width="1.5" stroke-miterlimit="10" d="M415.104,173.518"/>
		<path fill="none" stroke="#040000" stroke-width="1.5" stroke-miterlimit="10" d="M370.641,225.777"/>
		<path fill="none" stroke="#040000" stroke-width="1.5" stroke-miterlimit="10" d="M374.604,216.795c0,0,1.431,6.898,1.128,11.037"
			/>
		<path fill="none" stroke="#050101" stroke-width="1.5" stroke-miterlimit="10" d="M419.931,184.953
			c0.619,3.257-0.815,6.267-3.216,6.723c-2.395,0.456-4.838-1.815-5.455-5.073c-0.622-3.258,0.817-6.268,3.211-6.723
			C416.871,179.424,419.313,181.696,419.931,184.953z"/>
		<path fill="none" stroke="#050101" stroke-width="1.5" stroke-miterlimit="10" d="M418.978,185.136
			c0.483,2.539-0.641,4.885-2.51,5.241c-1.863,0.354-3.771-1.416-4.253-3.955c-0.484-2.539,0.64-4.888,2.505-5.242
			C416.587,180.825,418.495,182.597,418.978,185.136z"/>
		<path fill="none" stroke="#020202" stroke-width="1.5" stroke-miterlimit="10" d="M438.569,150.837
			c-20.437,27.453-34.344,1.127-34.344,1.127c-9.33-30.122-36.086-28.312-36.086-28.312c-19.967,0.59-16.969,33.137-16.969,33.137"
			/>
		<path fill="none" stroke="#040000" stroke-width="1.5" stroke-miterlimit="10" d="M351.891,143.122
			c0,0-20.075-19.462-28.157,13.774c0,0-1.04,25.59,10.291,39.649c0,0,7.19,5.756,9.661,18.617"/>
		<polyline fill="none" stroke="#050101" stroke-width="1.5" stroke-miterlimit="10" points="351.006,155.358 351.891,143.122 
			352.037,141.09 		"/>
		<path fill="none" stroke="#050101" stroke-width="1.5" stroke-miterlimit="10" d="M353.649,135.296
			c0,0-18.997-11.279-28.632,17.054"/>
		<path fill="none" stroke="#050101" stroke-width="1.5" stroke-miterlimit="10" d="M416.982,149.467"/>
		<path fill="none" stroke="#050101" stroke-width="1.5" stroke-miterlimit="10" d="M340.1,133.704c0,0,14.416-26.702,44.423-14.839
			c0,0,17.541,5.389,32.151,30.075c0.104,0.174,0.208,0.349,0.309,0.527"/>
		<path fill="none" stroke="#020202" stroke-width="1.5" stroke-miterlimit="10" d="M351.113,155.993
			c0,0-20.677-17.221-19.006,16.485c0,0-0.224,9.084,6.822,16.817c0,0,2.625,3.637,3.019,12.11c0.002,0.019,0.002,0.037,0.002,0.056
			c0,0,0.918,4.97,1.225,7.635c0.262,2.272,0.431,4.555,0.554,6.84c0.292,5.233,1.124,10.59,0.947,15.832
			c-0.117,3.372,0.624,8.949-0.087,12.225"/>
		<path fill="none" stroke="#040000" stroke-width="1.5" stroke-miterlimit="10" d="M406.041,199.738c0,0,2.274,7.664,3.831,8.729"
			/>
		
			<line fill="none" stroke="#040000" stroke-width="1.5" stroke-miterlimit="10" x1="403.152" y1="209.497" x2="401.444" y2="204.891"/>
		<path fill="none" stroke="#020202" stroke-width="1.5" stroke-miterlimit="10" d="M397.868,169.576"/>
		<path fill="none" stroke="#050101" stroke-width="1.5" stroke-miterlimit="10" d="M418.811,190.889"/>
		<path fill="none" stroke="#050101" stroke-width="1.5" stroke-miterlimit="10" d="M414.519,181.23
			c0.539,2.301,1.561,6.429,2.495,8.974"/>
		<path fill="none" stroke="#050101" stroke-width="1.5" stroke-miterlimit="10" d="M370.855,204.454c0,0-0.176-6.175,6.484-2.615
			c0,0,4.056-7.007,9.317-1.938C386.657,199.901,380.32,206.538,370.855,204.454z"/>
		<path fill="none" stroke="#040000" stroke-width="1.5" stroke-miterlimit="10" d="M370.855,204.454
			c1.636,1.76,3.313,5.896,11.128,3.078c0,0,4.217-1.042,4.674-7.631"/>
		
			<ellipse transform="matrix(0.9636 -0.2674 0.2674 0.9636 -37.148 102.2046)" fill="#050101" cx="356.754" cy="187.522" rx="2.838" ry="4.957"/>
		<path fill="none" stroke="#020202" stroke-width="1.5" stroke-miterlimit="10" d="M362.081,186.213
			c0.897,3.231-0.164,6.347-2.371,6.961c-2.207,0.613-4.723-1.512-5.62-4.741c-0.896-3.234,0.167-6.35,2.371-6.962
			C358.666,180.857,361.184,182.98,362.081,186.213z"/>
		<path fill="none" stroke="#020202" stroke-width="1.5" stroke-miterlimit="10" d="M376.405,174.268c0,0,4.944-7.006,11.82-5.489
			l2.861,0.701"/>
		<path fill="none" stroke="#020202" stroke-width="1.5" stroke-miterlimit="10" d="M362.847,178.376c0,0-7.697-3.78-13.006,0.848
			l-2.174,1.987"/>
		<path fill="none" stroke="#050101" stroke-width="1.5" stroke-miterlimit="10" d="M373.101,190.009c0,0-4.166,2.854-0.325,4.466"
			/>
		<path fill="#050101" d="M388.032,179.464c0.732,2.638,0.101,5.117-1.412,5.536c-1.509,0.419-3.329-1.379-4.06-4.017
			c-0.733-2.636-0.102-5.117,1.405-5.536C385.479,175.029,387.299,176.828,388.032,179.464z"/>
		<path fill="none" stroke="#020202" stroke-width="1.5" stroke-miterlimit="10" d="M390.62,178.914
			c0.901,3.232-0.161,6.349-2.37,6.962c-2.204,0.613-4.725-1.512-5.62-4.742c-0.896-3.233,0.165-6.348,2.374-6.962
			C387.207,173.559,389.723,175.683,390.62,178.914z"/>
		<path fill="none" stroke="#050101" stroke-width="1.5" stroke-miterlimit="10" d="M390.07,271.719
			c0,0,12.905-29.869,22.373-41.069"/>
		<path fill="none" stroke="#050101" stroke-width="1.5" stroke-miterlimit="10" d="M400.557,249.463
			c0,0,17.253,7.262,19.662,21.244c0,0,16.578-18.119,16.389-25.125"/>
		<path fill="none" stroke="#050101" stroke-width="1.5" stroke-miterlimit="10" d="M342.417,253.07"/>
		<path fill="none" stroke="#050101" stroke-width="1.5" stroke-miterlimit="10" d="M331.769,254.973"/>
		<path fill="none" stroke="#050101" stroke-width="1.5" stroke-miterlimit="10" d="M327.249,264.291"/>
		
			<line fill="none" stroke="#050101" stroke-width="1.5" stroke-miterlimit="10" x1="378.663" y1="294.766" x2="372.047" y2="281.311"/>
		
			<line fill="none" stroke="#050101" stroke-width="1.5" stroke-miterlimit="10" x1="367.901" y1="256.559" x2="368.199" y2="264.402"/>
		<path fill="none" stroke="#2C4198" stroke-width="1.5" stroke-miterlimit="10" d="M236.904,305.57"/>
		<path fill="none" stroke="#050101" stroke-width="1.5" stroke-miterlimit="10" d="M354.557,245.724c0,0-1.282,7.399-1.943,14.403"
			/>
		<path fill="none" stroke="#050101" stroke-width="1.5" stroke-miterlimit="10" d="M339.879,285.986"/>
		<path fill="none" stroke="#050101" stroke-width="1.5" stroke-miterlimit="10" d="M396.824,257.357"/>
		<path fill="none" stroke="#050101" stroke-width="1.5" stroke-miterlimit="10" d="M420.109,270.949c0,0-2.02,0.541-5.148,0.52"/>
		<path fill="#FFFFFF" stroke="#050101" stroke-width="1.5" stroke-miterlimit="10" d="M221.592,335.93l32.404-40.131
			l219.882-124.328c0,0,20.356,5.786,20.107,33.872L270.675,329.611L221.592,335.93z"/>
		<polyline fill="#FFFFFF" stroke="#050101" stroke-width="1.5" stroke-miterlimit="10" points="485.271,179.248 274.238,298.771 
			254.539,296.451 		"/>
		<polyline fill="#FFFFFF" stroke="#050101" stroke-width="1.5" stroke-miterlimit="10" points="274.238,298.771 265.577,310.988 
			282.281,310.607 272.55,328.564 		"/>
		
			<line fill="#FFFFFF" stroke="#050101" stroke-width="1.5" stroke-miterlimit="10" x1="282.281" y1="310.607" x2="492.533" y2="192.503"/>
		<path fill="#FFFFFF" stroke="#050101" stroke-width="1.5" stroke-miterlimit="10" d="M231.614,323.465
			c0,0,0.324,8.154,5.416,10.475"/>
		<g id="XMLID_2_">
			<g>
				<path fill="#FFFFFF" d="M389.999,271.876l0.063-0.16l9.939-22.215c15.033,6.479,18.487,16.948,18.487,16.948
					c-6.661,8.339-12.702,20.671-24.394,22.895c-18.069-6.814-34.512-14.87-52.195-24.553c-3.04-1.286-6.295,1.197-10.063,0.981
					c-1.97-0.557-4.865-2.746-4.865-2.746c-0.707-0.731-7.643-7.949-7.488-4.931c-0.185-2.49,0.324-3.883,1.265-4.472
					c-0.179-0.991-0.343-3.569,3.21-2.819c0,0-1.525-3.857,3.213-2.708c0,0-0.059-5.208,4.467-2.238c0,0,1.711,0.327,3.727,1.22
					c1.309-4.19,8.521,0.514,8.521,0.514c3.836,2.187,3.093,8.422,3.093,8.422S372.036,264.595,389.999,271.876z"/>
			</g>
			<g>
				<path fill="none" stroke="#050101" stroke-width="1.5" stroke-miterlimit="10" d="M335.261,247.472
					c0.03-0.136,0.06-0.272,0.103-0.393c1.309-4.19,8.521,0.514,8.521,0.514c3.836,2.187,3.093,8.422,3.093,8.422
					s25.059,8.579,43.021,15.86c0.746,0.297,1.482,0.595,2.202,0.896"/>
				<path fill="none" stroke="#050101" stroke-width="1.5" stroke-miterlimit="10" d="M319.482,258.096
					c-0.154-3.019,6.781,4.199,7.488,4.931c0,0,2.896,2.189,4.865,2.746c3.769,0.216,7.023-2.268,10.063-0.981
					c17.684,9.683,34.126,17.738,52.195,24.553c11.691-2.224,17.732-14.556,24.394-22.895c0,0-3.454-10.47-18.487-16.948
					l-9.939,22.215"/>
				<path fill="none" stroke="#050101" stroke-width="1.5" stroke-miterlimit="10" d="M326.167,254.877
					c-2.165-1.387-4.17-2.031-5.42-1.253c-0.94,0.589-1.449,1.981-1.265,4.472"/>
				<path fill="none" stroke="#050101" stroke-width="1.5" stroke-miterlimit="10" d="M320.835,253.989c0,0-0.045-0.141-0.088-0.365
					c-0.179-0.991-0.343-3.569,3.21-2.819c0,0-1.525-3.857,3.213-2.708c0,0-0.059-5.208,4.467-2.238c0,0,1.711,0.327,3.727,1.22
					c2.004,0.886,4.289,2.315,5.467,4.542"/>
				<path fill="none" stroke="#050101" stroke-width="1.5" stroke-miterlimit="10" d="M323.957,250.805c0,0,2.97,0.815,6.65,3.609"
					/>
				<path fill="none" stroke="#050101" stroke-width="1.5" stroke-miterlimit="10" d="M327.17,248.098
					c2.21-0.141,3.809,0.673,6.245,3.341"/>
			</g>
		</g>
		
			<rect x="391.506" y="249.532" transform="matrix(0.8841 -0.4674 0.4674 0.8841 -71.9297 215.865)" fill="#FFFFFF" width="15.236" height="6.758"/>
		<polyline fill="#040000" points="408.394,251.451 409.627,253.68 392.22,263.303 390.988,261.076 		"/>
		<path fill="#FFFFFF" stroke="#050101" stroke-width="1.5" stroke-miterlimit="10" d="M319.379,303.814
			c0,0-6.396-14.174-2.772-15.438l1.767-0.902l9.607-4.436l10.077,10.525C338.058,293.564,338.95,308.871,319.379,303.814z"/>
		<path fill="#FFFFFF" stroke="#050101" stroke-width="1.5" stroke-miterlimit="10" d="M324.456,299.162
			c0,0-3.084-1.402-6.083-11.688"/>
		<path fill="#FFFFFF" stroke="#050101" stroke-width="1.5" stroke-miterlimit="10" d="M328.172,296.639
			c-1.82,0.166-6.516-11.414-6.064-9.873"/>
		<path fill="#FFFFFF" stroke="#050101" stroke-width="1.5" stroke-miterlimit="10" d="M332.865,294.01c0,0-4.531,0.195-7.528-10.09
			"/>
		<path fill="#FFFFFF" stroke="#050101" stroke-width="1.5" stroke-miterlimit="10" d="M315.353,305.723c0,0,3.08,5.574,7.232-1.141
			"/>
		<path fill="#FFFFFF" stroke="#050101" stroke-width="1.5" stroke-miterlimit="10" d="M334.415,301.977"/>
		<path fill="none" stroke="#050101" stroke-width="1.5" stroke-miterlimit="10" d="M461.706,178.352"/>
		<path fill="none" stroke="#050101" stroke-width="1.5" stroke-miterlimit="10" d="M437.564,236.741c0,0,1.591,36.609-1.194,42.25"
			/>
	</g>
	<g>
		<g>
			<g>
				<path d="M253.099,348.867c0.146,1.516,0.449,2.289-0.459,2.434c0.18-1.785-0.459-2.395,0.437-4.234
					c-0.805-0.68-0.163,1.953-0.967,1.273c0.004-0.77,0.304-0.854,0.223-1.816c-0.153-0.164-0.965-1.422-0.982,0.074
					c1.096,2.059-1.439,0.473-1.971-0.447c0.021,3.807-2.879-0.189-2.661,3.205c-0.596-0.82-0.614-0.863-0.76-1.742
					c-0.043,0.73-0.268,0.387-0.49,0.037c-0.319,1.393,0.661,2.205,0.03,2.396c-0.052-2.232-0.958,0.035-0.997-1.121
					c0.286-0.316,0.549-0.684,0.721-1.254c-0.755-0.375-0.887,0.68-1.464,0.711c-0.067-0.648-0.423-1.404-0.499-0.561
					c0.312,0.221,0.512,0.73,0.514,1.76c0.838,0.629,1.042-0.504,1.48,0.488c-0.682-0.203-0.201,2.252-0.705,2.453
					c-0.924-0.336,0.155-2.008-0.768-2.344c0.062,1.307-0.176,1.926-0.713,1.859c-0.169,4.02,2.573,0.672,3.452,0.936
					c0.376,0.111-0.014,1.326,0.482-0.639c1.067,1.777,0.603,0.486,1.22-0.693c0.341,1.35,1.07-0.26,1.496,1.686
					c0.509-0.219-0.386-1.598,0.468-1.836c0.127,0.695,0.278,1.336,0.514,1.758c0.628-2.531-0.305-0.32-0.277-2.381
					c1.44,1.553,0.374-1.924,1.197-2.49c0.333,1.387-0.019,1.121,0.283,2.98c-0.362-0.645-0.607-0.602-0.728,0.656
					c0.333,0.164,0.479,0.816,0.989,0.523C251.665,350.383,254.691,352.266,253.099,348.867z"/>
				<path d="M242.845,353.855c-1.492,0.09-1.245-1.395-2.209,0.168l-0.022-1.797c-0.491,1.008-1.767,0.215-1.688,2.531
					c-0.031-2.359-0.929-0.867-0.545-4.16c-0.784,1.021-0.758,1.691-1.449,1.91c0.086,0.814,0.62,0.453,0.989,0.523
					c0.073,2.691-1.071,2.588-2.178,2.57c0.469-1.418-0.071-0.66-0.269-1.777c-0.47,0.277,0.015,2.746-0.959,1.871
					c0.152-0.617,0.557-0.664,0.468-1.836c-0.248-0.594-0.5-1.176-0.759-1.742c-0.868,0.133,0.547,1.945-0.223,1.82
					c-0.036,0.18-0.494-1.631-1.733-1.07c0.003,1.031,0.203,1.539,0.515,1.762c0.057,1.301-0.867,0.34-1.219,0.695
					c-0.787-0.441,0.425-0.824,0.729-0.656c-0.094-1.41-0.867-1.051-0.775-2.941c0.276-0.916,1.01-0.785,0.95-2.477
					c-0.027-1.359-1.357,2.4-0.744-0.539c-0.657,0.742-0.607,0.336-1.474,0.111c0.526,1.32,0.869,3.111,1.053,5.324
					c-0.515-0.299-0.533-0.896-0.27-1.783c-0.355,0.98-0.998,0.52-1.234-0.504c-0.195,0.451-0.914,3.492,0.039,2.996
					c-0.191,1.762-0.359,0.703-0.975,0.676c-0.12-1.242,0.148-1.602,0.214-2.414c-0.453,1.156-0.615,0.109-1.227,0.094
					c-0.242,3.305-0.708-0.889-0.958,1.871c-0.375-0.066-1.711-2.086-1.473,0.113c-0.877-1.961-2.987,0.316-2.731-2.188
					c-0.899-0.125-0.955,1.688-1.188,3.094c-0.516-0.313-0.81-1.203-1.25-1.707c0.783,2.918-1.149-1.908-1.212,1.293
					c-0.392-0.836-1.155-0.709-1.497-1.688c-0.549,0.383,0.311,0.914-0.221,1.822c-0.754-0.77-0.873,0.35-1.963,0.146
					c-0.339-2.297-0.522-2.242-1.282-4.102c-0.713,0.563,0.171,1.922,0.039,3c-1.26-0.898-2.787-1.016-3.421,1.461
					c-0.685-0.664-1.042-1.219-1.726-0.465c0.041-0.488,0.239-0.617,0.23-1.217c-0.464,0.291-0.6,1.34-1.211,1.291
					c-0.082-0.959,0.219-1.047,0.222-1.818c-0.791,0.299-1.254,2.451-1.473,0.115c-0.487,0.047-0.291,1.66-0.966,1.273
					c-0.391-2.516-2.558,0.398-3.229-2.75c0.037,1.836-0.541,1.68-1.189,3.094c-0.08-2.141-1.583,0.824-1.005-1.727
					c-3.707,0.922-6.327,0.574-8.123-1.176c-0.286,0.121-0.193,1.109-0.222,1.82c0.736,0.801-0.563,0.5-0.261-1.184
					c-0.964,1.121-1.885-0.055-2.677,2.008c-1.4-3.25-5.085-2.305-6.642-0.688c-0.197-0.52-0.282-1.336-0.276-2.383
					c-0.645,0.852-1.592,1.008-1.68,3.133c-0.583-1.842-0.092-1.477-0.989-0.523c-0.145-4.191-4.774-0.461-4.694-2.043
					c-0.277,0.137-0.128,0.613,0.007,0.602c-3.938-1.379-7.322,1.301-11.313-0.93c0.014,0.582,0.306,0.441,0.498,0.561
					c-2.832,0.834-4.408-0.229-7.14-1.252c-0.145,0.629-0.122,2.08-1.205,1.895c0.124-0.492,0.244-0.99,0.222-1.814
					c-0.298,0.283-0.494,0.803-0.467,1.836c-2.231-2.434-4.609-1.881-6.642-0.689c1.353-1.734-1.911-1.738-0.998-1.125
					c-1.893-1.297-4.812,2.891-6.65-1.289c-2.213,2.078-8.478-0.004-12.532-0.236c-0.045-1.076,0.284-1.287,0.215-2.42
					c-0.629,0.109-0.366,2.266-0.698,3.055c-2.014-1.414-3.299,2.594-4.449-2.059c-0.614,3.035-2.852,1.633-3.19,0.246
					c-0.341,0.238-0.008,1.059,0.261,1.182c-0.755,2.787-1.753-1.615-1.948,1.35c-2.68-2.563-6.083,0.105-9.111-1.699
					c0.352,1.309-1.302,0.316-2.462-0.41c0.108,2.969-3.084-0.066-4.425-0.258c-1.07-0.154-2.333,1.453-3.667,1.48
					c-1.981,0.043-4.19-1.98-5.92-1.945c-2.511,0.051-4.8,2.984-6.604,2.311c0.247,0.092-0.665-2.943-0.49,0.037
					c-1.156-1.648-2.916,0.813-3.951-1.5c-0.921,1.963-2.66,0.719-3.443-0.332c-15.601,3.836-29.915-0.348-46.386,3.57
					c-5.205,1.238-11.02,3.531-15.724,0.008c0.38-5.297,3.05-0.418,4.909-0.379c4.031,0.096,9.06-4.336,13.223-3.418
					c2.169-3.512,4.812-0.34,7.354-1.168c0.538,0.07,0.775-0.547,0.713-1.852c3.136-0.453,6.281,2.188,9.112,1.701
					c1.349-0.236,2.447-1.664,3.913-1.504c0.012,0.004-0.306,1.143-0.23,1.217c0.759,0.758,4.162-2.758,5.652,0.164
					c1.208-2.688,3.126,0.529,4.64-2.156c0.235,0.422,0.386,1.063,0.514,1.762c0.036-0.762,1.052-1.887,0.483-0.637
					c2.627,0.406,5.774-0.891,9.096,0.5c0.549-0.836,0.916-2.82,1.465-0.715c0.812-4.098,4.592,0.289,5.875-1.652
					c-0.098,0.744-0.297,1.254-0.721,1.258c0.474,0.688,1.146-0.408,1.733,1.066c-0.274-0.723,1.065-2.48,1.473-0.113
					c0.147-2.707,1.516,0.758,1.45-1.914c1.031-1.641,1.515,2.32,2.24,2.232c0.517-0.068,1.007-4.115,1.718-0.135
					c0.453-0.125,0.124-2.041,0.46-2.434c1.588,1.078,1.716-0.16,2.945-0.227c-0.089,2.477,0.838-0.645,0.269,1.777
					c1.029-1.578,2.695-0.172,4.18,0.277c-0.396-3.092,0.642-0.428,0.698-3.055c1.464-0.709,2.104,0.723,2.731,2.191
					c0.6-0.113,0.026-1.988-0.269-1.777c0.19-1.434,0.625,1.602,1.479,0.484c-0.977,1.734,0.25,0.195,0.276,2.379
					c0.784-0.035,1.107-3.387,1.228-0.094c0.488-0.043,0.291-1.66,0.966-1.277c-0.285,0.813-0.083,0.953,0.023,1.801
					c0.104-0.98,1.469-1.988,0.699-3.055c0.985-0.977,3.622,0.152,3.697,0.918c0.487-0.047,0.291-1.664,0.966-1.277
					c0.63,1.926,0.908,1.043,1.979,1.051c-0.018,1.078,0.316,1.242,0.277,2.375c0.73-0.445-0.252-1.256-0.031-2.398l0.982-0.07
					c-0.423,2.422,1-0.813,0.767,2.336c1.901-1.453,0.957-2.512,2.7-0.203c0.833-1.1,5.135-1.336,6.634,0.086
					c0.333-2.668,1.378-0.578,1.926-3.148c0.768,0.344,2.738,0.477,4.932,1.422l0.023,1.801c0.484-1.246,0.484,0.227,0.99,0.523
					c0.278-1.965-0.801-0.395-0.522-2.363c1.872,3.207,4.418,1.727,5.906,0.75c0.46,1.338,1.593,2.484,1.963-0.152
					c0.937,2.91,3.478-0.648,3.973,3.293c-0.18-0.967,0.893-3.941,1.211-1.293c0.64-0.758,0.756-0.574,0.46-2.434
					c0.551,1.234,0.941,2.16,0.292,3.58c1.311-2.811,4.238-4.385,5.392-1.018c-0.07-1.02,1.36-1.422,0.713-1.855
					c-0.1-1.867,0.728,1.469,0.728-0.656c0.621,1.459-1.131,2.418-1.173,4.293c0.744-0.428,0.664-2.746,1.94-1.953
					c-0.015-0.578-0.306-0.438-0.499-0.564c0.066-2.006,1.296-0.771,1.242,1.111c0.795-0.332,1.736-0.738,1.71-0.734
					c0.626-0.115,0.685,1.094,1.243,1.105c0.393,0.008,0.463-1.84,1.276-1.902c-0.534,0.223,1.003,2.742,1.17,1.113
					c0.104,1.016-0.178,1.145-0.475,1.24c0.085,1.404,0.914-0.127,0.974-0.676c0.715,0.279-0.364,0.963-0.223,1.814
					c0.457-0.117,0.815-0.457,0.967-1.273c0.679,0.492-0.451,2.242,0.521,2.359c-0.147-2.561,0.883,1.32,1.213-1.293
					c-0.275-2.096-1.079,0.602-1.005-1.723c0.57,0.586,1.484,0.266,1.979,1.047c-0.115-0.523-0.229-1.055-0.506-1.16
					c0.891-1.293,3.5-0.121,3.958,2.098c-0.051-0.508,0.089-0.574,0.238-0.621c-0.187-0.543-0.458-0.871-0.752-1.141
					c0.236-0.82,0.381-1.84,0.705-2.457c0.604,0.508,1.432,2.293,1.028,3.525c0.197-0.135,0.237-0.623,0.483-0.643
					c-0.156-1.453-0.966-1.201-0.782-3.537c1.171,2.139,1.3,0.756,1.265,2.904c1.252,0.254,0.018-2.844,0.966-1.277
					c-0.039,0.512,0.103,0.559,0.254,0.582c0,0.582-0.295,0.488-0.483,0.639c0.051,1.104,0.835,0.303,0.997,1.123
					c-0.78-1.59,1.687-4.291,1.449-1.914c0.287-0.121,0.193-1.109,0.222-1.816c0.298,1.289,1.871-0.74,1.504,2.281
					c0.792-3.342,1.879,0.453,2.922-2.021c0.627,2.494,2.166-0.15,2.248,2.826c0.516-1.336,2.03-0.453,2.24,2.23
					c1.515-3.934,2.55,0.938,5.115-3.395c0.355,0.313,2.943,1.098,3.674-0.883c-0.502,2.742,0.792,3.473,1.282,4.102
					c-0.05-1.523-0.388-2.297-1.013-2.324c0.919-0.721,1.901-0.43,2.684-1.406c0.766,0.699-0.25,1.824-0.483,0.637
					c0.195,1.836,0.187,1.141,0.038,3c0.072-1.391,1.068-0.656,0.951-2.477c1.52,1.164,1.411,0.32,2.24,2.23
					c0.516-3.52,1.611,1.055,1.932-2.551c0.223,0.354,0.448,0.689,0.491-0.039c0.817,1.668,2.18,3.516,2.454-0.188
					c0.438,0.516,0.868,1.049,0.775,2.945c0.536-0.133,0.508-1.555,0.453-3.037c1.346,0.996,2.036,2.053,3.942,0.896
					c-1.017,3.125,1.252-0.277,0.521,2.359c0.538,0.072,0.775-0.551,0.713-1.852c0.543,2.023,1.256-0.25,1.98,1.047
					c0-2.133,1.104-1.039,0.713-1.855c0.065-0.824,0.608-0.547,0.974-0.676c-0.126,1.566,0.126,2.148,0.759,1.744
					c-0.098,0.74-0.297,1.252-0.721,1.256c0.072,1.039,1.388,0.145,1.212-1.297c0.612-0.438,1.719,2.617,1.718-0.133
					c0.367,0.492,0.79,0.838,0.768,2.346c-0.2-0.104-0.252-0.588-0.498-0.564c0.052,0.48,0.253,0.578,0.26,1.18
					c0.43-0.18,0.546-1.078,0.46-2.438c0.599,1.18,1.126-1.328,1.243,1.105c0.299-0.283,0.494-0.805,0.468-1.836
					c0.85,0.531,1.705,0.381,2.692-0.809c0.289,0.074,0.221,1.078,0.269,1.781c0.42-0.008,0.63-0.498,0.721-1.256
					c0.464,0.029,0.196,1.967,0.759,1.74c-0.258-1.363,2.434-3.367,2.7-0.207c0.178-2.025,0.05,0.059,1.227-0.094
					c-0.049-0.699-0.454-0.473-0.744-0.543c0.481-2,1.274,0.344,1.726,0.469c0.654,0.143-0.272-3.344,0.706-2.457
					c-0.197,0.715-0.303,1.633-0.206,3.02c0.441,1.105,1.823-0.789,2.231,1.625c0.531-2.676,1.081-0.553,1.703-1.328
					c-0.532-0.805-1.006-1.414-1.458-1.746c0.334-0.646,0.585-0.66,0.944-0.016c0.052-1.582-0.958-0.398-0.768-2.34
					c1.179,0.742,3.149-1.215,3.935,0.293c0.029,0.059,0.047,0.109,0.065,0.158c-1.149,1.178,0.338,0.971,0,0l0.18-0.178
					c0.769-0.711,1.995,0.172,2.975,2.172c-0.051-0.504,0.089-0.568,0.238-0.617c-0.172-0.793-0.539-1.078-0.997-1.123
					c0.397-1.783,1.409-0.01,1.25,1.705c0.47-0.281,0.164-2.34,0.959-1.875c0.2,1.621-0.472,1.246-0.46,2.438
					c0.762,0.387,0.272-2.088,1.212-1.293c-0.015-0.586-0.307-0.445-0.499-0.563c0.544-1.313,0.873,0.199,1.709-0.732
					c0.013,1.826,0.549,2.291,0.783,3.541c0.572-0.549-0.695-1.426-0.292-3.582c0.287,1.164,0.648,2.758,0.736-0.055
					c1.307-1.305,1.711,2.945,2.232,1.629C244.2,350.811,242.459,351.379,242.845,353.855z M176.946,349.322
					c-0.192-0.119-0.484,0.021-0.5-0.564c0.136-0.008,0.272-0.508-0.007-0.598c-0.01,1.146-0.92-0.406-1.235-0.504
					c-0.04,1.137,0.294,1.301,0.276,2.379c-0.136,0.012-0.272,0.508,0.008,0.598c0.048-0.469,0.197-0.711,0.483-0.633
					c0.003,0.332,0.208,0.664,0.246-0.021c-0.269-0.123-0.603-0.943-0.261-1.182C175.864,349.773,176.897,350.742,176.946,349.322z
					 M210.885,352.113c-1.408-1.402-1.065,5.184-0.214,2.418c-0.192-0.121-0.484,0.02-0.499-0.563
					C210.079,352.594,210.873,353.25,210.885,352.113z M218.24,350.945c-0.192-0.117-0.292-0.477-0.261-1.18
					c-0.465-0.098-0.532,0.721-0.974,0.676C216.649,352.281,218.296,351.922,218.24,350.945z M223.893,351.113
					c-0.324,0.016-0.237-1.035-0.506-1.16c-0.47,1.416,0.07,0.66,0.268,1.777c-0.349,0.363-0.586,0.98-0.713,1.855
					C223.77,353.938,223.826,352.512,223.893,351.113z"/>
				<path d="M227.076,350.266c0.665-1.141,1.28-1.297,1.942-0.844C228.681,346.527,226.527,348.852,227.076,350.266z"/>
				<path d="M229.032,349.516l0.038-0.059c-0.018-0.012-0.035-0.02-0.052-0.035L229.032,349.516z"/>
				<path d="M255.047,347.516c-0.29-0.07-0.694,0.156-0.743-0.547c0.341-1.416,0.792,1.113,0.72-1.254
					c-0.427,0.078-0.765-0.072-0.989-0.523c-0.03,0.898,0.117,2.207-0.215,2.418c-0.246,0.02-0.298-0.459-0.498-0.563
					c0.016,2.961,1.236,0.439,1.496,1.688c-0.562,0.938-1.061-0.125-1.219,0.691c0.739,0.34-0.22,1.301,0.03,2.398
					C254.362,350.986,255.208,350.402,255.047,347.516z"/>
			</g>
		</g>
	</g>
	<g>
		<path fill="#060404" d="M53.703,49.246c4.197,0,6.876,0.962,8.038,2.885c0.477,0.938,1.025,4.548,1.645,10.828
			c0.35,3.879,0.525,7.704,0.525,11.472v3.816c0,13.372-1.86,29.637-5.581,48.795c-1.018,2.401-3.593,3.601-7.727,3.601h-1.551
			c-5.214,0-8.347-1.064-9.396-3.195c-0.222,0-0.636-6.979-1.24-20.94c-3.848-0.413-6.01-0.691-6.487-0.834
			c-0.589,12.322-1.001,18.483-1.24,18.483c-1.05,1.145-2.322,1.963-3.816,2.457c-2.958,1.112-5.334,1.669-7.131,1.669
			c-3.323,0-5.692-1.654-7.107-4.961c-3.577-19.286-5.366-35.933-5.366-49.94c0.175-11.129,0.724-16.695,1.646-16.695
			c1.478-1.589,5.604-2.384,12.377-2.384c5.597,0,8.904,1.064,9.921,3.196c0.541,0.891,0.915,9.699,1.122,26.424v5.653
			c3.116-0.271,5.008-0.406,5.675-0.406v-4.341c0-13.18,0.311-23.563,0.931-31.146c0.413-0.827,1.136-1.582,2.17-2.266
			C44.243,49.969,48.44,49.246,53.703,49.246z M11.752,63.292c0,0.858,0.318,1.511,0.954,1.955h0.477
			c0.89,0,2.767-1.224,5.628-3.672c1.224-0.557,1.836-1.161,1.836-1.813v-0.501c-0.62-0.891-1.836-1.335-3.649-1.335
			c-2.369,0-4.047,1.264-5.032,3.792C11.824,62.355,11.752,62.879,11.752,63.292z M40.908,87.857
			c-0.453,2.147-1.717,3.299-3.792,3.458c-2.075,0.16-3.049,0.715-2.921,1.669v0.31c0.254,1.097,1.256,1.646,3.005,1.646h0.81
			c1.542,0,3.156-0.962,4.841-2.886c1.034-1.177,1.551-2.894,1.551-5.152c-0.064-1.319-0.271-2.011-0.62-2.075h-0.096
			C42.287,84.701,41.361,85.711,40.908,87.857z M42.422,58.833c0,0.858,0.318,1.511,0.954,1.955h0.477
			c0.891,0,2.767-1.224,5.628-3.672c1.225-0.556,1.836-1.161,1.836-1.813v-0.501c-0.62-0.89-1.836-1.335-3.648-1.335
			c-2.37,0-4.047,1.264-5.033,3.792C42.494,57.895,42.422,58.42,42.422,58.833z"/>
		<path fill="#060404" d="M103.882,49.15h1.335c2.925,0,6.296,2.202,10.113,6.606c4.531,6.566,6.796,9.969,6.796,10.208
			c11.766,18.554,17.649,36.712,17.649,54.471c0,3.211-0.374,5.104-1.121,5.676c-1.59,2.4-4.826,3.602-9.707,3.602h-1.551
			c-3.45,0-7.679-0.549-12.687-1.646c-1.336-0.668-2.473-2.115-3.411-4.341c-1.368-4.373-2.051-7.846-2.051-10.422
			c-0.111,0-0.254-1.583-0.43-4.746c-1.908,0.62-4.213,0.93-6.916,0.93h-0.906c0,6.01-1.415,11.861-4.245,17.553
			c-1.59,2.274-4.207,3.41-7.847,3.41h-1.646c-3.991,0-9.73-1.24-17.219-3.72c-1.861-1.129-2.791-2.917-2.791-5.366v-0.095
			c0-5.804,1.168-13.475,3.506-23.015c2.305-7.663,4.817-14.095,7.537-19.293c2.4-4.643,5.493-9.564,9.277-14.763
			c2.401-3.307,6.153-7.6,11.257-12.878C100.67,49.874,102.356,49.15,103.882,49.15z M74.882,109.179l0.095,0.43h0.119
			c0.223,0,1.319-3.308,3.291-9.921c2.242-6.678,4.786-12.696,7.632-18.054l3.625-5.986c2.083-3.259,4.491-6.559,7.226-9.897
			c2.799-3.498,5.065-5.66,6.798-6.487c1.176-0.795,1.765-1.59,1.765-2.385c-0.366-0.89-1.058-1.336-2.075-1.336
			c-2.799,0-7.783,5.263-14.953,15.789c-4.452,6.789-7.895,13.976-10.327,21.56C75.946,99.663,74.882,105.093,74.882,109.179z
			 M101.498,96.086v0.62l0.119,0.715c3.911-0.667,5.867-1.558,5.867-2.671c0.144-0.859,0.215-1.55,0.215-2.075
			c-0.286-3.578-0.875-5.366-1.766-5.366c-0.111-0.063-0.278-0.096-0.5-0.096c-1.463,0.859-2.536,2.441-3.22,4.747
			C101.735,93.565,101.498,94.941,101.498,96.086z M105.766,99.71v0.095c0,0.668,0.794,1.082,2.385,1.241
			c0.906,0,2.043-0.366,3.411-1.098c1.208-0.826,1.813-1.765,1.813-2.814c0-1.255-0.445-1.884-1.336-1.884
			c-0.557,0-1.215,0.493-1.979,1.479c-0.764,0.986-1.679,1.598-2.743,1.836C106.251,98.804,105.734,99.186,105.766,99.71z"/>
		<path fill="#060404" d="M156.208,49.46h1.765c1.829,0,2.894,0.724,3.196,2.169c2.353,4.914,4.205,14.469,5.557,28.667
			c0.111-0.016,0.668-1.319,1.67-3.911c2.607-5.596,6.082-12.059,10.422-19.39c0.827-0.763,2.027-1.145,3.601-1.145
			c3.578,0,9.214,1.757,16.91,5.271c2.067,1.129,3.1,2.091,3.1,2.886c-0.255,1.527-1.185,4.897-2.791,10.113
			c-4.309,12.751-9.055,23.547-14.238,32.387c-3.434,5.867-7.179,11.4-11.233,16.6c-2.942,4.022-5.382,6.367-7.322,7.035
			c-0.748,0.27-1.439,0.405-2.075,0.405h-0.811c-2.449,0-4.897-1.717-7.346-5.151c-4.388-8.109-8.443-17.227-12.163-27.355
			c-2.099-5.676-4.094-12.655-5.987-20.94c-2.13-10.525-3.195-17.783-3.195-21.774c0-1.717,6.192-3.641,18.579-5.771
			C154.768,49.492,155.555,49.46,156.208,49.46z M141.349,60.192c0.143,1.574,0.659,2.361,1.55,2.361v0.095
			c0.699,0,2.25-0.891,4.65-2.671c3.435-0.699,5.152-1.351,5.152-1.956c0.096,0,0.27-0.278,0.524-0.835v-0.716
			c0-0.81-0.755-1.295-2.266-1.454c-2.465,0.08-4.977,0.636-7.537,1.669C142.041,57.641,141.349,58.809,141.349,60.192z
			 M173.689,74.371c-1.86,3.188-2.155,4.511-0.882,3.971c1.271-0.54,2.09-1.082,2.456-1.623c0.509-0.365,2.496-3.577,5.962-9.635
			c0.446-1.208,2.179-2.345,5.2-3.41c0.588-0.254,0.85-0.731,0.787-1.431c-0.381-1.113-1.415-1.669-3.1-1.669
			c-2.099,0-4.055,1.686-5.867,5.056C177.067,68.27,175.549,71.183,173.689,74.371z"/>
		<path fill="#060404" d="M242.59,49.77c6.248,0,13.269,0.787,21.059,2.361c3.562,1.034,5.898,2.202,7.012,3.506
			c0.556,0.478,0.834,2.06,0.834,4.746c0.063,1.448,0.097,2.449,0.097,3.005c0,7.012-1.305,11.273-3.911,12.784
			c-3.134,2.273-9.295,3.411-18.483,3.411c-3.801,0-8.205-0.207-13.213-0.62c0.143,1.717,0.214,3.267,0.214,4.65
			c-0.063,0.588-0.095,0.93-0.095,1.025c5.788-1.097,10.049-1.646,12.783-1.646h1.645c2.418,0,3.626,0.994,3.626,2.981v0.311
			c0,2.146-0.858,4.69-2.575,7.631c-1.94,2.48-5.557,3.721-10.852,3.721h-1.527c-0.366,0-0.953-0.032-1.765-0.096
			c0,0.588,0.032,1.201,0.095,1.836c-0.063,1.67-0.127,2.743-0.19,3.22h0.095c9.285-1.796,16.472-2.695,21.561-2.695h1.239
			c3.928,0,6.678,0.692,8.252,2.075c5.438,4.325,8.156,8.204,8.156,11.639v1.359c0,3.021-2.201,6.113-6.605,9.277
			c-9.905,3.721-19.979,5.581-30.217,5.581c-7.283,0-14.58-0.93-21.894-2.791c-1.669-1.129-3.212-3.538-4.626-7.226
			c-1.527-3.45-3.252-10.327-5.176-20.629c-1.574-8.936-2.36-16.162-2.36-21.679v-1.741c0-7.394,1.653-12.243,4.96-14.547
			C219.074,53.586,229.695,49.77,242.59,49.77z M212.158,70.186V70.9c0,1.034,0.238,1.55,0.715,1.55
			c0.779-0.587,1.884-1.995,3.315-4.221c2.894-3.895,8.776-6.988,17.648-9.277c5.04-1.113,10.748-1.67,17.123-1.67
			c0-0.063,0.415-0.126,1.241-0.19v-0.215c-3.545-1.097-7.845-1.646-12.902-1.646c-9.412,0-17.354,2.782-23.825,8.347
			C213.262,65.916,212.158,68.119,212.158,70.186z M240.944,107.748c0,0.842,1.652,1.359,4.961,1.55
			c1.431-0.08,5.762-0.667,12.997-1.765c0.685-0.27,1.057-0.509,1.121-0.716v-0.215c-0.525-0.826-2.242-1.24-5.15-1.24h-5.772
			C243.663,105.792,240.944,106.587,240.944,107.748z"/>
		<path fill="#060404" d="M28.304,156.217c15.772,0,26.711,3.506,32.817,10.518c3.02,3.705,4.531,7.035,4.531,9.993v1.551
			c0,4.674-3.641,9.285-10.923,13.832c-2.448,1.304-3.721,1.955-3.816,1.955v0.12c3.943,0.286,8.618,1.765,14.023,4.437
			c7.839,4.706,11.758,9.102,11.758,13.188v1.55c0,3.546-2.854,7.504-8.562,11.877c-4.214,3.004-9.476,5.478-15.788,7.417
			c-8.792,2.417-16.321,3.625-22.585,3.625c-8.824,0-14.016-2.72-15.574-8.157c-4.611-11.989-6.916-32.181-6.916-60.577v-2.051
			c0-1.383,0.994-3.101,2.981-5.152c2.846-2.035,6.463-3.275,10.851-3.72C22.373,156.417,24.773,156.281,28.304,156.217z
			 M13.16,167.761c0.174,1.24,0.484,1.86,0.93,1.86c0.302,0,1.605-0.962,3.911-2.886c0.636-0.684,2.25-1.335,4.841-1.956
			c2.687-0.493,6.884-0.874,12.593-1.145c0.827-0.063,1.24-0.199,1.24-0.405c-0.477-0.635-3.57-1.153-9.278-1.55h-3.1
			c-5.549,0-8.991,1.168-10.327,3.506C13.43,166.028,13.16,166.886,13.16,167.761z M29.663,185.194v1.24
			c0,0.7-0.04,1.559-0.12,2.577c0.144,0.875,0.215,1.391,0.215,1.549c4.404-2.448,6.606-5.333,6.606-8.657
			c-0.159-1.176-0.708-1.765-1.646-1.765C31.348,180.139,29.663,181.824,29.663,185.194z M30.45,193.423
			c-0.048,0.286,0.31,0.477,1.073,0.572c0.366,0.031,0.675,0.031,0.93,0c1.892-0.191,3.426-1.225,4.603-3.101
			c0-0.032,0.079-0.223,0.239-0.573c0.047-0.683-0.136-1.01-0.548-0.978c-0.287,0.032-1.018,0.517-2.194,1.455
			c-1.638,1.065-2.878,1.796-3.721,2.194C30.608,193.184,30.481,193.328,30.45,193.423z M31.929,205.943
			c0,1.972,0.962,4.07,2.886,6.296c1.001,0.683,1.932,1.025,2.791,1.025h0.93c2.258,0,3.736-0.858,4.436-2.576l0.31-0.834
			c0-0.954-0.62-1.987-1.86-3.1c-0.938-0.684-2.448-1.304-4.531-1.86l-3.72-0.501C32.342,204.568,31.929,205.085,31.929,205.943z
			 M40.873,216.651c0,0.35,0.413,0.629,1.24,0.834c0.365,0.08,0.683,0.12,0.954,0.12c1.892,0,3.243-1.065,4.054-3.196
			c0-0.016,0.039-0.23,0.119-0.644c-0.111-0.827-0.366-1.241-0.763-1.241c-0.302,0-0.954,0.493-1.957,1.479
			c-1.462,1.081-2.583,1.813-3.362,2.194C40.968,216.39,40.873,216.54,40.873,216.651z"/>
		<path fill="#060404" d="M116.856,155.597c6.248,0,13.268,0.787,21.059,2.361c3.562,1.034,5.898,2.202,7.012,3.506
			c0.556,0.478,0.834,2.059,0.834,4.746c0.063,1.447,0.095,2.448,0.095,3.005c0,7.012-1.304,11.273-3.911,12.783
			c-3.132,2.274-9.293,3.411-18.483,3.411c-3.8,0-8.204-0.207-13.213-0.62c0.143,1.716,0.215,3.267,0.215,4.65
			c-0.063,0.588-0.095,0.929-0.095,1.025c5.787-1.098,10.048-1.646,12.784-1.646h1.645c2.417,0,3.625,0.994,3.625,2.981v0.31
			c0,2.146-0.859,4.69-2.576,7.631c-1.94,2.48-5.557,3.721-10.851,3.721h-1.527c-0.366,0-0.954-0.032-1.765-0.096
			c0,0.588,0.031,1.201,0.095,1.836c-0.064,1.67-0.127,2.743-0.191,3.219h0.096c9.286-1.796,16.472-2.695,21.56-2.695h1.24
			c3.927,0,6.678,0.692,8.252,2.075c5.438,4.325,8.156,8.204,8.156,11.638v1.36c0,3.021-2.202,6.113-6.606,9.278
			c-9.906,3.72-19.978,5.581-30.218,5.581c-7.282,0-14.58-0.931-21.893-2.792c-1.669-1.128-3.212-3.537-4.627-7.226
			c-1.526-3.45-3.251-10.327-5.175-20.63c-1.574-8.935-2.361-16.162-2.361-21.679v-1.741c0-7.393,1.653-12.242,4.96-14.548
			C93.341,159.414,103.961,155.597,116.856,155.597z M86.424,176.013v0.715c0,1.034,0.239,1.551,0.715,1.551
			c0.779-0.589,1.884-1.996,3.315-4.222c2.893-3.896,8.776-6.988,17.648-9.278c5.04-1.112,10.748-1.669,17.124-1.669
			c0-0.063,0.414-0.127,1.241-0.191v-0.215c-3.546-1.097-7.847-1.646-12.903-1.646c-9.412,0-17.354,2.782-23.825,8.347
			C87.529,171.744,86.424,173.946,86.424,176.013z M115.21,213.575c0,0.842,1.653,1.359,4.961,1.551
			c1.431-0.081,5.763-0.668,12.998-1.766c0.684-0.27,1.058-0.509,1.121-0.715v-0.215c-0.524-0.826-2.242-1.24-5.151-1.24h-5.771
			C117.929,211.62,115.21,212.415,115.21,213.575z"/>
		<path fill="#060404" d="M191.075,155.597c6.249,0,13.268,0.787,21.059,2.361c3.562,1.034,5.898,2.202,7.012,3.506
			c0.556,0.478,0.834,2.059,0.834,4.746c0.063,1.447,0.096,2.448,0.096,3.005c0,7.012-1.304,11.273-3.911,12.783
			c-3.133,2.274-9.293,3.411-18.483,3.411c-3.801,0-8.204-0.207-13.213-0.62c0.143,1.716,0.215,3.267,0.215,4.65
			c-0.063,0.588-0.095,0.929-0.095,1.025c5.787-1.098,10.049-1.646,12.783-1.646h1.646c2.417,0,3.626,0.994,3.626,2.981v0.31
			c0,2.146-0.859,4.69-2.577,7.631c-1.939,2.48-5.557,3.721-10.851,3.721h-1.526c-0.366,0-0.955-0.032-1.765-0.096
			c0,0.588,0.031,1.201,0.095,1.836c-0.064,1.67-0.127,2.743-0.191,3.219h0.096c9.285-1.796,16.471-2.695,21.56-2.695h1.24
			c3.927,0,6.678,0.692,8.252,2.075c5.438,4.325,8.157,8.204,8.157,11.638v1.36c0,3.021-2.203,6.113-6.606,9.278
			c-9.906,3.72-19.978,5.581-30.218,5.581c-7.282,0-14.58-0.931-21.893-2.792c-1.669-1.128-3.212-3.537-4.627-7.226
			c-1.526-3.45-3.251-10.327-5.175-20.63c-1.574-8.935-2.361-16.162-2.361-21.679v-1.741c0-7.393,1.654-12.242,4.961-14.548
			C167.56,159.414,178.181,155.597,191.075,155.597z M160.643,176.013v0.715c0,1.034,0.239,1.551,0.716,1.551
			c0.779-0.589,1.884-1.996,3.315-4.222c2.894-3.896,8.776-6.988,17.648-9.278c5.04-1.112,10.748-1.669,17.124-1.669
			c0-0.063,0.414-0.127,1.24-0.191v-0.215c-3.546-1.097-7.846-1.646-12.902-1.646c-9.413,0-17.354,2.782-23.825,8.347
			C161.748,171.744,160.643,173.946,160.643,176.013z M189.429,213.575c0,0.842,1.654,1.359,4.961,1.551
			c1.43-0.081,5.763-0.668,12.998-1.766c0.683-0.27,1.057-0.509,1.12-0.715v-0.215c-0.524-0.826-2.241-1.24-5.151-1.24h-5.771
			C192.148,211.62,189.429,212.415,189.429,213.575z"/>
		<path fill="#060404" d="M279.222,154.238c3.275,0,6.272,0.763,8.991,2.29c1.638,1.081,2.735,2.56,3.291,4.436
			c0.558,2.894,1.177,10.319,1.86,22.275c0.27,4.246,0.445,9.778,0.525,16.599c0,14.214-1.24,25.392-3.721,33.533
			c-1.13,1.859-2.918,2.79-5.366,2.79h-0.619c-4.072,0-8.85-1.583-14.335-4.745c-2.21-1.464-4.142-3.419-5.795-5.868
			c-3.069-4.929-6.193-12.703-9.373-23.325h-0.119v0.406c0,8.061,0.66,16.52,1.979,25.375c0.079,0,0.144,0.556,0.19,1.67
			c0,2.195-1.2,3.673-3.601,4.437c-1.178,0.206-2.139,0.309-2.886,0.309c-8.761,0-14.159-0.961-16.194-2.884
			c-2.003-1.559-3.004-3.698-3.004-6.417c-1.718-15.899-2.576-29.518-2.576-40.854v-1.741c0-12.386,1.168-21.09,3.506-26.115
			c0.731-0.621,2.313-0.931,4.746-0.931c5.105,0,11.019,0.795,17.744,2.385c3.323,1.129,5.287,2.297,5.891,3.506
			c3.164,4.149,6.703,12.338,10.613,24.565h0.119v-0.311c0-4.436-0.588-11.114-1.765-20.033c-0.063-0.716-0.095-1.677-0.095-2.886
			v-0.811c0-3.243,0.444-5.175,1.336-5.795C273.299,154.858,276.185,154.238,279.222,154.238z M233.431,165.852
			c0.223,1.67,0.755,2.504,1.598,2.504c2.051-1.112,4.547-2.877,7.487-5.294c1.973-0.875,2.958-1.359,2.958-1.455
			c0-0.365-1.574-1.145-4.721-2.337l-1.313-0.167c-2.814,0-4.715,1.574-5.701,4.723C233.535,164.684,233.431,165.36,233.431,165.852
			z M272.663,162.657c0,0.779,0.286,1.359,0.858,1.741h0.43c0.779,0,2.44-1.089,4.984-3.268c1.098-0.493,1.646-1.025,1.646-1.598
			v-0.453c-0.558-0.795-1.638-1.192-3.244-1.192c-2.115,0-3.609,1.121-4.483,3.362C272.726,161.822,272.663,162.292,272.663,162.657
			z"/>
	</g>
</g>
</svg>
