<?xml version="1.0" encoding="utf-8"?>
<!-- Generator: Adobe Illustrator 15.1.0, SVG Export Plug-In . SVG Version: 6.00 Build 0)  -->
<!DOCTYPE svg PUBLIC "-//W3C//DTD SVG 1.1//EN" "http://www.w3.org/Graphics/SVG/1.1/DTD/svg11.dtd">
<svg version="1.1" id="레이어_1" xmlns="http://www.w3.org/2000/svg" xmlns:xlink="http://www.w3.org/1999/xlink" x="0px"
	 y="0px" width="628px" height="628px" viewBox="0 0 628 628" enable-background="new 0 0 628 628" xml:space="preserve">
<g>
	<g>
		<path fill="none" stroke="#040000" stroke-miterlimit="10" d="M239.31,272.886c-13.475,6.638-25.654,14.072-34.879,22.249
			c0,0-9.925,2.483-7.133-7.444c0,0,10.952-9.682,36.093-22.178"/>
		<path fill="none" stroke="#040000" stroke-miterlimit="10" d="M239.31,272.886"/>
		<path fill="none" stroke="#040000" stroke-miterlimit="10" d="M260.347,263.506c-1.825,0.741-3.642,1.495-5.448,2.261"/>
		<path fill="none" stroke="#030000" stroke-miterlimit="10" d="M249.658,257.97c32.921-14.262,82.803-30.216,153.605-39.451
			c0,0,30.09-3.723,88.717,0c0,0,11.166,8.375-19.541,5.893c0,0-53.043-2.17-114.154,9.927c0,0-51.418,10.283-97.938,29.168"/>
		<path fill="none" stroke="#040000" stroke-miterlimit="10" d="M428.08,216.864c0,0-4.967,2.859,1.24,8.461h10.547
			c0,0,4.963-7.014,0-8.461H428.08z"/>
		<path fill="none" stroke="#040000" stroke-miterlimit="10" d="M408.672,196.185c0.008,0.02,7.762,24.297,22.645,20.679
			c0.76-0.185,1.732-3.244,1.947-3.831c0.893-2.457,1.373-5.463,0.076-7.868c-0.773-1.432-2.402-3.458-4.113-3.726
			c-1.092-0.171-2.49,0.1-3.623,0.074c-3.977-0.096-7.965-0.41-11.725-1.819C412.42,199.146,409.213,197.877,408.672,196.185z"/>
		<path fill="none" stroke="#040000" stroke-miterlimit="10" d="M428.73,201.392c0,0,3.963-11.917,15.943-6.914
			c0,0-5.434,3.14-2.598,5.234c0,0,8.182,14.179-3.217,17.151"/>
		<path fill="none" stroke="#040000" stroke-miterlimit="10" d="M428.971,216.864c0,0-7.793-3.891-8.375-7.497"/>
		<path fill="none" stroke="#040000" stroke-miterlimit="10" d="M428.971,209.367c0,0,3.178,1.383,2.346,7.497"/>
		<path fill="none" stroke="#040000" stroke-miterlimit="10" d="M433.51,216.864c0,0,8.152-6.27,3.436-11.828"/>
		<path fill="none" stroke="#040000" stroke-miterlimit="10" d="M434.135,216.332c0,0,7.152-0.267,7.941-7.662"/>
		<path fill="none" stroke="#040000" stroke-miterlimit="10" d="M429.32,225.325c0,0-43.736,16.146-41.875,61.746
			c0,0,4.904,51.182,48.516,49.321c0,0,69.668,3.723,73.389-51.182c0,0,1.029-50.484-69.482-59.884"/>
		<path fill="none" stroke="#040000" stroke-miterlimit="10" d="M428.73,233.097c0,0-12.438,12.581-14.299,23.041"/>
		<path fill="none" stroke="#040000" stroke-miterlimit="10" d="M442.076,233.097c0,0,18.885,2.569,22.607,11.521"/>
		<path fill="none" stroke="#040000" stroke-miterlimit="10" d="M433.51,238.857c0,0-4.572,10.542-2.055,17.281"/>
		<path fill="none" stroke="#040000" stroke-miterlimit="10" d="M442.076,238.857c0,0,4.479,3.499,2.842,8.641"/>
		<path fill="none" stroke="#040000" stroke-miterlimit="10" d="M282.6,319.952c0,0,38.709,8.684,62.781-6.204v-5.274
			c0,0-33.313,13.807-62.781,5.353V319.952z"/>
		<path fill="none" stroke="#040000" stroke-miterlimit="10" d="M345.381,313.748c0,0,9.805,12.097,5.459,45.907
			c0,0-8.994,30.09-37.221,64.521l-35.362,43.426c0,0-15.819-6.67-39.86-30.863c0,0,26.368-24.973,46.375-59.094l14.889-24.969
			l3.258-4.033V322.47"/>
		<path fill="none" stroke="#040000" stroke-miterlimit="10" d="M302.918,348.644c0,0,4.927-2.24,5.259-12.869
			c0.006-0.205,0.012-0.414,0.012-0.623c0.156-11.168,0-12.254,0-12.254"/>
		<path fill="none" stroke="#040000" stroke-miterlimit="10" d="M329.283,319.952c0,0,0.342,18.859,22.373,15.842"/>
		<path fill="none" stroke="#040000" stroke-miterlimit="10" d="M322.615,355.312"/>
		<path fill="none" stroke="#040000" stroke-miterlimit="10" d="M309.736,428.944l9.777,25.32c0,0,28.227-15.51,38.152-13.648
			l-20.469-50.902"/>
		<path fill="none" stroke="#040000" stroke-miterlimit="10" d="M309.219,427.612"/>
		<path fill="none" stroke="#040000" stroke-miterlimit="10" d="M282.6,319.952c0,0-8.685,9.615-4.653,26.676l9.955,25.777"/>
		<path fill="none" stroke="#040000" stroke-miterlimit="10" d="M277.114,341.864c0,0,14.003-3.66,13.011-20.635"/>
		<path fill="none" stroke="#040000" stroke-miterlimit="10" d="M319.514,454.265l-4.035,3.104c0,0,3.41,10.545,11.477,14.268
			l41.879-15.82c0,0-4.346-17.68-7.756-16.439c-3.412,1.24-3.412,1.24-3.412,1.24"/>
		<path fill="none" stroke="#040000" stroke-miterlimit="10" d="M238.397,436.739l-3.567-2.637c0,0-12.113,7.6-13.478,13.031
			c-0.196,0.777-0.171,1.508,0.139,2.168c2.481,5.273,25.125,29.158,38.464,34.742c0,0,3.102,1.551,9.617-1.861
			c0,0,8.064-4.344,8.685-14.58"/>
		<g>
			<g>
				<path fill="none" stroke="#040000" stroke-miterlimit="10" d="M349.773,338.214c0,0,0.064,0.518,0.109,1.492"/>
				<path fill="none" stroke="#040000" stroke-miterlimit="10" stroke-dasharray="3.0167,3.0167" d="M349.906,342.718
					c-0.195,8.275-2.604,26.979-18.297,47.959c0,0-12.033,19.73-54.563,73.016"/>
				<path fill="none" stroke="#040000" stroke-miterlimit="10" d="M276.101,464.876c-0.311,0.389-0.623,0.779-0.937,1.172"/>
			</g>
		</g>
		<g>
			<path fill="none" d="M299.661,352.677"/>
		</g>
		<g>
			<g>
				<path fill="none" stroke="#040000" stroke-miterlimit="10" d="M240.993,439.312c0,0,0.355-0.383,1.011-1.102"/>
				<path fill="none" stroke="#040000" stroke-miterlimit="10" stroke-dasharray="3.0831,3.0831" d="M244.071,435.925
					c11.222-12.49,49.558-56.443,54.656-79.49"/>
				<path fill="none" stroke="#040000" stroke-miterlimit="10" d="M299.02,354.915c0.082-0.506,0.146-1,0.19-1.482"/>
			</g>
		</g>
		<g>
			<g>
				<path fill="none" stroke="#040000" stroke-miterlimit="10" d="M306.602,322.897c0,0,0.016,0.361,0.033,0.994"/>
				<path fill="none" stroke="#040000" stroke-miterlimit="10" stroke-dasharray="2.0854,2.0854" d="M306.674,325.974
					c0.059,5.188-0.109,15.508-2.225,19.566"/>
				<path fill="none" stroke="#040000" stroke-miterlimit="10" d="M303.877,346.419c-0.234,0.281-0.487,0.496-0.762,0.635"/>
			</g>
		</g>
		<path fill="none" stroke="#040000" stroke-width="0.5" stroke-miterlimit="10" d="M276.983,340.501
			c0,0,11.708-4.439,11.708-19.475"/>
		<path fill="none" stroke="#040000" stroke-width="0.5" stroke-miterlimit="10" d="M331.07,319.696c0,0,0.252,16.086,19.387,15.279
			"/>
		<line fill="none" stroke="#040000" stroke-miterlimit="10" x1="300.403" y1="316.515" x2="300.403" y2="322.239"/>
		<path fill="none" stroke="#040000" stroke-miterlimit="10" d="M304.623,319.698c0,0.771-0.625,1.398-1.395,1.398
			c-0.771,0-1.396-0.627-1.396-1.398c0-0.77,0.624-1.395,1.396-1.395C303.999,318.304,304.623,318.929,304.623,319.698z"/>
		
			<line fill="none" stroke="#040000" stroke-miterlimit="10" stroke-dasharray="3" x1="311.721" y1="426.507" x2="321.855" y2="453.017"/>
		
			<line fill="none" stroke="#040000" stroke-miterlimit="10" stroke-dasharray="3" x1="280.642" y1="345.222" x2="289.559" y2="368.546"/>
		
			<line fill="none" stroke="#040000" stroke-miterlimit="10" stroke-dasharray="3" x1="335.949" y1="391.909" x2="355.189" y2="440.478"/>
		<path fill="none" stroke="#040000" stroke-miterlimit="10" stroke-dasharray="2" d="M344.148,314.48"/>
		<path fill="none" stroke="#040000" stroke-width="0.5" stroke-miterlimit="10" d="M344.148,314.48c0,0,4.941,3.776,6.408,21.642"
			/>
		<path fill="none" stroke="#040000" stroke-width="0.5" stroke-miterlimit="10" d="M278.5,342.901"/>
		<path fill="none" stroke="#040000" stroke-width="0.5" stroke-miterlimit="10" d="M283.527,320.144c0,0-6.538,8.963-5.485,19.859"
			/>
		<path fill="none" stroke="#040000" stroke-width="0.5" stroke-miterlimit="10" d="M335.949,332.378"/>
		<path fill="none" stroke="#040000" stroke-miterlimit="10" d="M359.17,459.466c0,0,5.166,8.912,2.529,12.789
			c0,0-41.875,31.02-58.162,21.25c0,0-5.894-11.633,4.808-12.564l15.244-11.42"/>
		<path fill="none" stroke="#040000" stroke-miterlimit="10" d="M308.346,480.94c0,0,9.234,1.408,11.828,13.189"/>
		<path fill="none" stroke="#040000" stroke-miterlimit="10" d="M304.738,494.13l3.607,4.338c0,0,8.48,5.738,54.102-22.334
			l1.422-2.482l-1.422-6.049"/>
		<path fill="none" stroke="#040000" stroke-miterlimit="10" d="M184.495,452.247c0,0,29.39,31.807,44.593,37.85"/>
		<path fill="none" stroke="#040000" stroke-miterlimit="10" d="M188.85,456.821c0,0,17.288-6.125,18.373-12.947
			c0,0-24.351-21.621-22.644,11.6c0,0,15.509,24.227,41.411,36.014c0,0,7.27-1.225,18.447-17.904"/>
		<polyline fill="none" stroke="#040000" stroke-miterlimit="10" points="207.223,443.874 221.228,449.147 210.247,460.159 
			216.855,447.501 204.664,457.056 211.555,445.505 198.506,452.427 225.292,471.171 		"/>
		<polyline fill="none" stroke="#040000" stroke-miterlimit="10" points="221.228,449.147 215.443,463.261 225.275,454.536 
			219.708,465.511 229.451,459.249 225.292,471.171 234.027,463.985 		"/>
		<polyline fill="none" stroke="#040000" stroke-miterlimit="10" points="201.484,453.722 213.866,446.374 208.153,457.987 
			218.581,448.151 213.504,461.013 223.042,452.247 218.313,464.224 227.318,456.901 222.112,468.302 232.216,462.155 		"/>
		<path fill="none" stroke="#040000" stroke-miterlimit="10" d="M321.375,484.396l12.928-10.898l-8.586-5.119l3.721,9.059
			l-9.264-5.357l4.459,10.104l-11.609-4.746C313.023,477.437,321.527,481.802,321.375,484.396l-4.586-9.779l10.633,4.891
			l-5.049-9.074l9.811,4.77l-0.914-5.197"/>
		<line fill="none" stroke="#040000" stroke-miterlimit="10" x1="334.303" y1="473.497" x2="334.869" y2="468.646"/>
		<path fill="none" stroke="#020202" stroke-miterlimit="10" d="M370.682,181.397c0,0-13.691,27.041-39.428,15.19
			c0,0-9.098-3.147-11.529-19.858c0,0,2.844-19.144-14.906-24.993c0,0-19.252-1.253-22.437,17.546"/>
		<path fill="none" stroke="#040000" stroke-miterlimit="10" d="M244.314,276.231c-2.564,3.633-5.362,7.091-8.332,10.419
			c0,0,11.276,0.227,16.539-9.334"/>
		<path fill="none" stroke="#040000" stroke-miterlimit="10" d="M319.725,176.729c-16.363-20.671-37.437-5.996-37.45-5.986"/>
		<path fill="none" stroke="#040000" stroke-miterlimit="10" d="M335,168.865c0,0,22.941,20.26,32.758-6.893
			c0,0,6.162,12.925-2.744,23.695"/>
		<path fill="none" stroke="#020202" stroke-miterlimit="10" d="M282.274,170.744c0,0-17.746,6.893-10.215,40.313
			c0,0,0.664,31.533-3.696,39.592"/>
		<path fill="none" stroke="#030000" stroke-miterlimit="10" d="M281.552,228.804c0,0-0.748,13.433-4.604,18.51"/>
		<path fill="none" stroke="#040000" stroke-miterlimit="10" d="M259.766,281.963c-1.298,2.555-2.092,4.182-4.669,5.542
			c-2.225,1.172-4.803,1.565-7.239,2.08c0,0,4.729-3.67,5.014-8.364c0.285-4.694-0.364-3.619-0.364-3.619"/>
		<path fill="none" stroke="#040000" stroke-miterlimit="10" d="M259.963,282.714c0,0-0.22,7.45-6.152,8.079
			c0,0,0.636,6.018,10.662,1.568"/>
		<path fill="none" stroke="#040000" stroke-miterlimit="10" d="M348.865,210.114"/>
		<path fill="none" stroke="#030000" stroke-miterlimit="10" d="M272.06,211.057c0,0-0.356,23.918,33.431,26.4
			c0,0,26.967-7.758,31.822-29.376"/>
		<path fill="none" stroke="#030000" stroke-miterlimit="10" d="M289.011,233.25c0,0,1.491,9.24-0.395,10.083"/>
		<path fill="none" stroke="#040000" stroke-miterlimit="10" d="M276.161,272.602"/>
		<path fill="none" stroke="#040000" stroke-miterlimit="10" d="M287.473,251.724"/>
		<path fill="none" stroke="#040000" stroke-miterlimit="10" d="M296.695,133.308c0,0,52.618-18.163,60.124,41.958"/>
		<path fill="none" stroke="#020202" stroke-miterlimit="10" d="M360.404,193.602c0,0-0.854,18.084,2.76,31.541"/>
		<path fill="none" stroke="#020202" stroke-miterlimit="10" d="M356.887,195.998c0,0-1.527,22.449,1.959,29.949"/>
		<path fill="none" stroke="#040000" stroke-miterlimit="10" d="M367.369,232.631c0,0,2.613,14.995,13.283,12.456
			c0,0,0.85,8.13-6.83,6.637"/>
		<path fill="none" stroke="#020202" stroke-miterlimit="10" d="M350.525,227.575c-0.412-3.059-1.422-12.599-1.037-28.614"/>
		<path fill="none" stroke="#040000" stroke-miterlimit="10" d="M351.824,225.958"/>
		<path fill="none" stroke="#040000" stroke-miterlimit="10" d="M362.645,233.497c0,0,7.658,23.982,20.09,20.571
			c0,0-18.064,19.982-28.596-18.853"/>
		<path fill="none" stroke="#020202" stroke-miterlimit="10" d="M340.844,205.626c-0.211-2.217,0.035-2.547,0.5-6.17"/>
		<path fill="none" stroke="#040000" stroke-miterlimit="10" d="M342.514,208.792"/>
		<path fill="none" stroke="#040000" stroke-miterlimit="10" d="M342.6,215.403"/>
		<path fill="none" stroke="#030000" stroke-miterlimit="10" d="M346.578,227.812c-0.508-2.334-2.166-7.057-3.41-10.681"/>
		<path fill="none" stroke="#040000" stroke-miterlimit="10" d="M353.494,260.667c0,0,6.613,12.803,19.051,7.506
			c0,0-10.904,3.299-23.59-31.803"/>
		<path fill="none" stroke="#030000" stroke-miterlimit="10" d="M334.754,216.501c0,0-0.666,11.922,2.535,13.629"/>
		<path fill="none" stroke="#040000" stroke-miterlimit="10" d="M364.119,264.181c0,0,6.506,0.704,8.426-1.018
			c0,0-7.283-0.926-6.959-6.26"/>
		<path fill="none" stroke="#040000" stroke-miterlimit="10" d="M346.578,227.028"/>
		<path fill="none" stroke="#020202" stroke-miterlimit="10" d="M342.943,199.59"/>
		<path fill="none" stroke="#030000" stroke-miterlimit="10" d="M288.617,243.333"/>
		<path fill="none" stroke="#030000" stroke-miterlimit="10" d="M294.282,235.117c0,0,0.117,4.315-0.973,6.771"/>
		<ellipse fill="none" stroke="#040000" stroke-miterlimit="10" cx="341.106" cy="211.926" rx="4.487" ry="6.104"/>
		<ellipse fill="none" stroke="#040000" stroke-miterlimit="10" cx="341.106" cy="211.928" rx="3.499" ry="4.756"/>
		<path fill="none" stroke="#020202" stroke-miterlimit="10" d="M370.682,181.397c-25.621,23.533-34.51-5.396-34.51-5.396
			c-3.594-31.852-30.656-35.125-30.656-35.125c-20.052-3.204-23.241,29.869-23.241,29.869"/>
		<path fill="none" stroke="#030000" stroke-miterlimit="10" d="M285.589,157.23c0,0-16.349-23.248-30.733,8.409
			c0,0-5.897,25.357,2.746,41.549c0,0,6.087,7.112,6.112,20.425"/>
		<polyline fill="none" stroke="#040000" stroke-miterlimit="10" points="282.382,169.282 285.589,157.23 286.124,155.229 		"/>
		<path fill="none" stroke="#040000" stroke-miterlimit="10" d="M288.833,149.75c0,0-16.83-14.872-31.833,11.591"/>
		<path fill="none" stroke="#040000" stroke-miterlimit="10" d="M349.389,175.929"/>
		<path fill="none" stroke="#040000" stroke-miterlimit="10" d="M275.605,145.585c0,0,19.466-23.927,47.178-6.381
			c0,0,16.494,8.714,26.395,36.141c0.072,0.193,0.143,0.389,0.211,0.584"/>
		<path fill="none" stroke="#020202" stroke-miterlimit="10" d="M282.369,169.937c0,0-17.376-21.124-22.11,12.852
			c0,0-1.948,9.03,3.621,18.092c0,0,1.93,4.13,0.712,12.665c-0.001,0.02-0.004,0.038-0.007,0.057c0,0-0.028,5.138-0.227,7.857
			c-0.17,2.319-0.436,4.631-0.744,6.935c-0.705,5.283-0.892,10.79-2.066,15.992c-0.755,3.344-1.844,7.21-3.175,10.347"/>
		<path fill="none" stroke="#030000" stroke-miterlimit="10" d="M328.912,224.053c0,0,0.818,6.436,2.17,7.518"/>
		<line fill="none" stroke="#030000" stroke-miterlimit="10" x1="324.178" y1="233.25" x2="323.346" y2="228.325"/>
		<path fill="none" stroke="#020202" stroke-miterlimit="10" d="M326.479,192.38"/>
		<path fill="none" stroke="#040000" stroke-miterlimit="10" d="M343.346,217.643"/>
		<path fill="none" stroke="#040000" stroke-miterlimit="10" d="M340.893,207.181c0.102,2.401,0.338,6.717,0.787,9.436"/>
		<path fill="none" stroke="#040000" stroke-miterlimit="10" d="M292.882,222.079c0,0,0.996-6.199,6.972-1.378
			c0,0,5.378-6.228,9.673-0.167C309.527,220.534,301.935,225.958,292.882,222.079z"/>
		<path fill="none" stroke="#030000" stroke-miterlimit="10" d="M292.882,222.079c1.299,2.07,2.188,6.518,10.526,5.188
			c0,0,4.41-0.239,6.119-6.732"/>
		
			<ellipse transform="matrix(0.9966 -0.0828 0.0828 0.9966 -15.8018 24.0526)" fill="#040000" stroke="#020202" stroke-miterlimit="10" cx="282.015" cy="202.493" rx="2.886" ry="5.039"/>
		
			<ellipse transform="matrix(0.9965 -0.083 0.083 0.9965 -15.8366 24.2246)" fill="none" stroke="#020202" stroke-miterlimit="10" cx="283.382" cy="202.547" rx="4.214" ry="6.173"/>
		<path fill="none" stroke="#020202" stroke-miterlimit="10" d="M304.158,192.989c0,0,6.266-6.057,12.846-3.236l2.721,1.244"/>
		<path fill="none" stroke="#020202" stroke-miterlimit="10" d="M289.836,194.517c0,0-6.968-5.236-13.148-1.623l-2.548,1.572"/>
		<path fill="none" stroke="#040000" stroke-miterlimit="10" d="M297.868,208.081c0,0-4.703,2.059-1.173,4.398"/>
		<path fill="#040000" stroke="#020202" stroke-miterlimit="10" d="M314.779,200.387c0.23,2.773-0.873,5.129-2.459,5.261
			c-1.588,0.131-3.064-2.009-3.293-4.784c-0.23-2.771,0.871-5.128,2.459-5.26C313.074,195.472,314.549,197.615,314.779,200.387z"/>
		
			<ellipse transform="matrix(0.9966 -0.0828 0.0828 0.9966 -15.5432 26.6329)" fill="none" stroke="#020202" stroke-miterlimit="10" cx="313.27" cy="200.679" rx="4.216" ry="6.173"/>
		<path fill="none" stroke="#030000" stroke-miterlimit="10" d="M344.871,308.474c0,0,12.998-39.084,7.08-58.161
			c0,0-4.107-14.008-18.25-10.268"/>
		<path fill="none" stroke="#030000" stroke-miterlimit="10" d="M318.961,243.951c-8.926,21.555-21.782,25.904-21.782,25.904
			s-6.96-2.188-9.8-16.294"/>
		<path fill="none" stroke="#040000" stroke-miterlimit="10" d="M299.294,292.9c0,0,18.561-27.375,30.143-36.762"/>
		<path fill="none" stroke="#040000" stroke-miterlimit="10" d="M313.99,272.667c0,0,15.854,10.527,15.604,24.951
			c0,0,19.994-14.946,21.137-21.979"/>
		<path fill="none" stroke="#040000" stroke-miterlimit="10" d="M301.833,294.515c-16.596-10.856-43.79-23.365-43.79-23.365
			s3.777-2.157,2.304-7.644"/>
		<path fill="none" stroke="#040000" stroke-miterlimit="10" d="M242.279,267.127c-6.224-6.63-6.979-5.67-6.979-5.67
			c-2.792-0.669-3.302,4.594-3.302,4.594c0.485-4.116,7.122,7.3,7.122,7.3c3.101,4.653,12.542,2.734,12.542,2.734
			s39.859,32.571,51.338,35.518c0,0,9.917-1.138,26.284-18.404"/>
		<path fill="none" stroke="#040000" stroke-miterlimit="10" d="M234.132,262.207c0,0-0.469-4.34,3.722-2.588
			c0,0,0.171-4.536,3.722-2.094c0,0,0.931-5.217,4.886-1.387c0,0,7.274,4.205,8.786,9.09"/>
		<path fill="none" stroke="#040000" stroke-miterlimit="10" d="M237.854,259.619c0,0,3.257,1.996,6.397,5.485"/>
		<path fill="none" stroke="#040000" stroke-miterlimit="10" d="M241.207,257.289c-0.154,0.119,3.056-0.009,6.651,5.819"/>
		<path fill="none" stroke="#040000" stroke-miterlimit="10" d="M237.971,273.551"/>
		<line fill="none" stroke="#040000" stroke-miterlimit="10" x1="283.527" y1="313.748" x2="279.474" y2="299.056"/>
		<line fill="none" stroke="#040000" stroke-miterlimit="10" x1="280.035" y1="273.551" x2="278.844" y2="281.442"/>
		<path fill="none" stroke="#040000" stroke-miterlimit="10" d="M255.244,354.724c0.099,1.172,0.27,2.402,0.524,3.691
			c0,0,1.706,6.516,6.359,0c0,0,2.172,7.135,4.653,0.311c0,0,2.792,7.133,5.893,0c0,0,1.707,5.895,4.206-0.932l-0.715-8.648
			c0,0-2.133-4.844-3.646,2.02c0,0-2.559-8.492-5.699-1.164"/>
		<path fill="none" stroke="#040000" stroke-miterlimit="10" d="M264.474,292.9c-1.361,10.229-3.976,33.115-3.277,43.544
			c0,0-4.503,3.809-5.744,11.711"/>
		<path fill="none" stroke="#040000" stroke-miterlimit="10" d="M262.127,358.415v-8.414c0,0,2.714-6.629,4.692,0l-0.039,8.725"/>
		<line fill="none" stroke="#040000" stroke-miterlimit="10" x1="272.519" y1="351.165" x2="272.519" y2="359.063"/>
		<path fill="none" stroke="#040000" stroke-miterlimit="10" d="M262.127,350.466c0,0-2.033-8.59-4.085,0v7.096"/>
		<path fill="none" stroke="#040000" stroke-miterlimit="10" d="M250.029,349.769"/>
		<path fill="none" stroke="#2C4197" stroke-miterlimit="10" d="M139.911,297.618"/>
		<path fill="none" stroke="#040000" stroke-miterlimit="10" d="M258.042,340.563c0,0-6.042,3.332-6.288,8.582"/>
		<path fill="none" stroke="#040000" stroke-miterlimit="10" d="M262.127,284.409l-1.396,4.834c0,0,0.775,3.657,18.113,8.392
			c3.742,1.021-6.907,39.918-6.907,39.918s4.186,5.887,4.942,10.506"/>
		<path fill="none" stroke="#040000" stroke-miterlimit="10" d="M268.768,260.199c0,0-2.687,7.144-4.676,14.013"/>
		<path fill="none" stroke="#040000" stroke-miterlimit="10" d="M246.463,297.618"/>
		<path fill="none" stroke="#040000" stroke-miterlimit="10" d="M308.768,279.841"/>
		<path fill="none" stroke="#040000" stroke-miterlimit="10" d="M329.594,297.618c0,0-1.713,0.156-4.234-0.458"/>
		<path fill="none" stroke="#040000" stroke-miterlimit="10" d="M285.237,367.565l-65.761,6.359c0,0-1.861,50.096,4.498,51.957
			l28.256-3.771"/>
		<line fill="none" stroke="#040000" stroke-miterlimit="10" x1="275.164" y1="348.062" x2="278.5" y2="348.062"/>
		<line fill="none" stroke="#040000" stroke-miterlimit="10" x1="271.034" y1="348.069" x2="273.875" y2="348.063"/>
		<line fill="none" stroke="#040000" stroke-miterlimit="10" x1="266.033" y1="348.073" x2="267.876" y2="348.071"/>
		<line fill="none" stroke="#040000" stroke-miterlimit="10" x1="261.308" y1="348.079" x2="263.222" y2="348.075"/>
		<path fill="none" stroke="#040000" stroke-miterlimit="10" d="M255.451,348.171c0.892-0.105,1.868-0.139,2.935-0.09h0.698"/>
		<path fill="none" stroke="#040000" stroke-miterlimit="10" d="M246.034,371.356v-14.959c0,0,0.922-7.24,9.417-8.227"/>
		<path fill="none" stroke="#040000" stroke-miterlimit="10" d="M252,370.778l0.229-12.752c0,0,2.561-4.652,5.813-3.838"/>
		<path fill="none" stroke="#040000" stroke-miterlimit="10" d="M277.114,354.362c0,0,4.515-0.162,4.479,13.203
			c0,0.117,0,0.234-0.001,0.352"/>
		<polyline fill="none" stroke="#040000" stroke-miterlimit="10" points="219.476,373.925 222.267,375.94 287.274,370.778 		"/>
		<path fill="none" stroke="#040000" stroke-miterlimit="10" d="M222.267,375.94c0,0,0.621,42.42,1.706,49.941"/>
		<polyline fill="none" stroke="#040000" stroke-miterlimit="10" points="230.501,388.634 260.654,385.013 260.654,412.726 		"/>
		<polyline fill="none" stroke="#040000" stroke-miterlimit="10" points="230.831,388.271 230.831,418.749 258.042,415.321 		"/>
		<line fill="none" stroke="#040000" stroke-miterlimit="10" x1="230.831" y1="396.724" x2="260.085" y2="393.331"/>
		<line fill="none" stroke="#040000" stroke-miterlimit="10" x1="246.034" y1="395.026" x2="246.034" y2="416.188"/>
		<path fill="none" stroke="#040000" stroke-miterlimit="10" d="M272.519,376.755"/>
		<path fill="none" stroke="#040000" stroke-miterlimit="10" d="M230.501,380.827"/>
		<path fill="none" stroke="#040000" stroke-miterlimit="10" d="M245.293,380.827"/>
		<path fill="none" stroke="#040000" stroke-miterlimit="10" d="M230.831,382.456"/>
		<line fill="none" stroke="#040000" stroke-miterlimit="10" x1="222.358" y1="381.409" x2="286.063" y2="375.481"/>
		<polyline fill="none" stroke="#040000" stroke-miterlimit="10" points="269.029,400.913 269.029,384.2 281.593,382.907 		"/>
		<path fill="none" stroke="#040000" stroke-miterlimit="10" d="M235.731,396.157"/>
	</g>
	<g>
		<path fill="#231815" d="M113.211,201.713c0.499,0.167,0.555,0.822,0.171,1.965c-0.557,1.654-1.422,4.103-2.597,7.347
			s-2.033,5.674-2.576,7.288c-0.57,1.694-1.381,4.217-2.435,7.566c-1.053,3.351-1.858,5.854-2.414,7.508
			c-0.411,1.222-0.924,1.728-1.539,1.521c-1.112-0.373-2.736-1.117-4.869-2.229s-3.755-1.855-4.87-2.231
			c-0.663-0.223-1.196,0.125-1.598,1.042c-0.653,1.447-1.649,4.159-2.987,8.137c-1.352,4.018-2.218,6.84-2.598,8.464
			c-0.235,0.974-0.02,1.572,0.645,1.796c1.113,0.375,2.836,0.822,5.167,1.344c2.332,0.521,4.053,0.968,5.167,1.342
			c0.615,0.208,0.717,0.922,0.307,2.143c-0.57,1.693-1.458,4.223-2.664,7.588c-1.206,3.366-2.094,5.895-2.663,7.588
			c-0.518,1.536-1.263,3.863-2.236,6.976c-0.975,3.115-1.719,5.439-2.236,6.977c-0.438,1.299-0.897,1.868-1.379,1.706
			c-1.812-0.61-4.467-1.722-7.966-3.338c-3.498-1.614-6.153-2.727-7.965-3.336c-1.927-0.648-4.886-1.435-8.876-2.361
			c-3.99-0.926-6.948-1.713-8.877-2.361c-0.365-0.124-0.389-0.657-0.072-1.602c0.557-1.655,1.429-4.134,2.615-7.441
			c1.186-3.305,2.057-5.786,2.613-7.44c0.597-1.771,1.446-4.422,2.552-7.954c1.104-3.53,1.955-6.183,2.551-7.955
			c0.212-0.63,0.484-0.889,0.816-0.777c1.13,0.38,2.733,1.237,4.81,2.572c2.076,1.333,3.68,2.191,4.81,2.571
			c0.283,0.095,0.576-0.201,0.88-0.888c0.677-1.569,1.804-4.697,3.381-9.386c1.47-4.372,2.391-7.328,2.761-8.871
			c0.231-1.018,0.073-1.619-0.475-1.803c-1.047-0.353-2.678-0.714-4.893-1.088c-2.215-0.371-3.847-0.734-4.893-1.086
			c-0.532-0.179-0.692-0.583-0.479-1.214c0.556-1.654,1.442-4.162,2.656-7.524c1.214-3.362,2.106-5.889,2.676-7.584
			c0.556-1.655,1.357-4.146,2.404-7.478c1.047-3.331,1.842-5.804,2.385-7.418c0.345-1.024,0.716-1.468,1.116-1.335
			c1.928,0.648,4.752,1.807,8.474,3.475c3.721,1.67,6.546,2.827,8.474,3.476c1.812,0.61,4.6,1.327,8.363,2.155
			C108.612,200.385,111.4,201.104,113.211,201.713z"/>
		<path fill="#231815" d="M177.16,129.991c0.182,0.166-0.285,0.865-1.4,2.096c-1.2,1.325-3.038,3.304-5.517,5.937
			c-2.478,2.633-4.317,4.612-5.516,5.937c-1.2,1.325-2.958,3.321-5.277,5.986c-2.319,2.666-4.078,4.661-5.277,5.985
			c-0.726,0.802-1.338,1.087-1.84,0.857c0.014,0.012-0.305-0.276-0.956-0.865c-0.519-0.47-1.31-0.121-2.369,1.05
			c-6.5,7.178-10.224,11.457-11.178,12.836c-0.953,1.379-1.229,2.501-0.831,3.367c0.349,0.765,0.189,1.517-0.481,2.256
			c-1.144,1.264-2.885,3.134-5.224,5.612c-2.338,2.48-4.081,4.352-5.224,5.613c-1.116,1.233-2.784,3.129-5.005,5.686
			c-2.222,2.558-3.891,4.453-5.006,5.686c-0.809,0.894-1.375,1.193-1.7,0.898c-0.39-0.353-2.66-15.664-6.808-45.936
			c-0.074-0.571-0.049-0.997,0.075-1.278c0.124-0.278,0.52-0.789,1.19-1.528c0.976-1.079,2.477-2.62,4.504-4.624
			c2.028-2.003,3.529-3.545,4.505-4.625c3.933-4.342,6.589-7.459,7.969-9.351c0.284-0.416,0.494-0.701,0.634-0.855
			c0.473-0.524,1.252-0.939,2.336-1.25c0.473-0.13,2.78-0.34,6.92-0.628c3.228-0.274,7.962-0.527,14.206-0.762
			c3.124,0.025,7.618,0.325,13.484,0.898c5.867,0.575,10.334,0.878,13.403,0.909C176.981,129.914,177.108,129.945,177.16,129.991z
			 M136.678,149.428c-1.026-0.929-3.112-0.35-6.255,1.737c-1.622,3.466-1.991,5.597-1.108,6.396
			c0.455,0.413,1.224,0.366,2.308-0.139c1.084-0.504,2.113-1.295,3.09-2.374c1.004-1.109,1.695-2.22,2.077-3.333
			C137.171,150.604,137.134,149.84,136.678,149.428z"/>
		<path fill="#231815" d="M236.185,62.878c0.571,1.186,1.34,3.02,2.308,5.502c0.965,2.483,1.735,4.316,2.306,5.501
			c0.159,0.332-0.611,2.943-2.314,7.831c-1.355,3.983-2.364,6.817-3.029,8.499c-1.249,3.152-2.765,6.658-4.548,10.516
			c-0.616,1.212-1.427,2.976-2.433,5.29c-0.221,0.689-0.667,1.198-1.342,1.523c-1.647,0.793-4.127,1.966-7.44,3.514
			c-3.313,1.55-5.793,2.722-7.439,3.515c-1.086,0.523-2.735,1.339-4.946,2.445c-2.212,1.105-3.86,1.92-4.947,2.442
			c-0.711,0.343-1.439,0.413-2.184,0.207c-3.844-0.988-9.515-2.556-17.009-4.704c-9.16-2.922-13.903-4.722-14.231-5.401
			c-0.601-1.248-1.403-3.173-2.404-5.776c-1.002-2.603-1.802-4.528-2.404-5.775c-0.282-0.585,0.007-1.084,0.868-1.5
			c1.572-0.759,3.954-1.868,7.148-3.331c3.193-1.462,5.576-2.572,7.148-3.331c1.609-0.775,4.007-1.975,7.192-3.599
			c3.184-1.624,5.563-2.814,7.136-3.573c0.598-0.288,0.978-0.267,1.138,0.064c0.648,1.344,1.404,3.465,2.274,6.365
			c0.867,2.9,1.625,5.023,2.273,6.365c0.35,0.727,1.534,1.411,3.551,2.054c1.631,0.42,3.25,0.856,4.853,1.31
			c0.667-1.295,1.298-2.953,1.893-4.972c0.571-2.164,0.783-3.687,0.634-4.569c-0.359-0.838-0.893-2.089-1.602-3.753
			c-2.062-4.943-3.126-7.487-3.194-7.628c-0.244-0.505-0.085-0.893,0.477-1.165c1.609-0.776,4.032-1.9,7.267-3.372
			c3.235-1.472,5.656-2.597,7.267-3.373c1.571-0.758,3.915-1.927,7.028-3.507c3.114-1.578,5.457-2.748,7.029-3.506
			C235.442,62.536,236.002,62.5,236.185,62.878z"/>
		<path fill="#231815" d="M325.566,78.037c0.061,0.628-0.125,1.502-0.557,2.619c-0.596,1.575-0.926,2.461-0.99,2.661
			c-0.213,1.237-0.719,3.077-1.521,5.516c-0.166,0.423-0.912,0.699-2.236,0.828c-0.414,0.042-0.994,0.073-1.742,0.094
			c-7.322,0.301-16.999,1.047-29.033,2.237c-3.31,0.327-8.248,0.851-14.816,1.571c-6.568,0.719-11.486,1.242-14.753,1.564
			c-1.365,0.135-2.073-0.05-2.123-0.556c-0.193-1.954-0.235-4.916-0.127-8.882c0.109-3.965,0.068-6.926-0.126-8.88
			c-0.196-1.99-0.791-5.674-1.782-11.058c-0.262-1.382-0.696-3.445-1.301-6.187l-0.099-0.36c-0.123-0.394,0.375-0.646,1.491-0.756
			c3.226-0.318,8.077-0.763,14.557-1.334c6.478-0.57,11.352-1.017,14.62-1.339c3.266-0.322,8.204-0.846,14.814-1.571
			c6.61-0.724,11.569-1.25,14.877-1.577c2.316-0.228,3.746,0.08,4.289,0.925c0.24,0.329,0.805,1.818,1.695,4.47
			c0.889,2.652,1.352,4.171,1.389,4.554c0.035,0.35-0.383,0.567-1.25,0.653c-2.232,0.22-5.613,0.458-10.141,0.711
			c-4.527,0.253-7.928,0.493-10.202,0.719c-3.681,0.364-5.789,0.582-6.325,0.651c-3.213,0.442-4.79,0.967-4.729,1.578
			c0.082,0.837,2.057,1.171,5.924,1c1.08-0.054,3.729-0.29,7.947-0.707c3.476-0.343,6.796-0.743,9.966-1.197
			c4.203-0.592,5.908-0.848,5.125-0.771c1.072-0.106,1.637,0.094,1.688,0.6c0.049,0.489-0.066,1.257-0.338,2.307
			c-0.371,1.288-0.564,2.091-0.576,2.408c-0.307,2.393-0.408,4.085-0.311,5.08c0.037,0.384-0.584,0.64-1.867,0.767
			c0.371-0.038-1.438,0.036-5.428,0.22c-4.447,0.21-9.566,0.602-15.355,1.174c-3.764,0.372-5.603,0.994-5.516,1.867
			c0.041,0.418,0.32,0.699,0.835,0.842c1.24,0.3,7.484-0.106,18.733-1.218c1.531-0.152,3.811-0.434,6.84-0.848
			c3.025-0.414,5.307-0.696,6.836-0.849C324.984,77.46,325.523,77.619,325.566,78.037z"/>
		<path fill="#231815" d="M411.291,97.521c-0.748,2.886-3.74,4.819-8.973,5.798c-5.414,1.005-11.48,0.638-18.195-1.104
			c-3.662-0.95-9.125-2.403-16.387-4.359c-7.264-1.956-12.705-3.403-16.324-4.341c-2.094-0.544-5.24-1.323-9.441-2.34
			s-7.326-1.792-9.379-2.324c-1.326-0.344-1.926-0.761-1.799-1.253c0.479-1.851,1.441-4.567,2.885-8.15
			c1.443-3.584,2.408-6.301,2.887-8.151c0.502-1.934,1.238-5.685,2.209-11.248c0.244-1.44,0.566-3.593,0.967-6.46l0.033-0.372
			c0.02-0.411,0.572-0.476,1.66-0.194l41.332,10.718c10.137,2.628,17.904,5.531,23.307,8.706c2.57,1.519,4.48,3.247,5.74,5.184
			c1.199,1.834,1.605,3.496,1.217,4.99c-0.309,1.188-1.846,2.274-4.613,3.259c-2.766,0.985-4.125,1.384-4.078,1.198
			c-0.035,0.137,0.41,0.497,1.332,1.079C410.283,91.056,412.158,94.178,411.291,97.521z M378.783,88.033
			c0.361-1.392-3.119-3.037-10.439-4.935c-1.689-0.438-2.729-0.572-3.117-0.4c-0.146,0.07-0.332,0.538-0.557,1.404
			c-0.221,0.849-0.248,1.375-0.086,1.581c0.33,0.376,1.381,0.793,3.15,1.252c3.301,0.855,5.461,1.379,6.484,1.572
			C377.049,89.006,378.572,88.847,378.783,88.033z M380.113,74.466c0.344-1.324-2.623-2.799-8.9-4.428
			c-1.406-0.364-2.287-0.448-2.639-0.25c-0.152,0.087-0.326,0.512-0.525,1.277c-0.191,0.748-0.23,1.227-0.113,1.438
			c0.287,0.382,1.193,0.771,2.725,1.167C376.693,75.236,379.844,75.501,380.113,74.466z"/>
		<path fill="#231815" d="M476.451,143.128c-0.359,0.52-1.066,1.063-2.121,1.636c-1.471,0.814-2.299,1.276-2.477,1.388
			c-0.961,0.805-2.537,1.878-4.729,3.218c-0.402,0.214-1.148-0.058-2.24-0.816c-0.342-0.236-0.807-0.589-1.391-1.058
			c-5.775-4.509-13.633-10.206-23.574-17.09c-2.734-1.893-6.836-4.69-12.309-8.395c-5.473-3.703-9.559-6.491-12.258-8.36
			c-1.125-0.78-1.547-1.379-1.256-1.797c1.117-1.615,3.004-3.898,5.652-6.851c2.652-2.952,4.535-5.236,5.654-6.85
			c1.137-1.644,3.07-4.838,5.799-9.582c0.695-1.223,1.701-3.076,3.016-5.558l0.158-0.337c0.162-0.38,0.705-0.25,1.627,0.388
			c2.664,1.847,6.65,4.649,11.957,8.41c5.307,3.759,9.309,6.574,12.01,8.444c2.697,1.867,6.801,4.666,12.309,8.393
			c5.506,3.727,9.623,6.537,12.359,8.43c1.912,1.326,2.803,2.485,2.668,3.481c-0.027,0.406-0.563,1.908-1.602,4.505
			c-1.041,2.596-1.67,4.053-1.889,4.37c-0.201,0.289-0.658,0.184-1.377-0.313c-1.844-1.278-4.574-3.286-8.188-6.023
			c-3.615-2.737-6.361-4.756-8.24-6.058c-3.041-2.104-4.789-3.304-5.242-3.597c-2.734-1.744-4.279-2.364-4.627-1.859
			c-0.48,0.691,0.811,2.223,3.869,4.598c0.855,0.658,3.029,2.194,6.512,4.606c2.871,1.986,5.662,3.833,8.373,5.541
			c3.584,2.269,5.051,3.177,4.402,2.729c0.891,0.615,1.188,1.133,0.898,1.55c-0.279,0.404-0.863,0.918-1.748,1.541
			c-1.121,0.739-1.787,1.226-1.998,1.463c-1.783,1.624-2.959,2.846-3.525,3.668c-0.223,0.316-0.861,0.108-1.92-0.624
			c0.307,0.212-1.117-0.904-4.279-3.348c-3.525-2.719-7.68-5.733-12.463-9.045c-3.109-2.154-4.914-2.869-5.414-2.148
			c-0.238,0.345-0.207,0.74,0.094,1.183c0.75,1.031,5.771,4.765,15.064,11.2c1.264,0.873,3.184,2.134,5.762,3.781
			c2.576,1.644,4.496,2.904,5.76,3.781C476.383,142.313,476.691,142.781,476.451,143.128z"/>
		<path fill="#231815" d="M522.627,204.151c-0.506,0.377-1.35,0.669-2.529,0.875c-1.658,0.301-2.586,0.475-2.793,0.523
			c-1.168,0.457-3.004,0.97-5.508,1.54c-0.449,0.074-1.07-0.42-1.865-1.487c-0.246-0.333-0.572-0.815-0.979-1.447
			c-4.033-6.118-9.658-14.024-16.883-23.722c-1.986-2.667-4.98-6.628-8.984-11.886c-4.004-5.257-6.986-9.203-8.945-11.835
			c-0.818-1.101-1.025-1.801-0.617-2.106c1.574-1.173,4.09-2.734,7.543-4.687c3.455-1.952,5.969-3.515,7.547-4.687
			c1.602-1.194,4.453-3.604,8.555-7.228c1.049-0.938,2.594-2.373,4.631-4.305l0.26-0.27c0.271-0.308,0.744-0.012,1.414,0.889
			c1.938,2.6,4.818,6.528,8.646,11.785c3.828,5.258,6.727,9.203,8.686,11.836c1.963,2.632,4.955,6.594,8.984,11.886
			c4.027,5.29,7.033,9.268,9.02,11.935c1.391,1.865,1.863,3.249,1.422,4.15c-0.158,0.376-1.143,1.629-2.959,3.757
			c-1.813,2.129-2.875,3.309-3.186,3.538c-0.281,0.21-0.682-0.035-1.203-0.735c-1.342-1.8-3.289-4.574-5.838-8.322
			c-2.551-3.747-4.51-6.539-5.875-8.37c-2.209-2.968-3.48-4.662-3.818-5.085c-2.035-2.526-3.299-3.605-3.791-3.239
			c-0.674,0.503,0.057,2.367,2.197,5.592c0.604,0.898,2.172,3.046,4.703,6.446c2.084,2.799,4.141,5.44,6.164,7.922
			c2.674,3.295,3.773,4.625,3.303,3.993c0.643,0.866,0.764,1.451,0.354,1.755c-0.391,0.293-1.107,0.593-2.146,0.901
			c-1.297,0.344-2.086,0.592-2.361,0.749c-2.207,0.969-3.711,1.753-4.514,2.35c-0.309,0.232-0.85-0.171-1.617-1.203
			c0.223,0.3-0.773-1.213-2.988-4.539c-2.473-3.703-5.447-7.886-8.922-12.551c-2.26-3.033-3.74-4.288-4.443-3.764
			c-0.338,0.251-0.434,0.635-0.291,1.149c0.383,1.219,3.947,6.359,10.701,15.425c0.918,1.232,2.336,3.042,4.252,5.421
			c1.916,2.382,3.334,4.189,4.25,5.423C522.824,203.357,522.965,203.899,522.627,204.151z"/>
		<path fill="#231815" d="M575.605,288.735c-1.926,0.532-4.891,1.115-8.889,1.748c-4.002,0.633-6.975,1.218-8.918,1.755
			l-16.889,4.543c-0.391,0.106-0.777-0.541-1.166-1.942c-0.365-1.321-0.879-3.304-1.537-5.946c-0.656-2.643-1.17-4.623-1.535-5.945
			c-0.377-1.362-0.98-3.416-1.813-6.16c-0.832-2.745-1.441-4.819-1.828-6.221c-0.189-0.681-0.139-1.578,0.152-2.694
			c4.463-16.887,6.527-25.93,6.195-27.131c-0.156-0.562-0.479-0.773-0.969-0.638c-1.318,0.365-3.268,1.033-5.844,2.005
			c-2.578,0.973-4.527,1.641-5.846,2.005c-0.625,0.173-1.109-0.361-1.453-1.603c-0.398-1.442-0.965-3.624-1.699-6.546
			c-0.738-2.923-1.305-5.104-1.703-6.546c-0.432-1.562-1.117-3.906-2.055-7.031c-0.938-3.126-1.621-5.469-2.055-7.032
			c-0.365-1.322-0.301-2.049,0.188-2.185c1.842-0.51,4.666-1.075,8.467-1.697c3.805-0.622,6.627-1.187,8.471-1.696
			c1.928-0.533,4.758-1.521,8.498-2.966c3.738-1.443,6.563-2.429,8.475-2.958c0.371-0.103,0.785,0.667,1.238,2.309
			c0.498,1.802,1.723,5.667,3.672,11.597c0.256,0.791,0.992,2.894,2.209,6.309c0.934,2.586,1.623,4.681,2.064,6.283
			c0.156,0.561,0.02,1.483-0.406,2.766c-0.27,0.806-1.313,4.567-3.129,11.278c-1.059,3.611-2.484,9.245-4.277,16.899
			c0.229,0.367,0.834,0.417,1.813,0.145c1.301-0.359,3.195-1.165,5.68-2.411c2.482-1.249,4.375-2.052,5.678-2.412
			c0.658-0.184,1.1,0.126,1.32,0.928c0.441,1.6,1.082,4.012,1.918,7.23c0.836,3.218,1.473,5.627,1.918,7.231
			c0.475,1.72,1.215,4.297,2.221,7.729c1.002,3.431,1.742,6.006,2.219,7.729C576.191,288.186,576.063,288.609,575.605,288.735z"/>
		<path fill="#231815" d="M525.9,402.618c-0.502-0.088-0.633-0.807-0.396-2.156c0.281-1.598,0.738-3.996,1.371-7.197
			s1.092-5.621,1.379-7.258c0.281-1.598,0.672-4.027,1.174-7.293c0.504-3.266,0.895-5.697,1.174-7.293
			c0.225-1.27,0.654-1.848,1.295-1.734c1.156,0.201,2.883,0.633,5.18,1.287c2.299,0.656,4.023,1.088,5.182,1.289
			c0.5,0.088,0.773,0.01,0.814-0.236c0.139-0.777-1.58-3.768-5.154-8.973c-3.572-5.205-5.287-8.217-5.143-9.037
			c0.203-1.145,2.852-3.465,7.949-6.957c5.102-3.494,7.723-5.65,7.867-6.467c0.043-0.246-0.188-0.412-0.688-0.5
			c-1.156-0.205-2.926-0.387-5.311-0.553c-2.383-0.166-4.152-0.35-5.311-0.553c-0.641-0.113-0.85-0.781-0.635-2.012
			c0.289-1.637,0.748-4.066,1.385-7.285c0.639-3.223,1.1-5.652,1.387-7.289c0.281-1.598,0.668-4.008,1.162-7.231
			c0.496-3.227,0.883-5.637,1.164-7.234c0.236-1.35,0.604-1.983,1.107-1.894c1.881,0.331,4.674,1.031,8.377,2.104
			c3.699,1.071,6.492,1.771,8.375,2.103c2.004,0.352,5.047,0.686,9.129,1.001c4.084,0.316,7.129,0.65,9.133,1.001
			c0.377,0.068,0.406,1.022,0.084,2.864c-0.236,1.349-0.566,3.382-0.99,6.091c-0.422,2.711-0.75,4.74-0.988,6.092
			c-0.266,1.514-0.598,3.84-0.996,6.977c-0.402,3.137-0.732,5.461-1,6.977c-0.063,0.369-0.572,1.039-1.527,2.01
			c-3.822,3.928-8.172,8.08-13.055,12.455c-1.73,1.553-2.623,2.471-2.672,2.758c-0.107,0.613,0.375,1.713,1.451,3.295
			c1.162,1.68,2.535,4.156,4.117,7.43c2.221,4.693,3.51,7.389,3.867,8.084c0.578,1.07,0.801,1.975,0.672,2.713
			c-0.266,1.514-0.707,3.82-1.32,6.92c-0.615,3.096-1.061,5.424-1.334,6.98c-0.266,1.514-0.602,3.764-1.012,6.752
			c-0.408,2.986-0.744,5.238-1.012,6.752c-0.17,0.982-0.457,1.439-0.854,1.369c-2.039-0.357-5.068-1.102-9.088-2.227
			c-4.023-1.129-7.061-1.873-9.117-2.234c-1.883-0.33-4.746-0.611-8.596-0.844C530.648,403.229,527.783,402.948,525.9,402.618z"/>
		<path fill="#231815" d="M471.033,481.767c-0.201-0.139,0.17-0.893,1.113-2.26c1.016-1.471,2.576-3.676,4.688-6.611
			c2.109-2.938,3.672-5.143,4.686-6.611c1.016-1.471,2.496-3.682,4.443-6.629c1.949-2.947,3.43-5.158,4.443-6.629
			c0.615-0.889,1.186-1.252,1.713-1.092c-0.016-0.01,0.336,0.234,1.059,0.734c0.578,0.398,1.316-0.053,2.213-1.354
			c5.496-7.973,8.627-12.705,9.389-14.195c0.766-1.496,0.893-2.643,0.381-3.449c-0.445-0.713-0.385-1.477,0.18-2.299
			c0.969-1.402,2.449-3.488,4.441-6.252c1.99-2.766,3.471-4.85,4.439-6.252c0.943-1.367,2.348-3.469,4.213-6.295
			c1.865-2.828,3.27-4.926,4.213-6.295c0.684-0.992,1.207-1.363,1.568-1.115c0.434,0.299,4.697,15.18,12.795,44.639
			c0.146,0.557,0.18,0.984,0.094,1.279c-0.088,0.291-0.412,0.85-0.979,1.672c-0.826,1.199-2.111,2.922-3.857,5.178
			c-1.746,2.252-3.031,3.979-3.857,5.176c-3.326,4.824-5.549,8.262-6.668,10.318c-0.227,0.449-0.398,0.76-0.518,0.932
			c-0.4,0.582-1.115,1.096-2.15,1.545c-0.453,0.193-2.713,0.705-6.777,1.537c-3.164,0.693-7.826,1.568-13.984,2.623
			c-3.098,0.385-7.594,0.68-13.484,0.885c-5.891,0.201-10.359,0.488-13.408,0.863C471.221,481.821,471.092,481.81,471.033,481.767z
			 M508.604,457.171c1.141,0.787,3.131-0.063,5.973-2.545c1.152-3.646,1.238-5.811,0.258-6.486
			c-0.506-0.348-1.262-0.201-2.271,0.441c-1.008,0.643-1.922,1.563-2.75,2.76c-0.85,1.232-1.389,2.424-1.621,3.578
			C507.961,456.071,508.098,456.821,508.604,457.171z"/>
		<path fill="#231815" d="M400.133,526.833c-0.107-0.16,0.311-0.549,1.248-1.164c1.529-1.002,3.816-2.461,6.859-4.373
			c3.045-1.914,5.313-3.359,6.809-4.34c1.459-0.957,3.602-2.406,6.432-4.344c2.826-1.939,4.953-3.377,6.379-4.311
			c1.182-0.775,2.084-1.105,2.707-0.988c1.057,0.25,2.617,0.652,4.672,1.213c1.934,0.449,4.766,1.203,8.49,2.264
			c0.902,0.311,1.559,0.33,1.977,0.057c0.313-0.207,0.311-0.551-0.008-1.033c-0.654-0.998-1.869-2.34-3.646-4.025
			c-1.775-1.686-2.973-3-3.588-3.938c-0.223-0.338,0.018-0.734,0.711-1.189c0.242-0.16,0.691-0.424,1.348-0.789
			c3.102-1.785,7.678-4.658,13.725-8.625c1.32-0.867,3.289-2.199,5.91-4.002c2.619-1.803,4.59-3.137,5.91-4.004
			c1.146-0.75,1.859-0.914,2.137-0.488c1.078,1.641,2.488,4.244,4.229,7.811c1.744,3.564,3.152,6.168,4.229,7.811
			c2.752,4.193,6.432,8.74,11.039,13.646l0.254,0.273c0.264,0.248,0.043,0.631-0.658,1.156c0.07-0.047-0.592,0.387-1.98,1.297
			c-3.787,2.484-9.49,6.256-17.105,11.314s-13.334,8.84-17.158,11.348c-8.131,5.334-15.313,9.006-21.547,11.02
			c-7.277,2.32-11.982,1.852-14.117-1.404c-1.385-2.113-1.762-4.297-1.131-6.557c0.631-2.258,2.508-5.25,5.631-8.977
			c0.67-0.795,0.928-1.311,0.775-1.545c-0.117-0.176-3.539-0.699-10.273-1.568C403.658,527.509,400.236,526.995,400.133,526.833z
			 M442.443,527.013c1.086,1.658,4.516,0.594,10.283-3.189c1.426-0.934,1.535-2.316,0.332-4.15
			c-0.141-0.219-0.393-0.525-0.752-0.922c-0.357-0.395-0.609-0.701-0.754-0.92c-0.145-0.221-0.928,0.137-2.352,1.072
			C443.57,522.595,441.318,525.298,442.443,527.013z"/>
		<path fill="#231815" d="M314.213,545.778c-0.051-0.26,0.262-0.645,0.941-1.158c0.682-0.514,1.309-0.828,1.877-0.945
			c1.141-0.229,2.848-0.541,5.123-0.93c2.275-0.391,3.961-0.695,5.061-0.918c2.24-0.455,5.592-1.17,10.059-2.146
			c4.469-0.979,7.82-1.693,10.061-2.146c0.65-0.133,1.1-0.117,1.346,0.049c0.246,0.164,0.492,0.338,0.742,0.52
			c1.193,0.869,3.043,1.941,5.551,3.223c3.023,1.533,4.99,2.557,5.9,3.07c1.201,0.902,2.465,1.799,3.789,2.695
			c0.182,0.053,0.291,0.074,0.332,0.066c0.773-0.158,1.074-0.664,0.898-1.523c-0.232-1.152-0.707-2.867-1.424-5.146
			c-0.715-2.279-1.191-3.994-1.426-5.146c-0.129-0.635,0.441-1.082,1.703-1.338c1.75-0.355,4.383-0.854,7.9-1.494
			c3.516-0.641,6.15-1.139,7.902-1.494c1.588-0.32,3.975-0.842,7.156-1.559c3.184-0.717,5.57-1.236,7.158-1.559
			c1.346-0.271,2.068-0.158,2.168,0.34c0.379,1.873,0.746,4.729,1.1,8.566c0.355,3.836,0.721,6.691,1.102,8.566
			c0.402,1.992,1.205,4.947,2.4,8.865c1.199,3.918,1.998,6.871,2.402,8.865c0.076,0.377-0.375,0.666-1.352,0.865
			c-1.711,0.346-4.293,0.834-7.75,1.463c-3.455,0.629-6.037,1.117-7.748,1.465c-1.752,0.354-4.35,0.92-7.797,1.699
			c-3.445,0.779-6.025,1.342-7.734,1.689c-0.65,0.133-1.012,0.025-1.082-0.316c-0.246-1.203-0.51-3.033-0.795-5.49
			c-0.285-2.455-0.553-4.285-0.795-5.486c-0.141-0.688-0.328-1.105-0.572-1.254c-0.426-0.219-1.35-0.184-2.775,0.107
			c-5.254,1.064-8.127,3.73-8.619,8c-0.32,2.605-1.736,5.129-4.254,7.57c-0.707,0.699-5.865,2.021-15.477,3.971
			c-10.467,2.121-15.754,2.934-15.852,2.436c-0.018-0.086,0.059-0.229,0.232-0.424c1.49-1.43,2.232-2.152,2.23-2.17
			c0.66-0.725,1.063-1.459,1.205-2.205c0.576-2.604,0.898-4.053,0.963-4.354c0.516-1.643,1.297-3.125,2.344-4.447
			c1.283-1.619,3.322-3.373,6.117-5.264c1.98-1.332,2.938-2.145,2.879-2.436c-0.02-0.104-1.389-1.098-4.102-2.98
			c-1.734-1.24-4.533-3.018-8.395-5.328c-0.467-0.211-3.977-1.621-10.525-4.227C314.287,545.931,314.23,545.862,314.213,545.778z"/>
		<path fill="#231815" d="M239.669,541.862c0.1-0.623,0.501-1.42,1.202-2.391c0.977-1.373,1.521-2.146,1.632-2.324
			c0.52-1.143,1.477-2.791,2.873-4.949c0.269-0.365,1.06-0.443,2.373-0.234c0.411,0.066,0.981,0.184,1.71,0.352
			c7.157,1.568,16.707,3.305,28.648,5.207c3.284,0.523,8.194,1.271,14.729,2.242c6.536,0.973,11.426,1.715,14.667,2.23
			c1.355,0.219,1.992,0.576,1.912,1.078c-0.309,1.939-1.02,4.813-2.131,8.623c-1.113,3.809-1.824,6.684-2.133,8.623
			c-0.314,1.975-0.676,5.689-1.082,11.146c-0.099,1.404-0.203,3.51-0.313,6.316l0.003,0.373c0.02,0.41-0.525,0.529-1.635,0.352
			c-3.2-0.51-8.006-1.313-14.418-2.404c-6.411-1.094-11.238-1.898-14.48-2.416c-3.241-0.518-8.152-1.264-14.729-2.242
			c-6.576-0.977-11.506-1.727-14.79-2.252c-2.297-0.365-3.602-1.027-3.913-1.98c-0.149-0.381-0.318-1.965-0.504-4.756
			c-0.187-2.791-0.25-4.377-0.188-4.758c0.055-0.346,0.514-0.449,1.375-0.313c2.215,0.354,5.546,0.982,9.988,1.885
			c4.443,0.904,7.793,1.535,10.05,1.896c3.653,0.58,5.747,0.906,6.282,0.975c3.222,0.389,4.88,0.279,4.976-0.326
			c0.132-0.83-1.693-1.654-5.477-2.471c-1.058-0.223-3.681-0.666-7.866-1.334c-3.447-0.549-6.762-1.008-9.944-1.371
			c-4.214-0.496-5.931-0.68-5.151-0.557c-1.066-0.17-1.561-0.506-1.481-1.008c0.077-0.486,0.381-1.199,0.91-2.146
			c0.689-1.15,1.079-1.879,1.169-2.184c0.904-2.234,1.435-3.846,1.591-4.832c0.061-0.381,0.728-0.471,2-0.268
			c-0.369-0.059,1.399,0.33,5.306,1.166c4.356,0.924,9.405,1.844,15.151,2.762c3.734,0.596,5.67,0.459,5.808-0.406
			c0.067-0.416-0.132-0.76-0.593-1.027c-1.124-0.605-7.267-1.799-18.429-3.578c-1.519-0.24-3.795-0.547-6.83-0.916
			c-3.034-0.367-5.31-0.672-6.828-0.914C240.084,542.569,239.603,542.278,239.669,541.862z"/>
		<path fill="#231815" d="M169.585,524.239c0.158-0.313,0.646-0.264,1.461,0.146c-0.927-0.467,3.653,1.986,13.742,7.361
			c1.537-2.682,2.504-4.422,2.907-5.219c0.97-1.928,2.23-4.914,3.781-8.963c1.55-4.049,2.806-7.029,3.768-8.941
			c0.237-0.469,0.912-0.424,2.025,0.137c1.559,0.785,3.917,2.018,7.073,3.695c3.158,1.678,5.534,2.918,7.129,3.721
			c1.523,0.768,3.821,1.885,6.896,3.355c3.075,1.469,5.373,2.588,6.895,3.355c1.224,0.615,1.724,1.15,1.494,1.604
			c-0.962,1.912-2.608,4.695-4.938,8.354c-2.329,3.654-3.98,6.445-4.949,8.373c-0.386,0.766-1.183,2.535-2.392,5.303
			c3.314,1.553,8.3,3.846,14.958,6.885c0.54,0.408,0.8,0.629,0.785,0.66c-0.087,0.172-0.803,0.813-2.153,1.92
			c-1.486,1.195-2.332,1.906-2.541,2.135c-0.836,1.387-2.079,2.93-3.728,4.631c-0.174,0.07-0.484-0.006-0.93-0.23
			c-0.148-0.074-0.438-0.242-0.867-0.496c-7.25-4.084-16.293-8.854-27.132-14.311c-3.303-1.664-9.592-4.604-18.866-8.822
			c-4.623-2.094-7.102-3.225-7.436-3.391c-1.114-0.563-1.611-0.959-1.493-1.195c0.284-0.563,0.805-1.365,1.563-2.408
			c0.758-1.041,1.278-1.844,1.562-2.408c0.268-0.533,0.499-1.408,0.693-2.625C169.086,525.646,169.317,524.771,169.585,524.239z"/>
		<path fill="#231815" d="M151.661,474.19c0.344-0.398,0.972-0.201,1.882,0.586c1.352,1.172,3.36,2.963,6.024,5.375
			c2.666,2.414,4.69,4.219,6.072,5.414c1.289,1.117,3.251,2.77,5.889,4.959c2.637,2.193,4.601,3.846,5.888,4.963
			c1.037,0.898,1.388,1.539,1.056,1.922c-1.4,1.617-3.67,3.92-6.808,6.908c-3.137,2.99-5.413,5.299-6.825,6.93
			c-1.183,1.363-2.804,3.539-4.865,6.521c-2.059,2.982-3.67,5.141-4.83,6.48c-0.252,0.293-0.756,0.111-1.51-0.541
			c-1.382-1.197-3.44-3.025-6.174-5.486s-4.809-4.303-6.223-5.527c-1.319-1.145-3.321-2.832-6.005-5.064
			c-2.685-2.23-4.671-3.904-5.959-5.02c-0.816-0.707-1.087-1.221-0.811-1.539c1.17-1.352,3.079-3.254,5.725-5.705
			c2.647-2.451,4.554-4.355,5.724-5.707c1.414-1.631,3.373-4.211,5.884-7.744C148.305,478.382,150.259,475.806,151.661,474.19z"/>
		<path fill="#231815" d="M67.125,413.718c1.707-1.043,4.396-2.416,8.069-4.121c3.673-1.707,6.37-3.086,8.091-4.137l14.994-9.006
			c0.345-0.211,0.896,0.305,1.653,1.545c0.715,1.172,1.751,2.938,3.109,5.295c1.358,2.361,2.395,4.127,3.108,5.295
			c0.737,1.209,1.882,3.016,3.435,5.428c1.554,2.41,2.71,4.238,3.468,5.477c0.369,0.605,0.565,1.482,0.59,2.635
			c0.347,17.463,0.845,26.725,1.494,27.791c0.304,0.494,0.672,0.611,1.106,0.348c1.167-0.713,2.857-1.893,5.069-3.533
			c2.213-1.643,3.902-2.82,5.07-3.533c0.554-0.338,1.167,0.043,1.837,1.143c0.78,1.275,1.924,3.219,3.434,5.828
			c1.511,2.607,2.655,4.549,3.434,5.826c0.845,1.385,2.146,3.449,3.906,6.197c1.76,2.748,3.062,4.814,3.906,6.197
			c0.714,1.17,0.855,1.889,0.42,2.152c-1.63,0.996-4.19,2.314-7.676,3.957c-3.486,1.641-6.045,2.959-7.677,3.957
			c-1.706,1.041-4.158,2.768-7.358,5.184c-3.199,2.416-5.644,4.137-7.335,5.172c-0.329,0.201-0.938-0.426-1.825-1.881
			c-0.975-1.596-3.212-4.977-6.715-10.143c-0.462-0.689-1.749-2.51-3.856-5.459c-1.609-2.232-2.846-4.057-3.713-5.477
			c-0.303-0.496-0.424-1.418-0.366-2.77c0.036-0.85,0.007-4.75-0.088-11.705c0.024-3.764-0.152-9.57-0.528-17.424
			c-0.321-0.289-0.916-0.17-1.784,0.359c-1.152,0.703-2.75,1.996-4.797,3.879c-2.046,1.881-3.645,3.174-4.798,3.875
			c-0.583,0.357-1.091,0.182-1.524-0.527c-0.866-1.42-2.143-3.561-3.83-6.426s-2.964-5.008-3.83-6.428
			c-0.931-1.523-2.35-3.799-4.257-6.82c-1.907-3.023-3.326-5.299-4.256-6.822C66.714,414.405,66.721,413.964,67.125,413.718z"/>
		<path fill="#231815" d="M82.684,300.999c0.522-0.069,0.877,0.617,1.069,2.058c0.273,2.061,0.528,5.109,0.762,9.143
			c0.233,4.163,0.47,7.211,0.709,9.151c2.804,7.801,4.674,15.227,5.607,22.27c1.667,12.566,1.215,23.598-1.354,33.098
			c-2.569,9.502-6.496,14.602-11.781,15.303c-5.406,0.715-10.57-3.115-15.494-11.496c-4.923-8.381-8.235-18.979-9.934-31.789
			c-0.809-6.096-1.072-12.477-0.788-19.139c0.295-7.248,1.208-12.629,2.74-16.144c0.365-0.846,0.713-1.292,1.043-1.335
			c0.522-0.069,2.155,2.041,4.899,6.331c2.568,4.02,4.164,6.783,4.788,8.293c0.335,0.795,0.558,1.605,0.667,2.428
			c0.093,0.701-0.067,2.66-0.479,5.881c-0.414,3.219-0.371,6.705,0.125,10.453c0.525,3.953,1.573,7.223,3.145,9.801
			c1.572,2.58,3.2,3.756,4.886,3.533s2.98-1.873,3.881-4.947c0.901-3.076,1.088-6.592,0.564-10.545
			c-0.355-2.68-0.884-5.061-1.584-7.146c-0.423,0.139-1.605,0.633-3.545,1.477c-1.458,0.611-2.647,0.98-3.568,1.102
			c-0.192,0.025-0.377-0.035-0.555-0.18c-0.137-0.234-0.247-0.656-0.329-1.275c-0.037-0.287-0.133-1.408-0.286-3.357
			c-0.243-2.902-0.712-6.971-1.406-12.201c-0.241-1.813-0.636-4.527-1.187-8.144c-0.55-3.616-0.945-6.33-1.186-8.143
			c-0.158-1.193-0.029-1.819,0.388-1.875c0.938-0.124,2.372-0.115,4.301,0.028c1.929,0.141,3.363,0.151,4.302,0.025
			c1.095-0.145,2.721-0.59,4.876-1.339C80.119,301.568,81.694,301.13,82.684,300.999z"/>
	</g>
</g>
</svg>
