<?xml version="1.0" encoding="utf-8"?>
<!-- Generator: Adobe Illustrator 15.1.0, SVG Export Plug-In . SVG Version: 6.00 Build 0)  -->
<!DOCTYPE svg PUBLIC "-//W3C//DTD SVG 1.1//EN" "http://www.w3.org/Graphics/SVG/1.1/DTD/svg11.dtd">
<svg version="1.1" id="레이어_1" xmlns="http://www.w3.org/2000/svg" xmlns:xlink="http://www.w3.org/1999/xlink" x="0px"
	 y="0px" width="500px" height="398.5px" viewBox="0 0 500 398.5" enable-background="new 0 0 500 398.5" xml:space="preserve">
<g>
	<rect x="71.716" y="364.32" fill="#020202" width="37.032" height="13.344"/>
	<rect x="152.647" y="351.898" fill="#020202" width="37.03" height="25.766"/>
	<rect x="233.575" y="337.596" fill="#020202" width="37.031" height="40.068"/>
	<rect x="314.505" y="313.881" fill="#020202" width="37.031" height="63.783"/>
	<rect x="395.433" y="287.336" fill="#020202" width="37.035" height="90.328"/>
	<polygon fill="#020202" points="417.367,224.494 353.321,290.533 267.742,270.5 209.761,325.459 123.364,302.824 72.215,365.801 
		129.656,317.57 214.73,341.143 275.009,286.699 361.709,305.422 431.299,227.739 435.575,247.984 449.573,246.719 442.577,207.496 
		381.923,221.161 387.756,231.282 	"/>
</g>
<g>
	<path fill="none" stroke="#040000" stroke-miterlimit="10" d="M200.062,179.479c14.784,5.235,21.51,9.866,21.51,9.866
		c2.216,5.316-3.455,4.609-3.455,4.609c-5.666-3.913-12.92-7.215-20.841-9.988"/>
	<path fill="none" stroke="#040000" stroke-miterlimit="10" d="M197.276,183.967"/>
	<path fill="none" stroke="#040000" stroke-miterlimit="10" d="M188.152,181.07c-1.054-0.303-2.112-0.599-3.173-0.886"/>
	<path fill="none" stroke="#030000" stroke-miterlimit="10" d="M184.979,180.184c-27.07-7.338-56.275-9.575-56.275-9.575
		c-34.705-2.591-63.973,2.187-63.973,2.187c-16.861,3.445-11.233-1.951-11.233-1.951c32.26-6.015,49.196-5.978,49.196-5.978
		c39.885,0.35,68.621,5.835,87.838,11.526"/>
	<path fill="none" stroke="#040000" stroke-miterlimit="10" d="M82.285,166.416c-2.654,1.137,0.57,4.691,0.57,4.691l5.848-0.71
		c3.064-3.525,0.118-4.776,0.118-4.776L82.285,166.416z"/>
	<path fill="none" stroke="#040000" stroke-miterlimit="10" d="M95.539,155.143c-1.99,1.034-4.179,1.478-6.379,1.798
		c-0.626,0.092-1.42,0.035-2.013,0.203c-0.931,0.265-1.698,1.497-2.03,2.344c-0.557,1.421-0.088,3.056,0.573,4.357
		c0.158,0.311,0.904,1.942,1.338,1.993c8.497,1.004,11.161-12.98,11.164-12.992C98.004,153.822,96.312,154.741,95.539,155.143z"/>
	<path fill="none" stroke="#040000" stroke-miterlimit="10" d="M82.845,166.346c-6.522-0.88-2.94-9.294-2.94-9.294
		c1.431-1.353-1.794-2.728-1.794-2.728c6.307-3.582,9.308,2.76,9.308,2.76"/>
	<path fill="none" stroke="#040000" stroke-miterlimit="10" d="M92.467,160.959c-0.08,2.039-4.14,4.722-4.14,4.722"/>
	<path fill="none" stroke="#040000" stroke-miterlimit="10" d="M87.026,165.838c-0.874-3.334,0.795-4.314,0.795-4.314"/>
	<path fill="none" stroke="#040000" stroke-miterlimit="10" d="M83.108,159.659c-2.24,3.4,2.702,6.329,2.702,6.329"/>
	<path fill="none" stroke="#040000" stroke-miterlimit="10" d="M80.508,162.02c0.936,4.048,4.919,3.714,4.919,3.714"/>
	<path fill="none" stroke="#040000" stroke-miterlimit="10" d="M82.855,171.107c-38.468,9.965-34.496,37.891-34.496,37.891
		c5.763,30.196,44.146,23.437,44.146,23.437c24.309-1.906,23.58-30.62,23.58-30.62c-2.041-25.411-27.382-31.417-27.382-31.417"/>
	<path fill="none" stroke="#040000" stroke-miterlimit="10" d="M99.037,186.48c-1.738-5.675-9.482-11.813-9.482-11.813"/>
	<path fill="none" stroke="#040000" stroke-miterlimit="10" d="M70.393,183.478c1.461-5.215,11.761-7.912,11.761-7.912"/>
	<path fill="none" stroke="#040000" stroke-miterlimit="10" d="M89.596,187.627c0.941-3.906-2.304-9.444-2.304-9.444"/>
	<path fill="none" stroke="#040000" stroke-miterlimit="10" d="M81.548,183.744c-1.254-2.741,0.995-4.982,0.995-4.982"/>
	<path fill="none" stroke="#040000" stroke-miterlimit="10" d="M176.03,209.588c-15.771,6.673-35.176,1.262-35.176,1.262
		l0.355,2.925c14.352,6.633,35.232-0.79,35.232-0.79L176.03,209.588z"/>
	<path fill="none" stroke="#040000" stroke-miterlimit="10" d="M165.344,215.75l1.764,14.514l2.079,2.018l9.939,12.842
		c13.393,17.574,29.698,29.646,29.698,29.646c-11.701,15.033-20.024,19.799-20.024,19.799l-22.536-21.697
		c-17.974-17.191-24.988-33.272-24.988-33.272c-4.688-18.455-0.066-25.824-0.066-25.824"/>
	<path fill="none" stroke="#040000" stroke-miterlimit="10" d="M162.45,216.341c0,0-0.014,0.614,0.825,6.796
		c0.014,0.116,0.032,0.232,0.049,0.345c0.9,5.872,3.783,6.783,3.783,6.783"/>
	<path fill="none" stroke="#040000" stroke-miterlimit="10" d="M139.216,226.421c12.421,0.189,11.339-10.291,11.339-10.291"/>
	<path fill="none" stroke="#040000" stroke-miterlimit="10" d="M156.635,235.29"/>
	<path fill="none" stroke="#040000" stroke-miterlimit="10" d="M150.867,255.35l-7.921,29.605
		c5.378-1.701,22.075,4.998,22.075,4.998l3.716-14.701"/>
	<path fill="none" stroke="#040000" stroke-miterlimit="10" d="M168.935,274.479"/>
	<path fill="none" stroke="#040000" stroke-miterlimit="10" d="M177.037,242.428l3.783-14.964
		c1.085-9.731-4.378-14.479-4.378-14.479"/>
	<path fill="none" stroke="#040000" stroke-miterlimit="10" d="M172.354,214.199c0.594,9.482,8.607,10.568,8.607,10.568"/>
	<path fill="none" stroke="#040000" stroke-miterlimit="10" d="M142.946,284.955c0,0,0,0-1.975-0.457
		c-1.975-0.459-3.195,9.639-3.195,9.639l24.29,5.951c4.223-2.607,5.403-8.686,5.403-8.686l-2.447-1.449"/>
	<path fill="none" stroke="#040000" stroke-miterlimit="10" d="M188.8,294.57c1.033,5.633,5.799,7.498,5.799,7.498
		c3.841,1.453,5.457,0.383,5.457,0.383c7.02-3.994,17.969-18.766,18.989-21.855c0.128-0.387,0.094-0.795-0.068-1.213
		c-1.123-2.92-8.353-6.316-8.353-6.316l-1.8,1.703"/>
	<g>
		<g>
			<path fill="none" stroke="#040000" stroke-miterlimit="10" d="M140.462,228.472c-0.041-0.543-0.039-0.835-0.039-0.835"/>
			<path fill="none" stroke="#040000" stroke-miterlimit="10" stroke-dasharray="3.0167,3.0167" d="M189.208,292.318
				c-27.176-26.682-35.178-36.813-35.178-36.813c-10.115-10.576-12.711-20.787-13.376-25.362"/>
			<path fill="none" stroke="#040000" stroke-miterlimit="10" d="M190.41,293.498c-0.2-0.197-0.399-0.391-0.597-0.586"/>
		</g>
	</g>
	<g>
		<path fill="none" d="M169.186,232.281"/>
	</g>
	<g>
		<g>
			<path fill="none" stroke="#040000" stroke-miterlimit="10" d="M206.922,275.826c0.413,0.355,0.636,0.545,0.636,0.545"/>
			<path fill="none" stroke="#040000" stroke-miterlimit="10" stroke-dasharray="3.0831,3.0831" d="M169.956,234.303
				c4.381,12.435,28.602,34.226,35.667,40.396"/>
			<path fill="none" stroke="#040000" stroke-miterlimit="10" d="M169.487,232.67c0.058,0.264,0.125,0.533,0.206,0.809"/>
		</g>
	</g>
	<g>
		<g>
			<path fill="none" stroke="#040000" stroke-miterlimit="10" d="M163.379,216.789c-0.033-0.353-0.048-0.555-0.048-0.555"/>
			<path fill="none" stroke="#040000" stroke-miterlimit="10" stroke-dasharray="2.0854,2.0854" d="M166.05,228.646
				c-1.447-2.107-2.236-7.819-2.553-10.7"/>
			<path fill="none" stroke="#040000" stroke-miterlimit="10" d="M166.892,229.397c-0.162-0.06-0.317-0.161-0.465-0.301"/>
		</g>
	</g>
	<path fill="none" stroke="#040000" stroke-miterlimit="10" d="M173.137,213.991c1.013,8.338,7.804,10.011,7.804,10.011"/>
	<path fill="none" stroke="#040000" stroke-miterlimit="10" d="M139.826,225.886c10.664-0.84,9.721-9.777,9.721-9.777"/>
	<line fill="none" stroke="#040000" stroke-miterlimit="10" x1="166.723" y1="215.453" x2="166.338" y2="212.278"/>
	<path fill="none" stroke="#040000" stroke-miterlimit="10" d="M164.892,213.459c0.429-0.052,0.816,0.252,0.868,0.68
		s-0.253,0.817-0.681,0.869c-0.426,0.052-0.816-0.254-0.867-0.683C164.16,213.901,164.464,213.511,164.892,213.459z"/>
	
		<line fill="none" stroke="#040000" stroke-miterlimit="10" stroke-dasharray="3" x1="163.64" y1="289.418" x2="167.474" y2="274.035"/>
	
		<line fill="none" stroke="#040000" stroke-miterlimit="10" stroke-dasharray="3" x1="175.857" y1="240.4" x2="179.231" y2="226.866"/>
	
		<line fill="none" stroke="#040000" stroke-miterlimit="10" stroke-dasharray="3" x1="144.31" y1="284.711" x2="151.707" y2="256.482"/>
	<path fill="none" stroke="#040000" stroke-miterlimit="10" stroke-dasharray="2" d="M141.943,214.097"/>
	<path fill="none" stroke="#040000" stroke-miterlimit="10" d="M139.848,226.531c-0.391-10.007,2.095-12.434,2.095-12.434"/>
	<path fill="none" stroke="#040000" stroke-miterlimit="10" d="M180.262,225.433"/>
	<path fill="none" stroke="#040000" stroke-miterlimit="10" d="M180.321,223.796c-0.15-6.112-4.38-10.643-4.38-10.643"/>
	<path fill="none" stroke="#040000" stroke-miterlimit="10" d="M147.695,223.47"/>
	<path fill="none" stroke="#040000" stroke-miterlimit="10" d="M163.79,298.688l9.224,5.307c5.998-0.207,3.513,6.643,3.513,6.643
		c-8.373,6.516-33.685-7.865-33.685-7.865c-1.725-1.971,0.54-7.262,0.54-7.262"/>
	<path fill="none" stroke="#040000" stroke-miterlimit="10" d="M167.343,312.104c0.645-6.709,5.669-8.111,5.669-8.111"/>
	<path fill="none" stroke="#040000" stroke-miterlimit="10" d="M142.113,300.242l-0.38,3.449l0.956,1.283
		c27.191,12.492,31.507,8.738,31.507,8.738l1.708-2.648"/>
	<path fill="none" stroke="#040000" stroke-miterlimit="10" d="M217.581,303.729c8.024-4.373,22.179-23.992,22.179-23.992"/>
	<path fill="none" stroke="#040000" stroke-miterlimit="10" d="M207.957,295.607c7.322,8.494,11.436,8.686,11.436,8.686
		c13.57-8.283,20.538-22.762,20.538-22.762c-1.292-18.537-13.339-4.906-13.339-4.906c1.062,3.709,11.063,5.941,11.063,5.941"/>
	<polyline fill="none" stroke="#040000" stroke-miterlimit="10" points="218.412,292.979 232.002,280.779 224.299,277.82 
		228.898,283.762 221.494,279.285 226.012,285.857 219.18,280.492 226.592,276.625 	"/>
	<polyline fill="none" stroke="#040000" stroke-miterlimit="10" points="213.084,289.584 218.412,292.979 215.302,286.646 
		221.127,289.463 217.301,283.752 223.34,287.93 219.18,280.492 	"/>
	<polyline fill="none" stroke="#040000" stroke-miterlimit="10" points="213.965,288.445 219.981,291.174 216.327,285.203 
		221.812,288.656 218.385,282.334 224.263,286.551 220.582,279.762 227.027,284.514 223.076,278.459 230.439,281.699 	"/>
	<path fill="none" stroke="#040000" stroke-miterlimit="10" d="M159.564,299.475l-0.156,2.943l5.118-3.307l-2.188,5.373l5.567-3.428
		l-1.885,5.732c-0.258-1.43,4.163-4.424,4.164-4.422l-6.119,3.414l1.792-5.904l-4.776,3.598l1.453-5.275l-4.417,3.416l7.903,5.174"
		/>
	<line fill="none" stroke="#040000" stroke-miterlimit="10" x1="157.477" y1="298.963" x2="158.117" y2="301.613"/>
	<path fill="none" stroke="#020202" stroke-miterlimit="10" d="M166.41,129.417c-3.033-10.21-13.624-8.219-13.624-8.219
		c-9.449,4.44-6.583,14.865-6.583,14.865c-0.222,9.431-5.055,11.789-5.055,11.789c-13.473,8.307-22.887-5.767-22.887-5.767"/>
	<path fill="none" stroke="#040000" stroke-miterlimit="10" d="M190.249,187.315c3.563,4.946,9.801,4.062,9.801,4.062
		c-1.873-1.646-3.656-3.375-5.322-5.217"/>
	<path fill="none" stroke="#040000" stroke-miterlimit="10" d="M166.567,130.221c-0.008-0.005-12.683-6.723-20.364,5.843"/>
	<path fill="none" stroke="#040000" stroke-miterlimit="10" d="M121.692,144.071c-5.665-5.372-3.119-12.954-3.119-12.954
		c7.274,14.396,18.63,1.615,18.63,1.615"/>
	<path fill="none" stroke="#020202" stroke-miterlimit="10" d="M179.667,173.593c-2.961-4.175-4.718-21.706-4.718-21.706
		c1.925-19.04-8.381-21.666-8.381-21.666"/>
	<path fill="none" stroke="#030000" stroke-miterlimit="10" d="M174.682,172.323c-2.481-2.556-3.8-9.954-3.8-9.954"/>
	<path fill="none" stroke="#040000" stroke-miterlimit="10" d="M190.275,187.472c0,0-0.432-0.554,0.042,2.03
		c0.475,2.584,3.344,4.301,3.344,4.301c-1.386-0.121-2.842-0.166-4.155-0.667c-1.52-0.579-2.07-1.429-2.962-2.757"/>
	<path fill="none" stroke="#040000" stroke-miterlimit="10" d="M184.635,196.462c5.86,1.792,5.807-1.588,5.807-1.588
		c-3.333,0.052-3.956-4.065-3.956-4.065"/>
	<path fill="none" stroke="#040000" stroke-miterlimit="10" d="M132.295,156.541"/>
	<path fill="none" stroke="#030000" stroke-miterlimit="10" d="M138.563,154.634c4.149,11.661,19.626,14.146,19.626,14.146
		c18.568-3.653,16.759-16.893,16.759-16.893"/>
	<path fill="none" stroke="#030000" stroke-miterlimit="10" d="M167.943,170.902c-1.103-0.341-0.898-5.564-0.898-5.564"/>
	<path fill="none" stroke="#040000" stroke-miterlimit="10" d="M176.822,186.293"/>
	<path fill="none" stroke="#040000" stroke-miterlimit="10" d="M169.142,175.477"/>
	<path fill="none" stroke="#040000" stroke-miterlimit="10" d="M125.535,137.751c0.11-33.845,30.513-27.318,30.513-27.318"/>
	<path fill="none" stroke="#020202" stroke-miterlimit="10" d="M125.378,165.837c1.097-7.706-0.595-17.676-0.595-17.676"/>
	<path fill="none" stroke="#020202" stroke-miterlimit="10" d="M127.826,165.993c1.429-4.395-0.932-16.74-0.932-16.74"/>
	<path fill="none" stroke="#040000" stroke-miterlimit="10" d="M121.259,181.296c-4.159,1.345-4.235-3.221-4.235-3.221
		c6.089,0.688,6.526-7.803,6.526-7.803"/>
	<path fill="none" stroke="#020202" stroke-miterlimit="10" d="M131.197,150.397c1.293,8.855,1.375,14.214,1.354,15.938"/>
	<path fill="none" stroke="#040000" stroke-miterlimit="10" d="M131.72,165.526"/>
	<path fill="none" stroke="#040000" stroke-miterlimit="10" d="M131.06,170.815c-3.224,22.245-14.586,12.382-14.586,12.382
		c7.124,1.053,9.754-12.761,9.754-12.761"/>
	<path fill="none" stroke="#020202" stroke-miterlimit="10" d="M135.746,150.124c0.502,1.979,0.661,2.145,0.694,3.388"/>
	<path fill="none" stroke="#040000" stroke-miterlimit="10" d="M135.726,155.378"/>
	<path fill="none" stroke="#040000" stroke-miterlimit="10" d="M136.124,159.05"/>
	<path fill="none" stroke="#030000" stroke-miterlimit="10" d="M135.927,160.047c-0.446,2.093-1.048,4.824-1.172,6.153"/>
	<path fill="none" stroke="#040000" stroke-miterlimit="10" d="M134.013,171.106c-4.67,20.32-10.939,19.226-10.939,19.226
		c7.254,2.099,10.06-5.446,10.06-5.446"/>
	<path fill="none" stroke="#030000" stroke-miterlimit="10" d="M140.063,166.859c1.659-1.161,0.487-7.729,0.487-7.729"/>
	<path fill="none" stroke="#040000" stroke-miterlimit="10" d="M126.174,183.613c0.538,2.936-3.438,3.94-3.438,3.94
		c1.18,0.826,4.741-0.003,4.741-0.003"/>
	<path fill="none" stroke="#040000" stroke-miterlimit="10" d="M134.702,165.765"/>
	<path fill="none" stroke="#020202" stroke-miterlimit="10" d="M134.868,150.306"/>
	<path fill="none" stroke="#030000" stroke-miterlimit="10" d="M167.942,170.902"/>
	<path fill="none" stroke="#030000" stroke-miterlimit="10" d="M165.243,170.417c-0.77-1.289-0.996-3.689-0.996-3.689"/>
	
		<ellipse transform="matrix(-0.1207 -0.9927 0.9927 -0.1207 -2.6714 311.6873)" fill="none" stroke="#040000" stroke-miterlimit="10" cx="136.714" cy="157.027" rx="3.41" ry="2.506"/>
	
		<ellipse transform="matrix(-0.1207 -0.9927 0.9927 -0.1207 -2.6401 311.7016)" fill="none" stroke="#040000" stroke-miterlimit="10" cx="136.724" cy="157.02" rx="2.657" ry="1.955"/>
	<path fill="none" stroke="#020202" stroke-miterlimit="10" d="M166.568,130.222c0,0-3.997-18.127-14.9-14.998
		c0,0-14.787,3.638-14.633,21.544c0,0-2.98,16.641-18.773,5.317"/>
	<path fill="none" stroke="#030000" stroke-miterlimit="10" d="M180.693,160.506c-0.883-7.385,2.013-11.739,2.013-11.739
		c3.702-9.561-1.277-23.226-1.277-23.226c-10.11-16.585-17.609-2.591-17.609-2.591"/>
	<polyline fill="none" stroke="#040000" stroke-miterlimit="10" points="163.388,121.876 163.82,122.95 166.41,129.417 	"/>
	<path fill="none" stroke="#040000" stroke-miterlimit="10" d="M179.95,123.303c-10.104-13.664-18.435-4.282-18.435-4.282"/>
	<path fill="none" stroke="#040000" stroke-miterlimit="10" d="M129.699,137.619"/>
	<path fill="none" stroke="#040000" stroke-miterlimit="10" d="M129.699,137.619c0.026-0.113,0.051-0.226,0.079-0.339
		c3.643-15.876,12.202-21.82,12.202-21.82c14.186-11.597,26.592,0.36,26.592,0.36"/>
	<path fill="none" stroke="#020202" stroke-miterlimit="10" d="M185.482,175.185c-0.95-1.649-1.813-3.72-2.458-5.524
		c-1.001-2.805-1.477-5.847-2.223-8.729c-0.327-1.257-0.63-2.521-0.881-3.795c-0.294-1.495-0.656-4.342-0.656-4.342
		c-0.002-0.011-0.006-0.021-0.008-0.031c-1.25-4.651-0.458-7.071-0.458-7.071c2.478-5.401,0.789-10.277,0.789-10.277
		c-4.915-18.522-13.125-5.636-13.125-5.636"/>
	<path fill="none" stroke="#030000" stroke-miterlimit="10" d="M143.602,167.24c0.676-0.69,0.696-4.314,0.696-4.314"/>
	<line fill="none" stroke="#030000" stroke-miterlimit="10" x1="147.673" y1="164.919" x2="147.543" y2="167.707"/>
	<path fill="none" stroke="#020202" stroke-miterlimit="10" d="M143.512,145.196"/>
	<path fill="none" stroke="#040000" stroke-miterlimit="10" d="M135.863,160.343"/>
	<path fill="none" stroke="#040000" stroke-miterlimit="10" d="M136.717,159.662c0.065-1.537-0.094-3.947-0.2-5.285"/>
	<path fill="none" stroke="#040000" stroke-miterlimit="10" d="M154.81,159.667c1.974-3.65,5.376-0.559,5.376-0.559
		c2.988-3.076,3.959,0.294,3.959,0.294C159.386,162.164,154.81,159.667,154.81,159.667z"/>
	<path fill="none" stroke="#030000" stroke-miterlimit="10" d="M154.81,159.668c1.386,3.485,3.847,3.32,3.847,3.32
		c4.714,0.176,4.907-2.351,5.487-3.586"/>
	
		<ellipse transform="matrix(-0.0382 -0.9993 0.9993 -0.0382 27.5895 322.1908)" fill="#040000" stroke="#020202" stroke-miterlimit="10" cx="168.856" cy="147.817" rx="2.815" ry="1.612"/>
	
		<ellipse transform="matrix(-0.0379 -0.9993 0.9993 -0.0379 26.6533 321.5219)" fill="none" stroke="#020202" stroke-miterlimit="10" cx="168.109" cy="147.93" rx="3.448" ry="2.354"/>
	<path fill="none" stroke="#020202" stroke-miterlimit="10" d="M147.165,143.975l1.425-0.873c3.458-2.007,7.341,0.929,7.341,0.929"
		/>
	<path fill="none" stroke="#020202" stroke-miterlimit="10" d="M172.677,142.828l-1.519-0.7c-3.671-1.588-7.183,1.786-7.183,1.786"
		/>
	<path fill="none" stroke="#040000" stroke-miterlimit="10" d="M161.384,154.335c1.8-1.533-0.947-2.359-0.947-2.359"/>
	<path fill="#040000" stroke="#020202" stroke-miterlimit="10" d="M152.044,145.975c0.889-0.034,1.66,1.199,1.719,2.752
		c0.06,1.554-0.615,2.84-1.504,2.875c-0.888,0.033-1.659-1.199-1.717-2.752C150.481,147.297,151.155,146.009,152.044,145.975z"/>
	
		<ellipse transform="matrix(-0.0381 -0.9993 0.9993 -0.0381 8.361 305.8751)" fill="none" stroke="#020202" stroke-miterlimit="10" cx="151.401" cy="148.913" rx="3.449" ry="2.355"/>
	<path fill="none" stroke="#030000" stroke-miterlimit="10" d="M142.72,172.117c-8.095-1.121-9.428,6.924-9.428,6.924
		c-1.996,10.977,7.845,31.775,7.845,31.775"/>
	<path fill="none" stroke="#030000" stroke-miterlimit="10" d="M169.318,176.491c-0.624,8.013-4.336,9.696-4.336,9.696
		s-7.422-1.546-13.825-12.896"/>
	<path fill="none" stroke="#040000" stroke-miterlimit="10" d="M146.169,180.753c7.056,4.424,19.193,18.354,19.193,18.354"/>
	<path fill="none" stroke="#040000" stroke-miterlimit="10" d="M135.675,193.002c1.107,3.822,13.201,10.764,13.201,10.764
		c-1.109-7.981,6.973-14.888,6.973-14.888"/>
	<path fill="none" stroke="#040000" stroke-miterlimit="10" d="M184.979,180.183c-0.448,3.142,1.792,4.083,1.792,4.083
		s-14.236,8.77-22.708,15.908"/>
	<path fill="none" stroke="#040000" stroke-miterlimit="10" d="M148.752,201.294c10.239,8.473,15.814,8.436,15.814,8.436
		c6.167-2.408,26.076-23.157,26.076-23.157s5.366,0.428,6.771-2.36c0,0,2.912-6.777,3.458-4.527c0,0-0.637-2.884-2.141-2.326
		c0,0-0.484-0.481-3.487,3.615"/>
	<path fill="none" stroke="#040000" stroke-miterlimit="10" d="M187.922,180.794c0.51-2.811,4.26-5.633,4.26-5.633
		c1.936-2.39,2.803,0.44,2.803,0.44c1.805-1.594,2.206,0.911,2.206,0.911c2.206-1.255,2.238,1.184,2.238,1.184"/>
	<path fill="none" stroke="#040000" stroke-miterlimit="10" d="M194.011,179.984c1.507-2.146,3.179-3.471,3.179-3.471"/>
	<path fill="none" stroke="#040000" stroke-miterlimit="10" d="M191.877,179.121c1.601-3.474,3.389-3.619,3.296-3.675"/>
	<path fill="none" stroke="#040000" stroke-miterlimit="10" d="M198.064,184.246"/>
	<line fill="none" stroke="#040000" stroke-miterlimit="10" x1="176.767" y1="201.186" x2="175.51" y2="209.607"/>
	<line fill="none" stroke="#040000" stroke-miterlimit="10" x1="175.93" y1="191.376" x2="174.737" y2="187.08"/>
	<path fill="none" stroke="#040000" stroke-miterlimit="10" d="M187.218,228.585c-2.235-3.853-3.082,1.028-3.082,1.028
		c-1.303-3.704-2.159-0.874-2.159-0.874l0.187,4.844c1.845,3.617,2.396,0.234,2.396,0.234c2.2,3.745,3.268-0.397,3.268-0.397
		c1.835,3.615,2.559-0.486,2.559-0.486c3.02,3.301,3.526-0.43,3.526-0.43c0.053-0.73,0.065-1.425,0.042-2.082"/>
	<path fill="none" stroke="#040000" stroke-miterlimit="10" d="M193.396,226.793c-1.221-4.298-3.974-6.105-3.974-6.105
		c-0.316-5.831-3.307-18.346-4.752-23.927"/>
	<path fill="none" stroke="#040000" stroke-miterlimit="10" d="M187.827,233.42l-0.609-4.837c0.651-3.81,2.603-0.316,2.603-0.316
		l0.567,4.667"/>
	<line fill="none" stroke="#040000" stroke-miterlimit="10" x1="184.668" y1="233.993" x2="184.135" y2="229.613"/>
	<path fill="none" stroke="#040000" stroke-miterlimit="10" d="M192.595,232.186l-0.479-3.936c-1.717-4.626-2.265,0.276-2.265,0.276
		"/>
	<path fill="none" stroke="#040000" stroke-miterlimit="10" d="M196.513,227.325"/>
	<path fill="none" stroke="#040000" stroke-miterlimit="10" d="M195.514,227.094c-0.49-2.896-4.065-4.336-4.065-4.336"/>
	<path fill="none" stroke="#040000" stroke-miterlimit="10" d="M181.509,228.184c0.107-2.612,2.033-6.159,2.033-6.159
		s-8.527-20.852-6.521-21.67c9.295-3.793,9.479-5.874,9.479-5.874l-1.099-2.586"/>
	<path fill="none" stroke="#040000" stroke-miterlimit="10" d="M183.622,186.373c-1.565-3.676-3.536-7.455-3.536-7.455"/>
	<path fill="none" stroke="#040000" stroke-miterlimit="10" d="M194.976,198.164"/>
	<path fill="none" stroke="#040000" stroke-miterlimit="10" d="M159.228,192.504"/>
	<path fill="none" stroke="#040000" stroke-miterlimit="10" d="M151.194,203.227c-1.356,0.509-2.318,0.539-2.318,0.539"/>
	<path fill="none" stroke="#040000" stroke-miterlimit="10" d="M200.167,267.586l15.923,0.189
		c3.399-1.461-1.007-29.117-1.007-29.117l-36.895,0.905"/>
	<line fill="none" stroke="#040000" stroke-miterlimit="10" x1="180.609" y1="228.296" x2="182.459" y2="228.071"/>
	<line fill="none" stroke="#040000" stroke-miterlimit="10" x1="183.173" y1="227.984" x2="184.749" y2="227.796"/>
	<line fill="none" stroke="#040000" stroke-miterlimit="10" x1="186.502" y1="227.584" x2="187.523" y2="227.462"/>
	<line fill="none" stroke="#040000" stroke-miterlimit="10" x1="189.083" y1="227.273" x2="190.144" y2="227.148"/>
	<path fill="none" stroke="#040000" stroke-miterlimit="10" d="M191.378,226.998l0.388-0.046c0.589-0.1,1.131-0.146,1.633-0.149"/>
	<path fill="none" stroke="#040000" stroke-miterlimit="10" d="M193.399,226.802c4.777-0.024,5.776,3.928,5.776,3.928l1.008,8.296"
		/>
	<path fill="none" stroke="#040000" stroke-miterlimit="10" d="M192.367,230.315c1.749-0.672,3.482,1.735,3.482,1.735l0.986,7.056"
		/>
	<path fill="none" stroke="#040000" stroke-miterlimit="10" d="M180.233,239.514c-0.008-0.064-0.017-0.13-0.024-0.195
		c-0.92-7.409,1.594-7.624,1.594-7.624"/>
	<polyline fill="none" stroke="#040000" stroke-miterlimit="10" points="177.275,241.484 213.672,239.966 215.084,238.661 	"/>
	<path fill="none" stroke="#040000" stroke-miterlimit="10" d="M216.092,267.775c0.094-4.244-2.42-27.81-2.42-27.81"/>
	<polyline fill="none" stroke="#040000" stroke-miterlimit="10" points="194.863,262.951 192.996,247.584 209.961,247.561 	"/>
	<polyline fill="none" stroke="#040000" stroke-miterlimit="10" points="196.487,264.215 211.806,264.283 209.754,247.381 	"/>
	<line fill="none" stroke="#040000" stroke-miterlimit="10" x1="193.871" y1="252.158" x2="210.322" y2="252.068"/>
	<line fill="none" stroke="#040000" stroke-miterlimit="10" x1="203.204" y1="263.887" x2="201.777" y2="252.15"/>
	<path fill="none" stroke="#040000" stroke-miterlimit="10" d="M185.861,243.803"/>
	<path fill="none" stroke="#040000" stroke-miterlimit="10" d="M209.435,243.232"/>
	<path fill="none" stroke="#040000" stroke-miterlimit="10" d="M201.233,244.229"/>
	<path fill="none" stroke="#040000" stroke-miterlimit="10" d="M209.361,244.156"/>
	<line fill="none" stroke="#040000" stroke-miterlimit="10" x1="178.263" y1="244.012" x2="213.99" y2="243.006"/>
	<polyline fill="none" stroke="#040000" stroke-miterlimit="10" points="181.243,247.826 188.297,247.699 189.423,256.965 	"/>
	<path fill="none" stroke="#040000" stroke-miterlimit="10" d="M207.568,252.084"/>
</g>
<g id="레이어_2">
</g>
<path d="M54.968,79.115l0.717-0.51c1.525-1.086,2.941-1.236,4.247-0.452c2.303,0.959,5.67,3.125,10.104,6.496l0.056-0.039
	c-1.176-3.422-1.992-6.229-2.452-8.421c-0.458-2.191-0.462-3.448-0.013-3.768c0.631-0.963,1.604-1.912,2.918-2.847
	c1.901-1.354,4.398-2.642,7.487-3.865c1.811-0.141,5.615,1.714,11.414,5.564c4.779,3.429,11.93,10.199,21.451,20.313
	c2.272,2.338,3.73,3.958,4.372,4.859l0.561,0.788c1.201,1.688,1.505,3.127,0.91,4.315c-1.445,3.085-3.644,5.678-6.594,7.777
	c-2.233,1.589-4.037,2.128-5.412,1.616c-0.559-0.104-1.473-1.048-2.743-2.833c-3.459-4.025-6.38-7.168-8.764-9.428
	c-2.016-1.821-3.833-3.403-5.451-4.743l-0.11,0.079c1.053,3.075,1.813,5.954,2.283,8.638c0.39,2.202,0.5,4.457,0.329,6.767
	c-0.157,1.431-0.366,2.238-0.623,2.421l-0.056,0.039c-0.267,0.19-1.327,0.002-3.184-0.563c-2.976-0.875-5.884-2.141-8.725-3.798
	c-1.187-0.618-2.581-1.479-4.183-2.581l-0.109,0.079l0.036,0.052c2.824,5.915,5.557,10.727,8.197,14.438
	c0.796,1.042,1.611,2.149,2.446,3.322c0.654,0.919,0.581,2.198-0.22,3.835c-0.86,1.126-1.875,2.105-3.041,2.935
	c-3.75,2.668-6.974,3.985-9.669,3.953c-1.078,0.002-2.283-0.933-3.615-2.806l-0.122-0.171c-3.961-5.567-10.142-18.592-18.541-39.075
	c-0.465-1.897,0.232-4.45,2.09-7.657C52.455,81.528,53.791,79.952,54.968,79.115z M64.113,114.967l0.038,0.052l0.068-0.049
	c-0.88-2.248-3.683-8.921-8.41-20.021c-0.9-2.919-0.905-5.369-0.015-7.347c1.192-2.021,1.62-3.269,1.283-3.741
	c-0.323-0.455-0.891-0.454-1.7,0.003c-1.14,0.811-2.008,2.372-2.606,4.683c-0.182,1.302,0.076,2.715,0.771,4.237
	c0.374,0.525,2.628,5.454,6.762,14.786C62.258,111.679,63.528,114.144,64.113,114.967z M72.243,81.753
	c0.261,1.7,0.653,2.14,1.178,1.318c0.522-0.82,0.784-1.455,0.784-1.903c0.15-0.41,0.016-1.738-0.405-3.983
	c-0.216-0.848,0.341-2.187,1.67-4.016c0.24-0.381,0.205-0.752-0.105-1.111c-0.656-0.456-1.472-0.338-2.446,0.355
	c-1.214,0.863-1.684,2.595-1.411,5.196C71.736,78.673,71.982,80.054,72.243,81.753z"/>
<path d="M120.872,38.875l0.871-0.373c1.907-0.816,4.692-0.39,8.352,1.281c4.701,2.814,7.083,4.295,7.146,4.443
	c12.605,8.242,21.27,17.878,25.99,28.909c0.854,1.995,1.112,3.274,0.777,3.838c-0.399,1.936-2.19,3.584-5.374,4.947l-1.011,0.432
	c-2.251,0.963-5.155,1.803-8.714,2.519c-1.049-0.042-2.175-0.623-3.378-1.744c-2.055-2.334-3.423-4.302-4.108-5.901
	c-0.072,0.031-0.586-0.912-1.541-2.829c-1.079,0.918-2.501,1.754-4.265,2.509l-0.591,0.252c1.598,3.733,2.229,7.763,1.896,12.088
	c-0.433,1.855-1.836,3.292-4.211,4.309l-1.073,0.458c-2.604,1.114-6.677,1.946-12.221,2.496c-1.513-0.182-2.596-1.034-3.246-2.554
	l-0.024-0.06c-1.544-3.605-2.82-8.696-3.831-15.273c-0.534-5.404-0.604-10.1-0.213-14.088c0.332-3.554,1.041-7.474,2.127-11.76
	c0.687-2.724,1.994-6.438,3.92-11.141C118.969,40.221,119.877,39.3,120.872,38.875z M117.912,84.255l0.176,0.24l0.078-0.034
	c0.146-0.062-0.019-2.422-0.491-7.081c-0.313-4.774-0.253-9.222,0.18-13.345l0.773-4.73c0.492-2.606,1.187-5.327,2.082-8.165
	c0.896-2.953,1.799-4.929,2.71-5.926c0.556-0.822,0.729-1.48,0.517-1.974c-0.475-0.451-1.044-0.535-1.708-0.251
	c-1.825,0.781-3.678,5.441-5.557,13.981c-1.1,5.459-1.435,10.884-1.006,16.274C116.077,78.047,116.825,81.718,117.912,84.255z
	 M131.792,68.694l0.165,0.384l0.268,0.412c2.373-1.507,3.412-2.605,3.116-3.296c-0.135-0.574-0.271-1.023-0.411-1.35
	c-1.138-2.142-1.997-3.089-2.577-2.84c-0.09-0.009-0.207,0.019-0.353,0.081c-0.726,0.941-1.005,2.224-0.838,3.846
	C131.277,67.062,131.487,67.983,131.792,68.694z M135.54,69.753l0.024,0.06c0.179,0.415,0.807,0.45,1.886,0.104
	c0.591-0.253,1.235-0.796,1.934-1.633c0.567-0.851,0.713-1.602,0.434-2.253c-0.334-0.78-0.791-1.046-1.372-0.797
	c-0.363,0.155-0.662,0.646-0.897,1.471c-0.236,0.825-0.67,1.46-1.302,1.906C135.615,69.056,135.379,69.437,135.54,69.753z"/>
<path d="M171.071,23.567c11.54-2.515,20.954-2.066,28.244,1.348c3.2,1.656,5.065,3.695,5.594,6.12l0.254,1.165
	c0.622,2.855-0.59,6.802-3.636,11.842c-2.228,3.08-4.42,5.388-6.578,6.925c-2.073,1.507-3.992,2.662-5.757,3.464l0.018,0.079
	c2.283,1.316,4.316,2.061,6.098,2.233c2.697-0.017,4.608,0.04,5.734,0.168c1.354,0.288,2.121,0.835,2.297,1.644
	c0.164,2.449-0.04,4.61-0.613,6.483c-1.581,5.248-3.049,8.02-4.404,8.315l-0.216,0.047c-1.057,0.076-2.986-0.646-5.788-2.168
	c-3.515-2.191-6.699-4.543-9.556-7.054c-1.991-1.721-3.557-3.183-4.696-4.386l-0.066,0.015l0.015,0.063
	c3.232,7.739,5.001,12.064,5.304,12.977c-0.04,1.669-1.465,2.81-4.276,3.422l-0.645,0.141c-3.516,0.766-6.161,0.891-7.936,0.376
	c-0.421-0.183-0.852-0.782-1.292-1.796c-7.85-14.935-13.224-29.051-16.122-42.35l-0.03-0.141c-0.19-0.871,0.427-1.935,1.85-3.191
	C157.601,27.239,163.003,25.325,171.071,23.567z M157.42,34.111l0.059,0.268c0.157,0.724,0.585,1.203,1.282,1.436
	c0.177-0.039,0.626-0.493,1.348-1.365c0.96-1.21,1.644-1.859,2.052-1.948c2.06-0.877,3.442-1.393,4.148-1.547
	c0.056-0.012,0.078-0.039,0.069-0.081c0.043-0.01,0.07,0.006,0.079,0.049c0.356-0.166,0.8-0.307,1.328-0.422l0.066-0.014
	l0.132-0.111c0.012,0.052,0.039,0.074,0.083,0.064c-0.011-0.052,0.011-0.085,0.065-0.097l0.017,0.079l0.115-0.107
	c1.436-0.357,2.335-0.597,2.701-0.721l0.014,0.063l0.118-0.092l1.505-0.328c0.055-0.012,0.077-0.044,0.065-0.097l0.149,0.05
	c0.055-0.012,0.077-0.044,0.065-0.097l0.149,0.05l0.132-0.111l0.017,0.079l0.132-0.111c0.044-0.01,0.072,0.012,0.083,0.064
	l0.132-0.111c0.044-0.009,0.121,0.001,0.232,0.032l0.33-0.154c0.043-0.009,0.071,0.012,0.083,0.064l0.347-0.158l2-0.436
	c0.056-0.012,0.089,0.008,0.1,0.061l0.116-0.108c0.099,0.034,0.204,0.038,0.314,0.014l-0.018-0.079l0.148,0.05l0.365-0.079
	c0.33-0.073,0.857-0.166,1.584-0.28l-0.014-0.063l0.162,0.03l0.711-0.155c0.166-0.036,0.385-0.062,0.658-0.078
	c0.079-0.061,0.146-0.097,0.201-0.109c0.01,0.042,0.036,0.058,0.08,0.048l-0.014-0.062l0.162,0.031l0.281-0.062
	c0.11-0.024,0.199-0.065,0.268-0.124c0.152,0.011,0.234,0.042,0.246,0.095l0.132-0.111l0.28-0.062l0.166,0.047l-0.017-0.079
	l0.166,0.046l0.495-0.108c0.044-0.009,0.061-0.04,0.05-0.093l0.165,0.047l0.066-0.015c0.056-0.012,0.077-0.044,0.065-0.097
	l0.15,0.05c0.407-0.089,0.705-0.203,0.895-0.344c0.108,0.021,0.184,0.026,0.229,0.016c-0.048-0.165-0.308-0.323-0.779-0.473
	c0.012,0.053-0.005,0.083-0.049,0.093c-0.011-0.052-0.3-0.132-0.866-0.24l0.014,0.063c-3.467-0.387-8.044,0.038-13.73,1.277
	c-6.845,1.492-10.628,2.938-11.351,4.337C157.434,32.59,157.258,33.366,157.42,34.111z M172.31,45.065
	c0.641,2.939,1.436,4.761,2.386,5.466c0.144-0.031,0.22-0.025,0.229,0.016c1.829-0.772,3.252-1.577,4.271-2.415
	c1.367-1.299,1.907-2.609,1.619-3.932c-0.126-0.577-0.733-1.06-1.822-1.45c-1.873-0.064-3.328,0.016-4.364,0.242
	C172.866,43.378,172.093,44.068,172.31,45.065z M178.615,50.948c0.008,0.196,0.282,0.269,0.826,0.216
	c0.257-0.034,0.472-0.081,0.645-0.141c1.283-0.412,2.198-1.325,2.744-2.742c-0.005-0.021,0.022-0.158,0.083-0.414
	c-0.065-0.459-0.239-0.646-0.521-0.563c-0.194,0.064-0.631,0.495-1.312,1.292c-0.982,0.95-1.737,1.621-2.264,2.01
	C178.69,50.767,178.623,50.88,178.615,50.948z"/>
<path d="M218.561,14.974l1.605-0.08c5.351-0.267,8.732,0.404,10.146,2.011c0.256,0.386,0.397,0.846,0.424,1.383
	c-0.706,5.326-0.95,10.152-0.734,14.475L230.114,35c3.635-3.655,7.577-7.831,11.827-12.528c1.133-1.498,2.072-2.266,2.815-2.302
	l0.66-0.033c1.306-0.065,2.802,1.49,4.485,4.665c1.615,2.974,2.462,5.255,2.542,6.843l0.011,0.209
	c0.031,0.644-0.157,1.261-0.568,1.851c-0.414,1.193-1.224,2.648-2.424,4.364c-2.152,2.592-3.971,4.312-5.452,5.16
	c-0.982,0.705-1.716,1.162-2.202,1.368c1.205,3.318,2.542,6.252,4.014,8.803c1.417,2.371,3.154,4.823,5.211,7.355
	c1.649,1.822,2.477,2.781,2.481,2.877c0.06,0.072,0.093,0.184,0.102,0.333c0.071,1.449-1.473,2.875-4.631,4.28l-1.227,0.207
	c-1.115,0.055-2.636-0.546-4.563-1.805c-5.919-3.19-10.054-6.706-12.401-10.546l-0.067,0.004c0.08,1.62-0.128,5.378-0.625,11.275
	c-0.664,1.625-2.498,2.55-5.503,2.775c-2.839,0.142-4.841-1.41-6.009-4.653c-5.073-12.493-7.856-23.706-8.352-33.641l-0.042-0.837
	c-0.223-4.475,0.029-8.697,0.758-12.67c0.423-1.032,1.458-1.896,3.106-2.591C215.585,15.311,217.085,15.048,218.561,14.974z
	 M214.386,22.313l0.003,0.064c0.038,0.751,0.273,1.18,0.708,1.288c2.321-1.923,3.643-2.94,3.965-3.053
	c2.077-0.48,3.108-0.859,3.095-1.138l-0.011-0.209c-0.021-0.408-1.404-0.64-4.151-0.696c-1.724,0.085-2.918,1.055-3.582,2.905
	L214.386,22.313z M231.183,37.093c0.077,1.093,0.691,1.565,1.841,1.417c1.151-0.149,2.679-1.169,4.583-3.06
	c4.574-4.746,6.858-7.415,6.852-8.005c0.139-0.179,0.2-0.419,0.185-0.719l-0.01-0.209c-0.016-0.29-0.195-0.512-0.543-0.667
	l-0.286,0.014c-0.653,0.033-1.802,1.021-3.444,2.962c-2.735,3.127-4.565,4.92-5.491,5.38c-0.926,0.46-1.887,1.011-2.883,1.652
	C231.432,36.295,231.165,36.707,231.183,37.093z"/>
<path d="M285.808,17.532c4.393,0.596,9.256,1.792,14.59,3.59c2.41,1.032,3.947,2.038,4.611,3.016
	c0.347,0.373,0.399,1.459,0.155,3.257c-0.087,0.975-0.155,1.648-0.206,2.021c-0.637,4.694-1.94,7.422-3.91,8.185
	c-2.409,1.224-6.844,1.397-13.305,0.52c-2.671-0.362-5.748-0.92-9.231-1.675c-0.056,1.163-0.146,2.208-0.271,3.134
	c-0.099,0.388-0.152,0.614-0.161,0.678c4.168-0.183,7.214-0.143,9.137,0.118l1.156,0.157c1.7,0.23,2.458,1.011,2.278,2.341
	l-0.028,0.208c-0.194,1.437-1.03,3.058-2.504,4.864c-1.589,1.476-4.244,1.961-7.967,1.456l-1.073-0.145
	c-0.257-0.035-0.668-0.113-1.232-0.232c-0.054,0.394-0.087,0.807-0.1,1.239c-0.196,1.111-0.338,1.824-0.426,2.137l0.067,0.009
	c6.69-0.316,11.823-0.233,15.4,0.252l0.873,0.119c2.76,0.375,4.631,1.101,5.611,2.177c3.43,3.414,4.99,6.271,4.678,8.57l-0.123,0.91
	c-0.274,2.022-2.104,3.883-5.487,5.581c-7.303,1.546-14.552,1.831-21.752,0.854c-5.117-0.695-10.164-2.014-15.137-3.957
	c-1.072-0.915-1.937-2.675-2.597-5.28c-0.76-2.455-1.348-7.223-1.764-14.305c-0.295-6.132-0.191-11.045,0.31-14.739l0.158-1.165
	c0.672-4.95,2.274-8.039,4.809-9.267C268.929,17.844,276.742,16.302,285.808,17.532z M262.559,28.297l-0.064,0.479
	c-0.095,0.692,0.026,1.06,0.361,1.106c0.603-0.319,1.506-1.156,2.714-2.51c2.389-2.332,6.806-3.841,13.251-4.527
	c3.645-0.264,7.707-0.092,12.19,0.516c0.005-0.042,0.302-0.045,0.888-0.009l0.02-0.144c-2.392-1.073-5.366-1.85-8.92-2.333
	c-6.617-0.897-12.454,0.208-17.509,3.316C263.723,25.544,262.746,26.914,262.559,28.297z M279.383,56.191
	c-0.075,0.564,1.039,1.067,3.348,1.511c1.014,0.083,4.112,0.103,9.298,0.058c0.506-0.116,0.789-0.239,0.853-0.372l0.02-0.144
	c-0.294-0.603-1.464-1.044-3.509-1.321l-4.057-0.551C281.473,55.141,279.489,55.415,279.383,56.191z"/>
<path d="M330.431,26.716l1.883,0.614c7.313,2.384,15.745,6.037,25.294,10.957c1.549,1.691,1.985,3.574,1.31,5.647l-0.085,0.26
	c-0.663,2.033-1.921,4.018-3.774,5.956c-0.56,0.405-1.252,0.473-2.078,0.204c-3.736-0.732-7.659-1.599-11.77-2.6l-0.025,0.077
	c-0.733,3.195-1.493,5.999-2.279,8.409c-2.423,7.436-6.152,15.874-11.188,25.316c-1.142,1.097-3.282,1.133-6.425,0.109l-1.673-0.545
	c-3.014-0.982-4.578-2.153-4.692-3.513c2.279-12.194,4.824-22.605,7.638-31.236l1.078-3.309c-1.16-0.333-2.046-0.6-2.657-0.799
	c-5.76-1.878-8.604-2.923-8.534-3.138c-0.614-0.991-0.849-2-0.704-3.026c0.048-1.566,0.529-3.753,1.445-6.562
	c1.082-3.319,2.169-5.236,3.262-5.75c0.731-0.349,4.056,0.244,9.975,1.777C326.455,25.483,327.789,25.867,330.431,26.716z
	 M325.1,28.657c-0.868-0.283-1.81-0.545-2.822-0.785l-0.109-0.104c-1.823-0.594-3.315-0.273-4.478,0.963
	c-0.229,0.377-0.387,0.694-0.47,0.949c-0.192,0.955-0.016,1.52,0.532,1.699l0.129,0.042c0.203,0.066,0.902-0.022,2.097-0.266
	c1.112-0.462,1.903-0.616,2.376-0.462l-0.02,0.062c0.162,0.008,0.603,0.078,1.319,0.209l-0.021,0.062
	c0.273-0.001,0.775,0.117,1.504,0.354c0.017-0.051,0.047-0.07,0.089-0.056l-0.024,0.077l0.17-0.029l0.563,0.184l0.438,0.075
	c0.043,0.014,0.059,0.042,0.045,0.082l0.373,0.054l0.628,0.205l0.148-0.02l-0.02,0.062L327.713,32
	c0.042,0.014,0.058,0.042,0.044,0.082l0.165-0.014l1.318,0.43c0.108,0.035,0.207,0.039,0.299,0.012
	c0.054,0.018,0.072,0.052,0.056,0.103c0.478,0.1,0.834,0.188,1.07,0.265l2.848,0.928c0.042,0.015,0.056,0.047,0.039,0.098
	l0.17-0.029l0.145,0.047c0.043,0.014,0.057,0.047,0.039,0.098l0.171-0.029l0.965,0.315c0.042,0.014,0.056,0.046,0.038,0.098
	l0.171-0.029c0.042,0.014,0.056,0.046,0.039,0.097c0.112-0.02,0.19-0.022,0.234-0.008c0.401,0.187,0.65,0.296,0.747,0.328
	l0.025-0.077l0.12,0.124l0.691,0.226c0.043,0.014,0.058,0.042,0.044,0.083c0.043,0.014,0.071,0,0.085-0.041l0.269,0.156
	c0.279,0.091,1.331,0.485,3.157,1.181c-0.014,0.041,0.001,0.068,0.044,0.083c0.013-0.041,0.042-0.054,0.084-0.041l-0.02,0.062
	c0.054,0.018,0.087,0.005,0.101-0.035c1.486,0.643,2.227,0.979,2.216,1.01l0.147-0.02c0.332,0.109,0.646,0.256,0.942,0.442
	l0.148-0.019c0.235,0.077,0.34,0.161,0.31,0.253l0.17-0.029c0.042,0.014,0.056,0.046,0.039,0.098
	c0.042,0.014,0.071-0.004,0.089-0.056c1.677,0.75,2.798,1.262,3.361,1.536l0.02-0.062l0.438,0.295l0.025-0.077
	c0.094,0.076,0.379,0.219,0.856,0.432l0.165-0.014l0.107,0.103c0.099-0.013,0.202-0.001,0.31,0.033
	c0.042,0.014,0.058,0.042,0.045,0.083c0.472,0.154,0.849,0.107,1.131-0.14l0.025-0.077c0.216-0.664-1.189-1.631-4.216-2.9
	c-6.241-3.018-10.736-4.974-13.481-5.869c0.013-0.041-0.007-0.07-0.06-0.088l-0.021,0.062c-0.044-0.014-0.059-0.041-0.045-0.082
	c-1.838-0.656-3.225-1.136-4.157-1.44l-3.957-1.29l-0.17,0.029l0.024-0.077C325.232,28.671,325.154,28.674,325.1,28.657z"/>
<path d="M373.906,44.638l0.459,0.219c1.79,0.856,3.582,2.482,5.376,4.877c0.347,0.631,0.28,1.451-0.202,2.458
	c-4.287,11.573-8.504,21.69-12.649,30.352l-1.141,2.383c-3.19,6.667-4.938,9.928-5.243,9.781c-0.445,0.382-1.261,0.558-2.446,0.526
	c-1.546-0.167-3.575-0.853-6.089-2.056c-3.865-1.851-6.019-3.453-6.459-4.807c-0.363-0.888,1.255-5.342,4.854-13.36l0.662-1.38
	c3.899-8.149,9.559-17.545,16.98-28.19C369.976,43.966,371.942,43.699,373.906,44.638z M368.427,49.698
	c-0.171,0.358-0.259,1.103-0.261,2.232l0.198,0.096c3.488-0.367,5.472-1.049,5.95-2.047l0.229-0.479
	c0.102-0.737-0.142-1.247-0.732-1.529l-0.655-0.314c-1.13-0.54-2.506-0.186-4.129,1.062
	C369.009,48.755,368.809,49.083,368.427,49.698z"/>
<path d="M422.178,71.433c1.948,1.265,3.45,2.856,4.507,4.771c0.576,1.245,0.685,2.507,0.325,3.785
	c-0.734,1.855-3.098,6.302-7.091,13.34c-1.401,2.51-3.333,5.713-5.796,9.608c-5.231,8.054-10.082,13.908-14.555,17.562
	c-1.355,0.618-2.762,0.454-4.219-0.493l-0.369-0.239c-2.422-1.573-4.682-4.316-6.781-8.228c-0.777-1.683-1.206-3.538-1.289-5.564
	c-0.012-3.979,0.99-9.591,3.006-16.838l-0.069-0.046l-0.149,0.23c-2.966,4.567-5.688,9.614-8.161,15.143
	c0.048,0.03-0.12,0.37-0.501,1.019c-0.808,1.243-2.066,1.618-3.774,1.122c-0.776-0.337-1.388-0.651-1.832-0.94
	c-5.212-3.385-8.07-6.017-8.572-7.893c-0.619-1.657-0.428-3.256,0.572-4.796c4.83-9.672,9.33-17.72,13.502-24.143l0.641-0.986
	c4.558-7.019,8.457-11.499,11.697-13.443c0.662-0.069,1.719,0.367,3.165,1.307c3.037,1.972,6.264,4.708,9.68,8.208
	c1.562,1.924,2.3,3.345,2.216,4.263c0.355,3.574-0.554,9.581-2.726,18.02l0.07,0.046l0.114-0.176
	c1.633-2.514,3.739-6.524,6.322-12.033c0.226-0.43,0.561-0.987,1.006-1.672l0.298-0.459c1.194-1.838,2.17-2.76,2.928-2.768
	C418.425,69.496,420.37,70.259,422.178,71.433z M390.658,60.319c-0.482,1.031-0.473,1.711,0.028,2.036
	c1.63,0.163,3.765,0.127,6.405-0.106c1.494,0.267,2.259,0.373,2.294,0.319c0.135-0.207-0.516-1.257-1.949-3.149l-0.719-0.602
	c-1.674-1.087-3.385-0.93-5.13,0.473C391.15,59.696,390.839,60.04,390.658,60.319z M415.177,73.668
	c-0.287,0.442-0.331,0.881-0.13,1.319l0.255,0.166c0.464,0.301,1.854,0.326,4.168,0.075c0.835,0.145,1.357,0.055,1.567-0.27
	l0.166-0.256c-0.038-0.666-0.534-1.309-1.49-1.93c-1.259-0.817-2.56-0.76-3.905,0.173C415.522,73.22,415.312,73.461,415.177,73.668z
	"/>
<path d="M458.311,102.956c3.95,3.785,6.537,9.164,7.761,16.138c0.044,1.649-0.61,3.18-1.963,4.592
	c-2.659,2.777-7.831,4.963-15.514,6.558c-0.655-0.181-1.259-0.537-1.813-1.067c-1.279-1.225-3.234-4.125-5.867-8.699
	c-0.614-0.857-1.163-1.517-1.644-1.977l-0.477-0.457c-2.272-2.177-5.104-2.571-8.499-1.181c-0.591,0.192-1.359,0.677-2.305,1.452
	c-1.523,1.59-1.853,4.012-0.986,7.266c0.417,1.114,0.91,1.944,1.48,2.49l0.318,0.304c1.588,1.522,4.303,2.315,8.145,2.382
	c3.11,0.211,5.353,0.977,6.729,2.295l0.208,0.199c1.075,1.03,1.529,2.432,1.361,4.205c-1.052,3.56-2.8,6.616-5.245,9.167
	c-2.801,2.925-6.325,5.053-10.57,6.387c-2.342-0.132-4.087-0.748-5.235-1.848l-0.416-0.397c-1.612-1.545-2.286-4.021-2.023-7.428
	c0.313-1.189,0.877-2.448,1.696-3.775c0.037-0.039,0.039-0.074,0.007-0.105c-4.48-1.258-7.95-3.065-10.411-5.422
	c-5.726-5.486-5.671-13.802,0.164-24.947c1.203-1.957,2.41-3.567,3.622-4.832l0.724-0.756c5.678-5.926,14.176-8.339,25.495-7.24
	C449.356,97.017,454.443,99.249,458.311,102.956z M424.095,103.67l-0.535,0.558c-0.244,0.256-0.32,0.473-0.226,0.652
	c0.193,0.188,1.706-0.298,4.535-1.457c2.644-0.917,5.3-1.431,7.965-1.54c0.297-0.162,2.181-0.156,5.655,0.018
	c3.495,0.508,6.018,1.154,7.564,1.937c1.819,0.775,4.102,2.062,6.847,3.859l0.503,0.013c0.334-0.349-0.339-1.448-2.02-3.297
	l-0.099-0.093c-4.008-3.839-10.398-5.493-19.174-4.958C429.775,100.14,426.103,101.575,424.095,103.67z M425.452,130.186
	l-0.045,0.047c-0.356,0.372-0.039,1.092,0.951,2.161c0.109,0.164,0.221,0.3,0.335,0.409c1.947,1.866,4.862,3.053,8.749,3.563
	c1.883,0.496,3.094,0.464,3.629-0.094l0.145-0.151c0.274-0.287,0.222-0.688-0.16-1.202c-0.465-0.445-2.379-0.991-5.74-1.639
	c-1.562-0.262-4.016-1.296-7.36-3.103C425.649,130.151,425.482,130.154,425.452,130.186z"/>
</svg>
