<?xml version="1.0" encoding="utf-8"?>
<!-- Generator: Adobe Illustrator 15.1.0, SVG Export Plug-In . SVG Version: 6.00 Build 0)  -->
<!DOCTYPE svg PUBLIC "-//W3C//DTD SVG 1.1//EN" "http://www.w3.org/Graphics/SVG/1.1/DTD/svg11.dtd">
<svg version="1.1" xmlns="http://www.w3.org/2000/svg" xmlns:xlink="http://www.w3.org/1999/xlink" x="0px" y="0px" width="500px"
	 height="446.5px" viewBox="0 0 500 446.5" enable-background="new 0 0 500 446.5" xml:space="preserve">
<g id="레이어_2">
	<rect x="0" fill="#FFFFFF" width="500" height="446.5"/>
</g>
<g id="레이어_1">
	<g>
		<rect x="87.575" y="379.75" fill="#020202" width="39.68" height="19.383"/>
		<rect x="174.295" y="361.709" fill="#020202" width="39.681" height="37.424"/>
		<rect x="261.014" y="340.934" fill="#020202" width="39.681" height="58.199"/>
		<rect x="347.735" y="306.488" fill="#020202" width="39.681" height="92.645"/>
		<rect x="434.452" y="267.93" fill="#020202" width="39.683" height="131.203"/>
		<polygon fill="#020202" points="457.954,176.65 389.328,272.572 297.626,243.475 235.496,323.303 142.918,290.428 88.11,381.902 
			149.659,311.846 240.82,346.084 305.412,267.005 398.314,294.201 472.884,181.364 477.467,210.769 492.466,208.931 
			484.967,151.96 419.976,171.808 426.226,186.511 		"/>
	</g>
	<g>
		<path fill="none" stroke="#040000" stroke-width="1.5" stroke-miterlimit="10" d="M227.824,107.011
			c21.474,7.604,31.244,14.332,31.244,14.332c3.219,7.722-5.019,6.694-5.019,6.694c-8.23-5.684-18.767-10.479-30.271-14.507"/>
		<path fill="none" stroke="#040000" stroke-width="1.5" stroke-miterlimit="10" d="M223.778,113.529"/>
		<path fill="none" stroke="#040000" stroke-width="1.5" stroke-miterlimit="10" d="M210.525,109.32
			c-1.53-0.439-3.067-0.869-4.609-1.287"/>
		<path fill="none" stroke="#030000" stroke-width="1.5" stroke-miterlimit="10" d="M205.916,108.034
			c-39.32-10.659-81.741-13.909-81.741-13.909c-50.409-3.762-92.921,3.178-92.921,3.178c-24.49,5.005-16.316-2.834-16.316-2.834
			c46.858-8.737,71.459-8.683,71.459-8.683c57.933,0.509,99.674,8.477,127.586,16.743"/>
		<path fill="none" stroke="#040000" stroke-width="1.5" stroke-miterlimit="10" d="M56.751,88.035
			c-3.855,1.65,0.828,6.815,0.828,6.815l8.496-1.032c4.451-5.121,0.171-6.938,0.171-6.938L56.751,88.035z"/>
		<path fill="none" stroke="#040000" stroke-width="1.5" stroke-miterlimit="10" d="M76.002,71.661
			c-2.89,1.502-6.071,2.146-9.266,2.612c-0.91,0.132-2.063,0.05-2.925,0.295c-1.352,0.384-2.466,2.174-2.949,3.404
			c-0.809,2.064-0.128,4.438,0.832,6.33c0.23,0.452,1.313,2.821,1.943,2.895c12.342,1.458,16.212-18.855,16.215-18.872
			C79.583,69.741,77.124,71.077,76.002,71.661z"/>
		<path fill="none" stroke="#040000" stroke-width="1.5" stroke-miterlimit="10" d="M57.563,87.935
			c-9.472-1.278-4.269-13.5-4.269-13.5c2.079-1.964-2.606-3.961-2.606-3.961c9.161-5.202,13.519,4.009,13.519,4.009"/>
		<path fill="none" stroke="#040000" stroke-width="1.5" stroke-miterlimit="10" d="M71.539,80.11
			c-0.116,2.961-6.013,6.858-6.013,6.858"/>
		<path fill="none" stroke="#040000" stroke-width="1.5" stroke-miterlimit="10" d="M63.637,87.197
			c-1.269-4.843,1.155-6.268,1.155-6.268"/>
		<path fill="none" stroke="#040000" stroke-width="1.5" stroke-miterlimit="10" d="M57.947,78.221
			c-3.255,4.938,3.924,9.192,3.924,9.192"/>
		<path fill="none" stroke="#040000" stroke-width="1.5" stroke-miterlimit="10" d="M54.17,81.65
			c1.359,5.879,7.145,5.395,7.145,5.395"/>
		<path fill="none" stroke="#040000" stroke-width="1.5" stroke-miterlimit="10" d="M57.578,94.851
			C1.702,109.324,7.473,149.886,7.473,149.886c8.371,43.862,64.123,34.044,64.123,34.044c35.311-2.77,34.251-44.477,34.251-44.477
			c-2.964-36.912-39.772-45.635-39.772-45.635"/>
		<path fill="none" stroke="#040000" stroke-width="1.5" stroke-miterlimit="10" d="M81.083,117.18
			c-2.524-8.243-13.773-17.159-13.773-17.159"/>
		<path fill="none" stroke="#040000" stroke-width="1.5" stroke-miterlimit="10" d="M39.478,112.819
			c2.122-7.574,17.083-11.493,17.083-11.493"/>
		<path fill="none" stroke="#040000" stroke-width="1.5" stroke-miterlimit="10" d="M67.371,118.846
			c1.367-5.675-3.347-13.718-3.347-13.718"/>
		<path fill="none" stroke="#040000" stroke-width="1.5" stroke-miterlimit="10" d="M55.68,113.204
			c-1.821-3.982,1.444-7.238,1.444-7.238"/>
		<path fill="none" stroke="#040000" stroke-width="1.5" stroke-miterlimit="10" d="M192.916,150.744
			c-22.908,9.693-51.094,1.833-51.094,1.833l0.517,4.248c20.847,9.635,51.176-1.147,51.176-1.147L192.916,150.744z"/>
		<path fill="none" stroke="#040000" stroke-width="1.5" stroke-miterlimit="10" d="M177.395,159.694l2.562,21.081l3.02,2.93
			l14.437,18.654c19.454,25.526,43.139,43.061,43.139,43.061c-16.997,21.839-29.085,28.76-29.085,28.76l-32.734-31.517
			c-26.107-24.971-36.297-48.327-36.297-48.327c-6.809-26.808-0.096-37.511-0.096-37.511"/>
		<path fill="none" stroke="#040000" stroke-width="1.5" stroke-miterlimit="10" d="M173.192,160.555c0,0-0.019,0.89,1.199,9.87
			c0.021,0.169,0.046,0.336,0.071,0.5c1.308,8.529,5.495,9.852,5.495,9.852"/>
		<path fill="none" stroke="#040000" stroke-width="1.5" stroke-miterlimit="10" d="M139.444,175.196
			c18.041,0.274,16.47-14.949,16.47-14.949"/>
		<path fill="none" stroke="#040000" stroke-width="1.5" stroke-miterlimit="10" d="M164.745,188.076"/>
		<path fill="none" stroke="#040000" stroke-width="1.5" stroke-miterlimit="10" d="M156.368,217.212l-11.504,43.004
			c7.812-2.472,32.064,7.26,32.064,7.26l5.398-21.353"/>
		<path fill="none" stroke="#040000" stroke-width="1.5" stroke-miterlimit="10" d="M182.612,245"/>
		<path fill="none" stroke="#040000" stroke-width="1.5" stroke-miterlimit="10" d="M194.379,198.445l5.496-21.738
			c1.577-14.136-6.359-21.03-6.359-21.03"/>
		<path fill="none" stroke="#040000" stroke-width="1.5" stroke-miterlimit="10" d="M187.579,157.441
			c0.862,13.771,12.501,15.349,12.501,15.349"/>
		<path fill="none" stroke="#040000" stroke-width="1.5" stroke-miterlimit="10" d="M144.862,260.217c0,0,0,0-2.869-0.664
			c-2.869-0.667-4.64,14.001-4.64,14.001l35.282,8.644c6.133-3.788,7.847-12.616,7.847-12.616l-3.553-2.104"/>
		<path fill="none" stroke="#040000" stroke-width="1.5" stroke-miterlimit="10" d="M211.466,274.181
			c1.501,8.184,8.423,10.894,8.423,10.894c5.581,2.111,7.927,0.558,7.927,0.558c10.198-5.804,26.1-27.259,27.582-31.749
			c0.186-0.562,0.135-1.153-0.1-1.76c-1.631-4.242-12.131-9.176-12.131-9.176l-2.615,2.473"/>
		<g>
			<g>
				<path fill="none" stroke="#040000" stroke-width="1.5" stroke-miterlimit="10" d="M141.254,178.174
					c-0.058-0.789-0.057-1.212-0.057-1.212"/>
				<path fill="none" stroke="#040000" stroke-width="1.5" stroke-miterlimit="10" stroke-dasharray="3.0167,3.0167" d="
					M212.058,270.913c-39.472-38.757-51.096-53.472-51.096-53.472c-14.693-15.362-18.465-30.192-19.431-36.839"/>
				<path fill="none" stroke="#040000" stroke-width="1.5" stroke-miterlimit="10" d="M213.804,272.626
					c-0.291-0.287-0.581-0.569-0.869-0.853"/>
			</g>
		</g>
		<g>
			<path fill="none" d="M182.976,183.706"/>
		</g>
		<g>
			<g>
				<path fill="none" stroke="#040000" stroke-width="1.5" stroke-miterlimit="10" d="M237.789,246.957
					c0.599,0.515,0.922,0.789,0.922,0.789"/>
				<path fill="none" stroke="#040000" stroke-width="1.5" stroke-miterlimit="10" stroke-dasharray="3.0831,3.0831" d="
					M184.096,186.643c6.363,18.064,41.543,49.714,51.805,58.677"/>
				<path fill="none" stroke="#040000" stroke-width="1.5" stroke-miterlimit="10" d="M183.414,184.271
					c0.083,0.383,0.182,0.775,0.298,1.175"/>
			</g>
		</g>
		<g>
			<g>
				<path fill="none" stroke="#040000" stroke-width="1.5" stroke-miterlimit="10" d="M174.542,161.202
					c-0.048-0.512-0.071-0.805-0.071-0.805"/>
				<path fill="none" stroke="#040000" stroke-width="1.5" stroke-miterlimit="10" stroke-dasharray="2.0854,2.0854" d="
					M178.422,178.426c-2.102-3.062-3.248-11.358-3.708-15.542"/>
				<path fill="none" stroke="#040000" stroke-width="1.5" stroke-miterlimit="10" d="M179.644,179.516
					c-0.234-0.086-0.46-0.233-0.676-0.438"/>
			</g>
		</g>
		<path fill="none" stroke="#040000" stroke-width="1.5" stroke-miterlimit="10" d="M188.715,157.137
			c1.471,12.112,11.336,14.542,11.336,14.542"/>
		<path fill="none" stroke="#040000" stroke-width="1.5" stroke-miterlimit="10" d="M140.33,174.418
			c15.491-1.221,14.12-14.204,14.12-14.204"/>
		
			<line fill="none" stroke="#040000" stroke-width="1.5" stroke-miterlimit="10" x1="179.4" y1="159.261" x2="178.839" y2="154.651"/>
		<path fill="none" stroke="#040000" stroke-width="1.5" stroke-miterlimit="10" d="M176.739,156.368
			c0.623-0.076,1.186,0.366,1.262,0.987c0.075,0.621-0.367,1.188-0.988,1.263c-0.619,0.076-1.185-0.368-1.26-0.99
			C175.677,157.008,176.118,156.443,176.739,156.368z"/>
		
			<line fill="none" stroke="#040000" stroke-width="1.5" stroke-miterlimit="10" stroke-dasharray="3" x1="174.921" y1="266.701" x2="180.489" y2="244.354"/>
		
			<line fill="none" stroke="#040000" stroke-width="1.5" stroke-miterlimit="10" stroke-dasharray="3" x1="192.666" y1="195.499" x2="197.566" y2="175.84"/>
		
			<line fill="none" stroke="#040000" stroke-width="1.5" stroke-miterlimit="10" stroke-dasharray="3" x1="146.844" y1="259.861" x2="157.588" y2="218.859"/>
		<path fill="none" stroke="#040000" stroke-width="1.5" stroke-miterlimit="10" stroke-dasharray="2" d="M143.406,157.294"/>
		<path fill="none" stroke="#040000" stroke-width="1.5" stroke-miterlimit="10" d="M140.362,175.353
			c-0.568-14.535,3.044-18.058,3.044-18.058"/>
		<path fill="none" stroke="#040000" stroke-width="1.5" stroke-miterlimit="10" d="M199.064,173.76"/>
		<path fill="none" stroke="#040000" stroke-width="1.5" stroke-miterlimit="10" d="M199.15,171.382
			c-0.218-8.88-6.361-15.46-6.361-15.46"/>
		<path fill="none" stroke="#040000" stroke-width="1.5" stroke-miterlimit="10" d="M151.76,170.908"/>
		<path fill="none" stroke="#040000" stroke-width="1.5" stroke-miterlimit="10" d="M175.139,280.163l13.397,7.706
			c8.711-0.298,5.103,9.649,5.103,9.649c-12.163,9.465-48.928-11.423-48.928-11.423c-2.504-2.865,0.784-10.549,0.784-10.549"/>
		<path fill="none" stroke="#040000" stroke-width="1.5" stroke-miterlimit="10" d="M180.299,299.65
			c0.937-9.744,8.235-11.781,8.235-11.781"/>
		<path fill="none" stroke="#040000" stroke-width="1.5" stroke-miterlimit="10" d="M143.653,282.421l-0.553,5.011l1.388,1.861
			c39.496,18.146,45.764,12.693,45.764,12.693l2.481-3.846"/>
		<path fill="none" stroke="#040000" stroke-width="1.5" stroke-miterlimit="10" d="M253.271,287.487
			c11.655-6.355,32.214-34.852,32.214-34.852"/>
		<path fill="none" stroke="#040000" stroke-width="1.5" stroke-miterlimit="10" d="M239.292,275.688
			c10.635,12.34,16.61,12.616,16.61,12.616c19.711-12.03,29.831-33.063,29.831-33.063c-1.877-26.925-19.375-7.127-19.375-7.127
			c1.542,5.389,16.067,8.63,16.067,8.63"/>
		<polyline fill="none" stroke="#040000" stroke-width="1.5" stroke-miterlimit="10" points="254.477,271.871 274.218,254.15 
			263.03,249.854 269.71,258.482 258.955,251.979 265.518,261.528 255.594,253.734 266.359,248.115 		"/>
		<polyline fill="none" stroke="#040000" stroke-width="1.5" stroke-miterlimit="10" points="246.738,266.938 254.477,271.871 
			249.96,262.675 258.42,266.765 252.864,258.471 261.636,264.535 255.594,253.734 		"/>
		<polyline fill="none" stroke="#040000" stroke-width="1.5" stroke-miterlimit="10" points="248.017,265.287 256.757,269.25 
			251.449,260.576 259.418,265.592 254.438,256.408 262.978,262.534 257.629,252.673 266.991,259.574 261.252,250.779 
			271.948,255.486 		"/>
		<path fill="none" stroke="#040000" stroke-width="1.5" stroke-miterlimit="10" d="M169,281.307l-0.228,4.274l7.435-4.803
			l-3.178,7.805l8.086-4.98l-2.737,8.326c-0.376-2.076,6.046-6.424,6.047-6.422l-8.888,4.958l2.603-8.574l-6.937,5.224l2.109-7.663
			l-6.415,4.963l11.48,7.515"/>
		
			<line fill="none" stroke="#040000" stroke-width="1.5" stroke-miterlimit="10" x1="165.969" y1="280.563" x2="166.898" y2="284.413"/>
		<path fill="none" stroke="#020202" stroke-width="1.5" stroke-miterlimit="10" d="M178.944,34.294
			c-4.405-14.831-19.79-11.938-19.79-11.938c-13.725,6.449-9.561,21.592-9.561,21.592c-0.322,13.697-7.342,17.123-7.342,17.123
			c-19.57,12.065-33.245-8.375-33.245-8.375"/>
		<path fill="none" stroke="#040000" stroke-width="1.5" stroke-miterlimit="10" d="M213.571,118.391
			c5.174,7.185,14.235,5.898,14.235,5.898c-2.719-2.389-5.311-4.9-7.731-7.577"/>
		<path fill="none" stroke="#040000" stroke-width="1.5" stroke-miterlimit="10" d="M179.173,35.461
			c-0.012-0.007-18.423-9.765-29.58,8.487"/>
		<path fill="none" stroke="#040000" stroke-width="1.5" stroke-miterlimit="10" d="M113.99,55.58
			c-8.228-7.803-4.53-18.817-4.53-18.817c10.565,20.91,27.06,2.346,27.06,2.346"/>
		<path fill="none" stroke="#020202" stroke-width="1.5" stroke-miterlimit="10" d="M198.2,98.461
			c-4.302-6.065-6.853-31.528-6.853-31.528c2.796-27.656-12.173-31.471-12.173-31.471"/>
		<path fill="none" stroke="#030000" stroke-width="1.5" stroke-miterlimit="10" d="M190.958,96.615
			c-3.602-3.712-5.52-14.458-5.52-14.458"/>
		<path fill="none" stroke="#040000" stroke-width="1.5" stroke-miterlimit="10" d="M213.609,118.62c0,0-0.627-0.803,0.061,2.95
			c0.689,3.752,4.858,6.246,4.858,6.246c-2.013-0.175-4.128-0.24-6.034-0.967c-2.208-0.842-3.008-2.075-4.304-4.006"/>
		<path fill="none" stroke="#040000" stroke-width="1.5" stroke-miterlimit="10" d="M205.416,131.679
			c8.512,2.603,8.435-2.307,8.435-2.307c-4.84,0.075-5.746-5.905-5.746-5.905"/>
		<path fill="none" stroke="#040000" stroke-width="1.5" stroke-miterlimit="10" d="M129.39,73.691"/>
		<path fill="none" stroke="#030000" stroke-width="1.5" stroke-miterlimit="10" d="M138.496,70.922
			c6.026,16.938,28.508,20.547,28.508,20.547c26.971-5.306,24.343-24.537,24.343-24.537"/>
		<path fill="none" stroke="#030000" stroke-width="1.5" stroke-miterlimit="10" d="M181.17,94.551
			c-1.602-0.494-1.305-8.083-1.305-8.083"/>
		<path fill="none" stroke="#040000" stroke-width="1.5" stroke-miterlimit="10" d="M194.067,116.907"/>
		<path fill="none" stroke="#040000" stroke-width="1.5" stroke-miterlimit="10" d="M182.912,101.198"/>
		<path fill="none" stroke="#040000" stroke-width="1.5" stroke-miterlimit="10" d="M119.572,46.4
			c0.162-49.161,44.322-39.681,44.322-39.681"/>
		<path fill="none" stroke="#020202" stroke-width="1.5" stroke-miterlimit="10" d="M119.344,87.196
			c1.594-11.193-0.864-25.675-0.864-25.675"/>
		<path fill="none" stroke="#020202" stroke-width="1.5" stroke-miterlimit="10" d="M122.9,87.421
			c2.075-6.382-1.353-24.315-1.353-24.315"/>
		<path fill="none" stroke="#040000" stroke-width="1.5" stroke-miterlimit="10" d="M113.361,109.649
			c-6.041,1.954-6.152-4.678-6.152-4.678c8.844,1.001,9.48-11.333,9.48-11.333"/>
		<path fill="none" stroke="#020202" stroke-width="1.5" stroke-miterlimit="10" d="M127.796,64.768
			c1.878,12.863,1.998,20.646,1.967,23.15"/>
		<path fill="none" stroke="#040000" stroke-width="1.5" stroke-miterlimit="10" d="M128.557,86.742"/>
		<path fill="none" stroke="#040000" stroke-width="1.5" stroke-miterlimit="10" d="M127.599,94.425
			c-4.682,32.312-21.188,17.985-21.188,17.985c10.347,1.53,14.168-18.536,14.168-18.536"/>
		<path fill="none" stroke="#020202" stroke-width="1.5" stroke-miterlimit="10" d="M134.404,64.37
			c0.729,2.873,0.96,3.114,1.007,4.92"/>
		<path fill="none" stroke="#040000" stroke-width="1.5" stroke-miterlimit="10" d="M134.375,72.004"/>
		<path fill="none" stroke="#040000" stroke-width="1.5" stroke-miterlimit="10" d="M134.953,77.337"/>
		<path fill="none" stroke="#030000" stroke-width="1.5" stroke-miterlimit="10" d="M134.666,78.785
			c-0.647,3.041-1.521,7.008-1.702,8.938"/>
		<path fill="none" stroke="#040000" stroke-width="1.5" stroke-miterlimit="10" d="M131.888,94.848
			c-6.784,29.516-15.89,27.926-15.89,27.926c10.538,3.048,14.612-7.911,14.612-7.911"/>
		<path fill="none" stroke="#030000" stroke-width="1.5" stroke-miterlimit="10" d="M140.674,88.68
			c2.411-1.688,0.707-11.226,0.707-11.226"/>
		<path fill="none" stroke="#040000" stroke-width="1.5" stroke-miterlimit="10" d="M120.501,113.014
			c0.783,4.265-4.993,5.725-4.993,5.725c1.716,1.199,6.888-0.005,6.888-0.005"/>
		<path fill="none" stroke="#040000" stroke-width="1.5" stroke-miterlimit="10" d="M132.887,87.09"/>
		<path fill="none" stroke="#020202" stroke-width="1.5" stroke-miterlimit="10" d="M133.13,64.634"/>
		<path fill="none" stroke="#030000" stroke-width="1.5" stroke-miterlimit="10" d="M181.169,94.551"/>
		<path fill="none" stroke="#030000" stroke-width="1.5" stroke-miterlimit="10" d="M177.249,93.846
			c-1.118-1.871-1.446-5.358-1.446-5.358"/>
		
			<ellipse transform="matrix(0.9927 -0.1206 0.1206 0.9927 -7.9821 16.9274)" fill="none" stroke="#040000" stroke-width="1.5" stroke-miterlimit="10" cx="135.817" cy="74.39" rx="3.641" ry="4.953"/>
		
			<ellipse transform="matrix(0.9927 -0.1206 0.1206 0.9927 -7.9825 16.9279)" fill="none" stroke="#040000" stroke-width="1.5" stroke-miterlimit="10" cx="135.817" cy="74.392" rx="2.839" ry="3.859"/>
		<path fill="none" stroke="#020202" stroke-width="1.5" stroke-miterlimit="10" d="M179.174,35.463c0,0-5.807-26.329-21.644-21.784
			c0,0-21.477,5.284-21.254,31.292c0,0-4.329,24.172-27.269,7.724"/>
		<path fill="none" stroke="#030000" stroke-width="1.5" stroke-miterlimit="10" d="M199.69,79.451
			c-1.283-10.726,2.924-17.05,2.924-17.05c5.376-13.888-1.855-33.736-1.855-33.736C186.074,4.574,175.181,24.9,175.181,24.9"/>
		<polyline fill="none" stroke="#040000" stroke-width="1.5" stroke-miterlimit="10" points="174.554,23.341 175.181,24.9 
			178.944,34.294 		"/>
		<path fill="none" stroke="#040000" stroke-width="1.5" stroke-miterlimit="10" d="M198.611,25.413
			c-14.675-19.846-26.775-6.221-26.775-6.221"/>
		<path fill="none" stroke="#040000" stroke-width="1.5" stroke-miterlimit="10" d="M125.621,46.207"/>
		<path fill="none" stroke="#040000" stroke-width="1.5" stroke-miterlimit="10" d="M125.621,46.207
			c0.038-0.164,0.074-0.328,0.114-0.492c5.291-23.061,17.723-31.694,17.723-31.694c20.605-16.845,38.625,0.522,38.625,0.522"/>
		<path fill="none" stroke="#020202" stroke-width="1.5" stroke-miterlimit="10" d="M206.646,100.773
			c-1.38-2.396-2.635-5.404-3.57-8.023c-1.455-4.075-2.146-8.493-3.229-12.679c-0.475-1.825-0.915-3.662-1.279-5.513
			c-0.427-2.17-0.952-6.306-0.952-6.306c-0.003-0.015-0.008-0.029-0.011-0.046c-1.815-6.755-0.666-10.271-0.666-10.271
			c3.6-7.844,1.146-14.927,1.146-14.927c-7.138-26.904-19.066-8.188-19.066-8.188"/>
		<path fill="none" stroke="#030000" stroke-width="1.5" stroke-miterlimit="10" d="M145.815,89.233
			c0.982-1.003,1.012-6.268,1.012-6.268"/>
		<line fill="none" stroke="#030000" stroke-width="1.5" stroke-miterlimit="10" x1="151.727" y1="85.862" x2="151.54" y2="89.91"/>
		<path fill="none" stroke="#020202" stroke-width="1.5" stroke-miterlimit="10" d="M145.685,57.214"/>
		<path fill="none" stroke="#040000" stroke-width="1.5" stroke-miterlimit="10" d="M134.573,79.215"/>
		<path fill="none" stroke="#040000" stroke-width="1.5" stroke-miterlimit="10" d="M135.814,78.225
			c0.095-2.234-0.136-5.733-0.29-7.677"/>
		<path fill="none" stroke="#040000" stroke-width="1.5" stroke-miterlimit="10" d="M162.095,78.233
			c2.867-5.302,7.808-0.812,7.808-0.812c4.341-4.468,5.75,0.428,5.75,0.428C168.742,81.859,162.095,78.233,162.095,78.233z"/>
		<path fill="none" stroke="#030000" stroke-width="1.5" stroke-miterlimit="10" d="M162.095,78.234
			c2.013,5.063,5.588,4.824,5.588,4.824c6.847,0.256,7.126-3.415,7.97-5.209"/>
		
			<ellipse transform="matrix(0.9993 -0.0382 0.0382 0.9993 -2.1952 7.0068)" fill="#040000" stroke="#020202" stroke-miterlimit="10" cx="182.487" cy="61.02" rx="2.342" ry="4.089"/>
		
			<ellipse transform="matrix(0.9993 -0.0379 0.0379 0.9993 -2.1895 6.923)" fill="none" stroke="#020202" stroke-width="1.5" stroke-miterlimit="10" cx="181.408" cy="61.181" rx="3.419" ry="5.008"/>
		<path fill="none" stroke="#020202" stroke-width="1.5" stroke-miterlimit="10" d="M150.99,55.44l2.07-1.269
			c5.024-2.916,10.664,1.349,10.664,1.349"/>
		<path fill="none" stroke="#020202" stroke-width="1.5" stroke-miterlimit="10" d="M188.047,53.772l-2.206-1.016
			c-5.332-2.306-10.432,2.594-10.432,2.594"/>
		<path fill="none" stroke="#040000" stroke-width="1.5" stroke-miterlimit="10" d="M171.643,70.489
			c2.614-2.229-1.376-3.427-1.376-3.427"/>
		<path fill="#040000" stroke="#020202" stroke-miterlimit="10" d="M158.077,58.344c1.292-0.049,2.41,1.742,2.497,3.997
			c0.086,2.258-0.893,4.125-2.185,4.175c-1.29,0.049-2.409-1.741-2.495-3.998C155.807,60.265,156.786,58.394,158.077,58.344z"/>
		
			<ellipse transform="matrix(0.9993 -0.038 0.038 0.9993 -2.2641 6.011)" fill="none" stroke="#020202" stroke-width="1.5" stroke-miterlimit="10" cx="157.132" cy="62.617" rx="3.421" ry="5.009"/>
		<path fill="none" stroke="#030000" stroke-width="1.5" stroke-miterlimit="10" d="M144.534,96.315
			c-11.758-1.628-13.695,10.057-13.695,10.057c-2.899,15.945,11.396,46.155,11.396,46.155"/>
		<path fill="none" stroke="#030000" stroke-width="1.5" stroke-miterlimit="10" d="M183.168,102.668
			c-0.907,11.639-6.299,14.083-6.299,14.083s-10.78-2.245-20.08-18.733"/>
		<path fill="none" stroke="#040000" stroke-width="1.5" stroke-miterlimit="10" d="M149.543,108.86
			c10.249,6.426,27.878,26.661,27.878,26.661"/>
		<path fill="none" stroke="#040000" stroke-width="1.5" stroke-miterlimit="10" d="M134.301,126.653
			c1.608,5.552,19.176,15.634,19.176,15.634c-1.612-11.594,10.127-21.625,10.127-21.625"/>
		<path fill="none" stroke="#040000" stroke-width="1.5" stroke-miterlimit="10" d="M205.916,108.033
			c-0.649,4.564,2.603,5.931,2.603,5.931s-20.678,12.738-32.984,23.107"/>
		<path fill="none" stroke="#040000" stroke-width="1.5" stroke-miterlimit="10" d="M153.295,138.697
			c14.873,12.306,22.972,12.252,22.972,12.252c8.957-3.498,37.875-33.635,37.875-33.635s7.793,0.621,9.835-3.429
			c0,0,4.229-9.845,5.022-6.578c0,0-0.926-4.189-3.109-3.377c0,0-0.703-0.7-5.066,5.25"/>
		<path fill="none" stroke="#040000" stroke-width="1.5" stroke-miterlimit="10" d="M210.191,108.921
			c0.741-4.083,6.188-8.182,6.188-8.182c2.811-3.472,4.071,0.639,4.071,0.639c2.622-2.314,3.204,1.323,3.204,1.323
			c3.203-1.823,3.251,1.719,3.251,1.719"/>
		<path fill="none" stroke="#040000" stroke-width="1.5" stroke-miterlimit="10" d="M219.036,107.744
			c2.188-3.117,4.617-5.042,4.617-5.042"/>
		<path fill="none" stroke="#040000" stroke-width="1.5" stroke-miterlimit="10" d="M215.936,106.489
			c2.325-5.045,4.922-5.257,4.787-5.337"/>
		<path fill="none" stroke="#040000" stroke-width="1.5" stroke-miterlimit="10" d="M224.922,113.934"/>
		
			<line fill="none" stroke="#040000" stroke-width="1.5" stroke-miterlimit="10" x1="193.988" y1="138.54" x2="192.162" y2="150.771"/>
		
			<line fill="none" stroke="#040000" stroke-width="1.5" stroke-miterlimit="10" x1="192.771" y1="124.29" x2="191.039" y2="118.05"/>
		<path fill="none" stroke="#040000" stroke-width="1.5" stroke-miterlimit="10" d="M209.168,178.337
			c-3.246-5.596-4.476,1.495-4.476,1.495c-1.892-5.381-3.135-1.27-3.135-1.27l0.271,7.035c2.681,5.254,3.479,0.34,3.479,0.34
			c3.196,5.441,4.747-0.577,4.747-0.577c2.666,5.252,3.718-0.707,3.718-0.707c4.385,4.794,5.122-0.623,5.122-0.623
			c0.078-1.063,0.096-2.07,0.06-3.024"/>
		<path fill="none" stroke="#040000" stroke-width="1.5" stroke-miterlimit="10" d="M218.142,175.735
			c-1.773-6.242-5.772-8.87-5.772-8.87c-0.458-8.468-4.804-26.646-6.902-34.752"/>
		<path fill="none" stroke="#040000" stroke-width="1.5" stroke-miterlimit="10" d="M210.053,185.361l-0.886-7.025
			c0.944-5.533,3.78-0.459,3.78-0.459l0.823,6.778"/>
		
			<line fill="none" stroke="#040000" stroke-width="1.5" stroke-miterlimit="10" x1="205.464" y1="186.192" x2="204.691" y2="179.831"/>
		<path fill="none" stroke="#040000" stroke-width="1.5" stroke-miterlimit="10" d="M216.978,183.568l-0.695-5.716
			c-2.494-6.718-3.29,0.4-3.29,0.4"/>
		<path fill="none" stroke="#040000" stroke-width="1.5" stroke-miterlimit="10" d="M222.67,176.506"/>
		<path fill="none" stroke="#040000" stroke-width="1.5" stroke-miterlimit="10" d="M221.218,176.172
			c-0.712-4.206-5.904-6.297-5.904-6.297"/>
		<path fill="none" stroke="#040000" stroke-width="1.5" stroke-miterlimit="10" d="M200.875,177.755
			c0.156-3.794,2.953-8.945,2.953-8.945s-12.386-30.289-9.471-31.477c13.501-5.51,13.768-8.532,13.768-8.532l-1.597-3.757"/>
		<path fill="none" stroke="#040000" stroke-width="1.5" stroke-miterlimit="10" d="M203.946,117.023
			c-2.274-5.339-5.137-10.829-5.137-10.829"/>
		<path fill="none" stroke="#040000" stroke-width="1.5" stroke-miterlimit="10" d="M220.437,134.15"/>
		<path fill="none" stroke="#040000" stroke-width="1.5" stroke-miterlimit="10" d="M168.512,125.93"/>
		<path fill="none" stroke="#040000" stroke-width="1.5" stroke-miterlimit="10" d="M156.843,141.504
			c-1.971,0.74-3.367,0.783-3.367,0.783"/>
		<path fill="none" stroke="#040000" stroke-width="1.5" stroke-miterlimit="10" d="M227.977,234.989l23.128,0.272
			c4.939-2.12-1.462-42.29-1.462-42.29l-53.591,1.314"/>
		
			<line fill="none" stroke="#040000" stroke-width="1.5" stroke-miterlimit="10" x1="199.57" y1="177.917" x2="202.256" y2="177.591"/>
		
			<line fill="none" stroke="#040000" stroke-width="1.5" stroke-miterlimit="10" x1="203.294" y1="177.465" x2="205.582" y2="177.192"/>
		
			<line fill="none" stroke="#040000" stroke-width="1.5" stroke-miterlimit="10" x1="208.128" y1="176.884" x2="209.612" y2="176.707"/>
		
			<line fill="none" stroke="#040000" stroke-width="1.5" stroke-miterlimit="10" x1="211.877" y1="176.432" x2="213.419" y2="176.249"/>
		<path fill="none" stroke="#040000" stroke-width="1.5" stroke-miterlimit="10" d="M215.21,176.032l0.563-0.068
			c0.855-0.145,1.643-0.212,2.373-0.216"/>
		<path fill="none" stroke="#040000" stroke-width="1.5" stroke-miterlimit="10" d="M218.146,175.749
			c6.939-0.036,8.39,5.705,8.39,5.705l1.463,12.049"/>
		<path fill="none" stroke="#040000" stroke-width="1.5" stroke-miterlimit="10" d="M216.648,180.85
			c2.539-0.974,5.058,2.522,5.058,2.522l1.432,10.249"/>
		<path fill="none" stroke="#040000" stroke-width="1.5" stroke-miterlimit="10" d="M199.022,194.212
			c-0.012-0.094-0.023-0.188-0.035-0.284c-1.337-10.76,2.316-11.073,2.316-11.073"/>
		<polyline fill="none" stroke="#040000" stroke-width="1.5" stroke-miterlimit="10" points="194.726,197.073 247.593,194.868 
			249.644,192.972 		"/>
		<path fill="none" stroke="#040000" stroke-width="1.5" stroke-miterlimit="10" d="M251.107,235.261
			c0.137-6.164-3.514-40.393-3.514-40.393"/>
		<polyline fill="none" stroke="#040000" stroke-width="1.5" stroke-miterlimit="10" points="220.273,228.256 217.561,205.935 
			242.202,205.899 		"/>
		<polyline fill="none" stroke="#040000" stroke-width="1.5" stroke-miterlimit="10" points="222.631,230.09 244.884,230.188 
			241.902,205.639 		"/>
		
			<line fill="none" stroke="#040000" stroke-width="1.5" stroke-miterlimit="10" x1="218.832" y1="212.578" x2="242.728" y2="212.448"/>
		
			<line fill="none" stroke="#040000" stroke-width="1.5" stroke-miterlimit="10" x1="232.388" y1="229.614" x2="230.316" y2="212.567"/>
		<path fill="none" stroke="#040000" stroke-width="1.5" stroke-miterlimit="10" d="M207.196,200.443"/>
		<path fill="none" stroke="#040000" stroke-width="1.5" stroke-miterlimit="10" d="M241.439,199.611"/>
		<path fill="none" stroke="#040000" stroke-width="1.5" stroke-miterlimit="10" d="M229.524,201.06"/>
		<path fill="none" stroke="#040000" stroke-width="1.5" stroke-miterlimit="10" d="M241.331,200.955"/>
		
			<line fill="none" stroke="#040000" stroke-width="1.5" stroke-miterlimit="10" x1="196.161" y1="200.743" x2="248.054" y2="199.283"/>
		<polyline fill="none" stroke="#040000" stroke-width="1.5" stroke-miterlimit="10" points="200.49,206.287 210.735,206.099 
			212.37,219.561 		"/>
		<path fill="none" stroke="#040000" stroke-width="1.5" stroke-miterlimit="10" d="M238.727,212.47"/>
	</g>
	<g>
		<path d="M242.27,58.14h0.508c1.081,0,1.797,0.423,2.148,1.27c0.762,1.283,1.621,3.535,2.578,6.758h0.039
			c0.593-2.103,1.147-3.776,1.665-5.02s0.936-1.865,1.255-1.865c0.618-0.254,1.394-0.381,2.324-0.381
			c1.348,0,2.952,0.241,4.814,0.723c0.898,0.566,2.067,2.819,3.506,6.758c1.101,3.373,2.197,9.229,3.291,17.568
			c0.286,1.953,0.43,3.265,0.43,3.936v0.586c0,1.256-0.339,2.074-1.016,2.451c-1.712,1.016-3.613,1.523-5.703,1.523
			c-1.582,0-2.61-0.368-3.086-1.104c-0.228-0.248-0.342-1.035-0.342-2.363c-0.28-3.203-0.603-5.781-0.967-7.734
			c-0.339-1.608-0.664-3.027-0.977-4.258h-0.078c-0.534,1.888-1.14,3.578-1.816,5.068c-0.554,1.224-1.257,2.376-2.109,3.457
			c-0.554,0.651-0.921,0.977-1.104,0.977h-0.039c-0.188,0-0.625-0.465-1.309-1.396c-1.106-1.478-2.051-3.125-2.832-4.941
			c-0.352-0.723-0.72-1.637-1.104-2.744h-0.078v0.039c-0.651,3.913-0.977,7.25-0.977,10.01c0.026,0.794,0.039,1.627,0.039,2.5
			c0,0.684-0.462,1.289-1.387,1.816c-0.781,0.254-1.585,0.381-2.412,0.381c-2.656,0-4.612-0.482-5.869-1.445
			c-0.508-0.377-0.762-1.263-0.762-2.656v-0.127c0-4.141,1.452-12.744,4.355-25.811c0.417-1.1,1.599-2.116,3.545-3.047
			C240.281,58.449,241.437,58.14,242.27,58.14z M234.574,79.058v0.039h0.049c0.339-1.419,1.253-5.7,2.744-12.842
			c0.554-1.758,1.37-2.969,2.451-3.633c1.237-0.58,1.855-1.045,1.855-1.396c0-0.338-0.267-0.537-0.801-0.596
			c-0.808,0-1.738,0.465-2.793,1.396c-0.521,0.58-0.872,1.367-1.055,2.363c0,0.391-0.589,3.617-1.768,9.678
			C234.802,76.782,234.574,78.446,234.574,79.058z M249.511,65.513c-0.446,0.931-0.408,1.286,0.112,1.064s0.856-0.443,1.006-0.664
			c0.208-0.15,0.589-0.853,1.143-2.109c0.183-0.495,0.892-0.96,2.129-1.396c0.241-0.104,0.349-0.299,0.322-0.586
			c-0.156-0.456-0.579-0.684-1.27-0.684c-0.859,0-1.66,0.69-2.402,2.07C250.304,63.813,249.957,64.582,249.511,65.513z"/>
		<path d="M281.196,58.862h0.547c1.198,0,2.578,0.902,4.141,2.705c1.855,2.689,2.783,4.082,2.783,4.18
			c4.817,7.598,7.227,15.033,7.227,22.305c0,1.315-0.153,2.09-0.459,2.324c-0.651,0.983-1.976,1.475-3.975,1.475h-0.635
			c-1.413,0-3.145-0.225-5.195-0.674c-0.547-0.273-1.013-0.866-1.396-1.777c-0.56-1.791-0.84-3.213-0.84-4.268
			c-0.046,0-0.104-0.648-0.176-1.943c-0.781,0.254-1.726,0.381-2.832,0.381h-0.371c0,2.461-0.579,4.857-1.738,7.188
			c-0.651,0.931-1.722,1.396-3.213,1.396h-0.674c-1.634,0-3.984-0.508-7.051-1.523c-0.762-0.462-1.143-1.195-1.143-2.197v-0.039
			c0-2.376,0.479-5.518,1.436-9.424c0.944-3.138,1.973-5.771,3.086-7.9c0.983-1.901,2.249-3.916,3.799-6.045
			c0.983-1.354,2.52-3.112,4.609-5.273C279.88,59.159,280.571,58.862,281.196,58.862z M269.321,83.442l0.039,0.176h0.049
			c0.091,0,0.54-1.354,1.348-4.063c0.918-2.734,1.96-5.199,3.125-7.393l1.484-2.451c0.853-1.334,1.839-2.686,2.959-4.053
			c1.146-1.432,2.073-2.318,2.783-2.656c0.481-0.326,0.723-0.651,0.723-0.977c-0.149-0.365-0.433-0.547-0.85-0.547
			c-1.146,0-3.187,2.155-6.123,6.465c-1.823,2.78-3.232,5.723-4.229,8.828C269.757,79.546,269.321,81.769,269.321,83.442z
			 M280.219,78.081v0.254l0.049,0.293c1.602-0.273,2.402-0.638,2.402-1.094c0.059-0.352,0.088-0.635,0.088-0.85
			c-0.117-1.465-0.358-2.197-0.723-2.197c-0.046-0.026-0.114-0.039-0.205-0.039c-0.599,0.352-1.038,1-1.318,1.943
			C280.317,77.049,280.219,77.612,280.219,78.081z M281.967,79.565v0.039c0,0.273,0.325,0.443,0.977,0.508
			c0.371,0,0.837-0.15,1.396-0.449c0.495-0.338,0.742-0.723,0.742-1.152c0-0.514-0.183-0.771-0.547-0.771
			c-0.228,0-0.498,0.202-0.811,0.605s-0.687,0.654-1.123,0.752S281.954,79.351,281.967,79.565z"/>
		<path d="M307.485,59.448c6.816,0,12.07,1.481,15.762,4.443c1.602,1.393,2.402,2.842,2.402,4.346v0.723
			c0,1.771-1.169,3.952-3.506,6.543c-1.634,1.537-3.154,2.621-4.561,3.252c-1.354,0.625-2.578,1.061-3.672,1.309v0.049
			c1.126,1.074,2.181,1.777,3.164,2.109c1.523,0.338,2.595,0.619,3.213,0.84c0.729,0.345,1.094,0.768,1.094,1.27
			c-0.208,1.471-0.589,2.725-1.143,3.76c-1.536,2.904-2.705,4.355-3.506,4.355h-0.127c-0.605-0.091-1.604-0.768-2.998-2.031
			c-1.712-1.751-3.22-3.555-4.521-5.41c-0.911-1.276-1.614-2.344-2.109-3.203h-0.039v0.039c0.872,5,1.338,7.79,1.396,8.369
			c-0.228,0.983-1.172,1.475-2.832,1.475h-0.381c-2.077,0-3.584-0.267-4.521-0.801c-0.215-0.163-0.384-0.573-0.508-1.23
			c-2.591-9.857-3.887-18.91-3.887-27.158v-0.088c0-0.541,0.479-1.09,1.436-1.65C299.438,59.884,302.719,59.448,307.485,59.448z
			 M298.49,63.931v0.166c0,0.449,0.183,0.788,0.547,1.016c0.104,0,0.413-0.211,0.928-0.635c0.69-0.592,1.155-0.889,1.396-0.889
			c1.27-0.254,2.112-0.381,2.529-0.381c0.032,0,0.049-0.013,0.049-0.039c0.026,0,0.039,0.013,0.039,0.039
			c0.222-0.052,0.488-0.078,0.801-0.078h0.039l0.088-0.049c0,0.033,0.013,0.049,0.039,0.049c0-0.033,0.017-0.049,0.049-0.049v0.049
			l0.078-0.049c0.853-0.026,1.39-0.052,1.611-0.078v0.039l0.078-0.039h0.889c0.032,0,0.049-0.016,0.049-0.049l0.078,0.049
			c0.032,0,0.049-0.016,0.049-0.049l0.078,0.049l0.088-0.049v0.049l0.088-0.049c0.026,0,0.039,0.016,0.039,0.049l0.088-0.049
			c0.026,0,0.068,0.016,0.127,0.049l0.205-0.049c0.026,0,0.039,0.016,0.039,0.049l0.215-0.049h1.182
			c0.032,0,0.049,0.016,0.049,0.049l0.078-0.049c0.052,0.033,0.11,0.049,0.176,0.049v-0.049l0.078,0.049h0.215
			c0.195,0,0.505,0.013,0.928,0.039v-0.039l0.088,0.039h0.42c0.098,0,0.225,0.013,0.381,0.039c0.052-0.026,0.095-0.039,0.127-0.039
			c0,0.026,0.013,0.039,0.039,0.039v-0.039l0.088,0.039h0.166c0.065,0,0.12-0.013,0.166-0.039c0.085,0.026,0.127,0.055,0.127,0.088
			l0.088-0.049h0.166l0.088,0.049v-0.049l0.088,0.049h0.293c0.026,0,0.039-0.016,0.039-0.049l0.088,0.049h0.039
			c0.032,0,0.049-0.016,0.049-0.049l0.078,0.049c0.241,0,0.423-0.029,0.547-0.088c0.059,0.026,0.101,0.039,0.127,0.039
			c-0.007-0.104-0.134-0.231-0.381-0.381c0,0.033-0.013,0.049-0.039,0.049c0-0.033-0.153-0.117-0.459-0.254v0.039
			c-1.907-0.677-4.541-1.016-7.9-1.016c-4.043,0-6.354,0.368-6.934,1.104C298.686,63.032,298.49,63.468,298.49,63.931z
			 M305.541,72.339c0,1.823,0.225,3.004,0.674,3.545c0.085,0,0.127,0.013,0.127,0.039c1.126-0.221,2.028-0.514,2.705-0.879
			c0.931-0.592,1.396-1.299,1.396-2.119c0-0.358-0.283-0.723-0.85-1.094c-1.048-0.28-1.878-0.42-2.49-0.42
			C306.062,71.411,305.541,71.72,305.541,72.339z M308.373,76.636c-0.02,0.117,0.127,0.195,0.439,0.234
			c0.149,0.013,0.276,0.013,0.381,0c0.774-0.078,1.403-0.501,1.885-1.27c0-0.013,0.032-0.091,0.098-0.234
			c0.02-0.28-0.056-0.414-0.225-0.4c-0.117,0.013-0.417,0.211-0.898,0.596c-0.671,0.436-1.179,0.736-1.523,0.898
			C308.439,76.538,308.386,76.597,308.373,76.636z"/>
		<path d="M332.299,58.813h0.928c3.093,0,5.022,0.508,5.791,1.523c0.137,0.241,0.205,0.524,0.205,0.85
			c-0.56,3.203-0.84,6.117-0.84,8.74v1.357c2.2-2.103,4.593-4.512,7.178-7.227c0.696-0.873,1.26-1.309,1.689-1.309h0.381
			c0.755,0,1.572,0.986,2.451,2.959c0.847,1.849,1.27,3.255,1.27,4.219v0.127c0,0.391-0.127,0.758-0.381,1.104
			c-0.273,0.709-0.781,1.566-1.523,2.568c-1.315,1.504-2.412,2.49-3.291,2.959c-0.586,0.397-1.022,0.651-1.309,0.762
			c0.599,2.044,1.286,3.861,2.061,5.449c0.749,1.478,1.68,3.014,2.793,4.609c0.898,1.152,1.348,1.758,1.348,1.816
			c0.032,0.045,0.049,0.114,0.049,0.205c0,0.879-0.931,1.696-2.793,2.451l-0.713,0.088c-0.645,0-1.504-0.41-2.578-1.23
			c-3.32-2.109-5.603-4.362-6.846-6.758h-0.039c0,0.983-0.228,3.252-0.684,6.807c-0.43,0.963-1.514,1.468-3.252,1.514
			c-1.641,0-2.751-1-3.33-2.998c-2.565-7.715-3.848-14.586-3.848-20.615v-0.508c0-2.715,0.267-5.264,0.801-7.646
			c0.273-0.612,0.896-1.104,1.865-1.475C330.573,58.927,331.447,58.813,332.299,58.813z M329.682,63.13v0.039
			c0,0.456,0.124,0.723,0.371,0.801c1.394-1.094,2.185-1.67,2.373-1.729c1.211-0.228,1.816-0.426,1.816-0.596v-0.127
			c0-0.248-0.791-0.43-2.373-0.547c-0.996,0-1.712,0.55-2.148,1.65L329.682,63.13z M338.94,72.583
			c0.013,0.664,0.354,0.968,1.021,0.913s1.577-0.626,2.729-1.714c2.773-2.734,4.167-4.281,4.18-4.639
			c0.085-0.104,0.127-0.248,0.127-0.43v-0.127c0-0.176-0.098-0.316-0.293-0.42h-0.166c-0.378,0-1.067,0.563-2.07,1.689
			c-1.667,1.81-2.773,2.84-3.32,3.091s-1.116,0.555-1.709,0.913C339.106,72.108,338.94,72.349,338.94,72.583z"/>
		<path d="M367.797,59.116c2.559,0,5.433,0.322,8.623,0.967c1.458,0.423,2.415,0.902,2.871,1.436
			c0.228,0.195,0.342,0.843,0.342,1.943c0.026,0.592,0.039,1.002,0.039,1.23c0,2.871-0.534,4.616-1.602,5.234
			c-1.282,0.931-3.806,1.396-7.568,1.396c-1.556,0-3.359-0.084-5.41-0.254c0.059,0.703,0.088,1.338,0.088,1.904
			c-0.026,0.241-0.039,0.381-0.039,0.42c2.37-0.449,4.114-0.674,5.234-0.674h0.674c0.989,0,1.484,0.407,1.484,1.221v0.127
			c0,0.879-0.352,1.92-1.055,3.125c-0.794,1.016-2.275,1.523-4.443,1.523h-0.625c-0.149,0-0.391-0.013-0.723-0.039
			c0,0.241,0.013,0.492,0.039,0.752c-0.026,0.684-0.052,1.123-0.078,1.318h0.039c3.802-0.736,6.745-1.104,8.828-1.104h0.508
			c1.608,0,2.734,0.283,3.379,0.85c2.227,1.771,3.34,3.359,3.34,4.766v0.557c0,1.237-0.901,2.503-2.705,3.799
			c-4.056,1.523-8.181,2.285-12.373,2.285c-2.981,0-5.97-0.381-8.965-1.143c-0.684-0.462-1.315-1.449-1.895-2.959
			c-0.625-1.413-1.331-4.229-2.119-8.447c-0.645-3.659-0.967-6.618-0.967-8.877v-0.713c0-3.027,0.677-5.013,2.031-5.957
			C358.168,60.679,362.517,59.116,367.797,59.116z M355.336,67.476v0.293c0,0.423,0.098,0.635,0.293,0.635
			c0.319-0.241,0.771-0.817,1.357-1.729c1.185-1.595,3.594-2.861,7.227-3.799c2.063-0.456,4.401-0.684,7.012-0.684
			c0-0.026,0.169-0.052,0.508-0.078v-0.088c-1.452-0.449-3.213-0.674-5.283-0.674c-3.854,0-7.106,1.139-9.756,3.418
			C355.788,65.728,355.336,66.629,355.336,67.476z M367.123,82.856c0,0.345,0.677,0.557,2.031,0.635
			c0.586-0.033,2.36-0.273,5.322-0.723c0.28-0.111,0.433-0.208,0.459-0.293v-0.088c-0.215-0.338-0.918-0.508-2.109-0.508h-2.363
			C368.237,82.056,367.123,82.381,367.123,82.856z"/>
		<path d="M390.766,58.94h1.143c4.44,0,9.72,0.521,15.84,1.563c1.152,0.684,1.729,1.686,1.729,3.008v0.166
			c0,1.295-0.335,2.676-1.006,4.141c-0.234,0.338-0.603,0.508-1.104,0.508c-2.181,0.28-4.489,0.518-6.924,0.713v0.049
			c0.169,1.979,0.254,3.737,0.254,5.273c0,4.74-0.537,10.303-1.611,16.689c-0.43,0.846-1.599,1.27-3.506,1.27h-1.016
			c-1.829,0-2.897-0.381-3.203-1.143c-0.931-7.455-1.396-13.932-1.396-19.434v-2.109c-0.696,0.026-1.23,0.039-1.602,0.039
			c-3.496,0-5.244-0.068-5.244-0.205c-0.515-0.456-0.823-0.993-0.928-1.611c-0.254-0.912-0.381-2.262-0.381-4.053
			c0-2.116,0.254-3.424,0.762-3.926c0.339-0.338,2.269-0.622,5.791-0.85C388.364,58.976,389.164,58.947,390.766,58.94z
			 M388.188,61.06c-0.527,0-1.091,0.026-1.689,0.078l-0.078-0.039c-1.106,0-1.868,0.465-2.285,1.396
			c-0.059,0.26-0.088,0.472-0.088,0.635c0.065,0.586,0.264,0.879,0.596,0.879h0.078c0.124,0,0.491-0.182,1.104-0.547
			c0.527-0.475,0.935-0.713,1.221-0.713v0.039c0.091-0.026,0.345-0.068,0.762-0.127V62.7c0.149-0.052,0.446-0.078,0.889-0.078
			c0-0.033,0.013-0.049,0.039-0.049v0.049l0.088-0.049h0.342l0.254-0.039c0.026,0,0.039,0.013,0.039,0.039l0.215-0.039h0.381
			l0.078-0.039v0.039l0.088-0.039c0.026,0,0.039,0.013,0.039,0.039l0.088-0.039h0.801c0.065,0,0.12-0.016,0.166-0.049
			c0.032,0,0.049,0.016,0.049,0.049c0.28-0.033,0.491-0.049,0.635-0.049h1.729c0.026,0,0.039,0.016,0.039,0.049l0.088-0.049h0.088
			c0.026,0,0.039,0.016,0.039,0.049l0.088-0.049h0.586c0.026,0,0.039,0.016,0.039,0.049l0.088-0.049
			c0.026,0,0.039,0.016,0.039,0.049c0.059-0.033,0.101-0.049,0.127-0.049c0.254,0.033,0.41,0.049,0.469,0.049v-0.049l0.088,0.049
			h0.42c0.026,0,0.039,0.013,0.039,0.039c0.026,0,0.039-0.013,0.039-0.039l0.176,0.039c0.169,0,0.817,0.029,1.943,0.088
			c0,0.026,0.013,0.039,0.039,0.039c0-0.026,0.013-0.039,0.039-0.039v0.039c0.032,0,0.049-0.013,0.049-0.039
			c0.931,0.091,1.396,0.146,1.396,0.166l0.078-0.039c0.202,0,0.4,0.026,0.596,0.078l0.078-0.039c0.144,0,0.215,0.029,0.215,0.088
			l0.088-0.049c0.026,0,0.039,0.016,0.039,0.049c0.026,0,0.039-0.016,0.039-0.049c1.055,0.117,1.761,0.202,2.119,0.254v-0.039
			l0.293,0.088v-0.049c0.065,0.026,0.247,0.055,0.547,0.088l0.088-0.039l0.078,0.039c0.052-0.026,0.11-0.039,0.176-0.039
			c0.026,0,0.039,0.013,0.039,0.039c0.286,0,0.485-0.098,0.596-0.293v-0.049c0-0.423-0.944-0.716-2.832-0.879
			c-3.965-0.566-6.78-0.85-8.447-0.85c0-0.026-0.017-0.039-0.049-0.039v0.039c-0.026,0-0.039-0.013-0.039-0.039
			c-1.126-0.033-1.973-0.049-2.539-0.049h-2.402l-0.088,0.049v-0.049C388.263,61.043,388.22,61.06,388.188,61.06z"/>
		<path d="M415.531,59.624h0.293c1.146,0,2.483,0.42,4.014,1.26c0.339,0.254,0.508,0.719,0.508,1.396
			c0.651,7.448,0.977,14.082,0.977,19.902v1.602c0,4.479-0.098,6.719-0.293,6.719c-0.137,0.326-0.518,0.635-1.143,0.928
			c-0.847,0.313-2.073,0.469-3.682,0.469c-2.474,0-3.994-0.313-4.561-0.938c-0.41-0.391-0.677-3.249-0.801-8.574V81.46
			c0-5.475,0.605-12.093,1.816-19.854C413.318,60.285,414.275,59.624,415.531,59.624z M413.94,63.823c0,0.241,0.14,0.67,0.42,1.289
			h0.127c1.726-1.113,2.588-2.005,2.588-2.676v-0.322c-0.13-0.43-0.384-0.645-0.762-0.645h-0.42c-0.723,0-1.351,0.553-1.885,1.66
			C414.008,63.156,413.986,63.387,413.94,63.823z"/>
		<path d="M443.471,58.56c1.341,0,2.568,0.313,3.682,0.938c0.671,0.443,1.12,1.048,1.348,1.816c0.228,1.185,0.481,4.225,0.762,9.121
			c0.11,1.738,0.183,4.004,0.215,6.797c0,5.82-0.508,10.397-1.523,13.73c-0.462,0.762-1.194,1.143-2.197,1.143h-0.254
			c-1.667,0-3.623-0.648-5.869-1.943c-0.905-0.599-1.696-1.4-2.373-2.402c-1.257-2.018-2.536-5.202-3.838-9.551h-0.049v0.166
			c0,3.301,0.271,6.764,0.811,10.391c0.032,0,0.059,0.228,0.078,0.684c0,0.898-0.491,1.504-1.475,1.816
			c-0.481,0.084-0.876,0.127-1.182,0.127c-3.587,0-5.798-0.394-6.631-1.182c-0.82-0.638-1.23-1.514-1.23-2.627
			c-0.703-6.51-1.055-12.086-1.055-16.729v-0.713c0-5.072,0.479-8.636,1.436-10.693c0.3-0.254,0.947-0.381,1.943-0.381
			c2.09,0,4.512,0.326,7.266,0.977c1.36,0.462,2.165,0.941,2.412,1.436c1.296,1.699,2.744,5.052,4.346,10.059h0.049v-0.127
			c0-1.816-0.241-4.551-0.723-8.203c-0.026-0.293-0.039-0.687-0.039-1.182v-0.332c0-1.328,0.183-2.119,0.547-2.373
			C441.046,58.813,442.228,58.56,443.471,58.56z M424.721,63.315c0.091,0.684,0.31,1.025,0.654,1.025
			c0.84-0.456,1.862-1.178,3.066-2.168c0.808-0.358,1.211-0.557,1.211-0.596c0-0.15-0.645-0.469-1.934-0.957l-0.537-0.068
			c-1.152,0-1.931,0.645-2.334,1.934C424.763,62.837,424.721,63.114,424.721,63.315z M440.785,62.007
			c0,0.319,0.117,0.557,0.352,0.713h0.176c0.319,0,0.999-0.446,2.041-1.338c0.449-0.202,0.674-0.42,0.674-0.654v-0.186
			c-0.228-0.326-0.671-0.488-1.328-0.488c-0.866,0-1.478,0.459-1.836,1.377C440.812,61.665,440.785,61.857,440.785,62.007z"/>
		<path d="M467.612,58.94c3.157,0,6.384,1.27,9.678,3.809c0.677,0.703,1.016,1.647,1.016,2.832c0,2.331-1.282,5.456-3.848,9.375
			c-0.345,0.195-0.739,0.293-1.182,0.293c-1.022,0-2.995-0.449-5.918-1.348c-0.599-0.117-1.091-0.176-1.475-0.176h-0.381
			c-1.816,0-3.154,1.016-4.014,3.047c-0.169,0.332-0.296,0.866-0.381,1.602c0,1.334,0.83,2.533,2.49,3.594
			c0.618,0.313,1.155,0.469,1.611,0.469h0.254c1.27,0,2.718-0.791,4.346-2.373c1.38-1.211,2.62-1.816,3.721-1.816h0.166
			c0.859,0,1.608,0.423,2.246,1.27c0.983,1.999,1.475,4.069,1.475,6.211c0,2.455-0.618,4.863-1.855,7.227
			c-1.028,0.924-2.002,1.387-2.92,1.387h-0.332c-1.289,0-2.559-0.801-3.809-2.402c-0.345-0.651-0.612-1.439-0.801-2.363
			c0-0.033-0.013-0.049-0.039-0.049c-2.37,1.328-4.538,1.992-6.504,1.992c-4.577,0-7.874-3.662-9.893-10.986
			c-0.28-1.361-0.42-2.572-0.42-3.633v-0.635c0-4.974,2.578-9.593,7.734-13.857C461.508,60.096,464.519,58.94,467.612,58.94z
			 M453.637,73.599v0.469c0,0.215,0.056,0.342,0.166,0.381c0.156,0,0.593-0.846,1.309-2.539c0.735-1.51,1.638-2.848,2.705-4.014
			c0.059-0.195,0.847-0.983,2.363-2.363c1.66-1.244,2.969-2.018,3.926-2.324c1.067-0.423,2.532-0.817,4.395-1.182l0.215-0.205
			c0-0.293-0.72-0.492-2.158-0.596h-0.078c-3.203,0-6.526,1.957-9.971,5.869C454.594,69.673,453.637,71.841,453.637,73.599z
			 M464.789,84.634v0.039c0,0.313,0.42,0.495,1.26,0.547c0.11,0.026,0.212,0.039,0.303,0.039c1.556,0,3.245-0.703,5.068-2.109
			c0.983-0.573,1.475-1.094,1.475-1.563V81.46c0-0.241-0.183-0.394-0.547-0.459c-0.371,0-1.387,0.563-3.047,1.689
			c-0.755,0.541-2.19,1.117-4.307,1.729C464.858,84.536,464.789,84.608,464.789,84.634z"/>
	</g>
</g>
</svg>
