<?xml version="1.0" encoding="utf-8"?>
<!-- Generator: Adobe Illustrator 15.1.0, SVG Export Plug-In . SVG Version: 6.00 Build 0)  -->
<!DOCTYPE svg PUBLIC "-//W3C//DTD SVG 1.1//EN" "http://www.w3.org/Graphics/SVG/1.1/DTD/svg11.dtd">
<svg version="1.1" xmlns="http://www.w3.org/2000/svg" xmlns:xlink="http://www.w3.org/1999/xlink" x="0px" y="0px" width="500px"
	 height="349.5px" viewBox="0 0 500 349.5" enable-background="new 0 0 500 349.5" xml:space="preserve">
<g id="레이어_2">
	<rect x="0" fill="#FFFFFF" width="500" height="349.5"/>
</g>
<g id="레이어_1">
	<g>
		<path fill="#231815" d="M29.975,189.014c2.825,0.631,5.188,1.766,7.087,3.404c1.899,1.641,3.207,3.643,3.923,6.007
			c0.618,2.089,0.757,4.611,0.414,7.571c-0.206,1.775-0.813,4.931-1.829,9.466l-1.173,5.252l11.159,2.492
			c0.303,0.067,0.422,0.246,0.358,0.534c-0.059,0.26-0.239,0.354-0.542,0.287l-40.151-8.973c-0.333-0.074-0.436-0.399-0.307-0.978
			l1.863-8.343c0.537-2.4,0.882-3.87,1.034-4.41c0.709-2.458,1.592-4.559,2.651-6.301C17.906,189.475,23.075,187.473,29.975,189.014
			z M29.813,189.838c-4.794-1.07-8.646-0.365-11.558,2.117c-2.911,2.48-5.056,6.796-6.429,12.943l-2.104,9.408l27.854,6.223
			l1.378-6.164c0.85-3.805,1.377-6.518,1.578-8.135c0.327-2.61,0.288-4.855-0.119-6.736c-0.52-2.385-1.702-4.432-3.552-6.139
			C35.016,191.648,32.666,190.477,29.813,189.838z"/>
		<path fill="#231815" d="M56.759,158.781c0.231,0.095,0.286,0.287,0.169,0.575l-10.617,25.935l10.98,4.495l10.314-25.202
			c0.118-0.288,0.292-0.385,0.522-0.291c0.289,0.117,0.374,0.32,0.256,0.609l-10.298,25.159c-0.225,0.547-0.596,0.715-1.114,0.502
			l-10.979-4.494l-1.663,4.063c-0.118,0.289-0.322,0.373-0.609,0.255c-0.229-0.094-0.287-0.285-0.169-0.574l1.665-4.063
			L19.363,175.17c-0.315-0.13-0.362-0.468-0.139-1.017l10.297-25.158c0.118-0.289,0.323-0.374,0.611-0.255
			c0.23,0.093,0.286,0.285,0.167,0.574l-10.315,25.201l25.547,10.458l10.616-25.936C56.268,158.748,56.471,158.663,56.759,158.781z"
			/>
		<path fill="#231815" d="M89.281,130.407c0.243,0.153,0.289,0.348,0.14,0.584l-0.141,0.165l-26.799,11.882
			c-0.34,0.155-0.562,0.199-0.661,0.137c-0.197-0.126-0.231-0.295-0.099-0.506l0.175-0.277c0.249-0.396,0.536-0.852,0.862-1.365
			c0.325-0.516,0.588-0.931,0.788-1.249c1.398-2.215,2.416-4,3.05-5.354c0.632-1.354,1.022-2.815,1.166-4.385
			c0.473-4.426-1.423-7.985-5.688-10.678c-3.712-2.344-7.429-2.699-11.149-1.064c-1.333,0.598-2.523,1.46-3.568,2.589
			c-1.045,1.13-2.148,2.618-3.313,4.465l-7.069,11.196l34.599,21.843c0.264,0.166,0.317,0.375,0.159,0.624
			c-0.142,0.225-0.344,0.253-0.608,0.087l-34.873-22.017c-0.292-0.183-0.278-0.525,0.039-1.025l7.38-11.691
			c2.577-4.082,5.504-6.597,8.783-7.547c3.278-0.95,6.636-0.34,10.072,1.83c3.596,2.27,5.598,5.145,6.005,8.623
			c0.409,3.479-0.809,7.47-3.648,11.97l-0.574,0.909c-0.167,0.263-0.323,0.513-0.474,0.75c-0.237,0.365-0.415,0.64-0.531,0.824
			l25.581-11.311c0.101-0.041,0.186-0.055,0.256-0.047C89.206,130.378,89.254,130.39,89.281,130.407z"/>
		<path fill="#231815" d="M86.538,82.412c0.229,0.209,0.238,0.43,0.029,0.659c-0.194,0.076-0.325,0.104-0.394,0.084l-0.232-0.022
			c-2.348-0.247-4.894,0.233-7.639,1.437c-3.025,1.328-5.788,3.36-8.287,6.095c-3.129,3.426-4.864,6.85-5.205,10.271
			c-0.342,3.42,0.627,6.17,2.902,8.25c3.886,3.549,8.955,2.78,15.204-2.309c2.694-2.304,4.627-3.935,5.796-4.892
			c1.977-1.61,3.741-2.698,5.291-3.265c1.55-0.566,3.104-0.708,4.66-0.426c1.556,0.282,2.955,0.99,4.195,2.125
			c2.321,2.122,3.364,4.846,3.129,8.173c-0.234,3.328-1.77,6.544-4.604,9.648c-2.438,2.668-5.119,4.541-8.044,5.623
			c-1.171,0.449-2.303,0.764-3.397,0.946c-0.394,0.062-0.908,0.118-1.546,0.169l-0.166-0.026c-0.157-0.06-0.258-0.087-0.3-0.085
			c-0.044,0.002-0.079-0.008-0.101-0.03c-0.186-0.167-0.183-0.355,0.007-0.562c0.212-0.142,0.364-0.214,0.452-0.219l0.196-0.011
			c2.058-0.103,4.156-0.684,6.297-1.745c2.138-1.062,4.121-2.592,5.948-4.592c2.667-2.92,4.124-5.945,4.37-9.073
			c0.245-3.129-0.688-5.658-2.802-7.589c-1.147-1.047-2.46-1.698-3.937-1.95c-1.477-0.251-2.955-0.073-4.437,0.534
			c-1.482,0.607-3.465,1.949-5.95,4.023c-1.379,1.188-2.77,2.363-4.171,3.529c-6.841,5.645-12.386,6.527-16.635,2.646
			c-2.55-2.327-3.639-5.262-3.27-8.805c0.406-3.719,2.354-7.488,5.841-11.304c1.427-1.563,2.978-2.901,4.646-4.013
			c1.669-1.111,3.404-1.961,5.208-2.55c1.041-0.354,2.166-0.616,3.37-0.78c1.511-0.223,2.512-0.257,3.004-0.104l0.167,0.026
			L86.538,82.412z"/>
		<path fill="#231815" d="M134.448,62.441c3.044,4.094,4.436,8.658,4.182,13.692c-0.159,3.18-0.992,6.182-2.501,9.008
			c-1.507,2.825-3.536,5.186-6.085,7.08c-2.249,1.672-4.728,2.854-7.432,3.547c-2.708,0.693-5.476,0.832-8.304,0.417
			c-2.831-0.416-5.463-1.348-7.896-2.794c-2.435-1.446-4.485-3.294-6.153-5.541c-1.67-2.248-2.856-4.757-3.559-7.529
			c-0.703-2.771-0.849-5.55-0.436-8.337c0.411-2.787,1.328-5.366,2.746-7.738c1.418-2.373,3.302-4.431,5.651-6.177
			c2.324-1.728,4.84-2.937,7.544-3.63c2.706-0.693,5.452-0.834,8.239-0.426C126.236,54.863,130.904,57.672,134.448,62.441z
			 M133.786,62.961c-1.687-2.27-3.662-4.091-5.927-5.466c-2.266-1.375-4.77-2.262-7.512-2.663
			c-5.533-0.805-10.588,0.494-15.167,3.897c-1.952,1.45-3.566,3.134-4.84,5.049c-1.276,1.916-2.211,4.042-2.803,6.38
			c-0.729,2.941-0.796,5.934-0.204,8.977c0.591,3.043,1.795,5.787,3.61,8.231c1.612,2.17,3.578,3.941,5.899,5.313
			c2.321,1.372,4.821,2.253,7.499,2.643c2.679,0.39,5.346,0.255,8.004-0.403c2.656-0.659,5.06-1.787,7.212-3.386
			c2.202-1.636,3.986-3.6,5.352-5.893c1.364-2.291,2.255-4.792,2.67-7.5c0.417-2.708,0.299-5.36-0.349-7.956
			C136.583,67.589,135.435,65.18,133.786,62.961z"/>
		<path fill="#231815" d="M181.647,62.999c0.155,0.338,0.119,0.561-0.108,0.666c-0.172,0.08-0.429,0.05-0.77-0.086l-45.867-23.263
			l16.828,36.558c0.13,0.282,0.055,0.489-0.228,0.62c-0.229,0.104-0.405,0.014-0.536-0.268l-17.282-37.541
			c-0.156-0.338-0.121-0.56,0.105-0.665l0.298-0.136l0.45,0.307l45.919,23.238l-16.835-36.574c-0.145-0.311-0.104-0.518,0.124-0.623
			c0.282-0.13,0.496-0.04,0.639,0.271L181.647,62.999z"/>
		<path fill="#231815" d="M226.65,52.026c0.074,0.327-0.029,0.525-0.32,0.591c-0.202-0.084-0.325-0.154-0.367-0.21l-9.227-10.938
			l-27.791,6.416l-3.427,13.902c-0.043,0.109-0.092,0.189-0.148,0.236c-0.058,0.046-0.102,0.073-0.134,0.081
			c-0.319,0.073-0.514-0.034-0.58-0.323v-0.204l3.368-13.48l-4.149,0.958c-0.304,0.07-0.49-0.047-0.561-0.35
			c-0.055-0.243,0.068-0.399,0.373-0.469l4.565-1.055l7.673-30.643c0.082-0.337,0.184-0.521,0.306-0.549
			c0.213-0.048,0.441,0.046,0.69,0.285l29.653,35.627L226.65,52.026z M216.134,40.746L196.571,17.17l-7.396,29.8L216.134,40.746z"/>
		<path fill="#231815" d="M258.647,50.938c0.014,0.311-0.137,0.474-0.446,0.486l-27.163,1.103c-0.594,0.024-0.898-0.244-0.921-0.804
			l-1.655-40.804c-0.015-0.311,0.127-0.472,0.422-0.483c0.265-0.011,0.405,0.139,0.417,0.45l1.657,40.802l27.208-1.104
			C258.477,50.572,258.637,50.69,258.647,50.938z"/>
		<path fill="#231815" d="M302.433,26.781c-0.399,2.459-1.532,4.531-3.397,6.216c-1.866,1.685-4.167,2.605-6.906,2.761
			c1.822,1.021,3.14,2.425,3.955,4.214c0.813,1.788,1.041,3.789,0.683,6.001c-0.533,3.289-1.937,5.672-4.211,7.148
			c-2.273,1.476-5.333,1.904-9.175,1.281l-7.884-1.278c-0.585-0.095-0.832-0.418-0.742-0.972l2.98-18.397l-4.333-0.702
			c-0.308-0.05-0.437-0.228-0.387-0.536c0.041-0.246,0.213-0.344,0.521-0.294l4.334,0.703l3.387-20.886
			c0.054-0.339,0.373-0.46,0.958-0.365l8.853,1.435c4.149,0.672,7.223,2.243,9.22,4.712C302.283,20.291,303,23.276,302.433,26.781z
			 M295.929,45.884c0.438-2.704,0.001-5-1.31-6.884c-1.313-1.884-3.402-3.06-6.276-3.526l-9.776-1.584l-2.981,18.397l6.764,1.097
			c1.762,0.285,3.243,0.438,4.444,0.46c1.2,0.021,2.289-0.142,3.264-0.489c1.582-0.564,2.88-1.481,3.896-2.752
			C294.964,49.332,295.624,47.759,295.929,45.884z M301.599,26.67c0.509-3.142-0.154-5.889-1.992-8.242
			c-1.836-2.354-4.545-3.82-8.125-4.4l-9.445-1.532L278.7,33.06l9.029,1.464c2.225,0.36,3.899,0.482,5.027,0.364
			c1.127-0.117,2.222-0.422,3.283-0.914c1.437-0.652,2.658-1.64,3.665-2.962C300.713,29.688,301.344,28.241,301.599,26.67z"/>
		<path fill="#231815" d="M333.685,67.898c-0.088,0.272-0.267,0.365-0.531,0.278l-0.194-0.095l-18.08-23.076
			c-0.231-0.293-0.33-0.496-0.292-0.608c0.071-0.224,0.228-0.297,0.465-0.22l0.312,0.102c0.444,0.145,0.956,0.313,1.534,0.501
			c0.579,0.188,1.046,0.342,1.402,0.459c2.491,0.813,4.471,1.362,5.938,1.646c1.468,0.283,2.98,0.302,4.537,0.058
			c4.407-0.624,7.396-3.332,8.962-8.128c1.364-4.173,0.798-7.863-1.698-11.071c-0.905-1.147-2.032-2.09-3.383-2.826
			c-1.352-0.736-3.063-1.444-5.14-2.123l-12.585-4.113l-12.712,38.892c-0.099,0.296-0.285,0.399-0.566,0.308
			c-0.252-0.083-0.329-0.272-0.232-0.568l12.813-39.203c0.107-0.326,0.441-0.397,1.004-0.213l13.144,4.295
			c4.587,1.5,7.742,3.723,9.466,6.669c1.723,2.947,1.955,6.351,0.691,10.214c-1.321,4.042-3.617,6.686-6.893,7.933
			c-3.272,1.248-7.438,1.044-12.499-0.609l-1.021-0.333c-0.297-0.097-0.576-0.189-0.844-0.275c-0.412-0.142-0.722-0.247-0.929-0.314
			l17.228,22.035c0.063,0.087,0.101,0.166,0.107,0.237C333.697,67.818,333.696,67.868,333.685,67.898z"/>
		<path fill="#231815" d="M366.357,85.659c-0.156,0.296-0.366,0.376-0.629,0.237c-0.097-0.197-0.143-0.331-0.139-0.4l0.213-14.307
			l-25.185-13.392L328.91,66.04c-0.103,0.056-0.191,0.082-0.267,0.081c-0.072-0.002-0.124-0.011-0.152-0.026
			c-0.292-0.155-0.366-0.363-0.228-0.625l0.134-0.153l11.388-7.964l-3.762-1.999c-0.275-0.147-0.34-0.358-0.193-0.632
			c0.117-0.22,0.313-0.257,0.591-0.11l4.137,2.201l25.896-18.092c0.284-0.202,0.479-0.273,0.591-0.214
			c0.19,0.102,0.304,0.325,0.333,0.667l-0.995,46.342L366.357,85.659z M365.823,70.248l0.704-30.628l-25.134,17.636L365.823,70.248z
			"/>
		<path fill="#231815" d="M394.965,109.307c-0.239,0.287-0.456,0.351-0.649,0.188c-0.146-0.121-0.229-0.364-0.252-0.729
			l1.199-51.416l-25.722,30.952c-0.197,0.24-0.419,0.259-0.656,0.06c-0.191-0.159-0.188-0.358,0.01-0.597l26.414-31.785
			c0.238-0.287,0.452-0.352,0.646-0.192l0.251,0.21l-0.083,0.538l-1.153,51.452l25.732-30.967c0.219-0.264,0.424-0.316,0.615-0.156
			c0.239,0.198,0.25,0.431,0.03,0.693L394.965,109.307z"/>
		<path fill="#231815" d="M437.934,128.459c-2.589,2.1-5.382,3.523-8.383,4.273c-3.002,0.75-6.082,0.784-9.242,0.1
			c-2.946-0.618-5.588-1.823-7.926-3.616c-1.804-1.384-3.823-3.454-6.062-6.211l-6.12-7.544c-0.373-0.46-0.342-0.867,0.095-1.219
			l31.558-25.602c0.267-0.215,0.586-0.095,0.959,0.365l5.68,7.001c1.767,2.176,3.179,4.167,4.241,5.971
			c1.063,1.804,1.825,3.582,2.284,5.335c1.032,3.894,0.926,7.729-0.319,11.506C443.451,122.598,441.198,125.81,437.934,128.459z
			 M437.403,127.806c2.951-2.395,5.043-5.276,6.278-8.648c1.232-3.371,1.476-6.879,0.725-10.524
			c-0.415-1.993-1.208-4.01-2.382-6.049c-1.173-2.04-2.714-4.234-4.618-6.583l-5.273-6.502l-31.305,25.396l6.719,8.282
			c1.825,2.251,3.579,4.042,5.258,5.371c1.679,1.327,3.646,2.342,5.898,3.045c3.176,0.998,6.403,1.171,9.684,0.517
			C431.662,131.457,434.67,130.024,437.403,127.806z"/>
		<path fill="#231815" d="M424.912,147.917c-0.264,0.165-0.479,0.115-0.643-0.149c-0.133-0.211-0.067-0.398,0.197-0.563
			l35.048-21.922c0.264-0.164,0.479-0.115,0.643,0.149c0.133,0.21,0.066,0.4-0.196,0.564L424.912,147.917z"/>
		<path fill="#231815" d="M444.198,185.691c-0.338,0.158-0.56,0.121-0.666-0.107c-0.079-0.171-0.05-0.428,0.085-0.768l23.223-45.89
			l-36.541,16.863c-0.283,0.13-0.49,0.053-0.62-0.23c-0.104-0.226-0.017-0.403,0.268-0.534l37.524-17.315
			c0.339-0.157,0.561-0.123,0.665,0.104l0.137,0.296l-0.307,0.452l-23.194,45.942l36.558-16.871c0.313-0.145,0.52-0.103,0.623,0.124
			c0.131,0.282,0.04,0.495-0.271,0.639L444.198,185.691z"/>
		<path fill="#231815" d="M467.793,226.633c-0.395,0.094-1.332-0.088-2.813-0.541c-1.069-0.324-2.233-0.789-3.493-1.388
			c-5.982-2.884-9.722-7.509-11.214-13.875c-0.633-2.699-0.716-5.438-0.249-8.218c0.468-2.78,1.454-5.387,2.961-7.817
			c3.129-5.052,7.511-8.235,13.145-9.556c2.727-0.639,5.491-0.729,8.301-0.266c2.808,0.461,5.416,1.434,7.823,2.916
			s4.421,3.361,6.041,5.637c1.617,2.274,2.755,4.807,3.409,7.597c0.591,2.517,0.732,4.969,0.43,7.36
			c-0.306,2.389-0.968,4.472-1.991,6.248l-0.151,0.179c-0.066,0.112-0.168,0.231-0.298,0.356c-0.031,0.008-0.073,0.033-0.125,0.078
			c-0.244,0.057-0.391-0.021-0.439-0.232l0.106-0.361l0.061-0.158c1.271-2.889,1.98-5.294,2.124-7.214
			c0.142-1.921-0.036-3.942-0.533-6.063c-1.13-4.82-3.596-8.672-7.395-11.557c-2.404-1.835-5.138-3.082-8.189-3.742
			c-3.058-0.658-6.05-0.645-8.979,0.043c-2.567,0.602-4.956,1.705-7.161,3.309c-2.207,1.604-4.025,3.564-5.459,5.884
			c-1.433,2.317-2.377,4.817-2.832,7.5c-0.455,2.681-0.382,5.31,0.224,7.888c0.916,3.912,2.771,7.188,5.563,9.827
			c2.793,2.64,6.293,4.41,10.505,5.31l-5.511-23.51c-0.07-0.304,0.038-0.49,0.328-0.558c0.257-0.06,0.422,0.062,0.492,0.364
			l5.604,23.922C468.16,226.354,468.067,226.568,467.793,226.633z"/>
	</g>
	<path fill="none" stroke="#020202" stroke-width="1.5" stroke-miterlimit="10" d="M306.154,144.902c0,0-13.324,22.3-34.623,10.626
		c0,0-7.591-3.238-8.666-17.67c0,0,3.577-16.198-11.248-22.262c0,0-16.388-2.226-20.233,13.657"/>
	<path fill="none" stroke="#020202" stroke-width="1.5" stroke-miterlimit="10" d="M199.375,219.835
		c-5.072,7.86-14.699,6.989-14.699,6.989c2.739-2.666,5.12-4.11,7.531-7.063c0,0,9.643-9.695,14.072-17.265
		c1.475-2.521,1.942-7.463,2.79-10.279c1.313-4.375,1.804-9.073,2.721-13.549c0.401-1.951,0.769-3.91,1.052-5.884
		c0.333-2.313,0.666-6.704,0.666-6.704c0.004-0.015,0.008-0.032,0.012-0.048c1.551-7.226,0.148-10.874,0.148-10.874
		c-4.218-8.08-2.012-15.682-2.012-15.682c6.083-28.768,19.675-9.665,19.675-9.665"/>
	<path fill="none" stroke="#040000" stroke-width="1.5" stroke-miterlimit="10" d="M262.865,137.859
		c-12.753-18.654-31.649-7.369-31.661-7.362"/>
	<path fill="none" stroke="#040000" stroke-width="1.5" stroke-miterlimit="10" d="M276.395,132.049c0,0,18.401,18.697,28.422-3.931
		c0,0,4.495,11.419-3.766,20.097"/>
	<path fill="none" stroke="#020202" stroke-width="1.5" stroke-miterlimit="10" d="M231.203,130.497c0,0-15.587,4.832-11.15,33.856
		c0,0-2.167,30.17-6.377,36.799"/>
	<path fill="none" stroke="#030000" stroke-width="1.5" stroke-miterlimit="10" d="M227.105,180.095c0,0-2.25,13.296-5.852,17.405"
		/>
	<path fill="none" stroke="#040000" stroke-width="1.5" stroke-miterlimit="10" d="M205.293,224.239
		c-1.264,2.108-2.04,3.452-4.325,4.459c-1.972,0.872-4.2,1.051-6.313,1.348c0,0,4.265-2.854,4.788-6.853
		c0.523-3.996-0.095-3.113-0.095-3.113"/>
	<path fill="none" stroke="#040000" stroke-width="1.5" stroke-miterlimit="10" d="M210.104,220.896c0,0-0.605,6.08-5.494,6.254
		c0,0,0.179,4.957,8.629,1.896"/>
	<path fill="none" stroke="#040000" stroke-width="1.5" stroke-miterlimit="10" d="M285.779,168.149"/>
	<path fill="none" stroke="#030000" stroke-width="1.5" stroke-miterlimit="10" d="M220.053,164.353c0,0-1.737,20.429,27,24.577
		c0,0,23.522-5.019,28.971-23.212"/>
	<path fill="none" stroke="#030000" stroke-width="1.5" stroke-miterlimit="10" d="M233.217,184.344
		c0.074,1.395,3.387,8.961-1.123,11.18"/>
	<path fill="none" stroke="#040000" stroke-width="1.5" stroke-miterlimit="10" d="M219.871,217.219"/>
	<path fill="none" stroke="#040000" stroke-width="1.5" stroke-miterlimit="10" d="M230.793,200.048"/>
	<path fill="none" stroke="#040000" stroke-width="1.5" stroke-miterlimit="10" d="M245.773,99.352c0,0,46.076-12.376,48.895,39.478
		"/>
	<path fill="none" stroke="#020202" stroke-width="1.5" stroke-miterlimit="10" d="M296.635,154.722c0,0,1.583,23.645,3.868,35.365"
		/>
	<path fill="none" stroke="#020202" stroke-width="1.5" stroke-miterlimit="10" d="M293.483,156.56c0,0,0.585,27.358,3.113,33.978"
		/>
	<path fill="none" stroke="#040000" stroke-width="1.5" stroke-miterlimit="10" d="M300.252,188.51c0,0,1.336,12.977,10.607,11.446
		c0,0,0.241,7.003-6.238,5.267"/>
	<path fill="none" stroke="#020202" stroke-width="1.5" stroke-miterlimit="10" d="M289.615,191.352
		c-0.165-2.64-3.927-19.033-2.633-32.701"/>
	<path fill="none" stroke="#040000" stroke-width="1.5" stroke-miterlimit="10" d="M287.359,181.874"/>
	<path fill="none" stroke="#040000" stroke-width="1.5" stroke-miterlimit="10" d="M296.158,188.967c0,0,5.111,20.963,15.943,18.79
		c0,0-15.974,16.147-22.65-17.69"/>
	<path fill="none" stroke="#020202" stroke-width="1.5" stroke-miterlimit="10" d="M279.189,163.83
		c-0.048-1.908,0.185-2.174,0.797-5.243"/>
	<path fill="none" stroke="#040000" stroke-width="1.5" stroke-miterlimit="10" d="M280.427,166.637"/>
	<path fill="none" stroke="#040000" stroke-width="1.5" stroke-miterlimit="10" d="M280.104,172.296"/>
	<path fill="none" stroke="#030000" stroke-width="1.5" stroke-miterlimit="10" d="M284.907,192.473
		c-0.295-2.027-3.571-15.494-4.422-18.667"/>
	<path fill="none" stroke="#040000" stroke-width="1.5" stroke-miterlimit="10" d="M286.706,211.65c0,0,4.887,11.342,15.838,7.559
		c0,0-9.081,2.757-17.824-28.016"/>
	<path fill="none" stroke="#040000" stroke-width="1.5" stroke-miterlimit="10" d="M295.975,216.836c0,0,6.725,1.547,8.914-0.932
		c0,0-4.535,3.472-3.627-4.621"/>
	<path fill="none" stroke="#040000" stroke-width="1.5" stroke-miterlimit="10" d="M284.565,190.536"/>
	<path fill="none" stroke="#020202" stroke-width="1.5" stroke-miterlimit="10" d="M281.346,158.795"/>
	<path fill="none" stroke="#030000" stroke-width="1.5" stroke-miterlimit="10" d="M232.275,192.941"/>
	<path fill="none" stroke="#040000" stroke-width="1.5" stroke-miterlimit="10" d="M282.871,169.502
		c-0.202,2.882-2.079,5.098-4.203,4.95c-2.118-0.149-3.673-2.605-3.471-5.488c0.201-2.881,2.085-5.097,4.201-4.949
		C281.524,164.164,283.074,166.62,282.871,169.502z"/>
	<path fill="none" stroke="#040000" stroke-width="1.5" stroke-miterlimit="10" d="M282.027,169.445
		c-0.153,2.244-1.625,3.973-3.277,3.857c-1.648-0.116-2.86-2.033-2.704-4.277c0.156-2.249,1.626-3.976,3.275-3.859
		C280.973,165.282,282.186,167.196,282.027,169.445z"/>
	<path fill="none" stroke="#020202" stroke-width="1.5" stroke-miterlimit="10" d="M306.154,144.902
		c-23.314,18.587-29.184-6.681-29.184-6.681c-1.165-27.45-24.108-31.87-24.108-31.87c-16.95-3.94-21.658,24.145-21.658,24.145"/>
	<path fill="none" stroke="#030000" stroke-width="1.5" stroke-miterlimit="10" d="M234.847,119.143c0,0-12.588-20.857-26.782,5.346
		c0,0-6.563,21.327-0.14,35.69c0,0,4.777,6.446,4.001,17.83"/>
	<polyline fill="none" stroke="#040000" stroke-width="1.5" stroke-miterlimit="10" points="231.382,129.254 234.847,119.143 
		235.422,117.462 	"/>
	<path fill="none" stroke="#040000" stroke-width="1.5" stroke-miterlimit="10" d="M238.067,112.939c0,0-13.498-13.724-27.909,8.005
		"/>
	<path fill="none" stroke="#040000" stroke-width="1.5" stroke-miterlimit="10" d="M288.274,138.951"/>
	<path fill="none" stroke="#040000" stroke-width="1.5" stroke-miterlimit="10" d="M227.006,108.587c0,0,18.078-19.292,40.722-2.628
		c0,0,13.58,8.438,20.402,32.48c0.05,0.169,0.097,0.341,0.144,0.512"/>
	<path fill="none" stroke="#020202" stroke-width="1.5" stroke-miterlimit="10" d="M267.7,151.644"/>
	<path fill="none" stroke="#040000" stroke-width="1.5" stroke-miterlimit="10" d="M280.609,174.254"/>
	<path fill="none" stroke="#040000" stroke-width="1.5" stroke-miterlimit="10" d="M279.138,165.164
		c-0.057,2.058,1.053,5.592,1.276,7.943"/>
	<path fill="none" stroke="#040000" stroke-width="1.5" stroke-miterlimit="10" d="M237.194,175.026c0,0,1.226-5.243,6.044-0.762
		c0,0,4.976-5.002,8.28,0.437C251.518,174.7,244.704,178.884,237.194,175.026z"/>
	<path fill="none" stroke="#030000" stroke-width="1.5" stroke-miterlimit="10" d="M237.194,175.026
		c0.986,1.846,1.482,5.703,8.692,5.066c0,0,3.783,0.059,5.632-5.392"/>
	<path fill="#040000" d="M231.55,157.595c0.029,2.386-1.053,4.331-2.417,4.351c-1.365,0.017-2.498-1.901-2.529-4.288
		c-0.032-2.383,1.051-4.331,2.417-4.349C230.386,153.292,231.519,155.21,231.55,157.595z"/>
	<path fill="none" stroke="#020202" stroke-width="1.5" stroke-miterlimit="10" d="M233.855,157.708
		c0.037,2.921-1.548,5.312-3.545,5.338c-1.993,0.025-3.641-2.324-3.681-5.243c-0.035-2.924,1.551-5.313,3.545-5.339
		C232.169,152.437,233.818,154.787,233.855,157.708z"/>
	<path fill="none" stroke="#020202" stroke-width="1.5" stroke-miterlimit="10" d="M248.578,150.828c0,0,5.721-4.803,11.178-1.998
		l2.254,1.228"/>
	<path fill="none" stroke="#020202" stroke-width="1.5" stroke-miterlimit="10" d="M236.242,151.276c0,0-5.646-4.894-11.145-2.175
		l-2.272,1.191"/>
	<path fill="none" stroke="#040000" stroke-width="1.5" stroke-miterlimit="10" d="M242.297,163.354c0,0-4.146,1.48-1.27,3.691"/>
	
		<ellipse transform="matrix(-0.0133 -0.9999 0.9999 -0.0133 100.3223 414.6472)" fill="#040000" cx="254.737" cy="157.827" rx="4.318" ry="2.473"/>
	<path fill="none" stroke="#020202" stroke-width="1.5" stroke-miterlimit="10" d="M259.521,157.902
		c0.039,2.922-1.547,5.313-3.543,5.339c-1.994,0.026-3.645-2.324-3.683-5.246c-0.035-2.922,1.552-5.311,3.547-5.338
		C257.835,152.632,259.484,154.98,259.521,157.902z"/>
	<path fill="none" stroke="#040000" stroke-width="1.5" stroke-miterlimit="10" d="M202.432,209.661"/>
	<path fill="none" stroke="#040000" stroke-width="1.5" stroke-miterlimit="10" d="M193.038,208.898"/>
	<path fill="none" stroke="#040000" stroke-width="1.5" stroke-miterlimit="10" d="M187.161,215.745"/>
	
		<line fill="none" stroke="#040000" stroke-width="1.5" stroke-miterlimit="10" x1="227.042" y1="214.555" x2="225.617" y2="220.938"/>
	<path fill="none" stroke="#040000" stroke-width="1.5" stroke-miterlimit="10" d="M214.293,206.172c0,0-2.727,5.947-4.838,11.699"
		/>
	<path fill="none" stroke="#040000" stroke-width="1.5" stroke-miterlimit="10" d="M198.212,232.309"/>
	<path fill="none" stroke="#040000" stroke-width="1.5" stroke-miterlimit="10" d="M319.531,173.226"/>
	<path fill="none" stroke="#030000" stroke-width="1.5" stroke-miterlimit="10" d="M274.982,171.792
		c-0.305-2.29-0.285,18.874,5.311,27.549"/>
	<path fill="none" stroke="#030000" stroke-width="1.5" stroke-miterlimit="10" d="M279.128,197.973"/>
	<path fill="none" stroke="#030000" stroke-width="1.5" stroke-miterlimit="10" d="M273.008,172.262"/>
	<path fill="none" stroke="#030000" stroke-width="1.5" stroke-miterlimit="10" d="M262.7,198.551"/>
	<path fill="none" stroke="#030000" stroke-width="1.5" stroke-miterlimit="10" d="M259.296,184.251"/>
	<path fill="none" stroke="#030000" stroke-width="1.5" stroke-miterlimit="10" d="M269.259,176.955c0,0,2.766,19.128,4.593,19.575"
		/>
	<path fill="none" stroke="#030000" stroke-width="1.5" stroke-miterlimit="10" d="M268.555,195.043"/>
	<path fill="none" stroke="#030000" stroke-width="1.5" stroke-miterlimit="10" d="M266.447,179.527"/>
	<path fill="none" stroke="#030000" stroke-width="1.5" stroke-miterlimit="10" d="M260.886,183.086c0,0-0.161,7.066,1.129,10.337"
		/>
	<line fill="none" stroke="#060404" stroke-width="2" stroke-miterlimit="10" x1="252.295" y1="304.988" x2="196.82" y2="205.588"/>
	<path fill="#FFFFFF" stroke="#060404" stroke-width="2" stroke-miterlimit="10" d="M196.82,205.588c0,0-84.078,105.214,55.476,99.4
		c14.072-0.588,25.448-1.062,34.516-1.438"/>
	
		<line fill="none" stroke="#060404" stroke-width="2" stroke-miterlimit="10" x1="243.539" y1="304.988" x2="299.014" y2="205.588"/>
	<path fill="#FFFFFF" stroke="#060404" stroke-width="2" stroke-miterlimit="10" d="M300.252,207.57c0,0,82.84,103.23-56.713,97.418
		c-21.41-0.894-36.58-1.524-46.873-1.954"/>
	<path fill="#FFFFFF" stroke="#060404" stroke-width="2" stroke-miterlimit="10" d="M242.629,304.988
		C98.365,333.334,242.629,304.988,242.629,304.988l55.475-99.4"/>
	<path fill="#FFFFFF" stroke="#060404" stroke-width="2" stroke-miterlimit="10" d="M298.104,205.588"/>
	
		<rect x="30.613" y="304.988" fill="#FFFFFF" stroke="#060404" stroke-width="2" stroke-miterlimit="10" width="437.536" height="28.346"/>
	
		<rect x="179.348" y="210.867" fill="#FFFFFF" stroke="#060404" stroke-width="2" stroke-miterlimit="10" width="135.186" height="94.484"/>
	<path fill="#FFFFFF" stroke="#060404" stroke-width="2" stroke-miterlimit="10" d="M343.139,265.74l2.906,39.248L343.139,265.74z"
		/>
	<path fill="#FFFFFF" stroke="#060404" stroke-width="2" stroke-miterlimit="10" d="M371.484,265.74l-3.634,39.248L371.484,265.74z"
		/>
	
		<line fill="none" stroke="#060404" stroke-width="2" stroke-miterlimit="10" x1="343.139" y1="275.189" x2="370.609" y2="275.189"/>
	
		<line fill="none" stroke="#060404" stroke-width="2" stroke-miterlimit="10" x1="344.864" y1="289.032" x2="369.326" y2="289.032"/>
	<path fill="#FFFFFF" stroke="#060404" stroke-width="2" stroke-miterlimit="10" d="M343.139,265.74h28.345
		c11.085-3.905,0-8.358,0-8.358v-4.36h-28.345"/>
	<path fill="#FFFFFF" stroke="#060404" stroke-width="2" stroke-miterlimit="10" d="M370.957,265.74h-28.346
		c-11.084-3.905,0-8.358,0-8.358v-4.36h28.346"/>
	<polyline fill="#FFFFFF" stroke="#060404" stroke-width="2" stroke-miterlimit="10" points="418.181,303.898 420.089,285.729 
		393.379,285.729 395.83,303.898 	"/>
	<path fill="#FFFFFF" stroke="#060404" stroke-width="2" stroke-miterlimit="10" d="M415.454,284.639v-27.438
		c0,0,0-2.822-1.581-5.273c-1.213-1.879-3.354-3.539-7.141-3.539c-8.722,0-8.722,8.813-8.722,8.813v27.438"/>
	
		<line fill="none" stroke="#060404" stroke-width="2" stroke-miterlimit="10" x1="406.734" y1="248.389" x2="406.734" y2="242.665"/>
	
		<line fill="none" stroke="#060404" stroke-width="2" stroke-miterlimit="10" x1="417.636" y1="248.389" x2="413.873" y2="251.928"/>
	
		<line fill="none" stroke="#060404" stroke-width="2" stroke-miterlimit="10" x1="395.342" y1="248.389" x2="399.104" y2="251.928"/>
	<line fill="none" stroke="#060404" stroke-width="2" stroke-miterlimit="10" x1="415.454" y1="261.198" x2="421.45" y2="261.198"/>
	<line fill="none" stroke="#060404" stroke-width="2" stroke-miterlimit="10" x1="415.454" y1="269.374" x2="421.45" y2="269.374"/>
	<line fill="none" stroke="#060404" stroke-width="2" stroke-miterlimit="10" x1="415.454" y1="277.551" x2="421.45" y2="277.551"/>
	
		<line fill="none" stroke="#060404" stroke-width="2" stroke-miterlimit="10" x1="392.016" y1="261.198" x2="398.012" y2="261.198"/>
	
		<line fill="none" stroke="#060404" stroke-width="2" stroke-miterlimit="10" x1="392.016" y1="269.374" x2="398.012" y2="269.374"/>
	
		<line fill="none" stroke="#060404" stroke-width="2" stroke-miterlimit="10" x1="392.016" y1="277.551" x2="398.012" y2="277.551"/>
	
		<rect x="96.025" y="262.833" fill="#FFFFFF" stroke="#060404" stroke-width="2" stroke-miterlimit="10" width="26.528" height="42.155"/>
	<line fill="none" stroke="#060404" stroke-width="2" stroke-miterlimit="10" x1="96.025" y1="273.734" x2="122.553" y2="273.734"/>
	<polyline fill="#FFFFFF" stroke="#060404" stroke-width="2" stroke-miterlimit="10" points="109.289,262.833 109.289,215.591 
		119.646,215.591 119.646,262.833 	"/>
	
		<line fill="none" stroke="#060404" stroke-width="2" stroke-miterlimit="10" x1="119.646" y1="221.405" x2="114.468" y2="221.405"/>
	
		<line fill="none" stroke="#060404" stroke-width="2" stroke-miterlimit="10" x1="119.646" y1="228.674" x2="112.741" y2="228.674"/>
	<path fill="#FFFFFF" stroke="#060404" stroke-width="2" stroke-miterlimit="10" d="M119.646,233.035"/>
	<line fill="none" stroke="#060404" stroke-width="2" stroke-miterlimit="10" x1="114.468" y1="225.04" x2="119.646" y2="225.04"/>
	
		<line fill="none" stroke="#060404" stroke-width="2" stroke-miterlimit="10" x1="119.646" y1="231.943" x2="114.468" y2="231.943"/>
	
		<line fill="none" stroke="#060404" stroke-width="2" stroke-miterlimit="10" x1="119.646" y1="239.213" x2="112.741" y2="239.213"/>
	
		<line fill="none" stroke="#060404" stroke-width="2" stroke-miterlimit="10" x1="114.468" y1="235.579" x2="119.646" y2="235.579"/>
	
		<line fill="none" stroke="#060404" stroke-width="2" stroke-miterlimit="10" x1="119.646" y1="243.572" x2="114.468" y2="243.572"/>
	
		<line fill="none" stroke="#060404" stroke-width="2" stroke-miterlimit="10" x1="119.646" y1="250.841" x2="112.741" y2="250.841"/>
	
		<line fill="none" stroke="#060404" stroke-width="2" stroke-miterlimit="10" x1="114.468" y1="247.207" x2="119.646" y2="247.207"/>
	
		<line fill="none" stroke="#060404" stroke-width="2" stroke-miterlimit="10" x1="119.646" y1="254.839" x2="114.468" y2="254.839"/>
	
		<line fill="none" stroke="#060404" stroke-width="2" stroke-miterlimit="10" x1="114.468" y1="258.475" x2="119.646" y2="258.475"/>
	<polyline fill="#FFFFFF" stroke="#060404" stroke-width="2" stroke-miterlimit="10" points="104.383,262.833 104.383,225.04 
		96.025,225.04 96.025,262.833 122.553,262.833 	"/>
	<polyline fill="none" stroke="#060404" stroke-width="3" stroke-miterlimit="10" points="97.025,237.758 92.664,237.758 
		92.664,254.839 	"/>
	<line fill="none" stroke="#060404" stroke-width="2" stroke-miterlimit="10" x1="97.025" y1="233.035" x2="105.383" y2="233.035"/>
	<path fill="#FFFFFF" stroke="#060404" stroke-width="2" stroke-miterlimit="10" d="M162.078,304.988
		c0,0,2.181-18.533-15.625-18.533h0.447c-17.807,0-15.626,18.533-15.626,18.533"/>
	
		<line fill="none" stroke="#060404" stroke-width="2" stroke-miterlimit="10" x1="146.677" y1="295.723" x2="146.677" y2="304.988"/>
	
		<line fill="none" stroke="#060404" stroke-width="2" stroke-miterlimit="10" x1="125.824" y1="304.988" x2="169.795" y2="304.988"/>
	<path fill="#FFFFFF" stroke="#060404" stroke-width="2" stroke-miterlimit="10" d="M247.55,210.867h54.494
		c-3.258-12-39.237-17.926-39.237-17.926c-5.711,8.146-10.853,11.492-15.257,12.173h-0.018c-4.404-0.681-9.547-4.026-15.258-12.173
		c0,0-35.979,5.926-39.236,17.926h54.494"/>
	
		<line fill="none" stroke="#060404" stroke-width="2" stroke-miterlimit="10" x1="342.613" y1="257.382" x2="371.484" y2="257.382"/>
	<g>
		<g>
			<path fill="#030000" d="M253.479,257.146c-0.027-3.029,2.477-4.485,2.585-4.555c-1.404-2.059-3.6-2.345-4.377-2.379
				c-1.866-0.188-3.642,1.102-4.585,1.102c-0.948,0-2.408-1.07-3.952-1.039c-2.038,0.026-3.908,1.184-4.957,2.998
				c-2.111,3.666-0.543,9.098,1.521,12.068c1.004,1.455,2.201,3.088,3.774,3.029c1.52-0.059,2.094-0.979,3.927-0.979
				c1.831,0,2.35,0.979,3.956,0.954c1.631-0.034,2.666-1.487,3.662-2.942c1.151-1.688,1.633-3.323,1.659-3.409
				C256.656,261.98,253.51,260.773,253.479,257.146z"/>
			<path fill="#030000" d="M250.46,248.246c0.839-1.012,1.401-2.42,1.248-3.822c-1.204,0.047-2.665,0.805-3.525,1.813
				c-0.775,0.9-1.458,2.338-1.271,3.709C248.251,250.047,249.627,249.261,250.46,248.246z"/>
		</g>
	</g>
</g>
</svg>
